<mxfile host="app.diagrams.net" modified="2022-10-20T20:36:06.590Z" agent="5.0 (Windows NT 10.0; Win64; x64) AppleWebKit/537.36 (KHTML, like Gecko) Chrome/106.0.0.0 Safari/537.36" etag="e71m7Au0XwwULhgidqmv" version="20.4.2" type="github">
  <diagram id="M5kwwgcHigoK3qZpk1Vm" name="Seite-1">
    <mxGraphModel dx="1662" dy="794" grid="1" gridSize="10" guides="1" tooltips="1" connect="1" arrows="1" fold="1" page="1" pageScale="1" pageWidth="827" pageHeight="1169" math="0" shadow="0">
      <root>
        <mxCell id="0" />
        <mxCell id="1" parent="0" />
        <mxCell id="hUyvxh-QdmBpuI1MM9Y--1" value="" style="shape=image;verticalLabelPosition=bottom;labelBackgroundColor=default;verticalAlign=top;aspect=fixed;imageAspect=0;image=data:image/png,iVBORw0KGgoAAAANSUhEUgAAA40AAAPRCAYAAABZGE21AAAAAXNSR0IArs4c6QAAAARnQU1BAACxjwv8YQUAAAAJcEhZcwAAFxEAABcRAcom8z8AAP+lSURBVHhe7N0HmG1FmTbsGUcd9dMZ4zgzhjFjBskccoYPkAwKfoCCgATJOUiQIDkjOUtGyZIlSVQEGZCohB8UdcxhdMb1r7vswk2f7j6pd/fe3c9zXXWdPnuvvVatWrXeep831d8FQRCMIT7Ytsvb1qSlpaWlpaWlpfVNC4IgGDMU0vj2t7+9WXnllZv1118/LS0tbVTb5z73uWaTTTZpNt9882azzTZrNtpoo2GP+8IXvtBstdVWzbbbbjtk23rrrcs5Ntxwwxd/52+f+W6o32jO6dyu0XnNtLS0tH5qa665ZvPe9743pDEIgjFHIY1LLrlkc9NNNzX/3//3/6WlpaWNWnvuuefKv08//XTzwx/+sPnRj37UPPPMMy9+3tmeffbZ5qmnnmoef/zx5pFHHmkefvjhqdqjjz5azuF459D8zmd+94Mf/GDY3zl3/V3nddPS0tL6pX33u99t1lhjjZDGIAjGHIU0rrLKKs3zzz/fBEEQdANPPPFEc/PNNzf33HNP85vf/Gbg06nxwAMPNGeccUaz7777Nrvttluzyy67vKQdeeSRzZ133tn87//+78AvmubPf/5zc9dddzUnnnhis9deezW77rrrVL/76le/Ws4dBEHQz/jjH//YfP7znw9pDIJgzFFI4worrFAs9EEQBKMNXkNkT2jVDjvs0HzrW98a+Oal4ClEFueff/7m3e9+d/OBD3yg+fCHP/ySttBCCzU77rhjc+uttzb/8z//U373ve99r9l+++2bT3ziE+V3s80220t+86EPfahZYoklyrm/853vvIRwBkEQ9BN+/OMfN+utt15IYxAEY45CGv/v//2/zX/+538OiKQgCILRAa/ijTfe2Gy33XbNsssuW/IPL7nkkuZXv/rVwBF/w/3339988YtfbBZZZJFCMA866KDmpJNOeknbY489mi222KI59thjS8jp73//+0Ig5SouuuiizaabbtocfvjhL/kNL+NOO+1U8hpPO+20EibLWh8EQdBvEKL6//7f/wtpDIJgzBHSGARBV/CnP/2pELSLLrqo2X333UsBHF7CU089tRDEP/zhDwNH/hU8horWsKJfcMEFwxLL/fbbr4ShXnfddc0LL7xQSKMiOxtvvHFz7bXXDkkIHbPnnns2+++/fwmT/cUvfjHwTRAEQf8gpDEIgvFCSGMQBF3Br3/96+b2229vTj/99Oa4444r7eijjy4exPPPP3+qPGqEEGnkZUQ0h8p9FMJ6xBFHFAJ48cUXlwI7CCHvowqt119/fclxHAzFIw444IBm7733bq644ormJz/5ycA3QRAE/YOQxiAIxgshjUEQdAVIIXKIKF522WUln/Caa64pnkLEcbDMqZ7GDTbYoPnGN77R/Pd///fAN3+DYjYK5Dju61//eqmEWkmj0NTh8iV5F/1m5513bq6++urmZz/72cA3QRAE/YOQxiAIxgshjUEQdAWPPfZY8S7KMbz33ntL2KhtL+QjKkpzxx13vKQoDUKooM2nPvWpcgzPI+Kp8INma42zzz675EXKUeTFrN5MpJEideaZZ5YtNupvNJVb9YMH03V5HX/3u98NXDUIgqB/ENIYBMF4IaQxCIJRBy8hciaUVDGan/70pwPfNMWLeMghh5T8w1/+8pfNX/7yl/I5sif3ceGFFy5VUldeeeVCIGtba621GtsDIYhyHhHCut2GAjqqriqGs9pqq73kd/6vIaRXXXVV8TLWyqtBEAT9hJDGIAjGCyGNQRCMOpBBYaDbbLNNaSqm8izecMMNxduH+J1yyiklR7HC1hxyFeeee+7mP/7jP4bccgNptI8jr2PF3XffXSqjfuxjHyu/G7zlhvaZz3ymhLN2ktcgCIJ+Q0hjEATjhZDGIAhGHc8880xz/PHHF4/hO9/5zmauueZqpkyZ0sw333zN+973vkLw5Bh2hqg+9NBDJex0xRVXbLbccsuyVca5557bnHfeeS82hW4Uv+kMaxWeqnrqSiutVKqznnzyyS/5jbzKW265pXgmgyAI+hkhjUEQjBdCGoMgGFXYO5FH0d6Miy++eCGL/l1sscXKv0svvXSz1FJLlYI355xzTvPzn/+8/O773/9++Y3cQ5VRf/vb35bPpwXFbxTBUT3VdYeqnhoEQTARENIYBMF4IaQxCIJRhdDRQw89tISE2k9RmKr8xvvuu69USFXwBlnkTdxnn31KwRs5hkjjDjvs8OI+jUJcpwcqoyKN9mlUnXXw/o9BEAQTBSGNQRCMF0IagyAYNfDyIYFyDNdYY40SGloL3XRCKOouu+xSCtgglaqgPvjgg2VLDGTzrLPOKttpDPXbwaikUVVVW3tUz2UQBMFEQ0hjEATjhZDGIAhGDQrN2Dz/85//fPO5z32u+eY3vznwzUvxgx/8oDnwwAML2bOPIy+jfRzlJK699trN6aefXpSj6SGNN910UyGMPJQqs2YPxiAIJipCGoMgGC+ENAZBMGrgLbTNhnxFm/AjgkOB4sObiOx99rOfLQVr5CZuvfXWzaqrrloqqwpznR7SqDgOJQrZvOiii0IagyCYsAhpDIJgvBDSGATBqIEc4SWU02iLCwrOUFDk5p577ikb/wtJRfb83yb8e++9d/FQ8lpOD2mUL/mVr3yl2W+//Zpbb721+dWvfjXwTRAEwcRCSGMQBOOFkMYgCEYNCNuPfvSj5oknnmheeOGFssn/ULBlhjzGJ598soSm2qLjF7/4RfPDH/6w7Nc40m8HQ8Gcxx57rHn00UdLPmOqpwZBMFER0hgEwXghpDEIgiAIgqAPENIYBMF4IaQxCIIgCIKgDxDSGATBeCGkMQiCIAiCoA8Q0hgEwXghpDF4ETZYl0f2+9//vvnNb35TcsX+67/+qxQk+clPftI8//zzZcGSf/bUU0+V/DO5a48//njJKZOLZiuFhx9+uOzDp5lXmqqa2uC/tXqs3/m988hPc17ndx3Xe/rpp0tFTf3QH/2Sw6af+qvf+u8+giAIKgbLNrm3MyPbtG7KNnuTDiXbfve735X+J183CGkMgmC8ENIYNH/84x+LkqIoyQMPPNB8+9vfbq677rrm0ksvbb72ta+V7Q+OOeaY5uCDD2723XffspXC9ttv32y55ZbNJptsUrZMsCG7LQ9WX331ZuWVV25WXHHFxrxadtllm2WWWaZZaqmlSlt66aVf/Nvnvl9++eXL8X7n986z7rrrlvNuvPHG5Trbbbdds+uuuzb77LNP6Ye9/U4++eTSP3vzXXvttaXfNpavRVj+8Ic/DNxhEASTEYhWlW0KLt1xxx1li5bLLrusOffcc5tTTz21OfbYY5tDDjmkyLbdd9+9yLYvfvGLRbbZa7RTtq2yyiqjIttsSUO2bbHFFi+RbQcddNCLsu2cc84pFYjJtttvv73INmQTqUR+g8mJkMYgCMYLIY0TFJQlVmoWdNZs1m5bEyBWN954Y3PVVVcVsmV/PFskHH/88WV/PUpLVZ5stG7fvM0226xs1k7RofCstdZazWqrrdZ88pOfLMpTVZwWX3zxZpFFFmkWWmihZsqUKc0CCyzQzDfffM28887bzDPPPKUN/tv3888/fzne7/zeeZZccslyXud3HXv3ue4666xT+rHRRhs1X/jCF5qtttqq2WGHHQqRpXTZesF9uJ/TTjutKIbu0/26b/dvHMx3iiTLvqqdiHMQBL2PKtt+/OMfF9nGi+edRghvuumm5uqrry4GryrbvvrVr063bEPqOmUb4jeasm2xxRZ7iWxbaaWVXiLb1l9//RFlmy1qOmUbUnnllVc2N9xwQyGW9kUl2xjOyDbe1BjPJhZCGoMgGC+ENE4wID+UKR5DJOmCCy4oSpM97Fi0Wc5ZyykwVcFZeOGFixLj809/+tPlGMrUNtts0+yyyy7NXnvt1ey///5l772jjjqqnI/30ebsFJcLL7ywKC+s9xQYe+yxjrPo6wNFzsbtg5vPfU/hcbzf+b3zOJ/zOr/r8AiccMIJxQqvHwcccEDpl/5tu+22pb/6TfGihFH23FdV5PzN2k85dPyXv/zlsifg+eefX/r5ve99ryhZUbCCoDdRZRuPIdlhb08ygWziHdxwww3Lu7/ooou+KNuQNR5A7/6nPvWpEr2AkJFt9gf90pe+VH7P09gp284888whZRtCOrOyjeHq8ssvL+fT92nJNt5HsmrzzTcv91Zl23LLLVfkN9k299xzl3tEPhFORBjBFBmCNIsYue+++0roa7yTEwMhjUEQjBdCGvsQrOy8ZKzrlJKLL764KDqs0Czpe+yxR1GIKFKUCCFQQq0oHhQLygfLNqv6euutV5QoFm3KBqWF4kSZodhQdChAd955ZyFWrPqs+wjWz372s7LXHmVutPMI7ePnvM7vOq5n/z95QfqhP5QzSpz711+K12GHHVbugyfBfbk/91kt+f5vHIwHZYw13zgZL+Nm/Iyj8DD3TzlkvWe555EMgqB7kGtIviA65M4ll1xSvGo8hQw93lGGIvJqKNlWIyE0ivWmm25a3u+99967EENeOoTQu40EugYPpeuRbTX6oMo2RqRuyDbeUueXt1hlm3xHIahVtiGa7v/ss89uTjzxxCLbyKeddtqpGMkYwMi2Nddcsxj73D/DmbDXwbKNd5VcdA6yDRlGKO+5554S8sojGfQHQhqDIBgvhDT2KKpioQAC5cKizlrMg3jNNdeUsCvhSryHcm54ClnWZ5999hI6JbyKVZ2lmqLBik35YOm+5ZZbynkoSLWwjBxAipLrIKWu+dvf/rZcn+KkL3/6059KIQZ9+8tf/jLQ07GB67kuBU4/9Ee/WM/1U3/1W//dh/upxS0ooe731ltvba644oqSKySPiRJava88EQsuuGAzxxxzFOu9kDQkk0fiwAMPLIorJY5yqWgFZY+CWwtUpPhOEEwfqmzz7npvGWO8p95RRAapk7eM8FCORQ1U2SbkU45gp1eNh5DRiDfw5ptvfjGvubNo1mDZVovLkCGMU/0m23hckU2yjef1tttuKyRYjrcIisHe1yrb5pprriLbkEyk0nEMjoyDjJCK8nTKtm4YBINZQ0hjEATjhZDGHgSFRoU9VnBKAAWKZV2uC2WpFohhbVYkhvJULcrCmljUqzUZwZTHp6JfVQgoJZMRlEKKF9JnvrPoCx3jdaA48bJSQnkykEnjanyNs/FGLqun0ngj7ZRV3l4eUIpWEATDAxHh2ULuhE9653jO5BV6t6psEyVQZZt3sco2svCkk04qYfeMOGQb0sRTN9llG/Kt+qv89bvuuqsQcFEYwl9rBAbZRnZ1yrZa8Kd6Khkahcgi787hfEhr0BsIaQyCYLwQ0jiOYMFFNFiMlXVnaecFRGJYi+XbUJ5qng4r+xJLLFFCsChawijlxSCXQqtYoVmqx9pSPlFg3CqxRAKFiMl5PPLII4uyZaFWxMJzkFMkB5SCK2RODhGS7jeeo+fpuVK2YqkPJht4znjIePqQREYrnn7hlkJEhYsiLCqKKg7jnVJshgeMgQzJYTBjkLE28a5V2Rb5NuMwZuQQYskgaZ0hr0SgyJ1EGOV+Ktwj/1ukCiKvCA9PLjloneHF9XvExbnIy2BsEdIYBMF4IaRxnGARF1rE0yUXj6IkHNKzEH7lb0oVsiKESDil8FJVASlS9957byE2QrBCTEYflF6E3gIt10heI6VJCJzwVqRe2KrnI38IkVeMwvOj+PKOOIY3hNKc5xNMJvDmk1O8ggxcQuirbFOQhjHM52QbgwuPvSrHfiPPjhGM1wwxybszurD2IPSMWggg2cbYRbYh6kg92YYwyhn17Go1WTmUvJSemXBYv0fmg7FDSGMQBOOFkMYxAi8gRaha2xHFSjooUAo3rLDCCmVxVuBA4QIhpsJLPZuEB/UWKF1IO9Iv/ItXWGiX5+c5ep7CvoTVCfVSXIgHWVie52nvuCCYCKieeXl1KoMq2mJ7Cx4shi8kEVmsuYg+J//k0fFA+n3QO5AewVCGwMvlFhYsNUJkBV1hjTXWKBEWio0h/YxjwoURT89TDmm8wd1DSGMQBOOFkMYuwsJZc3goSPJ3EAmhpp/4xCdKOJDF16LMIq9IjTw7OSS8kIod8HZN1jydXgcLu+dDSfK8GAXkEim2g/DLIVK9USEPz1tpfMoXhdqzppgpdBEFK+g3mLMKtSg4w7CluimCKMTUXBfGba7vueeehSCKkFCllGxTgEvYKkNYZFtvQtgpwxjZJl+UbOMBto4xkiki5nkvv/zy5XkrtMPYyRDKY8yI4PeRbaOPkMYgCMYLIY1dAALBSqvCqdwd4TxCGGtpeAUfkAnfCTnlffKbKFATA8ikokO8ysK9VK+lYHnuvJHmgf+rXshgoAiPghMU8ChZQS9D2KkwbUVSzGuyzVwmz6psM7+RRcc41rxWDTTofwgVFjasAJFCRjyNnn8t0NYp28wBxlBGBWGsCTMeHYQ0BkEwXghpnEXIfWNxV7mPQmUxRRaF7ijyoMADDxNlihVWiKJqf8JVean8NsVrJh48T8/V8/WcheB5x4TvqQBJwVJwwgbdwr7kQCKPQvwQTvODl9r8CoLxQPUmkm2IAi86Iiik3t6AiqZMmTKl5PPut99+pViKPVSFXpvz5i9DWObwxEKnbONNJNt4InmTRdMooCOaxjYpwvVtWyRkWfEdxlHzw9wIiZw5hDQGQTBeCGmcRSCKLKlCDhGB1VZbrQh0eYqK21Cm5LNZUBUcEJYVTF4I97LXo/BUihRLPQND9USqlMtqLw/y6quvLkpWEIwHFNm6/vrrSyVTXkSyTVGUKtuEKCqawhCiMBdlNpi8QAZVV1Ugh4eRDFPsSJQNmUa2WRt5qIXwS9uIsXTGEdIYBMF4IaRxBsFyzupuWwVkESG0MCoOYFN9W2IIzZH3wTLP4h4Ew0HRCQr3GWecUfZHs/E2Dw4FHZlUNVceEWWMBzJhfkG3wHuEKIqEUOCJUYNXUSEbss3WGAgAQiCiQmXTIBgOvIkMZFIwyLJlllmmyLaVV165RFbYygN55J2WN+n4YNoIaQyCYLwQ0jgDYBVFFlnX5fDYYsECqOAD66mwVETyu9/9bvFAZhEMpgfCvCjrFCy5jUIAeagVSRK6quqkvylZvNXZGy3oBhSpQRQRQ2GFmhxcBZ0YwWwfw8DBeKGAUxBMC4xcSA5iyGuNQErTsH7yPKo0bf3kzb777ruT1z8dCGkMgmC8ENI4DVjEar4Gr6KN3IVq8SyywAvTYnlHFLPgBaMBpJBnkaLOi23fR/mxFHh7pylxLySQRyiex2BmYZ6p4FtDpRUukY9GttmPj+ebzKPMZ54FowGGV7qGyApebPsRk20qr/q//R9tSUX+xeg6NEIagyAYL4Q0DgOhWsKvhJgqJ88qKrSGZZQiz6uohHwtWvLHP/5x4JdBMOtggDCvagESFnqEkffHPPSvPNrbb7+9HGe+BsH0AFm03QWvNSUdSTSnlltuuWIEY6wwr4QMylMLYQxGE2RVLa5kGw8VphljrbEKx1lj5UOqPm3+OT65j39DSGMQBOOFkMYhYB8xC5mN2RW3YQVVpETY1uGHH17CbCx4QTBWeO6558rm2UcffXSz5ZZblvloXmoUfSGtytoHwUhg5LIRuw32O2Wb4jaHHHJIyWV0TBCMFexHjCCKoPjiF7/4Etkm9/G0004r0T7BXxHSGATBeCGkcQBydOSVKfBgM2oL19xzz11Kh1OwVIRTyVL+WUqFB+MB8878qxV7v/SlL5VN1Oeaa64SwqpoDuWLQUOBnSAAYX4UTR7rk08+uYQ52w7Bli8MDpdddlnZS9FxkW3BeMC849GuFXvVCFA4Z84552zWWmutks9tP2MGDdt8TGaENAZBMF4IaWwhtNRCpcKbsD/FR3gVLVznnHNOyemxF1UQ9ApqeGHdYHuLLbYoFVcVzZGLZruOFCsJhPbxUDN8Kdql8SruvffexTstxF54cxD0CpBCRcF4xIWp8j4KoRa26m9GjslclTykMQiC8cKkJY1yJKr1/dxzzy2Ecdllly2eRUqVwjfZUzHoB1D6ecIpVLZFsG2HsK6zzjqrufPOO4tnMhusTy6QXYxdNtxHGJdffvlmkUUWKYVuLrrooiL7gqDXIfdRVAV5tvjii5fIiq233rrUFBAVJO92slWTDmkMgmC8MGlJozAXlnahWgpA2LSaZ1HlNttqWKyCoF/AE66a6je+8Y3ieRRezQjiXyGJwg+DyQEhfnKybWVAtgld3muvvZoLL7yweHAUFwmCfoGoCtvBqPL7la98peTi1jXb9lcqAE8mo1hIYxAE44VJRxp5XWyWTrGWaC8c1SIkH0yZ73hkgn6Hd9kWCkiD+U3BsNce77kiT8HEBGWSV8Y+eIxhnv3666/fHHnkkdnfM5gQ+MEPflCq+26yySZlfq+77rolt5ux9/HHHx84amIjpDEIgvHCpCGNCoiwSFpwqgUeaVSxjULFs5htC4KJAOSA59GG2vYQ7Zzv9t3zrst3TBn7iQEFRB577LESOWHTdKGoPMwq7drSIFuyBBMFCubwPIqqUFUVeTTfkSiGX1FCE122hTQGQTBemBSkUX6PvEULjEIhFCqFIGyQPlmsk8HkhIq/wrq+/OUvF4+6+Y9E2lw728b0P1544YWSo6hwl2crZM8m/RdffHExkgXBRIWoIbnciuVsuOGGZf7zsJ9yyilF7k1UhDQGQTBemNCkkcVROIuCIISsLTRURuVtzF5kwWSCPDeVgNdcc83yHnzqU58q74FcoWzP0X8QOcHgxRhWt9CgNNsuKPmrwWQCo7B8Xbm7ZJtKq8LzeR0n4vYcIY1BEIwXJixplJt4yy23FKu7RWTttdcuuQ9XXHFFCGMwKYE4fvOb3ywFnyhYq6++eqmseeONNyZ8sc9gqwx5qowA9rHbbbfdSs7qRPawBMFwQByvu+66UqtgnXXWKdsP2YNUjq/w7YmEkMYgCMYLE5I0KvahiuT2229fCKOwPLlc8n6CYLJDmXpeRiFdiOM222xTQhx5rpLn2Ntg8GL42nnnnYtsozwec8wxzcMPPzxwRBBMXgi5F3q/8cYbF+JoGyLeeKHa8iEnAkIagyAYL0wo0si7KDTrqKOOKguG++JdvOGGG5of//jHE2bRCIJZgffkJz/5SfHE8zqutNJKZdP3Qw89tHn00UfznvQgkHmEkfGLd1FhI15inuPnnnsulVGDoIX3RJ7v7bffXnIdyTXyzd90nInwnoQ0BkEwXpgwpFEIym233VYUKfvTWSjsTSaMK6F3QTA1kEfVNRXJoVwtvfTSzY477ljCVX/3u98NHBWMN/77v/+7ufPOO4sBTKVI8lo46q233jrhQu+CYLRgT1L7OjIgL7XUUs22227bXHvttX2f5xjSGATBeGFCkEYFb1gW5TAoCMEKb6sBXscQxiAYHizvwlWFdCmkMtdcc5WQrm9961vNr371q4GjgvEC8n7XXXcVkjjffPMV5dfWAjzCkW1BMDxETAhXFZ666qqrFtlmSxq5j7Yk6leENAZBMF7oe9JozybJ7ltssUWz5JJLlpLz8rUowkEQTB8oV6oM2wx+iSWWKDlBl112WdnjLxgf8IgIrd9qq60KWVTxVlXIbBMUBNMPRXLOO++8stXQ4osvXnK5bUkjjLUfEdIYBMF4oa9J4y9+8YtSFIJnhFJF0ZXjk9C6IJhxCHVEUuz55336whe+UPYyRRxTIGdswctLlgmpEzZsWw0kPtujBMGMQ4i3cG4GGO8TAnnBBReUWgf9JttCGoMgGC/0LWn8+c9/Xjb2RRSFowpNVdiD5zEIgpkD75Y8YOGQ8ueQFcRR4ZxgbECGyb3abLPNimxT3RaZJ/OCIJg5SGORw63WwQorrNCst956zfnnn18KSfUTQhqDIBgv9CVplI9w+eWXF0+IviveoQhOEASjg7vvvrvZfffdi3LFKm9LjoSqdh8IIw/jlltuWWQbT+NNN90UT28QjBIUyNl7771LDvcGG2xQch5/+tOfDnzb+whpDIJgvNB3pFHYlhxGShUr/E477VQWgd///vcDRwRBMKsQqkom1Iqdm2yySQkF7+cCEr0OnhCVaxFFFaDtM8szknD7IBg9CFW1b6Oq0XQf0RSXXnpp3xDHkMYgCMYLfUUaKbJCUIVtyUugVMXDGATdg8qdtrFZZpllisdR5cGQmNEHRVZYcM25kqd98803l21RgiAYfXz3u98tRjEGms9+9rMl3YXhptcR0hgEwXihb0hj3atsl112aRZbbLGiwNpmIxuRB0H3gLTce++9pTrxoosuWrxgDDfx7I8eyDBjvOeee5bqjkLmhKRGtgVB90C2PfDAAyVnmGwTvdQPe9SGNAZBMF7oG9KozLxQVHuV2VZDJcF+sAoGQb+Dh19IuDAu7x9vWL+Es/cDnn766UIYF1hggWbttdcu+aPZIzMIug97nSKKCurNO++8JYrp/vvvH/i2NxHSGATBeKEvSKPKjfZetH8cL+OZZ56Z0vNBMIbgWbzwwgtL6OQiiyzSHHfccX1XdbAXobjQ2WefXcJ/F1544eakk05KBeggGEP88Y9/bL7xjW+U3O0FF1ywOeKII4ohp1cR0hgEwXihL0ijXAPexU9+8pPNoYce2jz22GMD3wRBMFZ46qmnmqOPPrpZddVVy0bzl1xyycA3wczi+uuvL+GoKjkeeOCBzcMPPzzwTRAEY4Vnn322+epXv9qsvvrqzZprrlkqqvZqPnFIYxAE44WeJo3C4hDEPfbYo3g4hHA9+uijzZ///OeBI4IgGCtQop588snmgAMOKJ4x4eJITvIbZxxytJ944olSwZFs23nnnZuHHnqohMsFQTC2sKXNj370o+aQQw4psm3rrbcu+Y69mAIT0hgEwXihp0kjwsizse666zabb7552b8sxSGCYPyAOCrSQqlaZ511msMOO6yQnWDGQEHl2bDB+KabblpytGMMC4LxA9mmGvt2223XfPrTn24OOuigQhx7DSGNQRCMF3qWNFKg5BkI2xIOJ59KbmMQBOMLeXiXX355s9Zaa5U8oPPOO694zoLpA8MXAxi5ttJKKzVf+9rXkh8aBD0A+9B6NxmqeRxPP/30EvHUSwhpDIJgvNCTpJHFT7XUvffeu5l//vlLtcZnnnlm4NsgCMYbL7zwQgmp9H7ax/EHP/hBogCmA8LgfvjDH5b8RdVSeRmFqQZB0BtAHO3fSLbZYuj73/9+T0UBhDQGQTBe6EnS+Itf/KI555xzmvXXX78UwGGJjycjCHoHyM/FF1/84jvKIv/Tn/504NtgOPz6179uLrjggrJ9iRC40047ref3hQuCyQaRFPUdPfHEE5vnn39+4JvxR0hjEATjhZ4kjQ8++GDZL0m11BNOOKFY4nu1klkQTFbwmCE9q6yySvP5z3+++c53vlPIZDA8FPKSDyrs/qijjmoeeeSReGiDoMdgyw2Ga9VUGca+/e1v94xsC2kMgmC80HOk0f6Ll156abPCCiuU0td33HFHKgoGQQ/Ce3nfffeVgjjLLrtsc/7552dT+hHAoyhfCsleeeWVS0GhRFAEQe9BOKoCX5/97GebpZZaqjnjjDNKBFQvIKQxCILxQk+RRt5E/VC1jFIlZyq5jEHQu1CcylY4ogL222+/5v77708V0CHASyHv08bhSKNcKXnbQRD0JpBEMo1sk+N477339oQBO6QxCILxQk+RRlZ33gq5BLbYsHl4r1j3giCYGnL05P8oVmWTehb5XtzbbLyBSJNnwngVv5HXmBzQIOhd2H9WZIAtOISonnTSSc0vf/nLgW/HDyGNQRCMF3qKNBLSNvKfMmVK2fRaXkFCU4Ogd+H9tF2ETbEXXHDBZvvtty/VB4OXwjjxWpBtu+++e/Pkk08mNDUIehhyjX/84x+XvaIXXnjhYsj2//FGSGMQBOOFniGNQlOfffbZZqONNmo+8YlPFKteMH0Q+kYBpaxbUH7+85/PVIig38hJQwKEHY60P5XnZb8+xVAcz7v0xz/+sfTBc/TdcH2wGPMgU5xtcj7ZPFPGjofOs6KE9No+YDODs88+u5l77rnL/maPPfZYirt0wPP2PlE6Z5999lIAp19DeN0L+eK9N3+9uz7rFswj3h3vCc+svNDRKkji3Prv3KpjTksOkY1PPfVUSZnwN5nb+R6Tf0NBf52bEZTMI/t6pajKWMC9em7G2FipW9BPECFg+w1FcRTpG2/ZZgxDGoMgGA/0DGm0+N5yyy0lDERlwSuuuGLgm2BasIghbtdee22pNnvllVfOVFiv39x5553NySef3Jx77rlFQRoOFKQbb7yxOeaYY5oLL7ywEAV9uO6664pl9rLLLhu2D0jSPffc0xx55JHNV7/61VJRcjKBR11+zPHHH9+ceeaZRQHvd1x//fUlV0+JenNgZubfRAUlWUEvBrHll1++ueiiiwa+6T/wmJLT3nsywrvbTaMHsnHbbbc1Z511VvONb3yjefjhh0ct+gSRQwIYPFQBfuCBBwa+GRrf+973iny1vYzcXUTxrrvuKu+xcwyXf89AQD6Sq4cffnj5zWQyqnhe5olxI++NXT+R5ttvv70U5VtjjTXK2spoMp4IaQyCYLww6qTRIm8xRQJnBDxOFu4NN9yw5BDcfffdA98E0wKlxKJMobFVyXHHHTdTVSw9t69//eslP22vvfYq2wEMB1Z2ijDSc9VVV5Xnx4puTysV5yhHw+1txTNBQfO87cE5EUjTjADhvuGGG5ovfvGLpcAChbLfQaHeaaedyrM3BybCPQ1GlW0zmteETCA98hm9W7feeuvAN/0Hyj7Z7L2Xy+rdHc7DNhpgYEEW99577+bYY48t1XpHy7PJsPGtb32r2WWXXcqaM63nopomomx/UuSV8k5ebrLJJs1uu+1Wvh8ODHDy9U899dTyrnTTO9trcK+IorBs280gYf0Ez1Xf5WwzlihoNZ4IaQyCYLww6qTRnoqKPEggF6I4vRZFnpd99923LMDCt8bS+6SPrKGIkIaEjbSosxLX4/070j06tp63Hj/UuZ1Dc7zrD9UH/++8bv3eb1RiPOWUU4pSijTy+jlGc67peQ4UYtudyEvbZ599CrHz26HO4W9KlwWsho1RjoUVI/6eofNV1Hur98eoIIxVPymGnXCse3PcSGNW4Zz1Xv3t9519HQn12Dq29Ryd8H3tizb4e6jn0Qaj8zvNuPHEKoiCaH33u9+d6v7qPc3I/Y/Uv26DwcC8c0+qqdrXbKIBQeJVFwVhbg/1rIcChfmAAw5oNt544+awww6bZVlb59GMzJE6v+scGep9rm0o+Nw5NKTZe//CCy+Ud7fzup3XqX0a6dydxw/VL+HuiJpK2qpq83LyEA4+V+f7Ofgcw8F76Hzmq/dQ5ITf6k/teyd4jMkrz14feJyQxi984QvlHIPJhN97RppxYkQj88i+wf1zbOe1/Wa4e6hjpvmN/zt2eu65Htd5vcHj5W+fdY7nYNTzdP6uovM7zb2TB9YVY3XNNdeU63b+tt6T6/l3JBlW+z6jz3tmIazYusYgyzhw8803d/V600JIYxAE44VRJ40WYSFqtsxgnUMgp8cyJ7SSUK5VUzsJRzfBSi78CWHdZpttSin8Aw88sLn66quLUtQJC9n3v//9Yi1mnXasexSOhzQNhsVGSA4rtnP716LDQl+LhVgAkS7hmsZKaCcvHQJooa35HxQ1RJzF3bmQOhZ4C4hzIGyUK/2hXPHgHXzwwc2OO+7YHHrooeUep5VLYsxdw1jwNPImIAIUNtcTmiM3q4ISzetg7jAQ1Pv1HHkFahgPJYB1nYWekuVvlneGAoTJcULc/F7oFs8l5Vz4KmXOWKvKyeLbqcB4Hs4l5Ml9GhthYsaXYqJfQyloFcbdGCNwxss9OocxqPlNjjEXKP2eN8XHs+FZrXB/vLLmsPPV0EzX9TfSQCE1dyid9udD7uUALrTQQsXb6L6rx8Y4eJZ1jumTZz3Yc+v8jCuOpbTWOWasfK5fYwXjVKuoIkf+nmgQuk1ZEz7vnTDuwhu9fyOBN2vLLbcshJq3yTs7o/Csvb9kKXljfJ3LvPTMzRVz2NwZDLKBbPEu1TlCxnlHvM9kF8+wfooe6Ay/c2+IjvBj3zu/ue+9N5/Jsfp+VWOId9G83X///QvBtiaY/+Zk51gZB6G6g/vlPdIvMs81rQkLLLBAs/jii5djna8zkoLs9DvXdA7eIO9hfYeHg/46jnwkNxED746/yWnjyQhaQT6SWbyd/rY+1DlPdnR61xnx3Ds5ZkzJO+PlPScDvOvukfzzHKx5IkVc2/i5B8cOvgf9sen8rrvuWvoo5FUfyEx98x4OR7jIQter/bI+OMd555334nprLvAEkr3GUmPo6Azd9bzNCc9U65zP+us5k3Gei3t1TWuKYjJk3hZbbFHmcF0DPQcytq5t+sQzP1S0gvPpv7nlWI2B0r0PtQaPBvRT/4yFEHNzdlrvfDcR0hgEwXhh1EmjsDuK8Gte85rmda97XVnoKTYWIossxacqGZ0giOUNUK4cO60FfzTASum+VTVUfOe9731v8573vKckve+www6lH47RX2Slhl9KiP/Qhz5UjtcoDY6t90ZZJ9gpHfK83v3ud5fj3vWudzXvfOc7i/JIWalWUmTIwoxoq67oefC4UkopFiy1zk8xnG+++cq59NcxldxSSigTxo81F7lZYYUVyrEWasqIxXukUDLnQQwpZkLpKC82bv/whz/cfPCDHyzXs9gjeM5j8UZWKDuUZwoNoknJ85nF1nEIFeVGnygGruE8/jY3/JYSyIKrn5/61KdKbqvxMM5vf/vby5g4h3G1YFOM3DPlaplllin36bkJIbJli/7rC+VmuAXes//KV75SPKNrr712M8ccc5QKoBQmShSllQJLyZlnnnnK3PiP//iPkpdGqXGMfpirFDdKBUXMPAHf+Vs/KHmej2sitvr85je/ufnXf/3XZrXVVivzH/HWkGv3Ydzd18c+9rGirBhv4+S8mrmBODhWgRXHmmtyb1yTgj/Uu9YNUNgQCWPgfozPRAPDyxJLLFFk2//5P/+nyDlkwbw1F4aTbYiU+eW9RIJmNHQfnNc1PG/nEQZsjpOv5Ip55H1hXDBvq8wy/5ECBYre//73vzhHzHUKdyWC5LZ78T4iNxXmNgJA9iBmnjGZw9DBMER2kWNkgnHQJ++rdwXRI4/IESTbe+9Yc9d7jList956L+kXuYb86Rfy4V3xvr3xjW8s7ws54D0iq8hZMoeRbN55533xHMaEbEEkyJ/h3gHvErmqUrf3y3UZPOaaa67Sf/OYDCfH9JnRwFqhUjAiaNzck3H0ub7oE2Lj3rzz7tv4I7qMgeRbJb0MXuSFZ/OZz3ymyL0555yzecc73lHGzjmNr2uTYfrhXOaSMfMMGWiNOXlpDRlsWOuEMUeMyXHXcw3n0EfGCO+wMWMwXHTRRctYatYcxBoRdn/O7/4ruUZuK8gkstB35od7RIpd79///d/Lc3RueaDkd51f5IZ1yjOcbbbZyhqLwDOUuZ77935ZN4w3We9Ybckllyz9q2M12jC3rZ2e56qrrlrGsBvXmV6ENAZBMF4YddJI4eBpoji0525e/epXNx//+Mdf3KyfxXuoggE8VIS/nAcL2FgIZYu8BcA1LUSUARZMhJGSRPF1jEWDV40CgVA5nuXUgk/ZoFz4nFJp4aU0UGyQQwo9YmVRs8BSDChKPHh1EeaJsmgiJjYStvhT/lh3kQhKBsXIQuxf53I94+xYyppjeSktyMsuu2y5FzmD7sMCbNG2UI+0sFJKKDvIJoVCfy3cxoRig4xQZCygldxQCo2Dz9wPsuKzuuBTGvyt366PhOkDZQu5pFB+5zvfKQoBZWO55ZZr3ve+9xUix4NIUaUYuSdKnXt1LOXEGHluFCZzy8bplFn9Nw6uSTEZTmnkMXCP5qZF2PmRXYTe73hXPDvfyT+kUBt3xg3PtRJHCqBx02dbxlB2wTj727Om6DM4IJHGynGUW+8eS7n3zzWRAvPPfDDW7h9pNWcoLcaPN4E3yFggvcbAfZsXFH/XciwvgLk7FnCv3hXPwX2554kGcsm7j6SRbf/4j//YfOQjHymeR8+MfBgqP5fxZ+mlly7vK/k4s7LN+8RIstRSS5X3wRzyzpML5IbPPH/zGlnyjjJGkEPef8ebI3VOm68Ue0RBPp93wTxH2Kqhhax2Xz73W7IKCfaOkwv+T+a5pmuTE0iJeWtOmosMZww53lfHmrs8a8ZDv/S/9ss81y/zR7+8i87j3ijszkteMKTVd8v9eUfIIYSHTPZ+Imn12KGgL2Qr+YEo6qsoEnJEH/Tbc0WovXPGiLzSX0SHx5UcIzfIW/Ofd8yY+7/3uspx5NQ7qa9IFBmGbLk2YkYGMVb5DeLqfo2ZcxmvalQzRn5jHhoz42FNIa995jkMN7/IF78hx/3GM3Sv+uM7BgHrCYOEPiDemmeKqDrW/VUDgTlh3DtzQa19ZJjPqwHCb9wX8r/YYouVeehajkUC3ZO+u5ZnyLhoHjDG0heQc4YWa4n5SjYaS/dinPXDsWQwg8low7ugD+aW/rvucMR8LBDSGATBeOHtbfs6hcOiMRogYC2GFp03vOENVbCV9pa3vKUsjhafakm2cAOCw6JJAR4chtctWMgtOK5Jka9gnbeQIjEURYs25cBiRmGwYFbwolnwLMTIETJjLJFgSpTzVFhoqtVeQzKrt9O5KYMWWkSkwt8WSsqGc1YPrGtYUI0bpYZyRIHgnUK8jC/oD0XI80B4kA5EdShYcCmIngOLv3M7tnoVLcyUAWSRMsnj4JwUAsojpQlZNqaUOeOLWFEuWchruBGlRp+NO4WhKp6ugXC4BwoUZa8eS3mj1OkfZcPz4iGgQFBSalgWJdNxlC4KyFAGigpKiGdECTPu/l/huVOgKKAMBMYXzAV9Q/Y8d8qPZ0SRNj7V4wD6428eUoql8fR774h78szdg/cAsaXwOY7Ca+5VUE6RBX2hJJlzzms+UJ6c33krzDGE2xwYTmHuBvRBfxg/zImJCPOAsk2Wdcq2N73pTcVY4fl4tp4RRR94yyj1SBLlc2ZhniGJCKgIAGHU3k/XQU70y/tp7pAT1RNNGadQV5h/whnJMt+ZJww5lGGGHESFkk42md/mu3eADKSwkmnee6QMIXIdssi8RQgUiQHvnnlIwXVev0eWeAldgxLud9Wo418yBXn1nXeZIQux8F4xOnlH3TPi4nzkIhng3akgn53DeJA/ZMNQcA7vykorrVQ8d8ip6wGvonshNxmSvG/GQr+8s2Q3Gay/3mMyDgEVfk8OM0bqK9kJxsn5yTzzg7xDihnEeMu898YWyEPX4EE09oxxrk8GkDnGlPHJeJEdZKg54Rx+OxxpNPfMH6SQcYdRqcIzIU/ITrLWM9Z3zTNiGPUczRvPu5Jgx/I6VpijDAI+N5+qLNQvY4d0+y1YZ8ldc9k9VQOXdYihRV88R+NubMxxz4RcJp8rEFMGOd93ysHRhPfBHOQNtWaENAZBMBnx7rZdylJuYRotWGgoFG9729teolhplKvZZputeBUt9hQWiwRixCPpM4rFWKCSRottp9IB8iwsgBYLJNZiy+JKIbBQV+ire6XQUxQo+JQ4/1IcB4eiUTopYBZtSoaFUnimBdjCbPGsigblzncWVv3sJBJg8XYdJMoiiowLe6Q41j5a3HjMLNgWYIoWZXAoWHAplyzsvGl+V2F8KAEWfUqE61Ja3YexoRRQZJBDCqLPEUd992wR40pW/UtxMu4UKb81Ts5HiXJ9BXkqKKEUJooqYo58UtYoUBbyznA6Y+J5sFQjLhSlkTyNFADKCaXDPVXIx6GMUQgpgp3KCMWJMkkp1U/PGeGlEFIeq6JUSaMcSPOaUlaVUoqt++EpdIxnTjnm4dA6rffO4349V33Sb8/X+TxT5+/sH8LgXiiCwymQ3YB70D/eN+/JRIS56x3lHRos24TefeADHyjeCAYEBhpyBKkXBui9mBWlljzyTvG4mZed8947VOUEQsZY4HkgbtXw1QmkxzMy/81F7y5yhNi6hv+bqxRxc8z75x12P+a/9xuhQXwQTvfot96jatgie8xjsse7gUz4Tr8QBv3iDe0EmVz75W+yFLmpRIwscF6KM2MYYkWedho93bPvjAWZOJxBFHFz70gULxijToX3xz0hP8iq9w15QbLJnEoakSvHuBY5yGigue9Og00ljWQe2WfdqAYIBi4yshIR6w1DgzHWf79liPUcyAx9ru81Wc6QVgm7Y4cjNPpLJvIEkzudRjLfIWPuY3DONgMd+cXzSeaYB+6f0cF6MJg0kpc+dz7zCKxjnlMlgfqvr47jxUQSO0H+un/vkeevf85LvjgvmVvhXOS8dXC4tW1W4RrmIIOmtbquZeOBkMaR8bq2Ldi2z7Vti7ZtnZaWNmrtgLY9KG+sWo5ntVnkLIAIFiWqPf+wTY6DBcNixwMppNXfwy16ow3KukXQYs6yayG1qPKkdZJoRITXyuLOo1itne4XSfAZLyFlggJV4fwWOsqVYy06iA6Bb/G0MFbS6LcUIMpCJY0UtBoi6fkgFYjkULDIU6qQGX2r3lqKkQXe9d0jYjbcwopk1NAzntBOpYKCSomiNBkfizgiU0kjBUBonvBUxE/4E2WKskgZde4KCpP76iSN9V4pJxTiao0GCoLzUiQ9L6SJBwG5cq+d3kRKqTFEsCj3lInhxowy5Jyuhyx3nkdfKFDGQV+qIgx+51lSmig7xglpdD+DSaMxoYy6hr5TkikclE1jQ5GihFVvkVBiXinPwLvkuSHr7kc+nTlCaaSc6RdlXj88W8eaaz4fD6UGOfcOycni7dafidSqbKOg/8u//MuQMq22t771rcVwUd9JIa3mh/dxZuGd9g66vtDr6rX0rJEp76F5hjTW52/uU9wZnHzvPsxRBFb/EDpKfFX2vc+eISJgHiOB5p53yjuKCDmX48w9c818dF7X5tmsHiNy3LuLhJIFjE1VtumXd8N709kv19IvMg8hRXbJGXLHcd59fdA3c12UjOYdqM/IO4UI8vyS1Z1eqU4wVCF33nHvG9lYoW/6Sz4Yc4aqwaTR+FcDEiLvffaMjV/nOkDekhHGupJGhlKk0fmRbYS6GreqV8113DPC6DqeGcJC1nYawhgnrCtkgO+Ge/etEcaMXDMvjUuVjeS7MTT+1oBOI4PfmffWIPPBusXgaWwHk0ZyniHNsWRzlYXu1fHmgd+Sp37HUyw0WLQHOecZan5f11vz2dw3hmSpuWEs6/NmCDU3uw3vHI+0exgP+VoR0jgy3te2r7btmbY92bbH09LSRq091bbfKuygQEtNLJ+VRqgqmvJv//ZvzSte8YqXKFJDNZ5H1/bvP//zP5eFcqxAqUEUKETIq1y62WabrRDY6jW0qApvovjUohOKJDjW/fpX/4VzWsgob5QElmmLoLCheqymkIokfqQRWaIAIY2ORZgobnUhR1YtwBZmbSTSWMkJpQRJqyFZFmeLtAWcMjUSaXQ9SpwFu5MAU1D0lcIwHGmkdOiDa/NcG0/jQZGkRFFmKijOnaSRMsCrQZmiWPgdJaNCP3gYKVg8CELH9MXCWfMWKxBShJKCNT2k0f14Fsal0+thHJBSypjx6/R+e16UL/2hJFfS6Pnx9lTrOtJIaer0NA5FGt2f83vWyJawbnPKvNG8UzxbH/3oR4uCqT/ObRz9TYmpBZI01vlqkBjOy9otGBcFS9xD7c9EaZ4F2SaC4pWvfOWQ8qyzkSWMJ953JNO7UknTjMJzpDh7xynaCFs1xHifGR6MvfcNATHH/AZp8zkCZR65D/ILsaes6xMiVj1flHDz2juOJPm/+UQxdz4y0zz1O0TC/CMHED7vs/ehetj0oUYJmKOUf311HvKR3BAayjs7uF9kUDUmDSaN5nX1jJn3xtb7UZ9RbYssskh5H2vUxWAgbsifcyNjyG+F95ZByHdDkUZkmbfUWHjGZB45goCSYcJeK7EwZoNJo/sif8hGsr2TsFqTPEPXYcREbP2fPDKOztX5XpMl00saPU+yyL11Gsk8e+fgTXStTlmIpJh3ZLWxMA6eezVmkscVgz2Nw5FGssvvXI9xmQHZM/MM6zw1L9Zaa60yF61j5o7780xFKjlGs9Yg1YwAneMy2rDWuJ7xG26MxwIhjSNjzrbd1rbftu38th2WlpY2au20tj1hwWXpo8TOaiNQLZxyvpDA9vzDtte//vVF+FsMFS5RAdDCNJyS3y0gFhZFfacguQ8LtlBLBIGCggwJH2X5ZKl1rOMsmhQmJNPibtG0OCMIxtSCxortWIuyzyyErLos6RZP16jWVVb8ev8WblZkiy0lDdEabmzqNS3KFva66FMGhQALmZpe0kiB4kmj8IGFmKKChFF8hvM0IkvGgRLlHKzl/m98KCm8t/pPieoMT+0kjc6vnxSqCgqx50Nhc48UEP/yJiDbncqP8ZRXOb2eRuc0vsa2ho6Cca9htoM9jfrL8+x37osiS6k29p0klmLh2VKaPXvEdyjS6P4osCz8vCzCG70T5pgxcl7jIkxOPzvv1/PVVwqj8wk9c+8UNv123m4qUoNhXCiAvKX6M5Ga52E+8GxNK4rin/7pnwoh8h7xvCNDCF1nyOKMwDOspJHhwFyohiFElNEGITBXzCPzwjwRuuh4fTCf3Qf5JRKEHKL4U97NSe8/AxqFH9FkpPJue0erN0k/vNdklXmNdHlvyRf3xzs3lKfROZEJin2t6Gqe6pf+De6Xd8t77p0cTBq942QJQkUeM/I5l3N4X6w/iIXoBARnOC9UJY3eHdcjvyucnxzx3g1HGo0v0kgOCXF3735D3jFqkRN1LMjHoUij90V/vcMVZBaCTTa4Z2NPLjMWOLbTAAeek3vXr+khjeaIyArhnBUIurntWQz2NOqP9Y9Md1/GwVi5H58xUFW4hjFwn9a04UijeeC+HGcrDnmN5o/78K9j9VVfOkNRyXKeV9851tpq7Bk6zBPr73DyflZBtiO2+hfS2LuYp223t+3bbVugba9MS0sbtfaxtl3Ju2GBQyZmtVFghNpR5msF1c722te+tpBD+YsIFEXCokTpkAtFIFMKug0LC8WKokQxqYq1xcCiZLGmTCADFAYkxeJU833q8RQji6/FkeWfMmAxdB8UIgtoXcRcq4Z2IY2Oq6SRkm9BpYQ4J/jOgkx5QGZZUzthnC2SlEnEAylxXQt7VShnhjTqH8Wn09M4LdJI6TAGFDUKHEWLAuF3xowS4Hf643zyVCgMg0kjJZZiRsmocG88jK5NqeU5MI6UzE5yC+6bMsuC7d/pIY2eBaWt07ru2ficcjw4/KmGriKC5q/r+9f8cD88rmAuGXvn8Z2+U8Z87jlQeoyz+0FKndccMKbmYIX+Gx/jSWEwL5AP5/J5p/dKPz1/CqZnYG50S4kaDPfl/oW7e1aDZUO/N+NM2eVh4xUbLNtswyEslUcY+UEiECTH2zbFezEcgZkWvDOVNJpLzlk9jZ2kETkzX70H5jBlGln0XlbDh/ccaaDwkwk1R849mpfmtZBLxIuizFNew/X1A2l0HaQNgUBUzDkKvPe0ym/nQ0jNcXKJbNEvc5ts1S9ylUwA94Ms8djpl+O8k+Se+yB/yALn9Y65lvN6z6uhBrwb5KJ33zkdPxQqaXRu1+z0NE6LNPqdaxpr40UOkZeOE+ngnWcw876C5+Ncg0mj8SVjOj2NlTTql3sjW5FUcgFpVCDI8wL35lkKW/fueRZ1/RiMShqNGY+wuVnhfhFY6ww51WmYck7jwyBlzN0LueY85KB5VkGWO49jGR5q1AUDqTXAvTreM3Ks52zeIIed/faeGQfN38g3WUfmdeoHxsFvzSXPAMGsYzOaMO95hck2zyCksXcxb9uQxhvb9gEfBEEwavi3tl3CUtu5gMwqKMEWlMF5P5QqXhQLEIWKUlCVKMqQqosU6aoMdRMWLYSMskPh71xoLPwWfAu6BZ6yRuGh0FuYOi29FHL3YqG08FuYKR8WU6SRUlFBWWOxRWiMASVEPwaTxrog6RNFhLKhND1lpMLi6dz67/pImMXeojyepFEf3bvn6dlSVI0vhdl4UvYoucK3eG6mlzRSXH3Hc0KhMXZ+S3nVZ+MIFDGKT61k6Vj9HwojkUbXpCRQxpyn5kXpu/EVjuaeKHPmB88JTzRl23mBskPxlIPGG6Hv7nMwaayKlXs2B5y30+sB5iry7XzGGVGlWFLgK0mtcB3EgoJnngx3/6MNz9u8Fl5oTkxEeFbukTe1U7bZWojHxPvA+0wxrnLMeymMkhenkogZhWc4vaQRyfIu8+gghuYTxbrCHKTQ82qb+whQhbnrN/Y9VCmSMs6YYS4DmWTOmaeu571nNDPnGAHJGIo+6J/+kneIAe+6z1zPdZ3buSrMH0RUvxCMmtNIziFQ3jsyicwl18hK9+Yd7iSNfkMmkOFkVJWFgzFapJEcI//JfrLVu+s5mAveW8/HmuE600saEUHX8s4jQhpDLILKAFCfvWMRcJE91lzPYzjSNJg0dhJDz9B4MTYNnhPukfeXN9CYm4fWGzJNwTQGvApy1DOx9nmWrgmepfMal2oQ03cyVlSFd6YTxpv88szNbefRD2td5/oLxtv8ci6ysBtGMusYWV3TUIYj5mOBkMaRwdN4a9tuadtcPgiCYNQwW9vKPo2VIMwqLG6UDha59twlr1H4q3A1iwziMVRhAsoFQmlRtGB02zuCZFD4LWSUMIuphdrixbpLqUKOKOiOpaRbwCy4FBoLmuORSGRBSCbFyeKGBPpcURP3g1BQYtyjRdPxiI3FjvJjoWfVt/DVvJ8KizklgYLlXBZ2C6f+UVYoO76niDi/8+p/VSooe5Q+io5j9WM40ljzUZwDQbNYA4UVoXFNipD7sThTRB2LVFGAPDcKFiXRsVVZc3/Gw/X13Xkpc8glhcm5KXqUSuPDkktBq6AkCMfznXs0JowcnpXrGzcKir67PuXVnEbEKSbDkSYKnWt5phTtTuWSYkRB8p15S+Gj/LuO/ws7ptBRvMwPY4wwIpPGiMJJMTPuFCieJ14VCjuFw/EUNIs/oo2MaJ4vpcv4O95YG0ufMRwI+TIXK5E2fynqdT4aH32ljFL8KKxjAe+rue/ehZqbgxMNng+FkdeQbHv5y19ecpQRQkTHPXv3B8NcUMQIaaykZ0ZhDlMWGZ0YIcxtxBA8Y4YXSrN3QU4aUmKekGuO97lIBIo3eUGWkEM+9y5WooEI+Y2oDyG2FHrnqe8Qg4d5Zj6SWd5NMoz3y7vs3TP/vJvkIeJj3pJf3jFEzRrhPersF7nkPWBI0S+ygWGJXEBQvIcbbbRR+Z0xrESsGnYYkMgW1/SMvKNkg8/ItaFgjBjUrFdkKRlawfDpXTKfK3FjCCAvyH+/IwORXu+xzxwDZEKVV+QR+WZ8vNPmADlHDtQoEvfq/iu8R+7DtTxn41/lo8+sV+Sp5+A4v1c0xvVGIo3mr/HyLMgyz7o+V+sE0uzZeS6eJfmiOd5a5jvz2/phvhkbclZ/HGe9NHfMGccj0tWgpV+ORz7dk2dIxpqriDQjBN2AzDTH/Z/MJN+sBdZha6PnbByNr/t3vHvSN+TV/Bpt1HfPXJYn675CGnsXnaRxbh8EQTBqGPXN/S2mlEYbX7/sZS8rljmLGQXcokrRGWpRI/xVoLMAskRWz1G3oA910aJ0zD777EVRElomZ4lV10JHObFo6I8Fk9JuSwjhtY6XtK/fFjqkyXHCRp2XYHecMt0IMcWnkj1KG+JAcaH8IF6+p4R0KvoWaAsvAsEjrDiA61JUkTOkwnUpOZQvC7DFt9PTSPlCIix6FMThSKNnY+H1vFiv65xw/3KJKE8WbIs3hYMS6Fj3RIlgndcHSgQFuvbBPXb2AbmjvFJMnK96Go0HJYFiwDJdYdyRKd8ZB8+N8up6npO82Nlmm60QNsdQFinxngkFbjglnTLnWpRGClmnp9H5KZsUE0oQLzhDiEIIKuXy9Bhzx1WlAjlgea/PCFms56dkU9YpNY43x/VzwQUXfDGU0fgbV/dI0fbumDuKr1TPqbHyTDXPhOJOYURkXNOx+uvZuB/XGgsIH2M4MIfNU/cw0UDxV9iKbGvlZhlzJIeyTAk2X4ZSJs13SrT3ApHvzI+dXniO5j3lXOgfT26np5EMoYx7/13PZ8L4kBEEyjzSvCvmnWO9i56XOV5z77yHZJC5y3OKnNTrANnh/GSY+cgA5DOkw5wj88z/Oeecs5A8yrz33DhZA1xHv8gh85S81S+kmuzXL7+pURfIkntzPePt3UN4zG3n8T54x7yfzuMddW3klWxkXOqUp53wLtbcPGTM2lVBproO+cRY6F33zroWoud33lXjazyNpWPA9cgWMgKZJBMRX54q41A9jY4xvu7VeFQwdJEHrkW2ksPWK/fsXEg1eWed9VvjS4aQ2Z7HcIQGGa1zxNh0ykbnNx76Zqw9e9fQjK0xIpPruuxYfUaYPcMqf/XFsYimtbKSRoTVuCkm5zikz2fmFuMj+ahglGdY743cRGSNlWfteDJdHqstbMg7x1uPyVb3MxxhnhXU94vRk26gD924zvQipHFkhDQGQfcw6qQROSBYLTqUAgsniyrleiRYgHhqLDYWkeFCikYb1WOFOLKCVkVfmM1gqyXlSI4O8kMpcTxyQpGri2MFQsNyzpLOK2VxpUizmjo34mXMKZAWAYs1ZcziNNSiT4lBkHg0Xdci63z1us6jbxRYiilSARY8ygxCZowpt8MteBQ/SgelEYmipAKF1ThRlJA9ZIVyqf+OpWz53jOjWDEACI2rfQAKDwWAsqJ/ruM5O5/fUgoYFShhlE+KU4V+UNh9x9qPlFe4H2SW4kbZ5B2wuFOiLO6I2HDEyTVcC1FmzR9KmacYsuY7v+dofrBsO74TruFY16csO65av+uz7TSGuGdzgIJFmVTMwhiA5+W9qR5Nc8yzpyB33gsF3PtGYaVEmBfmRyXLYwnKvRA7xhDGDPc70SAygcI+ZcqU8v7zepmPw5GSCs/f+68xJtX3akbguZv3rucd8i7V94u8IEMQE+fvnCfkQ41UEF7I04UEmYvO5f31d72HKi88PwRl8P25FmOa792X69ZrOQ7RQzqQI4THPK6ePO9CJSneFaSMHNMvhNq81RdyzHmQFO8k2eFdMbcYqcwzRALIMu+A78x/7wvy6dzesZHgXeTBIgPIIjK2giyzbpFPnjtyg3Q51vX9jgxk0NI3srV6fkG/kUKykLwnp7zjng8559rkj888A99XOC8DjGu5N2Nc4Z7II+OJ6Fp7yCPyjrwRxTOcfK9eW33QN2PYKU/AMe6ZDCVLNETQGAxel4yR50Q2Og6BNTetBz53Lc8OrKXGAUm2vhqz6gE2btZgc9MzNB+QdXO8GjMqrD2IL92iPm/RHNaTwfcyWtB3z4mBhUz2TGcmWmC0ENI4MkIag6B7GHXSSJmmlFjYECeKzXCWz05QFCwmFCtWSIvyWIDwt8BbuIQ9UugsnBb1oRYhxNFia8FzvH/d4+BFxMLtvBZWxzk/Uub31dpevVSOHfzZYDjG4qV/zkeJcd2qIPgNpc05/FvP4V/j7/zuaSTy7h587zjHdyof/nZe37mHoY712VB9gNo/fXZ8/a3mt77v/KxzznRe27+u43vnsoCacxRlSibFVBgU4mIOOmY4OG+9nmt39rfCtepzNPaa5+C3g+FY1/Os6zyqY1H7Xq/h976jIGr+7vyuFjmqc8w1h3qPjKXf12Nd12/1ZSxBoRaKR/FDEhgNJhqQKfeIhFHOPevpkW0UdAp99RAOFZ4/Pajvl/nYOZfAnDEXzCPvZ4XPO+evuWl+OMacH+pdrfJi8LkqfOa7we+9+U5uI5XeR+ShRlYgNgho5xwfqV+d74vzux4Covm7c347rspZ5/K3c0/rHXBu91plQOez9Ft9qf3Q38HHOqaOoc8c0wnfmSO+93cdU3+7tuM7P6vovHYdY83/vefmoTFGLBF30QYMSzx7IxFl5+18rsONj+t4lsZS87fjh4Jj6zP0r/s1XrXv9Rru1//JMedzXB0v33le1rT6DB3jPINhnJyjrtca+df57EYbxpSBloEDgWaA1efxQkjjyAhpDILuYdRJo4WfddsCMiNAMFmaeWlYUClaQTAcWOsp7wgiQwOPLk81CzSvA8OFOd1NZSL4G1j6heIh60KTB3tiJwIYfcg2CuuMwG94hEQz8MYgTxMJxoWRgBeJYl2buaAJm+QxQ3iCmQPiwrvLsMora3z9a3x5kUUimFfIVzC6YORh9DHWiDlZN54IaRwZIY1B0D2MOmmcWbAWCgGRhC9nQXhkEAwF1mthSsI6bRcjp0aTPyr3T9ggI0QwduBVEqImtEx424wajSYyeEaMD4OY/GehexMJZLcQS0q1iqv1fVT8DKExHxgTg5kHD65cdWsjOVfHWK68UE5RFjGQdQeioGr4v9Dezhzf8UBI48gIaQyC7qFnSKMFj0VezoCS/ROxkEYwOhAahJQIz5LnKI9Gk2si30j4VhSosYWxV5xJLqf8rM5wu8kOYXg8RTxDihsJvx/P8LbRhjBCsps3UVGd+j7yjFG4Z9QzG0wNpNsazZjqXatjLBdTqGo8jN2DlAcFyxh8GCvHW7aFNI6MkMYg6B56hjSChU/OgGptQp0oG1H+g6B3gRDJP1JqH2kUJlyLXwR/A2IltLBWoqT4RbYFQe9CRAsvurQZxa+El3tvxxshjSMjpDEIuoeeIo2S7XkYhbipvseqmrCmIOhdKGihSqKqlsJThdD5LHgpEERbsthKBbEWskkhDYKgN6Fwj1xdhb3INkWdatXe8URI48gIaQyC7qGnSCOvhZBD+znZ18xWAqqjBUHQm+BVVL3R+yq3ypYJCU2dGrwWwghFUMhLs6WBirNBEPQmGKxt7+F9VZzPVlFDVXQda4Q0joyQxiDoHnqKNAJLnpwNfeJxVEV1uNLgQRCMH7yX5IY9C5dZZplSzTahqcODEqpgjH1sKaL2Hq3bDgRB0Dsg2xRTU5F7ySWXbE466aSeyc0NaRwZIY1B0D30HGlUIIK3UUGcFVdcsWyQr4jERCocEQQTAfZTu+CCC5qVV165hF0q+R8Dz8iwGbz9Gpdffvmy56MN3jNmQdBbQBAZeBh31l577VLkqVfe05DGkRHSGATdQ8+RRlAZU/L5uuuuWxQsJeoT8hYEvQNGnKuvvrpsqaBiqr0ZE0o+bchjPO2004rSZwsO1UblTgVB0Du44YYbmq222qoQRiGqTz311MA344+QxpER0hgE3UNPkkYhWzbQlUeg1LUN3Md7b6QgCP4GoZZyjr2f2267bYkOiGFn2uCtePjhh0sFVWOn4JdIiiAIegOquH/lK18p7yej2N13390TuYwVIY0jI6QxCLqHniSNQEife+65zVJLLVVCROy/1wuVy4JgsuPXv/51CdeSc7z44osXz9nvfve7gW+DaUGVaHsYLrfcciW01157ti0JgmB8ofKzgjfytBdddNGyp2qvVYMOaRwZIY1B0D30LGkE+T9f/vKXS4iIkv633nrrwDdBEIwXVEjdfffdy3tp70FexmDG8MgjjxRvhlL+2223XQmHC4JgfEGWiQIg21Q45mXsNYQ0joyQxiDoHnqaNAoT+d73vtfssMMOzbLLLluUrGeeeSZFcYJgnCBv0X5lCrnI+bnnnnuyl+pM4Pe//33zwAMPFMWUbNtnn33KFhwpihME44Mf//jHxbNIH/rCF75Qqhv/8pe/HPi2dxDSODJCGoOge+hp0lihQqMQ1bXWWqs59dRTkwMUBOMAStXZZ59dClStuuqqpbJxtoyYNSjyxathn0vFv7J3YxCMPRTfO++885r11luvbImjsnGvFqgKaRwZIY1B0D30BWlUueyII44oOQb6Kh8oRTeCYOyAHKqWusoqqzQLLbRQ2aT+iSeeGPg2mFkwgB133HHNEkssUfa6lMedaqpBMHYQuSQ8nGF6ypQpxev/gx/8YODb3kNI48gIaQyC7qEvSCOoprrZZps1c801V7Pppps2N998c09VNAuCiQoGGnswbr311uX9s4eqsNRgdCC/sY7t5z73ueb6668v4atBEHQXjGH33ntvs/322zdzzz132W9WWGovp8CENI6MkMYg6B76hjRSoq655pqSa8DjqFS9nKAgCLoLVnfb3yy22GLNhhtu2Fx++eWlgmowOlBN9cYbb2y++MUvljHeYostiiIbBEF3IVpizz33LFWgVUwVxdSLeYydCGkcGSGNQdA99A1pBIrqVVddVQTm0ksv3ey7777N/fffP/BtEASjjYceeqg56KCDyvYQKn1SqrL1zehD0a/rrruueBptM7THHnukKm0QdBE8/IcffnhJeVlzzTWb888/v/mv//qvgW97FyGNIyOkMQi6h74ijWCT/wsvvLCEyOn3/vvvX6yFKcgRBKMHVTxVKj700EOblVZaqSgp55xzTqmeGnQH9mr8xje+0Wy88caFpO+9995Fsf3zn/88cEQQBLMKso0cO/roo0vRm09/+tPNmWeeWeRdPyCkcWSENAZB99B3pBGef/75osASnBRaxNHWHEEQjA7IA4RR4RtKlarFlJWgu6hGsQ022KBZccUVS1GOhKoGwejh0UcfbY466qhmtdVWKxXZv/rVr/YNYYSQxpER0hgE3UNfkkYgOFUalLi+wgorNPvtt18plpMCEkEw81C58+GHH24OPvjgYpARknrGGWeUCsbB2OAnP/lJc9FFF5UcK7LZZuP33XdfCWENgmDmIHf4scceK/vMMoYJST3ppJP6rgp0SOPICGkMgu6hb0mj6mbV4ygPyAbZO+ywQ6l8lg2yg2DmoCqqDeeFR1JMTjvttObpp5/OOzXGQBzlWH3+858vW3GorqpidMLwg2DmIBrpS1/6UjHErLPOOs2JJ57Y/PCHP+y7dyqkcWSENAZB99C3pLHChuPCuWzKu+SSSzZbbrllc9lllxWlKwiC6YPNre3DqCqx90hIqo38E5I6fvBM5DjK37aPo8rRl1xySfJKg2AGoLiNIlM77bRTKTIlJLUaw/oRIY0jI6QxCLqHvieNPI6UqyuvvLLZZJNNyl5Lq6++enPBBReU/KAgCEbGz372s0JOhKLWfRj9n0EmHsbxheI4thqyDcc888zTrLzyyiW6QpRFEAQjA2GsFdfrPoyMzM8++2zfyraQxpER0hgE3UPfk8YK23FU4mgfRwqwZHd5jr28UW8QjCdsqXHcccc16667bnlv7MOYbTV6C3IZr7322kIc7eO4xhprNIcddljJc0xl1SAYGgreCEGVG0y2+ZcxmZGsnxHSODJCGoOge5gwpBEUwbG3mYqDyy+/fCnkccghh5TPfvOb34Q8BsEAEJEHHnjgxaIQ8ubsDSinMQVXeg8KFDGAHXjggaXwF5nt77vuuqsYzCLbguCv+N3vflf0GcYwUUf2dN55551LvQN6QL8jpHFkhDQGQfcwoUgjCDmhDJ988sllvzP5C1tttVVz3nnnJT8rCFoI27744oubbbfdtrwfG220UXP88ccXz1UKrfQ2eIZPP/30kt+o+uNmm21Wck/7NT8rCEYTNdReUTyyTai9/RgZw1RPnQgIaRwZIY1B0D1MONJYwVsiXFXVQRv42vfM4sEyLwcyCCYb5MfZ88++ZMJQeeKFPFKyfvWrXw0cFfQ6/vjHP5Zw1e23377INgrkEUccUTwpKQAWTEYIpxdRZAsNFYe9F5tuumnJX5TXOJEQ0jgyQhqDoHuYsKQRKMl33nlnyW1klZ8yZUqpsmoPtH7PawiCGQGlSlVhZNF7sOqqq5bN+2+//fYYUfoQnicDwLHHHlsq3XqmthGwd22IYzCZIDz7m9/8ZqlnsOCCCxbC+JWvfKVsUTMR34WQxpER0hgE3cOEJo0VTz75ZMlvQByV3La4ULZuueWWhKwGExoqoN52223Fu7j55puX/B6EkWfqkUceGTgq6FcISxWKr/CXrVKEGjOSfetb32qeeeaZgaOCYOJBmD3vOu/iF7/4xZKXrbqwOgbCuCcqQhpHRkhjEHQPk4I0ytOqCwzvirLb7pkS/bWvfa2QSiFfQTBRIH/nRz/6UQnPktOreAqPlOIpjCXIZCpv9j/kcIuoEHavqJEKkWSb0LwzzzyzeeyxxyLbggmFP/3pT8UgosqzvOwVV1yxWXvttZv99tuvGEtsR+OYiYqQxpER0hgE3cOkII2d+MEPftCcddZZzXbbbVeUaIuN3CBhXRSsIOh3/PCHPyxk0WbWPFDmuNxeG1o/+OCDA0cFEw3kFzmmCIhQVYVAttlmmyLvyL0g6HfwrCOLu+66a1m/zfEtt9yyeBvvv//+SVFFOKRxZIQ0BkH3MOlIIyhfT3k+5phjSsjqEkssUaqs+f+tt95aNv5VtjsI+gW2m6FM8KarhCpM0bxebbXVXtzTz5zO1gwTGzzMQvOEIzMYLL744kXBFI4sx4vSnS1Vgn6C9Zr3kDcdOeRFF4ptqyC5iyqjTqYttUIaR0ZIYxB0D5OSNIKwLpv/XnHFFSWsS6iqED4VJVkxb7zxxlSUDPoCyKCQ0z333LPk9Nij1JYMQrEVv0EiEoo6eUB5fvzxx5urrrqqVIyW7yWET9txxx2ba665phTSCYJeB8LIELbvvvuWXGyyTU2Cgw8+uLn00kuL8XeyhV+HNI6MkMYg6B4mLWnsBAVKyItS3YsuumhRroT2nXjiic0NN9xQCobEOh/0EngWEQM5PKecckqzyy67lKqBiyyySPGaX3DBBamKGhTDF8MYI8Jiiy1WlG7h+DyR1113XfPwww+X6pNB0CtAFJ944oliCBNSv9tuu5WICbINWTrnnHNKTvZkRUjjyAhpDILuIaRxALbgeOCBB8qedYqFyJeYf/75S1GJ/fffv1SgnGj7PQX9iV/+8pdlKxlVAhFF81SYtUIQl1xySfO9732vFH4KAiC3vv/97zeXX3558dAoBLbAAgs0yy67bLP33nuXsNUYGIJeAAOGcFPh1MJPyTaEkadRnra9GCf7ljIhjSMjpDEIuoeQxiFQ8x15bCxcKhLaBH2fffYpVk6LWpSsYCyhQiaF6bzzzmu+/OUvl5DDDTbYoMxPe48efvjhhSwKuw6C4aAgzgknnFD26zR3KJ9k21577VWqrcobyz6PwVhCpA/ZhRQy0Kr2bO0Vjmp+Mo7ZkzQh9n9FSOPICGkMgu4hpHEIWJwsZEJkbBpMSTdG88wzT8kZQx55JIWtCv8SThNlPRhNmE/mFcu7MFQhhhSq1VdfvcxDXiI5jD6Xm8ubNJHLzAejA9sP8VTbZkh46gEHHFDyuM0pYfnII2+1sFXHCYP2myAYLci5JdsUr7HGXn311aWgjUqo5qG9lIWkyse2xjKYKfAU/BUhjSMjpDEIuoeQxmlAkZG77767VG370pe+VKzyrKCE9mabbVZCWeWPpaR9MJqwfcLFF19cwgkVaeJN5Fn09x577FFy0hSISD5aMLOguH/nO98pObHCVG1d8LnPfa7INhUqGSl4tq0NMYoFowUGC0ZXHkRzjmwTzUO2IYuqP6tizmgRTI2QxpER0hgE3UNI43SCdZSCfvvttxer6LrrrlssoqzzikyoUshiaq8o++TFOhpML3gIeQptxi/3THXLY489thgo5CwqLy/Htm5ezQuerTOC0YK5pNCX0FQVdynxZJtq0ipVyi+78sorSwghhV/+92SrWBnMHETtkG1PPfVUkW3XX399MXgJQRW1Y1sg+8gyWig6Z92MbBsZIY0jI6QxCLqHkMYZBOXKWFng5ACxxssvE1pD0ZK0zxMkP8NxycMIRgIFiZdaSCDFaY011igkUWEbVnih0aeffnpRtihd8SwG3YJQVGGpN910U3P22WeXKIqtt966GCzINjmQqvSef/75pWhYwqGDaUHovK0xyDEyzTwSYl9rBPByC5NmbI1ncfoQ0jgyQhqDoHsIaZwFyPWh8F900UVFmZIbxHJqU23KFs+QRVFuBg9lzT0LJi8oRnIUhZaqZqmkvLyybbbZpllnnXUKYeThsZ8e5dx7GY91MNao+9jaiogRrHqFGMcYyZCAk08+uRACoYQ19yyYvJDfL0dRZWe51meccUYxPGy77balYi/ZRtfw/6997WvF8CBEOpgxhDSOjJDGIOgeQhpnEaztlCWLpQpvlKgjjzyyKFYs81OmTCmLpRwhIazXXntt88wzzxTCmTCcyQHPWbPY81DL2ZG/s/TSS5f5IQSV5f2www4rSrrqvIilMMAQxmC8UEMLhaSq3IsIkGEMYiIqFlxwwWbxxRcv+9uSecLzhVj7XWTb5IFnbd9EofMq8wo9XWaZZYpsk74h91/+ohxtIdDytVUfT4jzzCGkcWSENAZB9xDSOMqgMD300EMl3FAREwsmK6siJoijkEObawvNQR7kClHInn/++RSbmCCgRNm2QA4YRZoixTPjuTMmyIFVTMm8MCdY44UzCz8NSQx6FeQTj6IiJnIfGT7MYUVMqmzbbrvtSpi1nFyedIa05557LmH6EwgIHy+h3GsF4si2HXbYYSrZtvHGG5f0DRETZGG8iqODkMaREdIYBN1DSGMXwItYt0sg4ClOqhAiiopM2LD4Yx/7WLHG8jAhl0iDkEUeS4SDhV9JctbYkMnehOfi+chz9bxsqM8rIzxLyDLPIav7csst13z84x9v5p133lJASRVe+32yuj/77LMlrCtbGwT9AHO+yjaGLtVXVY9GHBjGeJfMdblrDGaKhiENt912W/GeR7b1Bxi+GLDINoW3yDZeZJXERUMojiSkXij97LPP3sw999wlLWP33Xcvuf5k4NNPP/2ibIvRYPQQ0jgyQhqDoHsIaRwD1NBEJMGCe8wxxxTiwDqLVKhQiEzKaaN4sdaz5FPG5EKqxppQnt4ChUpFQEQfQbS5vufJyu45WtQ9V8+Xh9GeikcddVQJ0brjjjuKQhWSGEwE8CQKqRaaz8Nor0c5ucJYeSDJNsV0eCTJNkYyRrRbbrmlGFmQiqB3gOBJoUD8yCuhx57nhhtu+KJs40XkWSTb5LwikQyf1qsaohx0ByGNIyOkMQi6h5DGcQJLu3DEGsZqEWa1XWSRRYqVntUW4dh3331LGKsFWT4c4ik0iNXe4iGfktKVHKLRh3HlFTHOPMCeF0v7jTfeWIhiDTulHFOmeI4XXnjhUuxBnhcvi+cmNIvFPQgmA3inhOgLY+VtF7KoSJh3g2xTTEcoq8iL4447rhjHVAfulG088GSbfXIj20YfvMU8iAg/2fbggw8W2aZyrjXpxBNPLKGlvImiI5ZddtmyNomasJdnDTuVWuE8wdghpHFkhDQGQfcQ0jiOUERHuJY8IQqT0uMUKCRRRU3WXeRDiXKERPVCVQx5sGr1QsUpWPkpWfFGjg48F+Mp9O6qq65qTj311FIJV7id4kYKG3keioGwvrO2+54CTJHyHFnpVdYVwpfnEkw28DQJaVSBFRlh8GJAYWiRw7vTTjsVQ5ltGBASsk1BKJ8hk0iLqtN+yyuffLjRgeeCKN53330l37pWb5YmQZ6RbQp0rbrqqkW28Qxba8i2c889t+QxipSwNYvz5LmMPUIaR0ZIYxB0DyGNPQiFBizqlCaL9c4771zCVhFGihVLPWuvhV5IpNBHipgwIkRSOXNFKHjEKF2syEJcEVQezskaFil/yv3X/BxzvlrXkW9KkS1ShJEaTyHEiLtxpkDx/vKYeAZC7Si+qkkKOUYwnTcIguHBc8+b6H2zyftuu+1WZBljjHeryjZFdsg2oY9IjfBHsk0uMLlItjG0kW1CXMk2eZaTVbbxxvLwWjuEzfP0MiaqaFplG+MXeSUCgmwjv3h8N9pooyLbyDUNIWEIIwd5HZ1HddSgNxDSODJCGoOgewhp7FHwTglppAyxtCtTLsyRssSbZfG38FOu1l577RL2Nc888zRzzjlnCSOySbx8IkqZ/EgbxFO25BFR2njS7BnIUuxacvR42DTWaMqXhmhRSHotRKz2Sf80fdVvzT24H/fl/oyjhZaCaU8542APMXmIlFIeRMrqoosu2sw111xlHOuedL6r+YgUL2F0QrI8D8qZ52Mc400MgumDd9M7ychCtglHtbk7441ICznf8iIZa5AZni9FpMi2hRZaqHjERFvsuuuuRbbxlsmnvPnmm4tsk48nZFJ4+WSRbdZv+YQI4llnnVUMiORWXR8WW2yxItsUrCHb6vqgcA1CztAoQoLxi3eYbEMU6xoR9A5CGkdGSGMQdA8hjX0IyhYCxIqsUIGQLzkmvGJIDoWKQiCXyP81yoNGEav/ypn0GwqavEpeTeQSKeWppESoeqj6q3y+qkwIuZRvxGtHoaDYdAPOSzlyHR4KSozr64f+6Jf+IXL6S+FEBoX32hdM6X/WdDmH7rfee211bIyT8TJu/s/DIdyUJ0RIHWXW9Vy/W/caBMFfoyysRYxbNbeuhup7N4WvjiTbalOkpcq2gw46qBToQS7JNkYjso0BiRcN0ZQiQLYIuSTbeC3JNoStGxhKtlXjYJVtSCDZhgiSQ1W2IcpCeEWgVNlW738o2aYZN//yINZwU/KSERJhJ9O7da/B6CKkcWSENAZB9xDS2KeoFmiWZ8oHqzoFpOZIIlMKUQhJQqBY5SlbLPfy8XjTbPuhXLotQHgqhYgpeiCPEqHcZZddinKCUPK0UeAoLiofCsm0x+S1115byKvryeOj7PCIUsTMKbkvcvsQvcHN5753nOP9zu+dh8LkvJQ713EvFD7l3PWDp1W/FArST8oTxcj+YPJxeCcWWGCBcn/uk4XdZ7yHyCGFizIp5M29UFL1hfJmHKuXononQhaDYGzAyzacbCM3yAbEDwlEoERTIEQqtCrUwivpnbf1B9kmT09ov2JVVbZ5/xmVyACyjeFtKNnGYNQp26QNzKxs48UTUqv/vKJkm5zpKtt4CO172CnbyG3FaMisKtvIb1ubzDHHHM1HP/rR4kF0j/JDyUCGMiGozoV4u5ZwVcQQGTaeCDGPZWRb/yGkcWSENAZB9xDSOEGh6iAlS2U8SoviBZQUYVxCkZAlYWCULvl7FBThrhQwSocCCJQr1mtkk7Il10guH+WFAibsiaKiUA9lBumUEyM3acUVVyzVYM2t5Zdf/sU21P81x9d8QedxPud1ftehENaNxPVDf/SLVV0/9Ve/KVnCstyP+3J/7pMC5b4paMbBVhks7ELjKFPygYIg6H0gPaIt5DJW2cYjh0gKISfbeBZVbp1R2UYZ76ZsQ15nVLZtu+22xWvaKdt4X8k2BJNsk+tJtiG6SCmSymtJtiHcwcRBSOPICGkMgu4hpHGSg0VfeJTCMMKiKrlkbT/77LOLBV7un/BX+X/CmyhbiidYuCg9FCpKVK3wKqeSJZyVn0eTl08+ksYqXv/2ue/nm2++crzf+b3zmJPOyzPoOgrRUKIofPohfJRSKISUhZ5FvSpMFEmFf9wXS3oQBJMPPGhyG4WdCufnLSTbkCskS8SCfD4ErMq2WhjG3pJkG4LXKdvkPc+sbFt88cVLtAPZhjySbchip2yTY1hlm1BUkRVSEFQtJdsYusg2IbQ8scHkQ0jjyAhpDILuIaQxKBASJhSMx42iJbdIfo88GxZ9VmvhVpQviotiMPKBhFvx2gnhEuIppFRIl1wZZfZ5AChqCF1tFCD/+tz3muP9zu+dx/mcl6LnOkK7WM9dXz+EgOmX/uknz4N+s6q7j4RcBUEAZJtQzE7ZxgNHdiBg4ynbVG+uso3RrlO21RxLso0BLLItgJDGkRHSGATdQ0hjEARBEARBHyCkcWSENAZB9xDSGARBEARB0AcIaRwZIY1B0D2ENAZBEARBEPQBQhpHRkhjEHQPIY1BEARBEAR9gJDGkRHSGATdQ0hjEARBEARBHyCkcWSENAZB9xDSGARBEARB0AcIaRwZIY1B0D2ENAZBEARBEPQBQhpHRkhjEHQPIY1BEARBEAR9gJDGkRHSGATdQ0hjEARBEARBHyCkcWSENAZB9xDSGARBEARB0AcIaRwZIY1B0D2ENAZBEARBEPQBQhpHRkhjEHQPIY1BEARBEAR9gJDGkRHSGATdQ0hjEARBEARBHyCkcWSENAZB9xDSGARBEARB0AcIaRwZIY1B0D2ENAZBEARBEPQBQhpHRkhjEHQPIY1BEARBEAR9gJDGkRHSGATdQ0hjEARBEARBHyCkcWSENAZB9xDSGARBEARB0AcIaRwZIY1B0D2ENAZBEARBEPQBQhpHRkhjEHQPIY1BEARBEAR9gJDGkRHSGATdQ0hjEARBEARBHyCkcWSENAZB9xDSGARBEARB0AcIaRwZIY1B0D2ENE4A/OUvf2n+/Oc/N3/84x+b3/3ud82vf/3r5he/+EXzs5/9rHnhhRea559/viw0zzzzTPPUU081P/zhD5snnniieeyxx5pHH320eeSRR5of/OAHzcMPP1zmgfbggw823//+90dsjtEc/9BDD5XfO4/zOffjjz/ePPnkk82PfvSj5umnn26effbZ5rnnnmt+/OMfNz/96U+b//qv/2p++ctfNr/5zW+a3//+981///d/N//zP/8zcFdBEASjA3KFfCFnyBty5+c//3mRQ+QRuUQ+kVPkI7lFfpFjnfKRnKvycVoyciT5SO46PznseuQy+UxO6w+5TX6T4+Q5uU6+k/PB5EZI48gIaQyC7iGksc9BAaLwUES+853vNLfccktz1VVXNRdddFFz5plnNl/96lebww8/vDnggAOaL33pS82OO+7YbLXVVs0XvvCF5nOf+1xZfD71qU81a6yxRrPKKqs0K664YrPccss1yyyzTLPUUks1SyyxRLP44ouXVv/275JLLlm+X3bZZRvzZ6WVVmpWXXXVZs0112zWWWedZoMNNmg+//nPN1tssUWz3XbbNbvuumuz7777NgcffHBzzDHHNKecckpz7rnnNpdeemlz/fXXN3fccUdRtChQlCUKXhAEwawA0ULAkLMHHnig+fa3v91ce+21zTe+8Y3mnHPOaU4++eTm6KOPbg466KBm7733LnJq2223bTbffPMiv9Zff/3m05/+dJFr5Bs5t/zyyxe5R/6Rg4Plo1blIznqeHKVfCVnnY/c3WijjZrNNtus2WabbZqdd965yOcDDzywOfLII5sTTzyxOeuss5qLL764+eY3v9nceuutzX333VdILFKJRAaTEyGNIyOkMQi6h5DGHgSFAHFieWaRvv/++5u77rqrufnmm4sCgWhdcMEFhRRSLig9hxxySLPffvsVxWOXXXYpRO2LX/xis+mmmzYbbrhhs9566xUyV5WfT37yk4XsVeWHwrPYYos1iyyySLPQQgs1U6ZMaRZYYIFm/vnnf7F1/t/fjllwwQWbhRdeuPyuKktDKUqI6Wc+85nms5/9bFHGKGVbb711IbG77757s88++zRf+cpXCsE97rjjmlNPPbX52te+1lxyySXNFVdc0dxwww3N7bffXogxqz1PAA/qr371q+ZPf/rTwMgFQTDRwaDEA8dYhgzy5t17773NbbfdVgxQl19+eSFbSCHj1LHHHtscdthhhZAhhrvttluzww47FOMZ0kYeMXKtu+66zdprr92svvrqzcorr9yssMIKxYC29NJLF7nWKR/JvcEycij5qDne7/yenHU+ctf5yeHVVlutWWuttYp8RlKRSUY98nv77bcvRHavvfYqhr9DDz20GN1OOumkQiovvPDC5rLLLitEmMHw7rvvLuQYueQ55U39wx/+MDBywURASOPICGkMgu4hpLFH8L//+7+FAAnltPBfffXVRSk44ogjmj333LN47Cg1yBiFZM4552zmmWeeooxQbCgeSBmFY8sttyxKETLGu8eK7jzIGMs6ssnLR+Fgcadk8U5ec801Rem66aabmm9961tFCWHhpox1Np9pvnccQnfdddcVQnvllVcWUktpO//885uzzz67Oe2005oTTjihkFtKT/V6sq6zslOQKG0UNkoUEkvZmmuuuZq55567KFvuz725L793PtdwfUrjT37yk+JVCIJgYkJoKUMRUkTmMJwdf/zxzZe//OXiHWSQYqRixCI7NOQOSUMCGa4cgyg6nnENiSRPkEpkjBHu9NNPL4TT+RmtkLIqH8m5G2+8cUT5WGVklY+OJ1f93nnI269//evl/AxjZ5xxRiGB5DOjGXLLiIbcMv6R/Qx/SCWDH8LpHsn/eo8IKMMgIoxgkrXO7ZoMbcJuf/vb35ZUhqC/EdI4MkIag6B7CGkcQyCGQqXktQjHpEBY2CkLFIU99tijECnEiFLD0kzB2XjjjYvSwAqNOFJ+/ItEURIoFxQfigLL+nnnnVeIG+sz5eWee+4pxIr1mfKAYLHU82h2w0snf4h1Wy4Oj6lFTtipnB4hVnfeeWchpu4f8UOOhdEilJQl3kf3XUPDajhX9VLynlKkeCopVY5njfdbSpcxoOxR1lxPvpAw3iAIehtyDUURIDqIFsMWQiWSAhlC9Lzv3nuyT8QCeUAWkg/kRJUZDFG+32mnnQqxJBuQQoYs8oFhDqkjj0RzCPEnpxBTHjoygyGK3B5NIG68pc4vr1u4KRklqgQhZjREOGsYrTWCsU/Y6v77719kHcNgJZI1isP9GodNNtmk3Lf1wzpivGr4KwMiWWuNQChFsLiu+w36AyGNIyOkMQi6h5DGLkCxAqSpKgVImjAqCzQlwKKN4FjYhYvypH3iE58obdFFFy3hnIiihV7IJkWHVbou8kin0FXnRUIt+EgghQtRY1FmldcHSg9iqE/I3HhYml2T4uX6+kJh0i99RFyNEy+rezBetYCP8DMKJIVOaC6LPy/pUUcdVTwElEbWdfN33nnnbWafffZmvvnmK95YhJOyRNmkJFJA5UzWkC1j5dr6MtpKYRAEw8P75v0np7yH3nfGrO9973slWoGnj9xDDJEhnjVeNe+30E95hQgSQiSSgoeQZ1AYOy8fA5mIDeSvFpSpRbfIR/LGu0/+6AcZUOWjvo21jOyUj/pBRuoX+a2fxkm/9b9TPlayKVyfEdLYIYPWF0ZExkckkndSiOwcc8xRPJNCbRFNpFJKA1Ju7IT4Is2KA5HFxkkf9CvoHYQ0joyQxiDoHkIaRxkWXCSHF411GDnkFUNiak5ftQQjPXJWWMKFoPI2UoCQHJ5C3jgWdxZwCwViNVkJDuWFskSpQf4UtECieSKMMy8lBZIVnrIk7JU1XugrxQm5NP6s88ikcDQKFk8sYur8QRB0FwgQzxbZhujxfCGHinKJniAnRRPUnD7vsfdVNAVvofdWvrMIBZ44XkJrF9LJGIQATkYgdkgloxijougSIbyMlAxt1UspmsV6g3Bbf2oki3WJfDT+PkcmkXcy1vgikUFvIKRxZHy0bd9q201t+4gPgiAYNYQ0ziQoJ5QUygpLr0WapVeoJcXGwkwRkmtSC8vwgFGIhAmxBlvQKT2IEKtuMGtgpWeB52ngWUS+eRoppQpN8OjyVChG4f/IPFLvWQhXExKG8Avj5aVg3Q+CYMbBuMXIRcGtxbyEgjLyKExDBiIsis50vpfCLclOoaSMOsilsHYGo3i8Zg08moilrT54ZBFvRkq57zy3CpjJl5cvKbfcWsUIJx9eDjyZyojpeYh04fVMEbKxR0jjyEAUK2n8sA+CIBg1hDTOBIQ18XYpZsDDxSpeCxRYbGtBAt5D3/OEUZbk0KgASoESriq8VPhRMLqgyLCMU2woOAi9/EYFKHg3KK2s7jwYvL4IJEKvsbZTlHgzKLkW6CAIph/IifBQRWMUrOL5l2OoYBcjmtBIhFF+ougKxWyQEiGS3rnO6AokJ2RxdOH5MFIyjCGQwoIZzETHKF4mHcLWSMhkLcBWt2KSOsEDLEWAPOXVnKze3fFCSONL8c9t+1DbFmzbcm3btm0Pte0/27bNwGe+o+z+U9uCIJh5hDROA7xXhLSCKsKheK+E+sipE1oq9JG13KJqQUUg5ZMoXmAh5kWUnxL0DngtEHdKKoVV7qiwLLlSSD8lSfgw8lhzSnkiEX7KLEU2CIK/QsSFaAvyjnHMO0UGeq/IQyTRu6WCqegLZIQhTWSGdSfvU2+BIVO0BUObyq6iMYSwqmBtnZOH7/+MAVICFGBD+oXDKuQj13KyplGMBUIa/4Y3t225V7/61fu84Q1vuOif//mf73zlK1/5+Mte9rLfa+3fj/ms/e7C9pi92mOXbdub/DAIgplCSOMQYIlFFilDyAXrK5IodEqhFcUEkAveRKSC90roDoutxZaHCzGRvxMreW8CkaesUnAQexZzocJySSm9NWTLliYKSNgGhIWdgkQ54knhcR6PwhlBMJ4w38k18o28E0EhJF8VU4W8vC+KrQhvVPG0FlpRFZTRxbsjykL4arxUvQnrH2+kHH0pGEKMv/vd75YcR0RSpAbDmugMBdyEtTK8+ZyBjRGheokjH0cXIY1/93fvatuqbdvzjW9849fmn3/+76299tq/Fr4gF0V8u+Zvn6211lq/bo+57/Wvf/057W92b9sqbXtn24IgmDGENHZAMRRhp6p0Igcs5RZG1vK67YVmqwdhp8JThT4iHsHEACs7BQkxtL+kwhGU4c7tPswHBgOFOeSw8rBYyINgokO1zvpuIIS12JQwb1EX3hN6Gu+UqAxVjxNtMXGABCq2o1orrzKjKWMaD7K10TwwH4S1itSQL86owFiAiAazjslMGl/etve37Quve93rrvngBz/405VWWuk3rSD6A2WsbtjMmqX522esGHvuuecfHDvbbLO98NrXvvbq9hybtO19bfuHtgVBMH2Y1KTRIqbYCdJnURN+KvQUUZS/ocw7i7kFUMEAVlaVNlnIySSKUDyJEw+8h/IieRLND9Z2VnYhx5Thtddeu1jWbaotV4tXkreZAYGXmYfab2NhD/oZ3gNGFPOfd1DFYhU1GfGF4ite4x2QBywcFYlgdFMgpW7X4D3KezDxYO20/lkHrYcMbXIcFTBiYOVxtg2SsGRGVuRRUSM5lHR58yNr58xhspLGV7RNYZsdXvnKV97eKma/4dYWwiAm2qI7HIR9OcaxLL1LLLHEr1/xilfYlmO7tsmHdO4gCKaNSUsaKTPu+aKLLioWUURAMRshiazniICQK6E4Qk+F26Ts+OQFBVqYlhA7hkt5jsrSy2vlfZS3tcoqqxRvJC81D0s80EE/gwGEIU1RFHJRTqIQfZ4kxBFRFHoqMoNRxb6qweQF3ZzRQK6qQmLmjWJHjK6Kw9X5I9XDnBHanNzHGcdkJY0faNtOb3jDG+5Ublk1Oxb8GYUKhBboRRZZ5C9vfOMbv92ec4e28V4GQTBtTCrSyGtkoaL4I4u2YxBa4/55juQpKgXPYq7qZsJpgpFASUIO5UBW67py9RZ0RgcKNYMDIyeFOpb1oJchv7Busi+ksBaJYlDjUbQlBoPaKaecUvJ/eZiCYDjwNJtLIjQYGUTvWGcZ1+wTaSsP206plkv/TyXx6cNkJI2qnq7ftnuWXXbZ3wt3ECc/MyEMfiNsglVjqaWW+l17zjvb9v8GrhEEwciYNKRROIxy7rxDBK4EflVPKUE8ioii3DQeReEzIYzB9IAhwhp07733vmhhZ3hgWbe9AOs6wwSPNYNFEPQi6FLSf4QR8iSqksmIJldNRJf5awsNHkUeSGGJQTAtCGFlMOOBFJ6qyupBBx1U5hjySPcwxxhwGSKS+zptTDbS+OpXvepVi771rW896yMf+cifTRQK2qzCfjMScj/0oQ/9d3vuM9trLOJaf71kEATDYEKTRtXb7rrrrrJQkTVCCQlb+TjCrRRyUBlVxEIQjAYYJ2ycLQdWsRxeGvtACmFFJnkfr7zyyjLnkusVjCcYxlQN5u057rjjindcMRvzVa6uLRWEYTOIRJkPRgsMswqImW/WY1t4WI95I3kfGXBtcRXP49CYbKTxP17xilfsNe+88/5A2IMwsdGAxZeVgpCbZ555fvDKV77yS+21UlE1CEbGhCONciSExbCGK1xjYbJdgqIN8s5YzeWkCRlkbKplwYNgtKAIjuIhqkbyXlO8FYNQVEl4lrwe5FHolhA/+bVBMFYQhqpuBP3LJu0iLmwlJHyQ4i76iz4lVNVxIYzBaIK8Ux+AB5Ln+rzzzisGNTUFFM+hj4gIEvrPqWT+xcD2N0w20jhf2y5dccUV/2jjUFbZ0YIwIeETK6ywwh/ba3y9bfO4YBAEw2JCkUaLkfwIXh4VUAlWJeC1HXfcsZSJpyip7hcEYwFGDF7Fq666qkTDCMuyn5lmXjJqqBaeIiLBWEAotcgL8rDOQ02xEpUv5eAii0EwVkAMRWeccMIJzTbbbFO8jpr1m7Ht5JNPLt7J4K+YTKTxH9u26itf+co7VJhz46MNwk54hYqs7bVWbtsrXTgIgiExIUgjElg3mVbRT5nvugE/Rej2229vXnjhhZR/D8YNvNnCrczTiy++uOQ5TpkypXjAEUneHVt2WBd5yoNgtCD/UOSFLTN4vRkrbCe0yCKLFM+iSvS84uZdqlkG4wHzjgec8YxDiadx2WWXLeu48FVhqz43Tyd7AabJQhpf1rZ3tGTui+9973vvl0vUjQdPedxzzz2b97znPfe9/OUv36K95tsHrh0EwdToe9KIDLKcq16puI0QVJXZFLe59NJLi4VSuGAQ9ApsxXHrrbcWz7ewLBtiK5ojPMs+kKOVthEEDGUKgNn6gBFNs/n+vvvuWzbfF4Y60hZnQTDWEDUodF+Fc9EZcsPVIaCnKFxnXZdWMlkxWUijvRPnfv3rX3/AMsss8wNu6G48dKRRmeill1764Te84Q37t9ecq20v14EgCKZCX5JGOQ48NhRvskSREdsdsEwyGvk81f2CfgDLuaIQqq0utNBCpdqqfczk3SpAwigSBDMKHhtFwOSLIYwMajyLjGs83QmHDvoBdHp7hSpiZ8sXeeFIJIObCCLyc7JVOp8spFFo6mJve9vbjl933XWfZkEYzXzGChYKlZfWWWedp9prHddec9G2JUQ1CIZG35FGlnNWSNVQVaZUvIEiJHxFTjMyGcIY9AuEZfE8ysW1n9luu+1WwrEo+fJy5TuORoXxYPJAKOo555zTbLjhhsWQphIqQwSyeP/995ciTUHQL+Bgsm+yqtO26xBebV63XKJU/VUBeDIVs5tMpHHpd73rXad9/vOf/7GH341yupRF595oo42eb691anvNpdr2Kh0IgmAq9A1ptCjoI8W6bjgtnE9umPBUBR6CoJ8hjJr1XEjWZz7zmeJ1lP/PQCKfJ17HYCQ8++yzZa/Q/fffvyjWQlEVFDn66KNLlcrsPRv0Ox555JHiZRRdRD4ijnvssUcJZZ0s++BOJtK4xDve8Y4T119//f/PvkDd8AbwXrLMttd4tr3WCe01Fx+4dhAEU6PnSSNPTN1v8eCDDy5kUf4XsmiPRYuI9z4FHIKJAMUgeBaRR/Ndji6vo/l+wQUXFONItkAIOqGAzaOPPlo24JcfK/pCRVRVpIU4y1kUoREE/Q7GY/VQHnzwwVI8zHwnH5Eo850nnT4wkQveTRbSKER0ylve8pbDVllllccIt24UwrH3CyvEyiuv/Nib3vSmQ9trLtA2+ZRBEEyNnieNwlLsJWZvO1VRWRhrafiE7QUTFbxC3//+90tO2q677lrIo/mvBL1ql5O5EETwN5CBUnJU4F1xxRWLMqnQIOM5IhkEExXCsG1ldOCBB5ZdE8x/nnVbdMh1nKiYLKTxH9r2gde85jU7zTHHHA94yN0qhCM0Y/bZZ7//Va961Q7tNd/ftlRPDYKh0bOk0busiiSCyLNo01+hehYJ3wXBZAAPOsOJasBLL7102YRd9UuFcp566ql4HScp6vYtwvXrFhqMCrbUePLJJweOCoKJDznhwlMZlr0HKq0qkMfrOBG355gspPHv2/a6l73sZeu+7nWvu0eozc9+9rOBIRg9sLopydte4672Wp9ur/nagWsHQTA1epI0Migp2mDDaXmLrIfIo6qoKQ8fTDYIyeI14lGyKfvqq69ePI+KQigKFUw+2HNRcRsK8lprrVXyui677LIJ7WEJguGAOIo+sk+zPMfVVlutVFyV4zvR9r2dLKSxQjXTa9tF73/uu+++kr8xWnAu8fvtZPmf9hrfbNvCLhgEwbDoKdLoHRaSd8opp5SKqAS/8tqsiKn4FwRNY9089NBDi1Vdfq8tZlQNfv755weOCCYy5LRefvnlZVN+hNFWLccee2ypIBkEkx2KQZ155pkl15H+wInEGz+RKqxONtI42z/8wz8cvcgiizwnT2k0qx0piMEbsdBCCz3393//90e11/rAXy8ZBMEw6BnSKMyO0Wf33Xcvie2s50ceeWSp+pdw1CD4KxhWKA28Stttt12zzDLLFMu6jdpDHCcuhCkjjPahRhYVu7E9iz3sPPdURg2CphTAYWDmiZcGp8KqXEdpa4rnTIT3ZLKRxte/+tWvXuPd73731TbptKnxaGy9oVqSSkqLLbZY0577qvYaq7fX+ue/XjIIgmHQE6RRyKkcLUVubOBrXzGV0GI9D4KhYU9iHkYhWAiEfDZbdcjjmUx7lk0GMBTccccdxavsWcvxZlwTrj/RQu+CYLQgdF8Iv3B+fEMRsWuuuabIzn7GZCON8gvf9vKXv3zH17zmNT9qb/x/7T81Kw9RoqtY5nXWWed/X/WqVz3ZnlsBnH8fuFYQBMNjXEkj67k85EsvvbTsSzfnnHOWf4Vf+TzbaATB8OCd995SjBZeeGFRNsWiTlkazdSPYPxgazKEUQVdRZAUQ7KhuSitbKMRBMOD8UyFVRWoharONddcxTDNOy96qV+35ZhspBGQufnaduy73/3uJ+wnJNRmZqqpevD2fDSA73rXux5rz3l02+YZuEYQBCNjXEkjgW77HflZPIwKZCGMCUcNgunHQw891BxxxBGlaJRw1V122aUQjd///vcDRwT9CMZ0BnFykadEBMZJJ53UPPHEEwNHBEEwLQjftqez6uuLL75487nPfa7USejXLbsmI2mE17XNxvtHv/nNb37yM5/5zJ89VIqrKkgjhVz4zjHik88991wK55/e9KY3Pd6e68i2KbTj3EEQTBvjQhpZAG0XYE9VnkWKrvwcRT7iXQyCGYcQbwUfGGCWXXbZ8j7dfPPNJXUj6D8wol999dXNNttsU7yLG264YTGo8TwGQTBjEHlx2223lRBV75N9HXEOXKLfdI7JShoBuVPh9CvveMc7vs/ToMT+SSed9Je77rpryC05fOa7E0888S+bb755yWF829ve9kB7jv3btmDbbLERBMH0YVxIo4IOp556ail288lPfrI55JBDStXUhNQFwcyD5dzG/0KwFJOS73jLLbeMSt2AYOyAMMq9smG/HMZtt922uemmmxKBEQSzAHJQsT1b1cgLRryErj733HMDR/QHJjNphFe2be627fgP//AP57373e++vVUin9phhx3+pHKi0DUPVVPoxmftQvinlVZa6Ufvete7bv/7v//7c9vfbt+2OQfOFQTB9GNMSaMcAiWxhVgJtVpllVXK9gH2oAuCYNbB8HLllVc2m222WeO9btfSQhzjoeoPVA8jA7rnp0Lut771rYFvgyCYVcj53meffUrxMOlxIjReeOGFgW97H5OdNAKy9+a2zdG2jd/61ree/v73v/+e2Wab7cfvfe97f9eSw79o/vZZ+93d//qv/3pae+xGbZt94LchjEEw4xhT0ogw2hoAYeRhtO3O008/nXLxQTCKEJKKaFRPlVBVJegVzgl6F57bDTfcUEJShRgj/Dwj8RQHweiBYY2hWtEwus9nP/vZUhulX/aCDml8Kd7RtqXb9tm28SAe37anBtpxA59t0Lal2va2tgVBMPMYM9IotEoOsg3JXe/ggw/OlhpB0CUogsPjqPiDHB7FcR544IEYaHoUFFnEXtEbz2urrbYqHuLkeAdBd6CGwl577VUMNBtssEGRl/2QAx7SODVe1raXt+0VbZvSttsG2gIDn/nOMUEQzBrGhDQijCoks+ipXvalL32pefzxx/u25HUQ9AN4FhVPkTu81FJLlX0c5Q7nvestKAx2zz33NHvssUeRjxRYnuIQxiDoHshBhjQ5w4suumgJCefp7/VQ/pDGkTFb225q2w1t+4APgiAYNYwJaWQxX3fddcs+Y0KuFLOK4hoE3YdcnTPPPLOEg9vHkYe/n/J3JgNUkkYY559//uZTn/pUc8kll5T9p4Mg6C7sdarI1CabbNLMO++8JaRfzmMvI6RxZCiSc2vbbmnbXD4IgmDU0HXSKARVCMg888xTPB62AWBZD4JgbIAkqlDMaKP4lPydkJLegDyqs846q2w7tPDCC5ciYTPzbHiVVYG06b996Xo9DFn0ibVBUxWf8j6j8Bv3ykv7zW9+s3iJHnnkkbK/ZT/CM7QFhOri/hVizrhqmzm5/9ZoBoZez03WZ333bOwp6l7Gaz7qC8+hcRPdZGuiwQZroeGXXnppSZtZcMEFm8MPP7wc36sIaRwZiGIljSqkBkEweugqaSSsjz/++OLl4Gk855xzitAOgmBs8d3vfreEhduKQ2VV3v5g/HHdddeVcNQVV1yxhA8//PDDA99MP4Sx2m7l4osvbg488MCSCtDrxElY4HHHHVca0jczRNlawgBis3ZeWtUwrTeISj/CMxROfuKJJ5b8umeeeaYYWH3umao07hn3+hqKICK5ns0RRxxR7mm85qPxQxZt8cVwJm94KAKrSN8JJ5zQrLHGGqWpqNqr4eEhjSPj/W27sW3CU9/ngyAIRg1dI41Kx9tM14JuT6STTz65WB6DIBh78FZ85zvfKXk7Kqravoo1PYVxxge8G8jNl7/85RcLFSGMM+Nxo9zyTlHQ11tvvearX/1q8fT0Mtw7UqHxNs5Mf5GpY445pll11VWLB932JBdeeGEhW/0I66Ot5fbcc89SZdwzBWvp7bffXjajF6nT61EC5ra5fPTRR5c9Y3nPx3M+ml/77rtvMZYx0gwF3kfyEDFXGGfrrbdu7r///p7Mb+xX0vj3bbPNhc3039C2N3WpqZJ6x0BbcuCzbjT34F7ck3sLgsmArpFGi5w8HdVShaeyLA8OCwmCYOxAcbPn8YYbbliKUlFQhY4FY48f/vCHxctG+aPMXnHFFcOG7SOFnt0vfvGLEsqp8dxUgkmuIkrOp1ouj4lQVWSDVwrJoMgPBwYF4aLO619bfFQvi3P7rZBIBoYqw/3rM/3Sj07Z7j58pw13T34nbFqjmDu3Y11Lf3yv37VPqlpWA0e99t13393svvvupeLsBRdcUDxKjnUexzjHcPcFjqnX9J0xdU3X0gfX09yf6/neeTwH53Yuv9d/4zzUNSoc57z1+Tne+Vy79sM2ELahsuUKA4D70w/HeJbe1Xp/FfrnvM7nvPrm+E7oT70H53O88/iN433e+fymBfderzfUfbuWMGHz0L0gjTx50zMf/da41PP7jc864f71WescC/dgPHzu/L7TrzvuuKPZaaediswj/9xz5+8q9J8nUt0FucW89ohjr6FfSeOr2vaJtm3WNlthnNGldmXbfjLQrhj4rBvt2LZt2jb7Pv5j24JgMqArpNGicNhhhzWLLbZYsTQSxIR3EATjC9Z04W9y6NZZZ53ybgZjCwrrVVdd1ay88solpJIiO1IUBo+TYyjgPImaPeYUGKNgA0JxyimnFE/yQQcdVFIBdt111xL66l85f5TlwZBTKRSPIcF5N99886Ls885QwCnuDIBXX3112aKgynHnck5FlswhMp/STmFHGIQk+g2yMBQovrfeemuJRjEnkQPex2uuuaZszSTPk3fI5uv6xiMrjNXYIWnunWdRrrzQVBUwb7zxxnIecF1jYDzcl3+ND2JZgVgYW94nhHvvvfcum74LcZUf+eCDD5Ywbs+KR1Sum/XMuU477bTiTbNuIkX6iLDz8hq7TqLjb+TD7+vzc7zr6bMxNh68izymH//4x5spU6aU712fQeChhx4qFXU9A8QP9N/31lrXrvcptLVzvfWMPUPE2tjyADJUIFGOF/I6vXsU8u565nW+1OdjzJ588slyjGckt9YztEes+Sg8lDfdNXlSr7/++hfnbgUy6x7NbefVdtxxx+JdNRcrjIe5JQ/RdSrMC8/E81LcxrwyXp7pAgss0HzoQx8qZNAYDOeNNq+vvfbakk4jAsBzRpJ7Cf1KGl/TtsXbdljb7mzbw11qP2zb79v2u4G/hzpmNBpP5sFtW7Rtr25bEEwGjDpppDTceeedZSGx8FmgfBYEQW9AdcDPfOYzpfAKZS9h42MHxIpyfcABBxRFlvJele3BoHzz4iBgqjrOPffczQc/+MHmAx/4QFFoeUIQG6SEMi8FgFIutI4Hjlx/z3ve08w+++zN9ttvX0gaxRx4VfyG4k0Bfec739nMNttszcc+9rFm9dVXL8oyz5d14YwzziiKN1LjN6DPIkkUNzv22GMLSXNOHiKkBTFAFoZbV5AdObbOixTIgUOg9NM5kSBhp+9///ubt73tbc2cc85ZyBEiwDuJ6Mg9+7d/+7fmTW96U6kMzEuHNDgXgoQwf/SjHy3j5V9RL+7B740ZMoDwItUMnJ6He+dpQqTlEeof8oKwb7TRRuUZGCfXdj1EFJH8yEc+UsaaIYAHHynx/BA8hFHf5RPri2f4vve9r1wPMeQJE4nDu6hY1Zvf/OZyXxtvvHEhQIgPArzzzjuX6yF4zmv7HHmwzlvnhYYIGtNKyjxHYZcIk3tB9lQKfde73lWuY6yR8Do3hoLxQlaMO9nx3ve+t1zT83n7299e7tt35iuCh4zrqzGTorLlllu+eP9Ivvkhzxrx9U4gufQGn9t2xvg4NwLt+dx7773lGHNMmL2555mYMxXGxXg53rj4jXHwfNyreWLM5TYak+GAOHou+ukank2nEWC80a+k0V6Jb2/bwm1bu23/r0vtS217pG0/aNueA591o63VtoXa9ra2ubcgmAwYddLIWmyBXHPNNctCYTEKgqB3QLGn6FPOkRZK/nDhYsHogiIvNw254+lFyIbzZDiWgmybFCGYSCIvD3KIQPDceHaUZaSNgU5BHQoljxfvJAWZ0k7R9zeDAcXbNRFGxISsdj7eINdAIrbaaqvSN0TTcTx9vHFIGyCrvEDIAgWdx4di7XvXdbzzCcMdCjyMyJl74NVD9JA0xGaRRRYp5NH13Yd1xBqFOCPQvKo8hkjJaqutVnLQkDvhnMgAwsdj6j70g2ed1xKBQagvuuiiongzZlqfjA8S5XjPxj1bD3kXeYKRI+NvKxR90m/XRWr1k2eWt5FX7dOf/nQhGsgKklPDkJE1ZM6z8wyNs/7oJ5JpPP3GmPI2ei7G0X3y3Dq/37sXz5rn0Xmdw7hYc53btRFfXlj3gVw61vNVGdSc8+7rgzHx/BBgOc6uMxzIDPevDwzCdS7qgzFFRD0DxgDjanwZRpB9hN5z4OFDtI2l+9Zf92eczEvz3Hth7jnOs3ec+6kk07zlcTZOtsngFaxgDDBXjYGUGMfrh+t6LuYJQ4V5MpTXvRPCxY2t3+mHcO9eQb+SxrHCh9v2rbbZq/FDPgiCYNQwqqSRZVXYCGWUkkLwVst0EAS9AQSRkkqpY/1ntY+3cWxAMacUKw6miAuSQ24OBUowkiT0kkKOWFUIgUR+kB6kEVnjTeKBpOwiZUAh//rXv16MA5R1IaXInd/wbOkHQlG9na6J7CFQlSghHxR6nkPeLUSEko+k6pvPkQWKOEUdwUHoeNCErQ6F6lXi0UGWKMLuFWnUJ0SqFiFxTgQHWUF4ah4uwoGMIJ7u1zgyWiIMiLD7q8c6P4JjXap7BTu/37nXes36LBBrY2U8P/zhDxdSVg0rQj0RJQQdCfEsADnj5UIQed2QfqRRmKbQVGSlwhh6fnLtkHnnEKbqs/3226+QV8+bF07f9Q0R5Cl1TuussTeXXMtzBmOFTKlYjszyeHrXjdESSyxRrlf761kjwQiqz0cKVUcakXrP2rreCefzuTEx1/QFyTI2PIvG0FiC8RWCyhOO+CF9SLB7QEiRcJ8Zf2BQECrqeRoTx/IgmjfDeRrdK9lWdRpzQv+c2/mmB8YN2URYEWLP3LPoBYQ0joyPtq2Sxo/4IAiCUcOokkYLNIvloosuWgQ64TacQhQEwfiBN4AnRW4jpYzCmDDy7gJJoezz7vAmUZ5HCnujBFO2kTpKMsJWgXT4Xg4fMoNgICbVK1NzvSi6PDNIJ9Lh+vqBePDmIAy8V5V0kNcIFa8ZgsUbhNQhZz5DUhFUx/DqIGK8Tv5GPPXX/yncrjHc/XWSRuOADPCa8vppnR4k3wmXRWIR1WrgcI/IJJKA2LovoaDO676QnAohkwiDUEXk07UYNP0O8eKBQ5ArvAtyHRFAXkWkpsK9uy7So1orQgXuH+FD2pyLV8xz0l9j1pnD59k5hsEGIRVW6zPnq145IZ6VNCJ3SA/vnmN5U/XbeosUVliDGQ+MITLq2SOSnj+PovFDTkHfkC5EtxLv4VANDfpUfw/65/quicSSKcJcPTPXp1sg6Z25pAiZsHheRPfjmfHmIZ0MDkheBaMKI0DNm2SsqONf81gr9G8o0ujavOHmv1zK6YH5Ypx5PpdaaqlC2oXe9gJCGkfGPG2r+zTa6D8IgtHDqJFGSgeFgmCmEFEmOpPXgyDoLciVouCy4lPWKPlBd8BzQglF7GpYY6dyPBSQIL+hsPIEIQkUfOQN4eiM4uDZ4bmk5PqXFwmQHzlZlHrKNDJG+UUkeA/1A1FBICoQUIRSTiDSiOAhNsgYUsiDyNuEVCEJyIGcO6RWSKX+8ZiNpGQPJo2u6dxCUZExYbmAlLg3XiafW1cqaURWnAMpQQZ8jgQaK4Skk1AAT6C+IZT67ZqO5/Vy3eoNA2Tc713TmtaZZuE3PFfGFKGu3lReZITZuZDo6i2zNiJvPH+en4YAi8hBVs0Jc0H/jaN78swRJmQNAathsT733nrG7oNH131UIGzyOd2n/hlbnjn95VH1fGo4tGN50BAw5HV6imKREZ4FL6L7MD76QYa4J/PLefWphpe6785wUPPCffrOMcYW2RZmq++d8xoJZjAwd3mZ9dH8Q6wHk0Zk1jPUr07S6Lk7Xv9mJBTfHFCUh5HHM/EMeyGMP6RxZIQ0BkH3MGqk0YJHseC1sAhbWONlDILeBWWUEsorQYHr9O4EowsGNN4qoaOUY0St02MzHKrHg2wVwaEAiYIrlEahgBRschaxooA7NyJRq4giCJUgUrwRPdelfCMLIkIo6tXTCJRSXh0GBaGVlG7HICpCSN0HMqnSqSqViBzFnqfK55R2pLKSk6EwmDTyxJl/SCxCUr1nSCPPFM+a70YijfrNm8hjhcgM3pOPZ5LHTRgkLySvmT4jFPqsHxVIjntzfk1/K5Ac5JD3yvUqIRKmiWQgjc7vuSB9rmHs5RR6ftq73/3uUuDHM0Xu3P/0kEbjjAT6jTngmfutcQLPESF2n8Jz3RMCjpjql++qMRfZdS+ewbRIo3sxfjyVQnnrfWj/8R//UYotmXuux9ihT+YCYqfPdT6COev+eH3NM+Ps+owU7r+GFAPvoc/MCfdaSSOSicz7bYVjkcLBnsaZJY3mb52TQlR55DvvY7wQ0jgyQhqDoHsYNdLIykqQyZugaFBM6kIWBEHvgVJE8aZEU2gpcEF3QPmnuKreSEHmsZkRr4XnRAl3Dr+nMCN9PCtIBQJUi6VQ0qv3C4lAGniaqqcRyeGt4iGkECOE1dNIZlP4kQyhmQioc8vH4z2s5BEhobA7D0LjM98hM/o1LaPhcKQRMfIZRR/0h9cKcZgWaUQ2XFc4r3EY7Gm0xnV6GitpRDCMqd9WVNIoNFITElmBaPmNhphWj2oljTzCyIlzuCaixVjgusbGM9QPxhpEyVgLoUT8RyKN7t/nQjSNA1Iv/7TT01gLLSHB1dPo+Xte+lXJLCBAPKXubyTSiGQac15K98EwbC65D/djLlr7kXWGhE5Po1xacqUaSKoRgNcQETM2xh0Jd6w5NNjTaA56pp2eRuPsuet/hfO6d/3xbOocmlnSaJz0xdxWaVr/6twbT4Q0joyQxiDoHkaFNFpULL4S3pHGTkHer6gVBoV5WbQpBjXcaEYxmucKhodQPGNMeaBsdHpPgqHBK0BJtdUCaz6FL8ae0YV33XzkzZ1jjjlK6OdIhKqiygxkojMfDoSnIhEUcrKbFwipdI1OT2MnaaR4U+p9hjDJh5MrRrk3D0C/KOVCPJEDZIUHxzslX0zfhSRSyoU2Oo/PERSfIXw8MrXYynCYEU/jtEijz5FGJA2hQoCEYiKGFdYoBA/Rcs/6bFzdA68VEte5blXS6PzaYE/jSKQReZI7qt88rsgNItOZT2c8kXvf1cql+sPgisTJafR7948kVNIoB9B1fI8EIpzCjyvMM15lZLTmNBoTnurBnsbpJY1IlrHmvZQzi0Qhs1DXfs9R/9yvuWSdM+dULHWPnm+FMGbnkjNrruo/g4f7Ecramf9oXIw/gm2eOlY/kdbB3mTvgXno2fMC1znoc+TWc+l8BtMLHn3GHrmtxmF63t1uIqRxZIQ0BkH3MCqk0UJlEVNNTk7NrJyrV2ChVNiAcmaxotjMbKEQ5+JZsPjUcJzOHKJgdEBRoRSxXpuPtRhIMDIo+Qw+QhUVpUBWgtEDwkfR5aUhazuLqowEijZyw7vEa9ZpaOIxQXR4msxzsorizRsyFGmkRCOCyAx5xPODrAg1pNTzagHi4jzkuPlAKUcQeC6FpjpWhVMpCO7JdSjyzsW753PXQDRHAhKGqCAsnaQRuUIShiKNvhtMGp1DCCQyYN4aCwRGjh0CQSaA85MLiAryjEzpu3tAKHjmhiKNzq8NJo3IoTaYNCKglTS6Js+efmudnkzvGeIjpxGh0+9KGpFm4bgIeSWN5oBz+N5agvz7PyLIu1Y9yzzCSJPqqZ6jsbMeI5Kez1Ck0fXq8xwK1j1Ez3GIk/WwwnX1yTV58ni+PQf3YtzstajGgfEG6565q++em2fu/qyN+uczc756A31vjOR/Cunm+WPUEArrHpHoui57RxBPxyKsCCdU0ug755tRMCw4p0JCSHEtfDReCGkcGSGNQdA9FNKI7BGshD2hPCOEhtVNzgwhLdyE9dVC1e8wFiy0FlvWe6XOqzV+OFDqKG/yXDQWU+epiy7LL6XOIsujMxyq8kM5saj7uy6iwfCgJFDAKOcUx6qoBCODkkYJM8+FIHaGhwV/AwKGsCAUMwLykHJLsUYoeGamB7xRlFTKN3JAtlLYefso8OQJGUGJRVB8LqQUsap9JLOEVvLsVE8TmU3GUN7JI8owhZoHyXkRRgp8reAJ5I++8NIhmt4vch+hpMQiZMikviKR05JXxgABReAQL0So9ocnE6kCpEkfeOV85/12PXAM7xbvoTls3UKGzWEExn0g1kIzkULeN2TFGHiOxsb4+Q5BJrMrEEEEQx+1zmeGnFQPpOtWEmENdf/kj2voC8KOSNrvz/vl+Qnz1Cc5fcbeb4T5eu/03TzRV8Yc+azIKALo9z5z/2Sdvx2rCb9E3I0Rb2DdQsNz1i/k3HgI/6yk0Rxxz441jsZiKDge+daHtddeu3igzT0GC58ZB89enxlEEElz3jU/+tGPNksuuWSZm+aT3xlr10SMPXd9tD7ymuojWSRctcpyY2T+et76Yj30LthDE6H0N0OJ480FxNbxNTy1GhIUoPKs3WcNl50eOI9n5P68I57JeCKkcWSENAZB91BII2FqYUFyLGgsohZUC/a0QDmw2Ft0KCUswrVyXz+DAmKRshBRqCx4FreRQIFi8bYgahQKi5PPa+VEyozFciQCSgmhoFl0Lcj+HhyeFkwNygHFiTJGiVIwIpg2eCd4TShc5qhxDKYGgxCvDu8RT8r0hpgzPhlf4XTkCVk7PSBbESbKOWVdCDHPzfve976iLOsL8oME+heJQPY6C48gusgdZR1BI5P0m2wnZ3jEKMPveMc7ynkp+ZR0SjgiWsMQHY+EIGGICc8XhR8QLOGTlH3ksZK6kYDIkm88QAxjSAbyiDBS8OsYua7vyF/fIV3V0+gYJBcR9Fsy21hYf5AX9/WRj3ykFGvxL+JmzNw38lGrh5IVSEEnaUKoeED1UevMabQ+8txq5H31NCJyyA7DgDXR2DmPa/J82rPwQx/6ULPccssV8iLqBLlxv/rhmekD4m9vSM/YXEMorRk8k54LLy5DpDWFN5X32rk9P/+6vmfl2Rs//dJXa4+qrp2eRtfTB+PIgzcUnMO9uG9jPc8885Rr2bifrJVrWHMGkVL9M3fMEXPFvOBBtL2P51D3kPQ+Oa/ze3bktb5IcVHsyXNTYMcaaA5XY7Z/3Z/5rA+KCiGmNWxaHxl7a3iqSCik1Z60+uCYGSF+jDfIsXvx3MwLfR4vhDSOjJDGIOgeCmlkJWRNE1rC6+j/Fj/hSATmSECkKDUW6JoXMpIXrV9gYWL9REIQ4ukJKbMYU2QsnBpl0VhQ/ixSFCoLGiViJNLoO4qCkB3hsf6uC2YwPFjDKZWUF0oSRSOYNihviAYvEq8K70gwNSjVvCyUdDJB9AEZMa0cJ2GOyBwFm1yYHlJV4dxkChlLdiD2zoMgUorrtckZ5B/J8PyqvKCUux6FX0ij33QqvAgP2cbg57zuy1yoCncnnIeXDdEUGloNWQgMWWe90IdpGdfAusLLZWyQTwSG0dIa5BrV262vvmPA8x3yVtcXxyBtiLDfVoIL+krOms/uy781tLNCv5Ebfajezgrj1xk10rkOIvLIllajSQBZsv4x8nWOn9BfpFofEA8kFHnzXN2PazuPdYIMQxCtpdYL44k0u3+ez87xdb+eNc8ymec+ESfHda4Xnf2yDlVjh2Pcs/E2jq4zEpBx567bYyCn5qU+uA/nr2ueeeX+ECzzzrNA/vwGyXQ/g98b6x7yjAg7v/tBZhHEzmcLrmH8a1+c21rpHXUvvqvGa+MlvBhRRSbN92npNZ1wL+a894/nU5js9BqMuoGQxpER0hgE3UMhjSyaFhMkhQXxVa96VfOv//qvJReBoLUQEMBDKQMEPSu2vYxY0y2WgwV8P8KCSiEUjsJryAPLwm1hpQTwxvh/5+IMxoMyo7H0WlwoJxbQTtJYx9L3wnmMr8WJ4uAzv7XY+9w5fWaRdS6/dV2f83joj2YhtJgOZQX1TJyPklCPp6j4PyXIQqQfwynACHHntfWPBbeey7hUZc45XKt+5/ws7tXCPRj65j6Naf1NHd+h5lJVJCl19Vj9R64pJMKfhEsPJo3G1nOp19Aojfo2+L5dwz12jq/rUOpGGqd+hHlH4ePh0Dpzr4K/QYgiL8hrXvOa5tWvfnUzZcqUQgAo3eaJeTGUMonI8RRSbinvMxo1UGWI9907pvl/57XMV3PSOzbUXK7fDdU/71g9t3+9J0PJkJHOM9y1h4PfO76ey7k7P+u8fud1/Vu/82/nOQbDfXmH3Zd/h7qvwf3oxHDf+Vs/tM7Ph+uPz127sy/65vN6jXp8PbbK2fpd5/13wnedc8O5HdeJ4foF9fpDfTcUHKdfda64dh0H3/nb9eq9aT6r919/M9y1HFvPrxmH6Tm2Pl+f1aYPFf7ve8f7d7hzDgW/sbbwMorK4nV0vvFCSOPICGkMgu6hkEYKDdKIHAqjef3rX18E0hvf+MZm3nnnLUngQmhYDCnYnbAISKJffPHFS2gbstAprPsVFgqkkUXfYlFzUYSqCnPhkWXdZMF0bIVNmlm+WY9reJdFiicXaWTJRxp9BogRC6kcF14IBMuiioSx0rKaVit0tbhTUin2/mVp1R/eDzkvlP+aY9MJIUoIsLxTx2vChOS/8J6wbOvzUAqt5ynM1niwyrPiUn5ZhOU3uTYPCOs58oeIIm/1OrzQvBdDbWZu8UaonYvhof7GeVmZXXMw9EUYtHnr2nJYhJe5Jg85aztDRidp9BzMb6FJzl2vIR+IB8JC3Anj4F7N7Xo8hcE4DfUe9DMoe6z5ioSY1zNTLGIygEFMmJ3QOfLxla98ZQk3NDd8zvPIkDEYPEdLLbVU8TL1QvXFIAimH9Yo6zED0WKLLVbWKjJzvBDSODLmbdttbbuxbRTcIAhGD29v29flsNQqcxRGiuPLX/7yKpRKkzdA+VfWHVFCDCg/CA4lHbkUJuP/EwFIGjKDfAjXFf4jb8Pf8ijkjlhAfMYKiZQAoscziVDyTFSrcg1PFaLEo8uCyuuFMFI4heLIV0EQERakEMFB1hFHxyPkFFChbrxp8qOElemPXJG55pqr9NMzZH0FixuPYC2wYD++T3ziE6X0v02Z//mf/7l517veVZ6t8DLeksGwaFqonANpdk0LJ6/p3HPP3Xz84x8vuScIKWIql8VxrqHJxULwkDP3AIiosVE0w2+QV+dwL/o322yzlTwV90jRriSbV0yYGpJKYfebhRZaqIRWUso9H55z4anODcbAsxRqjJjqj+vo9/zzz1/IthwkZNS9upbfukfedvfgeNdxDUUuhiLm/QxjLOfLnO4sCBK8FAwP5va//Mu/vEQ+vuENbyjk0bzz/jESMfIAMqlkv7kzrRDAIAh6D9ZkBlprrLzLkMbeRfU03ty22X0QBMGo4b1tu1QVsuoF4ilCSv7xH//xJUrRP/zDPzRvfetbS4I+UoksUTSRTcdT3hHKieBlBIQY0UOMEBgKIVJHoeZp4nnkoUMqOjcvRhoRQx4pxI8ntpLGGurKI8cLiXw4PxImDFgIJLKHuFUvIvJJCa2eRsQTgUHShWAilPqjUITnwCvm2jWnhkfM95RZz4zHD+nikeTJU5SBhwl5FWJXyW8nPFPzwvNFspAoZFa/eCeRYGTV54hYJcCugYwpWGC/LuRMzokFt5JyRE5IpFwX9+Cc+utaCocgk7yw1aihIqr7Q3KNj7E0Vu7JWFYi6V55VwFplnsjH4WnF/k1bu6ZUcC1KQKV5Due15cxhHXZ/Tme55H30qJdSexEAQ8ZYs8IIJwyGBqeu3efEa1TPmqIo/B+G4F7F81JRg7hbOak+T/RjA1BMBnAmCiKhf4j8miodXKsENI4MuZo2w1te7JtR7Zth7S0mWxbte3zbdukbdsOfDbZ20Fte+iDH/xgIToUaIniPDyveMUrXqIQDW6IFM+V3yESlHVK/0QBYsNbgDiwLtpcuLNACGUQMRGWixQh3YimRH4hjUhIrWBXSaNQV4SHEolQIT28FogcwljBqokIeRaO8TdlFZnkzZVLhewhM50WT15I5BYJRFj1h2dD2GbNy6yePqgEjEdTvt5IQIr1c9FFFy3eKN4T3s8KBHiRRRYpHlhV/joLQSBbFjmeLIQN+XU+v0HYEE730gkea8SRgYICblx5ZhEa827wNYwDT6acs/nmm6/k17onfVSkQZVGYzDYi0aJRwJcw+8RZ79DsnngkdrJAEQZEf+3f/u38qwYJNJe2shH88H4vOUtbxlSLtbGE8moZG4xVvDmM2qQB0EQ9B/IAEYhOk9IY+/io227um1/aNszbXs8LW0m2w/b9uxAe2Lgs8nenmrb7xR2eOc731kEIjL4pje9qXnZy172EiVocEMqFctRqv2f/umfyu8GK/79DKRFPp0QRZ4znqoabgaUPyRQDiiSyGvmN8iN/LrBpBHBcbwQNaSn7lXlvPIYO/OckENEq5M0yptEtJA1BTWQIqGsneDZECLKQ4cc+Q0yK9fUtRCuzntQic8CyHKq3PlwITc8jXIved+QK95PXuZOuG+eFGGjKs3xsFbUIgL6jZjxGuo7r6lx8Jlw58FwD77nHVSxTli0XEbhvH6LRHbC8zIulHQKvjF3jH4j9hZ9+Zj6Zmw8G8WDeIoZBRAChNGY+ZsHHqlHrpHP4cZnIsDcMs/l6YkoUO4+7aWNfGRg+/d///cyTkPJxc5GJgqXZlRDIs3BiRK+HwSTDdYPcoDxJ6SxdyEk9bq2IYxnte2QtLSZbJe27b/b9vO2nTbw2WRvp7btCaFWlGYEgmeNJ2tankYkU+igzXiFXvE0KvAyUVAL4fDSIYXy/TpJA+UPkUECERXHIiFDkUahLcgIjx6v5dve9raiUPKwOX4whiKNSIsQUWPMO1j36+qEcyFYGsLlNzyNPJvCLJHGzpxFIZeeu/BYBHIk0mihYhQwFsakhotW+L1+uY4Qzk4SbGzcB6+i0vNCIRFJxyMqxraTzFbIH0PajaXf8UwK8TVP3X8NCa5AAHlDfe93iK0wYN4ec9UeXUIw5T+at/Vf3lO5nq4jpJUXGUEVjsQ7KuTXOAnn5bXsvLeJAuTaPb75zW8uBZIoRmkvbdXAIi+WYW0ouVgbQ5pxpGjKsSUvvZed3vkgCPoH1dPoPQ5p7F3UnEZt/ra9Ii1tJtvybbu/bde27cMDn032xpN/hZBGCjbSQCDxGNl2o/3uxcbzqKrq29/+9qJgU6Dkp1GyKf5y2XjNJgoqaazFaxDEToVPuCgShmTXYi3DkUakC2n0ueIzPDkWH6RFTt7gSpzDkUYkUQiw/iBunlUnEDfExnXkVroHRJN3jtLrc+GhPGfO6dw8k0N5LTuh/8I27W/FY4mQDa4SaS4YC94U993pUUH+jAevXfUqCvV1vDGQWzhUrpfx5/HTP6RR3+U3upehSDOPrZBWnkh99HukkSdx6aWXLlUvqze9sykiJDfVb+uYIvrCk3lVGURYmOX71cJHvJXGZaLA2PGKKULEM0spSntp884LHRciXiuodrbXvva1JfpCoSUh4mSG+eR48pGXfiJV3Q2CyQKyXsqCtUBqBHkwXghpHBmd1VM/4IMgmEkwOtzdNh7Hf/FB8Hf/1rZL5G4hBcDDIuRysKdRrhNvDSJTN3emRGmU/3nmmaco5/4/EVBJ41FHHVUsixRpBLDCoiEvEUkS/jkSaeSZkrPIUslLgWQ7Jw8E75vtKzpJ1rRIo9/yuA329iGDCtQgjkija8tVU83UdS14iujIPVTNUcEOnhP5j7Xa6lDoJI2etdDPwdtnuFdkFqk0BsavAsnigeRZRRoROeOFgPkMcR7sNQT34/4RN78TfovYucZQpNF5fY9UIo1Cho0RY4aQYOPO2+v/tfFMygVV0Mcz6jQMMKLY4sS1nU/Yr3fDs0WEx1NxGG0gyEijuWG+BUPDvPfOCFHtlI9C/I0dhVLuMDla56eQcnm2ohIGv7NBEPQ+GAmtRdZPa9l4piqENI6Mzn0a5/JBEMwklmrbd9p2Vdve54Pg72Zr2+X2YZT/pViLEDUEsf28ed3rXleIhj3GkBueHrltnSBMKVFC/HiFhPZNBA/MtEjjjHgakQvji1QbK2GeCJHiLPYYFKapcmcl3AjczJDG6mmspBH55EHUP6SRt01hGXsbasJSEUZetZEw2qRRv3m2eEt5X4SPdhYCqjBOirP4nRBWRO3MM88sOYvGZbCn1T1TzO2niKDz7hoz81a/feYcMwtGAnmOQlyF/04U0sioIeyWd8y8UME2mBrmvHfrox/9aJGPtiUSOSBnUQVgHkWGisHg6VegydxEzqf1vgUzBjJWGD5ZZ30iK8ks/wpZJ3vJim4r+q7J+GWeiKYQPTGa1zRv3AdDlnuy1rp392xe1T1+g9GF52rcGWQZhqzLIY29i2zuH4wWlm5bJY3v90Hw1839ebwQRiRI9UvKEMKILFK0KePCEYcKrUIahW1QpuWAUdQngjJdSSMizHMll3AwaeQhQ5Rq/pzvkT95fxYY5KmSxrrlBs8kAmTBl/vnWIQOcbTwA9JozI09b1zNT0SAeMX0R9jsYNJI8eeV05BO19AvixwyxwPiGKGkmu+GyiUcjEoakS/363yDSaN7RWaRM2MwmDRSthFEpM+iV/MzhUIrdoMgmktAOaIAuX+h067pHPLu3H/NpXWPVUlyPuRYGKCy6MZNH53TWOoXskmBnxlvOCWBp1M4rf4qHGRcJgLMAdEDQpURR57vYGowjDC81NB9c00otLlbiy4NpUzKxRXNoRCUd6PO82B0gDAKBWaU844iUQwh5KPPGbnI3G6Pu2vyMIt2EN3BiDdSBMeMwtwiy0S2kKPWC7LUuyuEn0d7cHGwYNZhjbFvrzVanrLtscYzrz2kcWSENAajhZDGqVFIo2IfFiCeFFtI2M4BAbAIIYEjASlSaIUQ42FDHiaCUoSkISoIca362XlfiAcShfTwerH+VoJCkUQOKd8+QxoRNCTIuRAfv7fwCItUcbR6x5wHAeJd5K20UNm30DhTCCgjzoG4Dd4ovHr7PDu/QRr9hiKFUAnNRDZ5TzX5gbx8lWAOB+SIAqbf7peHdLBn0L3ypCCGxsD4VfCqIm2IngqyrPC+R8r93zmRMccgvIg0YiwctCrlLPjGkSLGa4k48vgZZwqT8wgNZOjg9XYe56doIaCen77xCCF9lVxrnp/veYk8L0onRczzqMcg3cJb/UsRFfY7UVDHR5RBJcTB1CDbzLuFFlqoeMC9S0jCtLw7jD7eWfOHt35wtEYwayBPKPIMU8a3vpuMRmQc+SoMfSyMmWQpeYSoMhB0ysFZhfWCTKt705L/mnsj18j3wWtCMOtgLLdOW1etYYyd4xktENI4MkIag9FCSOPUKKRRiCSFmTcMAbzqqqvKwmvBm5Y3hcLEQ0nZFMIqjHOo/LR+g/tCpJERpIG3oFMBQPoQCwRGWJqx8z1PHqUBqUNwfEZZQbKMLWLtXFWBQRApAcYO6fKdRYEyyjOJ7Akh5bkzrpQi/WHNrnmoFTyXvL2u7zeKdvgdwooYyauyZYCQ49oowEJmayjtUM/bZ+YDa7371a/BW2TU0FgeVmPQqUiz0iLfCJfwWr91TmNAsUNcFaKpWxsoMqKviCMy6j5qv9yP+0QQZ5tttnKs4i1CbT0ruY48v55JDUWlbBlTc5NX3W/qtbQ55pijkFbP0xh77jyV+tDZJzmgzit3ciKFGCpKhCBTrs1bXrNgajCgmV+MaQqAMTBMT5ia8WUAMr6IJlkRzDqqDGHcI/cU2hLyjljx8HleyCTDk+cmVJW8JcsYyYYj+2S20FLkXiMTphWdQB6QU4p6MdyRqWQ1Y5s+midkl5QB53ZOHv7OPvheNAm5rjH4OaauFeC+fO4c+uleeB3NLXLPPQajC8+QsZbR0RrGCDTUOjlWCGkcGSGNwWghpHFqFNIotBRptCCxVHZ61KYFCjlPEisn6zsL60RYuNyXhZnnj4eBAtKpIPoe+UG2kJOav0LJQJqMib99RqGgpCBPrM/O1Uk6KAG8cwijYygffksZ4vWxaFWlA/nUH8cNfk7O49oIp98gga5FqUDAeDsoM4ifhsDy1CFgPI+I33CKlHMheO5Xvzq37gD91S/f+9v4VFCEnNseiRTmzpBY4+AzXkyKde2bsGDWdGMxGProOuYakkphpKyZw+Yehd5zqx6HCmPiOJ7Seh3N3BW2iixWTyPvrPPXY1xH+BuFtPPeJgJ4pZFuHl8hzO4/mBrmIq8s4jEj8BukRTEmhEJoeDDrIBPJJERRzqgqyAw7DFTkILlMrpBzZIT3l3Fu3XXXLdEMlP/BMpRXifFIhIdIBg3pZLzqJG+DQR6S7fKvVc+1DRUDFa8UGUxue88YAclgjQGKLHVea6/rupYaAxrPPyJoDajrhfPwepF/yAOZViNAeFX9PxhdMKJZmzwPY8wIO54IaRwZIY3BaCGkcWoU0qj4xVAFHKYHLG4WKsREbh6LZyzpvQFKLiJqgREaR5EaDESJYsLLKURxKJIWTGwIb7MXJYWasWNGjEbBtMFIwigkp5ZH3TsZzDqQLQo8I5DiRG95y1saew4zkDE4iUhQIVkUAcIuGsY8f//739/MO++8hTjyAjPGIWXmPcMXkinMXSSGyAyRDEgeYxxyN5SXiVFQhA6i+C//8i9lWyVEFlFFXvWHgU5khy2r5Lgipj4XuYDA6p+iSsivJpLC2oxcWmP1E7F0HjJb3xkuGXp4wUIauwPPXa43Ii9VYkaNRqONkMaREdIYjBZCGqdGIY2KjcwsaQShO5QiRSI0Ftdg/MHDhwgKP2aJHmovRp4zoZgUWiE4IY2TCxRRXlSeEUo0T0unFzyYdfBMU+Z5+hEQJGA8w9smCsxTZA2RQppsh4N4yc2nWPPw8RAJP1c1GoG88sorC+GSA6gJX1XkDRkUDeE7pFP0gTBkxlDeQzIUceT164w4qRD9gMAJ3VcjAMngVURcRYCoSKzQlK2OGGekdLiePvJiIpCIAAIsZ1oT4YDwCom8/vrry3ncq3vUP7/X95DG7kJaBqKv7kD1DI8nQhpHRkhjMFoIaZwas+xprOBdFMqz2GKLlUVMuE4Uo/EFAqAwA2WHpR05lAtZG+VV2BbSIMSLlX248NRg4oGxR7gbpVj+pny7oDvwXsn55eHyL8VvKPIRzDh46njLESn54TUsXag6r5yK4PYgZSAD+YQIpOgL+eHIl3PIORdx4T3oLCjD+86ohvQhnQjmcBCCj3g6h995x5BbHkW/F42DEFb43nHk7xlnnFHSHCr0iadSgTDGP6SUR5I8R0jjaewuqlFCzv2UKVPKGuq9HW+ENI6MkMZgtBDSODVGjTQSZAqwII6spRbiiZb71W+glPI2ys9DDGxMTIGqrebdIJDyAClD8TJNHshdpHBSiHk0KMRBd+BdlHtG2aPg84ZRSINZB28bGcYoJme5KvZIFyIpJBU5rLm6wlB57HjyFAirOeL+L99RQS2/rZAfLe+bp1hxGx6/oUB2irhRVAqBk7taC6Ex3iGpiKNrd4Lc1WfFb3j+K5BchAVJlHMd0ji28Cx4gT173mN5/0NtOzbWCGkcGSGNwWghpHFqjBpptPBJ0Bd6I0xI4YeQxt5ArdCqZDhyUJviJ7yNcm7iFZ58oJSqOClXh6eD1zHoDhCKWkW45rMpkBPMOsxbHjkeXNWZjSuSjkya18geIlgLcPmX50+hK9WCpVOQgXIZbd6uMJzfKEqjKYAi11DqhfMhakMBObQGIqKIY638jDj6m8dQaCliOVjeIgLCIBlcHWMdFT7LM8nDZXsnhDCkcewgWorX2DY7xrxXInFCGkcGolhJ41w+CIKZREjj1Bg10mgRFA5kIbZPngUSWQkZ6Q0Ig6LAUJhqsyhSaELuJx88c4U7vPtC9yiyKuQG3YP3jfHGBuGIIyU0796sYyjSiMAhjXIW5SjKTaxhpTy8cgwReOQOaazbEs0999zNu971ruZ973vfi03hHJEZPJY8mp1eyE4MRRo9c++VsFX9Q0wVVqnw/HkYeRJ5OT/+8Y+XLX5cVz/8LXpHARae0pDGsQEjjxoA9gpecsklS+jyeBfAqQhpHBlztu22tiGOn/BBEMwkQhqnxqiRRrBoUopYR4XhWOA6czSCIBh/8MJQiCieyyyzTDHwZH+3sQE5K0yRzKWIIiAJCZ81jEQaeRhtc6KoTa0KjDTa/kI+N+JoT1shqMger5JQfh5IXiaNdxHpFOZv+4XhchqnRRrljguB7axiLf8SgUUEbRyv6I1rejd9xsuJEMqD9I6GNI4NPBdVjhl3kHZGtV55T0MaR8a8bbu5bd9qm1DVIJhZhDROjVEljWBRtWgKUbUADrXNQxAE4wd5OQqHUDzkM8rT6sylCroHY69KsbEXIn7BBRdk7GcR8rERO5VSeeQo/CJcEKrhPI2dpJHHt249hDAiC53bztRzWdvkiA9XwAhpdF7rHwInr9+zFdJYPY1yKzs9jQrIyVtkSNCXzgI8KrUir4w69nv0XUjj2EC1WnNBFMbhhx8+rHd5PBDSODz+sW0rtu3Gtt3QthUGPguCmUFI49QYddLIqsoqx9MoTJWlN5b0IOgdUFR5MORvUTR7SSGa6CALjT+PkzL+8tei6M8aKmk0pjxyxlPYJ08jQiYvUWXSwaRR4TZEjWGTIq5QEYKp4AmCWOFvBXUQPgVthtuWCGnkNVSQR5qGDfiRTykASKPfDw5PNRd4Se1vrC+dHn/GHEYdrd4X0qgwC4JbSSPvqi2VkJvMpVmHZ8ag4P1ExpH/XqoqHtI4POZo2wFt+3bbbm/b/gOfBcHMIKRxaow6aQQhqRZkQlexFUUGYk0PgvEHL4zy/cJS7T3XS2FXkwXIBY+Y/XGF8gvptw1EMHNg9JBryFCpeIztNBBJhZ7sm2gbDaHAlexZn1SvReIQTTmNjJ0KFSGfikMhj0JMETGkbdllly0EQgGd4Ugjospr6bzCGnkIkTzETtiq7T+EynbuYyxPUQEcXi3ROYqV6bN7EM7qfuQ68pja01EesiI51ldk94knniiEWGgrotPpqQxmHAwLwpWNO6M3Qj9cOPJ4IaRxaPxT277YtmvbRsnXrmnblm17bduCYEYR0jg1ukIahfNYLFl4hXdYfDstt0EQjD0UQ0JQKNEUUQpyPBPjA3l45KJS/uQkeRnMHHgOES9VgD/ykY+UaqM8fjbWF5YqnFOhmar8CxFG4oR+aoieNYs3ifdOBdOlllrqxYI0itMgdc7pWsMVL3IOxI6X0X6cNvIXRirMlHGGJ7FuR1Uh1BXB1Q8k5T3veU+5nnnhPDylvJOqXAuhFTaJlNoH0kbz8jd5IXmskU2EIph5eP7CiOUx7r777i95Vr2CkMap8da2fbJtZ7ftsrZtPdD8fVbbhKz+S9uCYEYQ0jg1ukIaQe6HRbZuaGzRtuAGQTD2oJxSOnkylltuuaLAUlZ5vYKxh5BFnjCKKS+WfDwEIF7fGYc5zOOm2A3vnHxdXkMGEQVuEHL/ZzQBUS+ORxa1zvBsxJInUNg2jx6vI6LHw1i37BgJCt/Yn1H4qJBWezLyNGquJUx1MLHj5eQ1RPp4InkoGXSEt3pH9cc5RQnotxBZx/NS6pO1W5EeBGc4L2gwbRhf5Jw+xLBmzKfnmY81Qhpfile07f+27YS2XdQ2nsV3t+09beN59NnxbVu2bY4NgulFSOPU6BppBCTR4un8SlezBmdRC4Kxh9wp76I96ISy8XwE44/LLrusRGMIFeZVQi6CGQcvHw8gAslAgnz7TKt/d6J+Ptx3zsPzqPl78DEjwbH64Hf65P+1DXU9qL9BbOs1HVu/q78b/Pfg74OZg+005IYiY7bEEe7cS3mMnQhp/BsUufl42w5sm+I38hnf27a/H2jva1v9br+2fbRtr2xbEEwPQhqnRldJIwgRYjkVrkNZveeeewa+CYJgLMD7ITdH4Rt7zclpzFY4vQEKoGezxBJLlDxTxVh4IYMgGBsg3MJ+bbcyZcqU4lnm4e1VhDT+DR9u295tu75twlB5Ewdjubad07br2rZH2yi9QTA9CGmcGl0njaynKtWtssoqzfzzz1/CsGykHARB9yG8yhYC8r0YbhT+yJ6MvQX5jXLS5pprrlLVVr5diGMQdB88wQzZCh/NPffchYwJS+1lr21I41+h8M3n23Zv22zmv37b3tS2wXhz2z7bNhVV72rb59r2urYFwbQQ0jg1uk4a4Sc/+UnJaZRcrsCAfCqCLwiC7oEFXT6XvOLFF1+85M/JhfJ50DsQkihcWA7dYostVvKperEARxBMNDz++ONFLnrvREIpFCYyo5cR0vh3f/eytvEqKnzz3bYd2jY5jMNBmOoRbXPsmW1bqm3OEQQjIaRxaowJaQRJ5qecckopiiNnQP6Owg9BEIw+EJGbb765EJEll1yyVH9EGHs1T2eyQzEUBN/2DgxrKn6q5BgEQXegors8b1vfMGirQquybq9jspNGZA8JPLhtNvD370JtGylXUe7jIm1DLv3mK21DMkMcg5EQ0jg1xow0gspvyKLcAc1eVPYnSwJ/EIweEEZl/oVcqZQq9FHOjk2rg96FwmEK49jo3XNT+l8BI0VRgiAYHYi0QLyOPPLIYsBeZ511SuXdftl+aLKTRsr7Jm27vG08jcu07f+0bVqwV+Pybfta22zFIbRV0ZwgGA4hjVNjTEmj/AHhIMqZqxYoz+rEE0/MhsRBMEqgECnJr3S/91qoo3L8/WBBD/66VdHFF19cchsVLUIcE6oaBKMHHsbDDz+8WXXVVYuHkQ7ST/vVTmbSKI9RfuJ5bRNmul7bZmT/xX9t2wZtUzTn3LbJg0x+YzAcQhqnxpiSxgpC2+bEiuOsscYaRWgrNa9oThAEMwdFb+wDZ7N4nqrNN9+8EMZe3GssGB7K/19yySUlx4pstpk7z3HdnD4IghmH0HxVUQ877LCSJsNoLWWm37a5maykEWFcvG2ntk0lVPsxvq1tMxJi6li/sfG/c5zUtkXbFuIYDIWQxqkxLqRRuBXieNRRRzVrrrlms+KKK5aNkHu5zHUQ9DLkxAltlBNns3i5jFdddVUJeQz6D4ijHCuhqrbikJPKgxzDWhDMHGz/tccee5QcxnXXXbcQRnUVRED1EyYjabTnopzEr7bt5rYd3rbZ2zaz+ETbjmybcx3XNjmRrhEEnQhpnBrjQhorhKoed9xxJUyEYkSgK97x61//euCIIAimBZbyM844oygS9vvbcsstS1GVvEf9DfneDAEbbrhhea4bb7xxc9FFFxWlMQiC6YM9aUVcbL/99qUo2Kc+9akiL/t166HJSBp5B7/Utofadmnb5DG+um0zi9e0TX7jFW37z7bZv/Hf2xYEnQhpnBrjShpZzVn6JKELU7VPEsWIRT0KbxCMDAWkEEabw6u4ucACC5Sqm7fddltCGScIeIrt28jTOM888zQrrbRSc+aZZzbPPffcwBFBEAwHhPGKK64onkX7oNp+SM6w96dftx6abKRR6Ohn2nZl225v27Zte0PbZhX2dNyhbc6JPK7bNsVygqAipHFqjCtprHj++eeL5U8VM/slff7zny+KUb/lGgTBWMHm79/+9rebffbZp1QARBp32WWX5s477yzVU4OJg7odB+Jov02Vpw8++OCyJUfCVYNgaEiBUa0dwVp00UVLjjBPPSLZz5hMpNE2Ggu07bS2XdO27dv24baNBoSjfrRtO7bt2rbJlZy/bSNt3RFMLoQ0To2eII2gWAcPo1wsCjDLoC05HnvssaI0BUHw1wrEKqHaDN6m1MK6VSLmbbSlTUjExIQiHmT0QQcdVHLAyez999+/ueOOO8pm5P3qNQmC0YYoi+9///vNMcccUwwsZKQIDAa1ibDt0GQhjUjdXG3bvW1Xt+2ots3Rtle0bbSAIM7ZtqPb5hqu5ZrJbwwgpHFq9AxpBOSQEqS62frrr1/KYe+2227N1VdfnXDVIGjBeq7asDw31f/swahgSrzykwP2bTzrrLNKZVxFxDbddNMSlSHMPwgmO2xZo/KwPWq9H+Skugm88hNlv9PJQBqRtne0bae2faNtx7RtxbbNSh7jcLDH40ptO7ZtrsXz+Pa2hTgGIY1To6dIY8WPf/zjogjZq0xpbHvNCV994IEHQh6DSQdeJPuI2aB/v/32K4UcFI+yh58QVbmNweSB8GNzYccddyyhyZ/5zGeaQw89tLn11luL7AyCyQa5v7alEY6KKHov6A3yFyfaHrWTgTTaT3Httl3cNoVv1mjbG9vWLchvXKttNv2/aODvt7YtmNwIaZwaPUkaQaI6xWjfffcte84tvPDCJXRVWJ58riCYLOBFOuGEE4oBRbEbxpTTTz+9vLMTIdwqmHEI57/vvvuKkiwX3LxgTDjnnHNKjngQTBZ4F2wvpBbClClTipw85JBDSkEwW9dMNEx00viPbVuzbcjbjW3btW2qp3YbPJu7tc01L2wboqovweRFSOPU6FnSCDws9lZCHFUN1E8bl5922mnNXXfdlT3oggkLc9+WNEKzDzzwwKIkyPVVzOG8886bkMpQMOOwbYDcb8TR/OBlOfzww0vhnKeffnrgqCCYePjJT35SiCHDiW2G7E8rv1t6izDuiYqJTBptvv+xtp3YtkfbZvN9eyrOyAb+MwvXkN94cttc+4S2KZSTMNXJi5DGqdHTpBGEYhGS1157bQnHk9gu9GSnnXYq1kUeyRT/CCYKkEWFHIRiy8WR22szalb0k08+uXzOsh4EYL7U0DyFPzbYYIMyXzbZZJPijX7kkUdKZEZCmIOJAjrBU089VUJPRR+tsMIKpf4B49ott9xSyORE1gkmMmmUS2gbDJvuU9Q/3bax9Pa51jptUxRHH7ZrW/ZvnLwIaZwaPU8aKywU99xzT1GkaxEIFVb32GOPsg9TQrKCfodCDTXk8Atf+EIxkFAOzPFLL7205DUGwXBQPfeCCy5odt555yIbyUjbdMgHf+ihhwaOCoL+BbJo2wxGY0RR22qrrZpTTjmlVEydDMaRiUoaFaRZrW1fH2jrtU3I6FjDNddvW+3Hym3Tt2DyIaRxavQNaQQLgkI4in/svffeJWR16aWXLqEpQlZZ25FH5emDoF/Ac1hDUW2joCrqkksuWUJRzz777FIZ1VYbQTAt8LDwLqqw++lPf7pZYoklioIpZO/GG28scynFxIJ+Ak85g5l1n0Ft4403LvJRMbC6X+lk2pZrIpLG17RtqbYd2TYKutzCd7ZtLMJSB8M1/6Nttt/Ql8PbtkTbulG5NehthDROjb4ijRUWiO9973vF+/KVr3ylFAZBHtdYY42yj1k2vQ76BapdKhHPey4nZ5VVVilVMYWiykuTsxYEMwLGtSeffLK55pprSmQGT4y9HYWt2oqAcSL54EE/AGGUt8hILC1FUTzbzDCCiDDiQReFNJkw0Ujjy9tm/8VD23Z52/Zumw39xxPyGKe0bd+2XdG2g9sm11Jfg8mDkMap0ZeksROKPVCwVQ5cdNFFS7jKnnvuWUKy5DeoPDnZFpWgt0Fhv//++5vLLrusOeKII4qn3AbUDB877LBDc/PNN8dbHowK5MfK/WaU4HUk6xUTO/bYYwt5JPfjeQx6CYjiY489VjzjJ510UrPLLruUAjfWdzne5557bslbnKyYSKQROaOMf7Ft17TtjLYt2LZeCAfVh4Xbdlbbvtm2zdv2vrYFkwchjVOj70kjq7piOPIdLSbyvyTGzz///IVA2qqAV3Iyha8EvYk6V7/5zW+WnBxK/IILLthstNFGzVFHHVWKPdm8P0p8MJpgpHjwwQeLZ8ZWBPZ1tEUHQwUPjm2MUo036AX86le/au6+++5SAVjUxXzzzVcI45e//OVS+EbO92QmjDCRSKP9ERHG69rGo/e5tvVS/uBr2/b5tiEN17YNcXxD24LJgZDGqdH3pLETNZTFAqMEvUIiFHLhWcJYv/71r5dk+SjlwVhCPg6vN6v5brvtVorcKFRCGeIBOuuss0quWRB0G4wS8h1V45UTRvm0CbroDNVW77zzzhIyHQRjBUYNZPD8888va7fIC/nc5ON6663XHHrooUk56cBEIY0qlcpjFJL6cNv2aptcwl7Du9smTFUfv9G2xdv2yrYFEx8hjVNjQpFGENb385//vNyPKmtyeBZbbLFisSRo5UJcd911JWwVeXT8ZKi4FowdKDc82z/72c+Kl/trX/ta8Szy7Mw777wl91ZYKiKJUJqHtk4Igm5DQSXeHPJPzqxtChQUm2eeeUqEhm2NeHTkiv3iF78ohrgUYQpGE2TdH/7whyL3FAC78soryzxUAMw8FKa/++67N5dffnkJU0UqVZYO/oqJQhpnb9shbft2285s22Jt60UIoV2ybWe37fa2HdQ2+Y3BxEdI49SYcKSxEz/96U+LYmT/sl133bVY1FkuNaXohcBYsLKVQTBaYIRgFZdTy3vD0y0c0L/2FDvggANKRVTvW5TxYDxhrn73u98tlaf32WefIhMVFaOQ2ueR14fBQ2hrjBrBaEGRJlE/Kp+KtDDf5CpuscUWJb1EhVQRQ9mPdmj0O2lUnVSI55ZtE/J5atuWG/isVyGM9v+2Tc6lPm/WNv3Nxv8TGyGNU2NCk8YKnkR5EApCCA8Utqpkt395IhXSkXQvdFVhHYtVlKRgesATIx+MRdyWL5QhodDCq1T6UxEVYTz++ONL8ZsUZQp6ETzjcsmEAlLgl1pqqeJ5tL0B4xqvD4JpL0jGuBRqCqYHoi54Cnm2H3jggZK3TRYyUKy88splHVbEjtHCGuzYYGT0O2n8l7at2TYE7JK2bdi217et16GPm7RNiOrpbVu9bW9pWzBxEdI4NSYFaawQLih3Qil6+WV77bVXyS9TytviJQ/Slh3IpUUuCEbCb3/720YBpjPPPLNUpKRkC63iWWSMUHTEZuu33nprUbYTYhX0MhhA5DwqjHPOOecU4wfvOKWefCQnd9555+a8886LASSYLjz66KPNN77xjWbfffctYfnmkVxFXkWf8XKLBkIo41mcPvQraeRhRLxWbBvCaOP8LdpGCe0XfLhtW7WtEkfeR/c0HvtJBt1HSOPUmFSksRMU/hpGKESmeoVY2W17IHQGGVBxkAVeoRLl64PJC95quV4s4vZWZDFneDB/qvdaXo4N+m1n8NRTTw38Mgj6C6IzeM8p/MKsFc2p85uXiMKvoA7PutxcZJNRLpi8kCvLOHbHHXeU7YQQQuH4DGoMadV7zaCm0jmiGI/1jKNfSeOr2jZ3277cthvbJp+RIt5PRWX0dba22fD/hrbt0zb35N6CiYeQxqkxaUkjSMYXWsgaqmogr5BFTkgWEqksvbHZfvvtm1NOOaW5/fbbS2iW0NUUz5n48Iw9a4pNtZgzJsiJtWfYwgsvXLZ1YWSQhyP0iiKUEOdgIqCGFjKYidCQ/y0/fJtttineoilTpjSLL754Cb9W2EmEhmN51CMfJweqjHz++eebm266qchBRgVFv6yfK664YqklIOyZgUFkhuI3DAzxVM8c+pU08sit1bbjB9rKbetHyGNcrW1fbZv7cE/9EF4bzDhCGqfGpCaNg8GTyKsoNEuOhbL0hDOlSBirxRBBUCDi1FNPLVVYFYlIHsbEAUWGh5C1nDeRMqySH0VZSJUCIbzRiKPPKNGUZcUdgmAiA0F45JFHmksvvbTkOdoagXzcYIMNmk033bS8H94JFVi9F7xNSAIlN9slTBwwtApPtt8sb7O1kvfQfLBO1mJK5oSqqIyxjo9XcXTQr6RR4RhkS3jnCm3797b1K97WNvewddvcU/ZunJgIaZwaIY2DQLmR28NTJK9RFTcEUS6PEMQ555yz+cQnPlE2HkYgjz766KIcKYLieCGMStULf0VAYnHvTahc6jkLqWL1Zimv+Vz2TWQYYCxYZJFFmo997GPFs8gDLeeV0qxoEuXJc6YM5TkHkwHV887AZj9HxXFsbbTffvuV4k+8jx//+MdLKCIPE9IgFFFer3BXv7Elku0WRHqkgnBvovM5M4pa13iRReTYkoXRQL6rcNPZZ5+9mXvuuUvuq+qn5Oddd93VPPPMM3nOXUA/h6d+oG0fbZtqpP1ceVQO45vbZusN95Tw1ImJkMapEdI4DVg45WlQemw+bLG0MApZ5XnkjbRR+6c//elmww03LOSSlR2xYGV/7rnnEqbYY6DI8JjITaTgyEH0LOXdUHx4ElnMeU08TwSSRZ1HUZieEOUgCP4KBhdGM8Yzeb48T/YlRSp4m3jlvVfVO8/wgkjKhSRbGW+C3oHwYiH2CCKDgGgLBlJGAc+RnGRAq5E3PMtHHXVUOfbb3/52idSIZ7l76FfSGAT9hpDGqRHSOBNgKa9hrApCUIbkcPBKLb/88uX/SCUru+085HLI9/Ab4awUJYoWL1cW19EHqzYPIHJH+UEQkT0KjZAqz42So8AHbwgP8hJLLFG8iTzIW2211Ythp/JvElYVBNMP23c8/PDDL4axesdUXiUfVRdWTEco4957790ce+yxpRqrUH8h4d/73vdK/jAvlQgA54oXf/TB+8eDiICQcXKxeQdVMkX+TjjhhOI9RvIZRRWJq+sb46jcf2Gn5Gqqno4tQhqDYGwQ0jg1QhpnEpQZwls1zUpGbISNbCCSFlu5PnUvKuFayAlCopS9yqzXX399GXehPwnfGR0Ip5Jf6JnISTzuuOOKZ5iVXCiVwh2KHClgwwuy6667luI2Ch0h98JTVdVF7BkH4iUOghkHY1jdv1TEBaOZsEZbHZF/PPjyg23DwODmvVxppZVK5AYyibQgnYgMz1W8kaMDXkTrlrBiRjGpFyItVIBWIZfxzFrFeIYcylVEHnmQRdog9zyQQvkZPmNQG3uENAbB2CCkcWqENI4iEAwC3aJ64YUXFit7LTeOPFqIWW0pSyztFuTddtutWG2RTcRF2JYqhcgLZYvFntLEa4aoTlZQdli0hfuyjCusgBhSYpBDJFzlPlX6hJMaV+PLy4G8r7nmmsXbgbgLrbJVhvG2Z6cx5vUNgqC74N2SD0zGIYaKTCEnCIv3kxdSIRUkRrSG75Gaww47rISICydXxZjBjWfSuRh45EoKO5+sxjfeWNEViLrceuu5yBZk/fLLLy/RFaJejjzyyLLeiLLYcccdyzokd1t6hTVKE57vO/n6DGlCjxk2g95ASGMQjA1CGqdGSOMow+It9EcxHIoMwifcivfKlgwWb4sxT+RCCy3UvP/97y/Fdeadd95mnnnmKV7JddZZpyzmiI0wyrPPPrsoWbb84NlEnChIrO+uxdqr6A5ixcKvUZ6QWK2Xwrv0RdMvfdT0V9/dg+Z+3BcliLdPAQaWcTmInd4KeVMUHsqmAhwKFM0///wllAo5l1OFQFJOKT/yUoUH80RaeIW/8Uy6dhAEYwPvOPnFEPbss8+W91F4JEMZY5uQVd5GMhCZEdJKNnq/F1xwwbLdB8PPLrvs0hxyyCHFW4ZI+j1jkpB05JSRbbB8rDJysHzsFRnZKR+rjKwyvcrIKh9rwTZjSK4p2oYgMqDJQxRhwWgmqmKxxRYr64yCNbyJPLzyth2DSDJWCk0VbsooZwwRReePN7G3ENIYBGODkMapEdI4hrDoE/gUpNNPP72ZY445mre+9a0lB1K4ltBVIZMW+mk1xyJNlCuKk/AhygKl64orrigKAJKJrFIohIlVRYBC1e3qrpScWp2Ucui+kT9ePYqdsLObb765ePoofEJ7WcKRZJZwygxPoTL+9Z55H7TOcdCMmUbJ5GEUbkqRVJjDGMhpROKDIOhtMOQwjDHwMPSQCTWclSzwniM7g2XAYNlAFvBU8qj5vUgOMkH+pLBXckchHt448oiM4KFjkNOHblf9RAiRMUYrhjGhntXAyHsqygQJFEmBCMoftGYItyffGBR5AxWjGW4MOptx853CNTy3ojKsFTyR1iPX79a9BqOLkMYgGBuENE6NkMZxAKKm4IPCKyzoCB6rOGUFwbOQK0YgHAuBstDzqLEOsxKzGH/0ox990fLOsybsEvmkHAiJRZ7kViKUFCbeOaRSXgqSxnNJIWGdp5wIqaWosDRTIvSD8obkyV/pbD7znTlDwXEvyCkFTMgoZcw9yfOk8LgXpPC0004r5JYVXJEgVfcQXwqeEDWV+XgN3SPPq9L9mk2i5SMK83UsRdA5hKq5DwRUiFotnEHZQ4irR6FXvAhBEEwb3lfvbfWs1agDxifGLzKGXEGihKMLYUWMeCXlK5MdtskhO0QeiN4QdimCgxxFtKrBDaHkaUOinI/HTbi78yOWohsQWKGw5CM5h2SSe+QfOThYPmpVPpKjjhcp4ffkrPOR8SJPyC/XQ2bJZzKf4UyFWfJbzrWICZ5V8k8YrxxQkRWMju6T91AeotBex7k391WLsJHHZLbIFyS1el+Nb+Rj/yGkMQjGBiGNUyOkcZzAoowcIX2Uik6wcrN4U5CQOKSOgoHs1dwURFCeD/JFuUDAEEXWZ6SRYsSyLH+SoqQQDFIpbBM5o2AgmpQQuZbImkIUyJn5oEoeBQwhra3z//7WHOf4FVdcsfy+5m4KIZNHKDSKskbhkSuDHCp2wVuAAFKIeAR4EngXKXIs4ZSmTmWOpZ2CRdlCTs1XngFEMeFTQTB5IIJB7p7IBeQNEWOkQvQYxXgUq3GKHBGizjOHXJIz5A25Uz2X5JE8SvKJnEI+yS1GOnKsUz6Sc53ycbBMHE4+kqt+7zxVPjo/Oex65DL5TE7rT/UMiigRcYEIku/kvPtBCuXMC+WVm80ox4PKEIhUW1OEmVaiGEwchDQGwdggpHFqhDSOE1igVQxkCRdCOTNghWd9lxPE24dc8u7x7J1xxhlFcRqqMAziRjlC6igwFBrWayRWWXVEVr9Y7Fmx55prrtLq3/7lIfU9L6DcTDkzrN0UJcoRQkoZooghrtW6T3lDdFnTkV/KjjBSFn1kkIVejg7iHARBMLMQAionT1i+9U1EggI6yBW5I/qCYYo8Er0gooOcQtrILcY15A5RRAR5LMk58pHcq3nog+WjVuUjOep4USXkKzlL3pK7iCnln1EPgSWfGc4YzRBCBjPRFDyRjIbIoCgQZFmKgUiKYPIhpDEIxgYhjVMjpHGcwEJeSSOyNyugHAk5YlGmTLDC81RSlhBKHkvhSZ2hUiriUaKEXSGtQqaEMQlX5c1D4ljvNYoWC7Z/tfq5YzS/kZ/oHO6FcsP6jwQK50Jo3S9CKHeIBZyXEDlkCectlPsotFTIVBAEwWhB+CUDG/mCRDK0yeGzFyQ5RB6RS9ZApEx0Rw23J8fIM3KNfCTnqnysMrLKxU452SkfHe93fk9GkrfkrvOTw50pAUJbyWvEkPwmx/VXTrYQXVEV5H0weRHSGARjg5DGqRHSOE4YTdIYBEEQBMHER0hjEIwNQhqnRkjjOCGkMQiCIAiCGUFIYxCMDUIap0ZI4zghpDEIgiAIghlBSGMQjA1CGqdGSOM4IaQxCIIgCIIZQUhjEIwNQhqnRkjjOCGkMQiCIAiCGUFIYxCMDUIap0ZI4zghpDEIgiAIghlBSOPU+PuONi045mUD/04PZuTcwcRCSOPUCGkcJ4Q0BkEQBEEwI5iIpPEf2vaGtn2sbYu07cNte2Xb4B/b9s62zTPQ3ta2iv9o25pt27Nt+7XtS237dNve1zbEsBNvbdtybduxbY7dp22rt+3tbevEO9q2cNuWb9tn2rZ727Zo2yfa9qq2BZMHIY1TI6RxnBDSGARBEATBjGAikkYEEdFbv21fbts6bXtd2+Cf27ZY27Zu2zZtW6BtL2/ba9u2attOa9t/tu2Jtj3ctnPa9qm2/Wvbqkfx/7RtmbYd1TYk4PG2/aht57cNyfz3tlWSiTDu27aT2/b1tj3Ytsva5lr/1LZg8iCkcWqENI4TQhqDIAiCIJgRTFTS+KG2bdm249u2SduQReCB5PXba6At2rY3D/y7S9sObBuSt0fb9m/bQW3z+RJtQ/IQxvnatnPbTmjboW3brW3HtA0pPLVtvJWug4wil/rwjbYhpAe3bcO28YLG0zi5ENI4NUIaxwkhjUEQBEEQzAgmKmn8QNs2bhtSt0Hbqlfv9W2jvO800Hga39s2BPOItvEAIoaA9M3VNmGly7YNuXTeL7TNeTdtG68iOP/2bbu4bUJQkQLnWbxtjj2lbfojNDaYnAhpnBohjeOEkMYgCIIgCP5/9s4DTMry6t/RaNQkphmTmERjbFhRinREQNoHggrSPzooKAiKFAUERSkiTelSVFBpIgqCSBEUEEFB4G9DQcHPrth78vzP/TgPDju74+6wy7TffV3nYpl5520zO/ve7znPeQpCJktjR4sRFpSpRkvjRRaMRSSQRkpZKVWl3LS+xeEWAdbFuETkkBJXXjvEYphFXQvEMvA/FmwPaSQb+ScLSmFZFiG9zCKUyYrsQ9IYi6QxSUgahRBCCFEQsk0aKVOl1PR6C6SxosVfLJDB6yzIPiKQZBHJMNIsJ5SRMk7xYgvKTedZIIIsS/kr2xplQYnqOIt6FoyDpOyVMlca5VS3oGxVZCeSxlgkjUlC0iiEEEKIgpDp0sgYwlYWOTONyCHjEmlUQ7aQUlKygkjmBotXLJ6xQPhKWwBdWbnwn2KxzeJNix0Wr1q8bLEz8vNMCzKWdFhlnXRXZXsIKA13RHYiaYxF0pgkJI1CCCGEKAiZLI00nKGxTQuLME6RklGyhUynQQMbMoEBluE5RJFs4sTIz4xhpNyUzCHTbIy3eMjiHguWIXiMMlREtJFFMQtKUWmEQzkrWUym2fi1hchOJI2xSBqThKRRCCGEEAUhU6URaetiQVdT5PEoC0D8yEBSQoo4VrJg7kbKVikdZTkyimQfmXORuReRPtZFR9YggTdYMAckEsrybJNGOcz1yPhHBJT10qkVcaUclqY6QV5F9iFpjEXSmCQkjUIIIYQoCJkojQgfmUayfgstyCgid8DFOlNqMPaQORzLWZxoQXaQ+RyRymgY/0h5KRPy02W1uMW1FoxRpASVeRsDPNfWgnXRXIdMI6KAZEoahaQxFkljkpA0CiGEEKIgZKI00rCGbB8ZRaSRpjVkCmlE878WlJ7yODJXwQLBY9k7LZiTkWk36ISK/NHkBmFEHhkPiXxSoopwjrTgebKJTS3ovjrHgnWca8E4SpalQQ4dVctYaExj9iJpjEXSmCQkjUIIIYQoCJkojUBpKJk9MoLrLLZbPG6BMDL2kIY3ZCCRRjKCZAkHWay32GqxxeJJCzqk0gmV0lMymJSiko1EEpnIn6Y5LPv/LFZbDLdgbkYEk6k7EEq2hUjSCEeZxuxF0hiLpDFJSBqFEEIIURAyVRoBQWPMIjI42wLJY4oMmt0wNpEJ+8kyAjJINpExkGQhCSbkZ+oNylJzwusYK8k6WfZhC8peEcbobCIyerkF8kgZLDIrshNJYyySxiQhaRRCCCFEQchkaQTmWDzW4gQLJuknY4hM0sWUf2lgE+AxylqRO4JGOJSjRk/gH+AxsoksE5ZnvsfQcCeAJJLJZFtkHqPHQIrsQtIYi6QxSUgahRBCCFEQMl0ahUgVJI2xSBqThKRRCCGEEAVB0ijEwUHSGIukMUlIGoUQIr354Ycf3DfffOO++OIL98knn7gPP/zQvffee+7tt992e/bscW+88YZ7/fXX3Y4dO9wrr7ziXnrpJf+3lu//rVu3uhdeeMFt2bLFx+bNm/eL8DjLsOz27dv9a1kH62KdO3fu9NtgW++88457//333UcffeQ+/fRT9+WXX7pvv/3W/fe//43srcgEJI1CHBwkjbFIGpOEpFEIIdIXxAxhQ+rWrFnjFi9e7B544AE3ZcoUN2rUKHfrrbe6G264wfXo0cN17tzZtWvXzjVv3tw1atTINWjQwPF3t2bNmu6iiy7yfwuICy+80Ef4P8/VqlXL1a1b111yySWucePGrmXLlq59+/buqquucj179nT9+/d3Q4YMcXfeeaebNm2amzNnjlu6dKlbt26dF8233nrLC6TIDCSN8WHMI+MhCcYkCpEoksZYJI1JQtIohBCpCZJFxpBMHt/VGzZscCtXrnSLFi3yUjZ9+nQ3YcIEN3LkSC9sN910k+vdu7fr3r2769Kli5e6Vq1auaZNm7qGDRt6SaxXr54XwCCJVapUcZUqVXIVK1Z0FSpUcOXLl/f/Rv/Mc5UrV/bLVqtWzdWoUcPVrl3brwuJvPzyy12zZs1c69atXceOHb1IXnvtta5v375u4MCBbujQoW706NFu4sSJ7t5773Xz5s1zjz32mHvyySfdxo0b3YsvvujefPNNnyElYypSH0ljfE6yoIMq8W8eECJBJI2xSBqThKRRCCFSC8Rp9+7dXhIffvhhN2nSJHfLLbe4rl27+ixf9erVXenSpV2pUqW8zCFviCGSyDKII7I2bNgwN2bMGP/6GTNm+Azk/Pnz3SOPPOKWLFnili1b5iV09erV7qmnnnJr1671QXaQ4Gf+LvAcgrdixQr/GrKZ7NfcuXPdrFmz9skrmU3kdcCAAe7666/38timTRsvlUgmElqyZElXtmxZn91s0aKFl0ukkuwkIklJ7Lvvvuu+//77yNkQqYikMW/otNrYguk0CKbO4DEhEkHSGIukMUlIGoUQIjl89913fhzg888/7x5//HF33333+awhwof4UVKKBJI17NSpky8tJXOIbFEe2qFDB7/MoEGDvLBNnTrVzZ49e78sHqWhZCoZ3/jxxx/77GVhCBn7/vnnn/vsIKWnr732mh/z+Mwzz3gRffTRR72kTp482Y0YMcKXr1599dWubdu2fv8JMpOI7hVXXOEFs1u3bu66667zGcrBgwe7sWPH+uNhffytIusqUgNJY+4wpQbzNt5pwYT/z1iMtWAeRuZ0FKKgSBpjkTQmCUmjEEIUPYjaV1995RvV0CiGcYh8595///1u+PDh7pprrnGXXXaZK1OmjCtevLgvC6X088orr/SZO8YKImFPPPGEl8xdu3b59SBtyCBjG5E4pPDrr7/22UrEjiY5//nPf4q0EQ3rZhscI9tk2xwrjXk+++wzf8zs4wcffOCziAjms88+67OdiDLCy7hLpJhxk+EcUDZL2StZS8pbyZJu2rTJSyrHzTFzrGxbHFwkjbnDBP19LdZaPGSxwOJpi94WzOcoREGRNMYiaUwSkkYhhChakCe+axcuXOjlh4waGUMa0oRxgGThKNXs1auXzxxSVsr4P8YvUibK30ZkCTHMBBDNvXv37tfEh5JXSl3JtoYS1zA+k6wq5wyJJFvJc4yRJENLB1dkVRw8JI2x0PDmTIsZFmQZr7PoGfl5mkUxCzXFEQVF0hiLpDFJSBqFEKLwCDJEYxfKNVetWuUzhHfccYeXwiZNmvgsItk0smoIEWMPH3zwQbd+/Xpfrkr2LNtBtJkmhPN3zz33uJtvvtmXsobxnHR3RVr69Onjs7A01+FvGE11MkmuUxVJYywnWrSymGMxxaKSRWWLuy1mW7S0+JeFEAVB0hiLpDFJSBqFEKLwQPoYU8g4PrJjoUspssj4RMYrIjmUpZIlo9kNcx4y5hBREvtDCSpNgRibScaVJjxIJCWt/fr189OIUMZLZ1ea7XCOx40b55v7UMIqigZJYyx1LO61eNACQaT5DfG/FkgjGciaFkIUBEljLJLGJCFpFEKIxGGcHhlFZIZySTJiNKehaygyQzaRMlRkkYwjksjE9+LAQLIRQ8pZKemlQ2udOnX8/JPIOuWrdHLl+eXLl7uXX37ZC6goHCSN+0PZ6bUWXNxPtjjL4tBInG1BtnGTRTcLmuUIkV8kjbFIGpOEpFEIIQoGjVcYQ0czGrqE3nbbbb6JzbnnnuvLThl7hzySTaTkFGEhW4Ys0iBGHDiUAZOZRdoZF0m2lo6xdJC98cYbvUSWKFHCl7IybpSxpEwZ8s477/iGPUXZGCgbkDT+BA1uzrEYbUEDnF6RxwK/saARDs+NtEAoj7IQIj9IGmORNCYJSaMQQuQfxtktWLDAl0cyRpGsFlLCBTQNWpguggY2zHNId1NxcGEsKeMgyfry/iDwvDe8R0xbwhhIylcpDUYgRWJIGn+CyfuvsZhlMcaiukVOLrJg6g2W6WqhsY0iv0gaY5E0JglJoxBC5A1ZRaaMoLkKIshE+XQ7pSFLmBKCifcZx8h8iDRgoZENU12I5BCmN6EclQwkcz0y7+Wll17qKlas6Mc+MsXJzJkz/fQllLqqcU7BkDT+xAUWTOK/xIKxjH+xyAmPtbZ43GK+RUULIfKDpDEWSWOSkDQKIUTekFkkc0iX0/r167uGDRv67CLj6JgWg2k0nnvuOT8PoUhNkEKEf+7cuX5OzOgxp4hkz549/fuozGP+kTT+4heHWBxt0daCSfxpgHOeRV6UsphrwRQcCCSvZR1CxEPSGIukMUlIGoUQYn8Ye7hlyxY/mTzTYTDpPBkqMot06yRDRfMbjU9MP5gO5ZlnnnETJkxwLVu2dGXLlvV/A5knk5sANDRi2g5lHuMjafxx3CJTagy1WGjBuEW6peYF2UYm/mfZ2yzINmpso/g5JI2xSBqThKRRCCF+4r333nOPPPKIl0OEAlG84oor/BQaDz300L5yxm+//TbyCpFufPnll37sI02KaFY0ePBgL5A0MWLqDsalrlmzxn322WeRV4icSBp/8Yu/WvS3WGSBOJa3iDd5/68smLtxuAWvucHiWAsh4iFpjEXSmCQkjUKIbIdxi/ztYYL9QYMGeUm8+OKLXc2aNb08MiYOyRCZB2NPySxOnjzZSxDzalKCTOaRLDM3EOjOKvZH0vhjKeo8i3UWlKj+3uLn+INFBwvKWZm7ka6rQsRD0hiLpDFJSBqFENkKwkDTmhdeeMFnEmvUqOHOO+88P9cf3VHpwokw0FAFsRSZCY1zKEl+9dVXfXkqjY24YcBnAYFkrkfGtn7zzTf6HETIdmn8u0VzC5rfzLGoYJFfKGmlGQ4S0NTiOAsh8kLSGIukMUlIGoUQ2Qhz/D311FPuzjvv9E1umjRp4gWha9eubsaMGb7rpsg+uImwceNGP76Rhkc0ymnRooWfvmPKlCl+rKs642a3NDJhfx2LOy2YQqOLxT8s8svxFky7cb8F03DUshAiLySNsUgak4SkUQiRTSAFlJouWrTId0Bl+gWmz+jevbubN2+ezywycb/IXpj4nyZHlK1OmzbNtW/f3o91bNCggbv11lvdk08+6ce+kqHMVrJZGmmA08+CLqhM6E+ZKuMV88sRFnRSRTpZR5/IY0LkhqQxFkljkpA0CiGyBTJEND/hwp+sYp06dfyE70z2rsn4RW7s3r3bLVu2zE/VgSRxk6F58+b+M4NUZivZKo3I3ZkWUy02WXSz+I1FQWG6jR4WrGOyRTELiaPIDUljLJLGJCFpFEJkOoxFo9yUefrILiKMzNHXp08ft3TpUj95vxDxQJJolNStWzdXr14916xZM980acmSJW7Xrl1ZN9YxW6XxRAua3lCWerdFVYtEqW6BfM60aGPBuoXIiaQxFkljkpA0CiEyGYSRyfcHDhzoG91Uq1bN9e7d2z366KO+8YmEUeSXDz74wN98mDVrlrvyyitd5cqVfckq42J37Njhy1qzhWyVRi7g77GYblHf4kiLRGGOxgYWMyxYJxIpRE4kjbFIGpOEpFEIkam89dZbfpxijx49fDdMylERRsakaZ5FkSgff/yxW7BggZ+OhSk66tev7/r37++WL1/u9u7dG1kqs8k2aTzEgvLR7hYvWtD9lCwj8yweY8Gk/tHBY0yvQeT1PK+tZvGwxf+zoNSVbbAtIQKSxlgkjUlC0iiEyDRoZMME/DNnzvQXthdeeKFr06aNe+CBB9zOnTt99lGIA+HLL7/01yvjx493l19+uf87ytyOTNnBFC2Z3mE126SRrCBzKjL+8CuL3RaUlt5uQTOcEGMiMdKCSfwJfg6PRy/La6dZ/J/FlxYTLc62OJDspcg8JI2xSBqThKRRCJFJMLZs7dq1bsiQIa5p06Y+wtgzOl4KUZhwE2L+/Pnu+uuv9/N7tm7d2k2YMCHjr2WyTRppdlPe4laLtRZbLZ6yWG2xJir4/woLLvI/jAQ/81huy7KObZF/B1uUs6A7qxABSWMsksYkIWkUQmQKTNC+cuVK3+yGvyeNGzd2kyZN8tNoCFGUbN261Q0dOtRdfPHFfm5Hblps2rTJff7555ElMotsk8bDLP5qUdaiiUUHi/aRf6ODJjmNLYZavGPxtsWQyGM8l3P5sI7LLVg322BbQgQkjbFIGpOEpFEIkQkwzozyU6ZDoNnNVVdd5btdShjFwYCS6JdfftnfpECm+LvKmEem62DOx0wjWxvhAOMOyQZSssq/0RHma6xosdJiuQUZSuC5nMuHKMg8jyK7kDTGImlMEpJGIUS689prr7mJEyf6aTQqVarkO1sylQZjy4Q4mLzzzjt+LC1l0eXLl/flqty8yLTS6GyWxvzAxT3jFkdZnMwDQiSIpDEWSWOSkDQKIdIVpjggkzh27FgviyVLlnT9+vXzE/V/9tlnkaWEOHjwmXz//ff9GNpOnTq5s88+29WtW9fNnj3bP54pSBrjQ9dUptAg+FmIRJE0xiJpTBKSRiFEOsLFOeWAw4YNc9WrV/dZHZqRbNy4MesmWhepByWpiGP79u1d6dKlfRZ8ypQpXrYyAUnjz8PUGZo+QxwoksZYJI1JQtIohEg3mM7gxRdfdCNHjvTTaTDJOvLIZP3ff/99ZCkhkgviyE2Mnj17uvPPP9/P53jPPfe43bt3+5se6YykUYiDg6QxFkljkpA0CiHSCS62d+zY4btT8t1Vo0YNN2LECC+RQqQa3MRYv36969u3ry+hrlevnps6daof+5jOSBrjQwfU30dC3VDFgSBpjEXSmCQkjUKIdCGUpN5xxx3uoosu8t9dZBv37NkTWUKI1IPP7fbt212fPn1chQoV/JQc06dPT+tSVUljfP5sUTMSx/CAEAkiaYxF0pgkJI1CiHQBORwzZowvR6UslQY4ZB2FSHWYkuO5555z/fv3d2XLlt3XHIepYtIRSWN8TrO4PRK60BcHgqQxFkljkpA0CiHSgbfeesvdddddrmbNmq5ixYru5ptv1hyMIu1AHLt27erHOF5++eV+Oo507PQraYxPaYsVFszTWJIHhEgQSWMsksYkIWkUQqQ6XFTPnTvXj18sVaqUGzx4sB/DqC6pIt34+uuv3TPPPOPF8ZxzznHNmjVza9ascd9++21kifRA0hgfJvTfZrHVohwPCJEgksZYJI1JQtIohEhlEEMm6m/Tpo0fD8bFNtkaIdIVSlX5TLdo0cJ/pq+77jq3adOmyLPpgaQxPqUsyDI+YaFMozgQJI2xSBqThKRRCJGqcHH90ksv+YvqKlWquGuvvdatXbvWT2UgRDrDWMbFixe71q1b+7/Bt99+u3v33XfTJnsuaYwPYxqHWQy1OIUHhEgQSWMsksYkIWkUQqQqdEodPXq0nxidi+tFixa5L7/8MvKsEOkN4jht2jTXsGFDX6Y6c+ZML47pgKQxPnRMvSgSf+IBIRJE0hiLpDFJSBqFEKkGUxR8+umnfiJ0Lqi5OGVMY7rPbSdETuj+O3HiRD8NBzdGli1blhaZdEljfJib8ehIaJ5GcSBIGmORNCYJSaMQItX45JNP3IoVK9xVV13lpyYYNWqU++CDD9T4RmQclGAjjszhWKdOHXfTTTf58Y3ffPNNZInURNIoxMFB0hiLpDFJSBqFEKkGF81dunTxczH26tVLjW9ExkOGsV27dv7v8cCBA93u3bsjz6QmkkYhDg6SxlgkjUlC0iiESCWYXmPy5Ml+ag3mZFyyZImfpkCITIbs+pQpU/zn/qKLLvKf+++//z7ybOohaYwPZanFI/FbHhAiQSSNsUgak4SkUQiRKjBX3ZNPPrkvy9i/f39/cSpENrB582bXsWNH/zeZMtUXXngh8kzqIWmMz78srrXoYXECDwiRIJLGWCSNSULSKIRIBWh+8+abb/rSvPr167sBAwa49evXp92k50IkCtlGMoxXX321b4wzfvx4n3lPRSSN8TnXYr7FPAuyjUIkiqQxFkljkpA0CiFSAbqlMuF5o0aNvDQyh93nn38eeVaIzIcbJ0zDMWnSJFe9enV3xRVX+PG8qVieLWmMTzmLLRabLcrygBAJImmMRdKYJCSNQohUYMuWLW7QoEGuXr16vvnN66+/HnlGiOxi7dq1rn379j7beNddd7ldu3ZFnkkdJI3xQRQ3WDxjUYYHhEgQSWMsksYkIWkUQiSbH374Yd+cjB06dHALFy70mUchspG33nrLT/rfpEkT16pVK99ZNdWQNMbnbIvpFtMszuQBIRJE0hiLpDFJSBqFEMmEDpF79uxxvXv3dlWqVHHDhg3zF6SIpBDZCHM0vvzyy6579+6+IdTYsWPdRx99lFLzlEoa4/N3i9YWrSyO4wEhEkTSGIukMUlIGoUQyeTDDz90ixYtcq1bt/aZxocfftiP7RIim6EBFI1wKNfu0aOHL1n94osvIs8mH0ljfI6yoIMqcSQPCJEgksZYJI1JQtIohEgmfAcxlrFp06Z+moGtW7dGnhEiu1m1apUXxhYtWrg777zTl62mCpJGIQ4OksZYJI1JQtIohEgWZBQZv3jZZZe5Nm3auMcff9x98MEHkWeFyG4o2541a5b//Wjbtq179tlnI88kH0mjEAcHSWMsksYkIWkUQiQLptQYPXq0K1OmjLvmmmvc22+/7cc4CiGc++6773xX4caNG/uxjQ899FDK/H5IGuNzhAXjGgl+FiJRJI2xSBqThKRRCJEMGLPF933fvn39d9Dtt9+u5jdC5ODdd9/1JarM2zhmzBi3e/fulPg9kTTG528WTSLxVx4QIkEkjbFIGpOEpFEIkQwoQ50zZ4676qqr/CTmCxYsSKnukEKkAnv37nVTpkzx5dvMX8r0G1999VXk2eQhaYwP02xMtphkcQYPCJEgksZYJI1JQtIohEgGTN5P4xuafNxxxx3+u0jSKMT+fP31175zav/+/f3vCtNvIJLJRtIYHyb0X2ex1uJ8HhAiQSSNsUgak4SkUQiRDJ5//nnXsmVLd8kll7j58+f7eeiEEPvDjRS6pjL9Rs2aNX2pKsKWbCSN8Slv8YLFFotyPCBEgkgaY5E0JglJoxAiGTzxxBOuWrVqrn79+m7jxo0azyhEHjD+lyY4lSpVck2aNHEvvvhi5JnkIWmMz3kWj1gstDiXB4RIEEljLJLGJCFpFEIcTJhmg5K7Bx54wHeE5MJz586dkWeFELmxevVqV7t2bZ+Z52dEMplIGuPzb4u+Fn0sTuQBIRJE0hiLpDFJSBqFEAcTMopIIpOVcwFM99RUKLcTIpWhnLtjx46uadOm7sEHH/TT0yQTSWN8fm/BWMbSFr/jASESRNIYi6QxSUgahRAHk2+++cY99dRTbtCgQa5Dhw5+rNb7778feTb5MIbsk08+cVu3bnUrV670/3755ZeRZ1MLsrbMdfnaa6+5DRs2+LLFZO0rHT3feOMNPwE9wTi8VGts9Nlnn/l5D9etW+f3lc9iuvDKK6+4wYMH+9+ZUaNGuRdeeCHyTHKQNMbnEIvDIsHPQiSKpDEWSWOSkDQKIRIFKSioGHzxxRe+8Q0NPa699lo/VgtJSyV27drlZbZTp07urrvu8nPlpSJkbZEzzicSPm3atKRloGhk9Pjjj7ubb77Z78uqVatSZiL6wJ49e/z72a9fP7+vSGS6wPyMvL9XX321u+GGG/z55aZBspA0CnFwkDTGImlMEpJGIUQiIItka7Zv314g6fv000/dpEmTXLt27dzAgQN91jHVMnkcF1mdOnXq+H1EzFKRUOo7depU17lzZ3f77bd7uUgGCBhzbTLvZpcuXdyjjz6actLI+3jbbbf5c7Vo0SI/tjZd+PDDD/0+c6Plyiuv9DdbkpnJlTTG55cWv7Y4KvKzEIkiaYxF0pgkJI1CiERACBYuXOjnWpw1a5Z7+eWXfZnpd999F1kid8hIDRs2zF1++eVeciip/LnXFDWI7I4dO/y4sc2bN3uRvfXWW/0+sq85s3dcwCPLLE+5I+IWslaIHBL9wQcf+H/DsXGB//HHH/uLbV4fHg+NgXjsvffe8+shG8vr33nnHZ8de+mll/y2KEkkCxokm3W++eabbubMmV4mmMMvWnApXUWAeR2vp9SWbeSWoWIfWJblnnvuuX3Lc+y5vT88hqBy/Kyf8tiwHz179vSZvLykkddynBwf83Xy2Xn11Vf9toLIsY9keMO+8y/7xzEFWD/nlM8d64veHqWnnEOC88l7wXyHZLh5Xynx5D3kuQDr5vyyLc4B/7IPyZSzAPv5zDPPuD59+vhxjTNmzJA0pjB/tLjAorLFH3hAiASRNMYiaUwSkkYhRCJw4c+k/MWKFXPnn3++a9WqlW9ug2jEgwt8yuv4vh83bpwXhWSW2SEbjz32mM8+0c310ksv9SLcq1cvP73ByJEj9ytPRXrvvfde16BBA1elShVXo0YNd9111/kpRFgXzz/55JNepJcuXbrvtYz5I/s2fPhwN2fOHH/RzUU/XTAZrzZ79mwvAoy327Rpk7vnnnvc6NGj/fJt27b126pevbrf1vr1672cct6QxPvvv9+LGuc/CC7bo4SRRkNkTHk93TcnTpzoZS0a1oP88b5wDi644AL/b61atbxcIcU53yNEliws06bUq1fPde/e3Q0YMMB169bNn7vly5f7fcwJx4y4sm+sm8wk4/SuueYaf/xIG7DMhAkT/D6w73xeKCulc2gYi4hoP/LII75sE9Hn/wH2+b777vOBAHJeKZ0tW7as+/vf/+4qVqzoz22YvoJ1rlmzxp8DzhfngG1Tpsx7lWwQYj4nTPLP/lFmm9v5PVhIGuNzisUtFjdbnMwDQiSIpDEWSWOSkDQKIRKBi1ik74QTTvAXjocffrgrX768lxSkiLkXc8oJIANdu3b1UkJZZXSm52BDFmrZsmU+e4OQlSpVyosV5ZVt2rTxAjlmzJh92TmEjPGDlNYWL17cCwjCjFwgUHyH8jds3rx5flwfr+VCHxAaspYXX3yxu/HGG32Wi3OIaCJQt9xyi18HJYi8nu0jY+3bt3eNGzd2pUuXdv/617/8dzUySdYNcWefgjQiWVzMkzkl84ck1a1b1+8nrzvrrLNc8+bN/fJkMJEOsmtIFVlf/gZzDipUqOBKlizpTj31VL88ZaehWRGSy76T1URezjnnHC/O7CdjQBEJ9oUmQrlJDY8hhsgr+3beeef542SsHvJHxpFjYx+bNWvmzjzzTL/vHAPLkQEm88jnhkwnUs/nCTnkmAIcE4JNZpGbAggh57dMmTLuuOOO859Vjpn3i/eAdbKuRo0a+fkQOQdsm6weNwnY5+hMZjLg94nPVeXKlb3wShpTl5IWj1sstSjBA0IkiKQxFkljkkAauXjjjzJ3YoUQIr/wnUGm6MQTT/QXj0ceeaS/IEckWrZs6aZPn+47e0ZD5o3MEt85lDMmq8SO7ZKduv76632WdOjQob6kkiwhYy7ZfwSP7B3SiKAtWbLEyxHljQgGryd7SPaH6RCGDBnis4tIYMgSksEDBGfEiBFeQshm0WGUbCDSR5kvWTfkBNkjS1m/fn1Xs2ZNn81lO2QyEUuyn2Tz2A5yyPlkzkuO4+677/blqpRV8jrOMxKP9FGaieQjYhwvj+3du9fvF8fL/pNhRaIRLo6V42H8HOM7yX4Coo2cNmzY0J8L9pWySY6BDONll13mS1TzkkbOO1LI8XLDEjFHEMlcIiKca246cP4RVrbFviPSvXv39sfEuUVcETkybmQp+SxFSyMSiLzyHOeO9SL1iGR4/xBUziHLIsHsP4+TJeWmx+TJk12LFi38vpAJTnbDJgQfaUbskcdkSqykMV2cVwwAAP/0SURBVD7lLbZZbLUoxwNCJIikMRZJY5Lg4iLcVeWPsBBCFATkh+zMIYccEi4gfRxzzDH7SjfJIHHBzlg8MlZk6rjw5UI8WSBsZA258CXLhawFkCZkC8FDtMjwIAxksxAORATJCSAZiFLr1q29gFE+yuuQSQSSTBYZRwSLbBcZwMWLF3vh43uXjCvCx+soq2Q5ZAppQg4DyA2ycMUVV3hJInsZLY2sh7GZyC/7w7lnOwgvIIhkVcnYIbCMJaS8FUFkm0hUNOwb+8q6kUAkBVFjH5hjE3njPALvKyW1ZBvZLqKWlzQitmRh+ZvPfnLMAdaDCLJ+MrLICVA+iphSRow4Ir2UlnK+kT3mLowezxnKbRFHbgSQKeZ95CYAx8P+Aevl/CHHvDfcSA3wHDcTEPVQppqsmxzA+Wd/yBhzbOF9TQaSxvgwP+OTFqssSvGAEAkiaYxF0pgkuCigLIsSIS6guFOrUCgU+Q1ki+zVL3/5y/2kEYn81a9+5X7zm9+4M844w8vEihUrfNaIbBTfOXSATBZkzMhwkWGjoyYiE0AuEDBEgjJKZIRjRYoQRoQnuvQW6UFGyEpRgoog83/k6eGHH/Yix3lC5tgmGUjG7yGejNFDBMjKshwSiABxQc7racwTIGtL5g3RYj2Mn4yWxilTpvjvdGScMYZkzxCrIDpk1UKnVTJWSCrZqyDzZD1ZH1k5tsV4QeQZQQnSj1Sxv5wH3r8w1pHnWB/rJSOIiOaWCUMkyTRyHHxuEDVkFlgX4oqgIfKINPscnuNYeK84z8gics96kEaOOVoauSGKdCKNiDuCxXbJwLLvZIiRQsQbSeVmAPuNHLMezgHbI9vKzQDecySb8txkwufrtNNO88csaUxduKgdYzHaohgPCJEgksZYJI1Jgosdvvj/+c9/+owjJUcKhUKRn2CsHQLI2LecmcacQdkqZZFcsDNWrESJEn6sWTII2S7KDxGCnB1S6ciJiDFWjmWQDWQMuUDYkDOkMxCWJwOGlIRGNmQaKaukvBTBQqQo/2Q9yCjLIS80eGF5RJR1zZ07d19ZKN1FAdni+xrpQxDZXpBGJBOJYF/JRrJusrlkO8kMBmlEkkI5LcdMeTHiQcdS5JVGNsgT7y2NfmhywxhP5Iv1sm8sR6YRweL9C9LIOhA1yjvDc7lJY8hWchyMHSVbyTEA60CuGWsYxDi6WyrLcYyUxSKLZLkRzNykkYZMnFfOFdLIsXMuEXbeVzKVjItEljlfZMUZn8o4zfD5JtvJ55Rya9bDvoXursmCc3PKKad4GZY0pi7HWlxsUc/izzwgRIJIGmORNCYJLjq4AOIC4dxzz3Vnn322QqFQ5Cv4zuCC+thjj/1ZaTz66KN9wxiyS4yB5GIciUoGSBTignBQAkp2LJRBAt+LlGtGSyNChOCQweMxZCPA2EDEjbJRxuqRoSJjRTYMWUQC2RbllWTjyDIidJRIUmaKlIUxc5SyIppk2hCEkIVDtsjCsU6EIS9pJPvGurmgJ9OIKAVpJEtGuSrSR3kqWV8yasgjUsSNQ0ofw/tbrFgx/xj7R7kn2yNbjIyxD6wrrJsyVZZhvfEyjTyG/CLJrIN9DgLOOtgnsnucZ94DzkeAfUU2yVpzHhh3yHlle5yzaPFHcinFRT7zkkaElPeR8mlkkYw4x81nOny+aZxDwx7eV24cJDvTKGlMDw63OMbiT5GfhUgUSWMsksYkwR8dyq64aKAUiQschUKhyE8gQVz8c8F92GGH7SeJ0fHb3/7WZ63IDiECoSSe1yeDML6NfSc7SNYtWhopWUTmEDfkBHGjXBNhoWSUzBQCEwjlrFxEU7qJ3BF0QkXokDe2QfaNklRKVhFQSlIpe6TBDQLJ9zHZr4JKIz+H8lQybBwXDYo43+x3EDvWjZwimOwPAki2k1Ja9p3HaUKDULHfbJ9SViSRZjcIHKJGiSjbI2sZMo0IH6W0vCY/0kjTn7DPQRoRMvaf/UH2GEMaLY3IO+eLfUUWc0pjyFhyvGR3OYecB46TdbPdII28B0gj7yP7wDp5b9kvnuMc8DeR94W/j5xHSmXDuUwW7D+Zfc6dpFGIzEfSGIukUQgh0hDG4VHimXNMI51UyVRddNFF/uI9lF9SQsh0EmQaEZRkgTAgBUgFXUOjG9vQtIZsFxfFZO3IYCGSSAwltpR3Ro+BRLx4jCwqwsMFNVlDGrAgOZTkMjaQpjY8R5kj62W7vA4JJYsFiB2ZSfYLQQjbyY80MgaQfee4mGqCjCJjEQPIGcdFYxfWTVaPJj7IEvuO5AZCVpL1kmlkWR5DYilBZSwoghWa3XA+uQnAdtm/vCb3D9LI54Htcjwha4uQcbycmzA+lGME5JTSWNbNe8B7QfaX843YkrEMmUb2ic8WpbZ8NikJRrDINIbxmLwXrJP9Zl2IJNuNvnkA7A/CzLln3GaQ5GTA+WH/yYiSRZU0CpH5SBpjkTQKIUSaQeaH8XnMoWff4T4OPfRQ3/yGx5AN5AHRoISTC24yO4xJo+yPMWvJggtwSkWRNkSHDBxVF0gYWSb2kWkvyBLyGJk0ZA4RYQoGBAsxpMwV8SFjSXaMbCJygbggOcgi4+MQFc4F5wFxRpqQHcSJjF3ItpHNYl94DkGIlkaEkOxhGO8XpJGfWQ8ZM/aHzBjjExE7pIoGLmTsKJnluBirR5aTZREiBASRRAKD6JE1JKNIB1kykMgn7x9SSzknwoD0UpLKPlMWS5kv41wpLc1rcn/Wj7xRost553iis7bIOfLLuacMFfFm3yn5JTvLWM0gsew/+8IxkW0kK8jreRyxJaONDAeBRVYRUc4t55j9pmyV8lUEm/Xy3rMO4IYIx8R55HzxviUz08hnkPeELD3vb3ivkoGkMT6/seDCliY4/CxEokgaY5E0CiFEGoEQUGrKpPOhNJXJ5xkfjWRwkY145LywRRBo8sIE5YgDF+3JgswnXaPJXiFNZEARGSSKC2KmvUAa2Wdkgc6hlF8iRkxbwXHwGqYcIZtKdgtBDtkoMooIHssiNYgXx0t2i+wg2TRkkuVC1ohmM2S+yJDRWRQBAs4j2VAyl2yXc4fckF3jZ0QIqWL7XNBTYom8hWwbTWeYd5LGRYgH7w1yiygj/hwr+0mGk3JUlqFrKtLFWE3KTTkugrJQpuLguBFitk2mjiALyHYRuNykhseQMUSb9XI8vA8BGs0gskgc+8o+s++sl2NBjsmA8p4gfYg/AoVkcg3Bsogh55t5LhH8II1IH+cIaeb9RZIRWB5nndxAaNu2rZdVjoXt0SCHGwKcT8Q+mdLI+00pc/ny5f37k9v5PVhIGuNzvEUXi84W/+QBIRJE0hiLpFEIIdIIJIcSx7/97W/uz3/+s89+IE5kzZAAng/yFA2liEgaF/SUZYasTjJg/5AsMlv8/Tn55JP9BTnZQbqgIi6MlQslkogy2T66mtIkhYYkp59+upcLxjQiYNHHjJAw5g75IrOILCEdiCOZOOQMaSIDFiB7GTqqkoVDaABBYDnGWrJ9SkHJWiIy/MxjyCMyxT6QgUTqEVOauoR95dgYNxgklZJTMqLILdlfluMcsM9kMDkPSBn7G4SJjBevQaZOOukk/xqEk2Up8US0Eb+8pJFzznlFgDiekGUNsE9ILeLH9BKsn+Y0SApjLfkMhfOMOCJ8ZBsZ6xemdyHTyLFSjouU895xvsgkst90heV5MqSsi30gk4ycFi9e3G+TYFnWz+c0mcLItrmBQHaXkm/kN7dM7sFC0hif4hYPWjxgcQ4PCJEgksZYJI1CCJFGIB2UBpJ14+KeLBtj+7gwjwcX32SpyGzRkRKxSubFL9tmvBoZR0o5kT8ygvwtovSSC/XobCjLM5aO5RA+JIlSVY4jp1SQUSQ7yHnhef4PLMdFNxk7xjJS8hlAmChJZToJ9iE8h9hQpol4IjqUBrMsmTl+5jHKUKOnhGA9ZAiRc/aV7B7b5HXRIExk7Mi8sRwSvWbNGn/slIWyL9EZVOB9psEMWUpew/uPjHIu2e+Qnc0J6+A8cD7YZ44nt2ksOOfIXvS+h1LnnCDI7AuSzfuB5PEesX72KUgmn1nOCWW67C8iHN1xlXVHny/WRXlsMm9sBDhHiDQyTwaWUuRkSqykMT7lLLjQ32RRlgeESBBJYyySRiGESCOQJ6Y14CIbUcgvyAaZKC44GS+GxOQmDUKInwiSTmMiSmjJuEoaUxdEEWHcaFGGB4RIEEljLJJGIYRII8jckAWjPLAgF69kmSibZOwcYweRzuhpFYQQsZARZRxst27dfClx6P6aLCSN8aEk9X6LWRZn84AQCSJpjEXSKIQQWQBZRaZAoMyOpiWhoYsQIm8o56Wcm+ZBNMGhZFjSmLrQ/OYKi04W/+ABIRJE0hiLpFEIIbIAGqEwzmzEiBG+MyclqtHjyoQQsfA7Q+dYGvUwlhiJTCaSxvj82uI0Cy7y+VmIRJE0xiJpFEKILIDsCNNKMCUHXSDJnOTW3EQI8RM0KqIBDpEKJd2SRiEODpLGWCSNQgiRRTCtxAUXXOAvgukgmsxSOyFSGcYMI4rh94UGVMlG0ijEwUHSGIukUQghsoh169a5Bg0a+MnbGePIRPNCiFjIzDP298ILL3QdO3b0U6wkG0ljfH5lcazFny0O5wEhEkTSGIukUQghsgjmL+zRo4ef53Hy5Ml+4nplG4XYH+aWZDzjkCFDfJaRMcCp0DhK0hifv1g0iATyKESiSBpjkTQKIUQWwUUnk6iTOWHqDSZcT+a8c0KkIoxdnD9/vuvataufpmb27Nl+2ppkI2mMDxe1d1qMtSjGA0IkiKQxFkmjEEJkEczxuHbtWt8Rsn79+m7SpEnKNAqRA7KKAwcO9GXcTLWxbds2n31MNpLG+JxvscZitUVpHhAiQSSNsUgahRAii0AQ33vvPX8hXKZMGT9voyb5F+In+B157bXXXOvWrV3lypXdvffemxJZRpA0xqe8xTaLrRbleECIBJE0xiJpFEKILOOHH35w9913n6tWrZrr0KGD7wpJBlII8WMDnKVLl7pLLrnEN41atWpV5JnkI2mMT0mLJRZc6JfgASESRNIYi6RRCCGyEEpUu3Xr5lq0aOHGjx+f9EnLhUgVuIlC4xuaRd10003u1VdfjTyTfCSN8TnZYpDFQIuTeECIBJE0xiJpFEKILGTPnj1+ov/mzZu79u3bp1Q2RYhk8sADD7imTZu6Tp06uYULF/rMY6ogaYzPHy0qReIPPCBEgkgaY5E0CiFEFvL111/7KQXoDEmZKg1xGNuopjgiW6Fsm/G+AwYM8HMzDh482O3atSslGuAEJI3xOdTiyEjwsxCJImmMRdIohBBZCuMYR40a5WrVquW7qW7YsMF99dVXkWeFyC7CWMY2bdr4zsJz5sxx33//feTZ1EDSKMTBQdIYi6RRCCGyGOZpJNt46aWXuhEjRrh333038owQ2QXTajB3Kc1v+vXr5zPxqYakMT6HWBweCX4WIlEkjbFIGoUQIot5++23fSdV5qOjKc769et9mZ4Q2QQlqHPnznX16tVzLVu2dEuWLHF79+6NPJs6SBrj83uLMpH4HQ8IkSCSxlgkjUIIkcVQfkeGpUuXLq5OnTr7OqlqbKPIFr755hufVWQsY40aNfyk/txM+c9//hNZInWQNMaHjqk3ROLfPCBEgkgaY5E0CiFElkMDnPvvv99fjDZp0sTdfffdKZllEaIo2LlzpxsyZIifl5GbJ8uWLUtJYQRJY3yYm/FRi0cszuMBIRJE0hiLpFEIIbIcsopvvvmmn5vu3HPP9eL43HPPRZ4VInNBDh999FHfQbhixYpuxowZ7qOPPoo8m3pIGuNT3mKrxQsW5XhAiASRNMYiaRRCCOF5/PHH/ZguLp7pqrp79+7IM0JkJpRm9+7d25UuXdq1a9fO/z+VkTTGh0zjkxarLJRpFAeCpDEWSaMQQggPE/5PnTrVZxqZ3Hz27NlqiiMyFqbYGDt2rO+W2qFDB7dgwQL36aefRp5NTSSN8TnWYrDFzRbH8IAQCSJpjEXSKIQQwkNTHMpUhw8f7udu7Nq1q3vmmWf8fI5CZBIffPCBW7x4se8YzJyMdBB+//33I8+mLgWWRnvNoRZ/tjgp02PcuHEVateu3cei98SJE8vntkymxX//+99j7N9DI2+3KDwkjbFIGoUQQuzHU0895Sf7Z+5G5qvbtGlTyjYGEaKgML0GpdjcFOEzzljel19+OfJsalNgaTSp+I1FO4u5mR5ffPHFI6+//vraXbt2Pf3VV189ktsyGRht7XPx68jbLQoPSWMskkYhhBD7QefU5cuXu1atWrnq1au7kSNHOrsO0zQcIu1BGJleg3GMVapUcddee63bvHmz+/rrryNLpDaJSOOfLCZFXi8yDHtvJ9g/f4i83aLwkDTGImkUQggRw+eff+6mTJniaIxDMPaL0lUh0pkXXnjB3XTTTf5mCON26ZyaTkgaxX5IGosMSWMskkYhhBC5wvx1I0aMcGXLlvUX2czlSPMQIdKRt956y91xxx2uTJky7qKLLkqbcYzRJDKm8Y8mFmN/fHl28M4777hnn33WzxvECeNN5iKX8gkeL4puR5988onf3vr1633babbBXbY1a9a4VatW+S5jRYG9t6Ptn99H3m5ReEgaY5E0CiGEyBMyM9dcc40rVaqUa9iwoRdHro+ESCe4ZidbjixWqFDBj2NEItMNSWM+2LBhgxsyZIivq3/66af9gNWlS5f6OwbcKUAqC5tXX33V3X777W7AgAHuySef9NvYuHGjmzBhgv/gPf/885ElCxdJY5EhaYxF0iiEECJPGOtFB9UePXq4EiVKuMaNG7slS5a4zz77LLKEEKnNe++95+655x5Xo0YNV65cOe8TL730Ulo2d5I05gOkjS+sPn36+OwiGT+kDoFkAGtRtIPesmWLHyDL3C18QXJnjTcLgV23bp17++23I0sWLpLGIkPSGIukUQghRFy+/fZbt3LlSnfFFVf4i26mKXj44Yfdl19+GVlCiNSEykTG5l588cWuUqVKrm/fvv763q61I0ukFwcsjcw1QvkAd4K2bdvm3njjDffuu+/6E8WdoHBi+KWnzJKSS5alhfJrr73mBzsH+ALAyHk9O8aFJMuSYWPZnHIW1knWjeUoFc25TpZBuNgflkX2Xn/9df9/7mCxTiQwrAMpY984jq+++sqvY+3ate7GG2/0g1dXr17tX0u5KPtJfT3Lffjhh+7FF1/0+8p6wjEildTlszzngnmIOGcsG5bjNWQvWQf7y7/z5s3zE9zyQeMDx/6wDl7LOYr+svzmm2986psPIuvjWEh7sy1gctyPPvrIZyvZZ46fc8Wx0sWJdQYkjUWGpDEWSaMQQoifhWs1rr+uvPJKd/7557vWrVv7ee64XhIiFeG6/N577/XzMJYvX97179/fX6fTQTVdOSBp5MBnzZrl5xmhRpdf4ttuu81LDmWbSAlCAzt27HCjRo1ydMFiWdK0ZO4QsiCWpGs5wZMnT/ZlmO3bt/fLYufM2cP6ggjBK6+84ktEeUNY7sILL/RtbMkAhrQvosQdKlLD7FvPnj3d4MGDfcciWjhv377djRkzZt86Klas6KpVq+ZuvvnmfW1w2S7CeMstt/isI2KKnD3wwAM+84iEMedKt27d/GBtPhys64ILLvD1y5SYsg6EEMl85JFHXJcuXfy2wn6TUUQUkUOEjuM99dRT3YknnujatWvnHnroIf84r50zZ44/9gAX3JyHSy65xG+7bt26bvTo0X4/gW3y5Tpx4kQ3bdo0P+8R22T7jBF48MEH/b6BpLHIkDTGImkUQgiRL0gILFu2zF111VW+OU6jRo3c3LlzVaoqUg7cY/z48a5mzZqucuXKXhi5hg/X2ulKwtJI1osMGZNT0gkIAaFkAPlBcijnXLhwob8LRIYP0SFbxzJIJpJGqcH06dO9dJE5Q8R69erl2rZt6wc+N2vWzK/3rLPOcrVq1fIiiejxBcG/8+fP928E60SYGjRo4GUM6SRzRwaQ5aZOneo6duzol0Fshw4d6iWKC1UmkR0+fLjfFkKLcCF7zA90n4kv+47wIZFIJ01ouFPAYOzu3bt7OSNb98QTT3jR4wIYUSROP/10d8wxx7iWLVv6BjbsD3ceeC13y1iWfUag+WAhpTS+QXo5D2eeeaYXR/ad84cwDhw40Isxss36kMwZM2Z4wUZYmfeFbXNueZwsJ3HXXXf583r11Vf756pWrepKly7tzjvvPC/SnAvu5EkaiwxJYyySRiGEEPmGa0Wuwzp16uQzjtz45jqSazUhkg0JK5JR9EDhup7EUChJjU56pSsJSyOlqGS32rRps69BDMHPPEbWjWweQsidoOuvv95nGsnUYdsIJcuSwSNjh9xRznnDDTe45s2be4FiLB9yROYSOUWWkDOylogXGTxEkmwfwskdqDvvvNMLFxk1yk75IkEimQ+FAyUzyuOUa/IcwsebyZtM6eyKFSt8Rg7pZbBq6GAapJH9pxyXfWbMIcfEMZLNI7PHeWF9yCivRz7D/EJIHiec1yOilJEi3qyL88Xx0WCHElrq9RHcyy+/3Msf+8dxcr7IFPJ61kmWkNfxOBLN/pL1RC6Rw5kzZ/r94TyxL2yHc8C4SCSU841osx7Oh6SxyJA0xiJpFEIIUSDIOHIjnhv3xYsX99VhXPOlYzdKkTkghSSscAVuaJBQo0sq1+DpnmEMJCSNH3zwwVjkhqwVd3uQwACPY9WUniIlnCzm2SGzRXaRzCCZPrJbZPbIJCJoSB/rQX7IrN199937atWRMgQT4SHjRtko66hdu7aXKraHoJHJJJtIa2ZEiHUicnyZkGUjE8j+BCg9DWMDyZyy75SukgVkvUgpUodgRUsjosl+IGsIYc7pL7jTwLEgZwsWLPDjF/nAMLYwlOuybUSQslmOnywhsowsMmYS+eMcco4RWcYxIqLINPvC+jkPHDdfnIjn3r17/brZPqLJ+siiIvNII+8VMhk6r7IPiCbnlUwksippLDIkjbFIGoUQQhQYhkchjiQUaI7D9SQd57k+41pLiIMJLsHnkUQMvkPVHz7DdX4mUWBp/OSTT/5oEjSWzBR15QgP2TUw4fCShYAgNozRQ9wQF0ohjz/+eF+yecYZZ7hixYq5U045xaduyZyRZURuOMlIEOtHlABpHDdunBdNspYIFbKEyZ900kl+XWGdlHNi9wgk2TjeMEoXEKNBgwb5LF8AkaNJDhk7xgwiq+ecc45fJ2MDOQaWz5lpjCeNiBiDtfnyoiyWDGoYX8m/lIAiw+G81KlTx5188snur3/9qy9XDdLINslkki187LHH/BvFBxKpZV8QWQIJRG7ZZnSjIDK5vD/INhlKymgRUDKjHBP7QpkvYk9mluwqGVxJY5EhaYxF0iiEECIhuIbjGo9sDtlGygGHDRvmryejmwUKUZRwLU1yh2tpxi9yA2PSpEl++Fi4/s8UEpLGzZs3j6XskWweZafhgo+Tg5AgS/wSI36Ul5JpvOyyy7wAIVME8oKoIJb8gtPBEylCIJEl5JCBpNwxIltIpow3hMfJsrF+atm5y0TWkXVSLstyrBOxRDrJ8iGNiCjCFS2NjPVjWR5HMpE41sWynBSyeqwnr0wjmUCkMZREUH5K0x0a6zAAFjGM7pIU7kSwn9yNQHw5D6yHDCnjQSnp5U1BoNkPRHbRokVeTKOlkfPKMggj+4kgR39JUtqL0LN+ylVDppb9Zf/JeJKZZHtsnxJezrOksciQNMYiaRRCCHFA8PeDxELoTcG1Ezfbo2+kC1EUMCMBlX70cuFahmv2MAwuE0lIGnft2jWWzBzSiLRFixgig3whM0HwkEaEaPbs2ftZd5gqgrF01KgjQkgjv/Asy1yE1AhTNskXAtKI5JHNROA6d+7sM4TRssQ6ye4RfGGQPUMa2U9kK7o8lcHUlKzSgYt9Zj94PZk5JJLlkbG8Mo3IFllVjoH9R1CRaT4w0d1NA2QYEWXKahmvyPaRYrrGkjFkX2jQg4QiiDQDQrSRPgQ6ujwVIWXf+Jn9oLQ2eqoRzj3nHJlGZJFFzgEZR84Bx8k4TDKSZEwljUWOpDEWSaMQQogDhj4VJCoYhkNDQ653uA7iGpAb+kIUJlQpct3CUDqGv/GZI4lG3xWurzOVAkujveaP9gs4FqnhBNG1kwY0odyRX1IyWpSSksWidABh4Q4Q8sgGA2QYaXKDaCFZZPQY85ibNCJnbA9JRNpoeIMUkUFDdgKM1+Mx1suXBaWtjO/jC4Ty1GhpRMYQLjKb7GsQKab9QIhZHulFGvmZ7GaQRvaP15JRZP9Yhgwrdxw45twGvVJ2yn41btzYSzViC7yWY0EkKU/luBFEpJG7FmQNeYxzjiSyL4gzkooEshwySuYU+PLkfHHOeR7BJANLuSqZx5zSiIyTSpc0FimSxlgkjUIIIQoFqstIXHBzneot5rlmyBPXQJl8IS8OLvRACdV8JIG41g5VfDyXySQkjSYWY0m90sEUw0Z4KOtETPgF5U4P0hiyZtT6ks2iqyqCRlaPMktOOMsxtQXihSjxf17PY2GCejJxlHQiPUgZmT3G8LEtRAshDGWvZOvIzoXMGYEQIbc0zEFUA0EwETP2hdfzxpPtpIkM60LUEEUEEaHlLgINaMgmIreIMBlDspDUMjO9BucCaWNdyC3ZUcZ9In6UTDC2kP2m9p71sDxTb/DB47ipg+ZLDvnm7gXrJlvI+WTfOJcINhLKtpFZluU5pJBzy76RLWV/uSBnX3ivWBfngLGXyCWSz/njecRd0lhkSBpjkTQKIYQoVEKTQMSRKc24diQZwHWmEIlCMojPFpWPXMMzvR3X7ThGSNpkOglLIzLHixEUmtwUK1bM39VB+BAWBAbJIftImWiYkPXcc8/1jWaYe5GMG7/IyBQSgyghgqHhDSWZbIeMIUKKuCFgrI+SVISIjCBzDdJMhiY7TZo08Rm/UGpKNo9tIIUIU3QpLeWibIeurkyiT2MepuZA4si+IV1II3euEDNkl/8jgHRFZV8Zv0gzGY6ZZjb/+Mc//HpOO+00/y/nhQ9VyJxyccw5owHQ2Wef7ees5HgRVLKPSDGiSxaRbVKfj9TSAZZsKJIaymYpbeVccMcDEeV9YJslS5b02UfKbClZRb7JcPIY+8s5CJlG1slxcs7IykoaiwxJYyySRiGEEIUKF/fcfOf6jpvlZcuW9TfguZnPzXGet2udyNJCxIdKSq6ZqfDj+pvuqJUqVfLX7bgNGe5s6dibsDT++HLn5QahQ4QQErJxZL0Yo4fUIYNAVouGLogWzyNljDVECANkEMmoUTbKRSTCw5vFa3mzQtYs/LLTPId1Uq7JOsli5lwnzV4ox2TMH8LHoNUA6+bOE1lJXss6OBYkkf1ge9w94MuHzCaP8zMfELKfZPnI+JGSZuoKmtsggMgZ6yKDh0xyXlgOgSZ1zXrIalJuiwRSksq6GNOJ0HFcHDP/p7SWbCRZWM416yHzybkKIKOUmXLO2SbCjsiyDkAsyS4il4g554APOO8NX6Bkgsm6IpGSxiJD0hiLpFEIIUSRQGKAa0RujJOkIKkQrhO5bpM4ip+D8bBcdzMUjT4qTMfXokULn8nmujzbxssmLI3cqUFKkA7StUgJsofAkVHkjk4YOxdAVPg/skKQRYyGX2BEjoj+ZY5+nIiGdbIvYZ3R3Uoh52uj1wv8n/0I+8Xrcy4fvY7w/+jHCNbBfkQfXwgeZz95DbA82wnP8dqw7vBvWI7nCF7P/0OEZQLR55Z/+X80eb02bDM8biFpLBokjbFIGkWhwvdY+G7lZhk36bgZxsUj5fxUr/BHj5tuDLHgJiA3Bqnu4GYjNxH5m8YEzdwY5EYdn80QjFcP/4afCZYjeA2vZR2sK4yrDzcfqYCh8oMbfdy8Y5/4O8rNTW4qUkHD9zff+Tm/44UQBYfvBH7nqfZi6BJTc1DhxUV/SCTwOydENPz94DubIWUMbeM6hVJnEl64Dt/Z2fgdnbA08geXX0LKQ7l7Q1BKSYkqY+7InHFS+YUV6YOksciQNMYiaRSFAjfJ+HuDlCFvNDCjWoQsA52uqdjgTjFj2BmmwFAA/vhTFcLdY9qlt2rVyg8loJs2F5X8LeOzSaODWrVq+QsGxrCEf8PPPMd8u5S/MTad6aXIanA3mnEvDC/g7yQZDi4+qAhhPDsVKFS5MI6dShUqQbiIpeoD4UQsoztiCyESBzmkqorfPX43+b3l950+EFSycQNfCOBmI58Vvqv5W8DfAL7HGcvI0DA6p2YrBZZGk4o/WUzh7iglkTTB4YQyqSp/YCm5xMJ15yY9sfd2kv3zh8jbLQoPSWMskkaRJ4gg2TeycdykJINH9Qol9gwXYMgBZfhIIePWETAaj1Hyz3AJxDB0x2bMN+PtGd9EszJucjLPL5KH7AUpJAtRpUoV39SsYsWKrnz58q5cuXJ+TFSZMmXc+eefv+/f8DPPsQzj1BnnwmsvvPBCV716db9OhJIbqjTloLSJC1UEleZsV155pR/KwNgYhjdwkUIGBLnlAoV27gxPQCoRYIZMUBLFRS5j68mQkrnk73H01FNCiNyhyoDfKW7k8LvPdwHXrdxY4mYTw4NE9mHXvv67lOFf3GDkbwY3AOl5wrAzerSEIV/ZTKKZxnGUAFHqQ2kq9b4Ef8z5w84dX5Ge2Ht7p/2jTGPhI2mMRdIoYkAW+ePM3xIEiTHfNOqiERkSiPwhXwgewkYDMIQNSeMPPBeBZPgoRSOTSEaRsfaIJGPJyfBxUYCQ3XPPPf4CEvFkOiduhHJxQNaPBgc0E+OOM1lLLiZyC55jGYSOG6aUM9FgjP2mcRtzxzGtFOOoEFtkECmk4RpNFRhvxUUJ49G5m43UIrT8XiCwHGOpUqX8MSKgZElYNjRiY93sLxe8lFMpOylE3iAH3IiivJzfe/pOcIOIGz9UHfB7y4WxyB74m8NQAv4ecFOPvync8OMmHt/n8pqfSEQaf22/dE0sJmZBjLcYEwl+zm2ZTIvGFkdF3m5ReEgaY5E0ZilkxbjjTzMKSjLJGPIHm0whmTayhGTeED46XyNJXNBR2cLUTYgVJaChDDRMm8TrkEvEjMwBQygQOOSPxmKUfvJZY5whd5W5eKTUiGYGjCMsTOx71Je8MTaGCw7K48iYUnrKcZMt5NgRTS5UmcIKkUUE6ZzN8XPcZEfp6o0o8y9/sCmnRZ7JloRMJcNCEFAudJBj5u5FWMnIhhu6NHEr7OMUIl3hd5PfD353uFFD8PvGTRxu8FCKmOnz7mUzfB9y04/5zPkepQKEihC+Z/kO5v3ne1z8RCLSeIjFby3+nOnx2WefHbt9+/a/Efyc2zIZGLy3h0TeblF4SBpjkTRmMPyxpSIFISP7FcSJZjFk6JheiD/WjPOjVJNSMcpBmZaJ0k+GPYSsGjLIsmTryAiS2Xvuuee8gCGfVL1wARA6T7MtLvbYLoLKPjBkgv0JjcUO9sUA22OMP9tmP0LjNPaNi1f2lX1m3zkGhJbzxdhGZJOxmsgfF7nIMHODMT6L7CtZVaSSzGSJEiV88DPjM2lMR0YTiUROuRCiMQ/nCmFm26H5jhDZBr9/fHesX7/e37RCGs444wx3wQUX+O8dKg+4ycTvpsY9pjd8B/NdR3O0kGlGFsksFi9e3FeoMNSBWQz4Dtb7HUuBpTELOS4SQhwIksZYJI0ZClJEUxqGLTAeb+zYsX4qIMbw8YeZbCHZQbKHjB2hjJSxh2QWuVCjdJPpjxBLLtooU+UPORdvyBQXetkIFz1cvPKHmw6tZCu5U44McrETspRkHBmnxTnloghxRCyRc+6mk03h8VtuucVnNynBYryoxnOJbIbfKcq9+R7iO6p58+a+EQq/L5SUM5aaGzkiPQndULmJFt5bbkzyvUi5P9+jVKCIvJE0xuefFtdE4h88IESCSBpjkTRmAGSqELldu3b595E79pSEMg4RgUEIGWdIt1HGDXEHnwYDPE6mjLJUsmdIC1k17gQjRwc7E5gJhPNG1pL3g8wkF0JkGbkoQtQZF8n4SMZx8bvHxTEXyVwUM76TsZxkcSlnJYvLHXfeEyGyBabooXScmyo0eWRMMU2zKBmn2oHnaEJFhlLZqNSFKhMkh+oWxpxzI5JhDOE9JavMDU2+72i6Jn4eSWN8zrWYbzHPojgPCJEgksZYJI1pDhdNTz/9tM9yISXckQ9TVVAuiaSQ8eLOLlkwxhkuWLDAj+NDaHjfKb1UKVDRwEUT7xEXuEg5GVsyt5RlMWaLsY9kdhF45JGLKKQSqWe8JJ1oeb/I8qo7q8gmuBlGh2J+XxgjzbhHmqTw+0GGinGPCCRljirtTj14/7iByZzxVFrQwZohEHzP8Z1HhQU3yPhu1N+e/CNpjE85iy0Wmy3K8oAQCSJpjEXSmEaQvaI8lDFxZBKnTZvm7rjjDt+ZlFJHmtPQvZQ/zJT+0JyFMUJkuriTi7yI1IHsIdlIRJImPJQEUy4cOrdyYUzZFhfHSD/vJctxxx4BpYxLF1siG6AcnkZa3GThdwIB4cYKN8W4WUYGK4wXpgQyW8vnkwnjs+mAyvfZ3LlzfQaR8fJIIllibohxI4z3ikZkmkM+MSSN8UEUN1g8Y1GGB4RIEEljLJLGFIdSR8QAQaAkizJHZJAmNTRbYV5CxshRtoVUMMUEf7TDHIL8gaHpwNdffx1Zo0glaMrDHXnGMjIGlTFddJhFDO+77z7fiZYpCRBImkUwLyWlxnRoZbwpU27x/rIeITIZMu18D1LqSDk9UsLNMuZ4pXkXc7NS+khZPvJIQyvERGX2RQfnlnPMOFPGdpNVRORpqMbfJ0SRDPGUKVP8eFQap9E0TTe7EkfSGJ+zLaZbTLM4kweESBBJYyySxhSFrCBNbJiygXGHiCIlPmHaC0SRf8MfZMpNuZjSuJDMgc/Apk2bfHkqGWUukLlrT4TpPuhsyw0DLtbIPnMHX1kWkekgKtxgYaqg2267zZflU45Pky+khd8LslxkJvkOJUtJVl9lrAcO8s65X7VqlR/uwBRNDIHg+4i/SWE6Jpqu0XGbG2DcEBOFg6QxPn+3aG3RykIdVMWBIGmMRdKYIlCqyJ1x7sKSPaK8Z9CgQf4PMNlEJpgn20QpKo1rGI/IsmHKBu7cqtwn8+AilywxpclkFJmqg3FASCISyQTYTI9CYwku2rhI43nu6COdvE4XyiIT4fuO701ulCElVFgwTpiOxZSvkumi8RfdOSlhZfwjUw0hPHx3Mo6b17IOfXfGwvcGN6DoFk1jIrK8VLBwg5KKF6Ya4m8SDW2ogkDauYFFhQQ3uzjHfP/wt0nZ3sJD0hgfJrn/VySO5AEhEkTSGIukMQWgNJE74cz7x4U/Y9qY3JhsEuVWXPAgCdwxJ/uoO+bZDRdxzBm5fPlyfyFMsxwu1siukHEJnx8yLTTcoVGIuq+KTAc5YUwdGTDEhTHCVGLQZIrpbrgBxzhIyrt5jCwkJd7IJt+pKpn8CWSP7s3Mx8tNysGDB/tzyLyzBBldql4onee7h87PfNfwd0xZxaJF0ijEwUHSGIukMQlw15UsEBf+jPOgxIcxavwhrly5ss8sUoLImB3EgDu2QuQFNxDInjAfJ58jmiGRmWasF3NwIpU89+yzz/pxrkinEJlOaDQVnZnnd4LxdtWqVfPyyO8HFR10Z+WmHFk0On7SrZhsPVPecFMv0zL2CDLfA/wdons2gkiFC9LHPIrMlUnVAnP7IotkFPnbxFRBNLVBxul+inAzTZMytQcPSaMQBwdJYyySxiTAH2nucDNOkawQ3U65C84dW8p+GJvGhQudUilZFeLnoBEOF4D8HpNpmT17tr/7z4UymQF+x/mMMe8d2QOJo8gWQlk3HaS5CffQQw/5qg7GQtKZmG6sSFGVKlW8GHHThSoPbsDwfczyTGuERLKudIbvCeb0jf6eoIEaf3uoUmA6E84BUk25KcJIGSoNuahq4G8TJb5INX/HkGlxcJE0xucIC8Y1EvwsRKJIGmORNB4kKNmhIUAo9aEMlWYBXNDzMxf4dJ+TJIrCgiwLY2NDFpsbFIgjNytorMMFY+gyKUQ2gfyRWVu4cKHPMiJG/G4gjATfzVR7UILJGEmkimlvkCckiw6ts2bN8q8nk0nGbePGjX7MH3KJUNFRlO0Uxbg+5I+xzozJZGwm2T5+36k4QOj4vaaKhS6zSC/luoz3ZK5eynb5TuCYKS+lYQ0Swt8i5vil4ykCybAIsolkX6mKUYOt1EDSGJ+/WTSJxF95QIgEkTTGImksQsJ0CvzBZfJ9/hBXrFjRVa1a1XdC5WKFrA/jcLjAYFkhCgs+fzRK4iKDrqp0YSW7whyelOhVr17dXzhyYRnmfFSZmcgWKF8l407mjTJUSrcRLr6TKVVFDildJVuPUJKF4/eG6T1Klizpp/hgjGS7du32jT3nZgzZSco7+X0LQkljGMYWB6FE8ih75YYN+8B3P11JETOCn5FNnkM82Ud+j3MTwyVLlvjyc25Ijh8/3nfbpqyU/eZmESLI353zzjtv3zRNPIYUI8S33nqr32fWwbROXAtQ5cL2aIDDfnz33XeRsyaSjaQxPkyzMdliksUZPCBEgkgaY5E0FhFcEDA2hHJA2pDzxztMk8Edayai5o+/GtqIgwUCSTaEMbS0yA/TdxCM7WLcF8+rIYjIZrhxEkq9ET6yiZRmIoQDBgzYl52jdJNMZAgqRvIKbhLyO8a/8YJl8rMcEdabc1shwn6FfeUxqgzIMpJxJPu4ePFiPxQiE0pvswVJY3yY0H+dxVqL83lAiASRNMYiaSxEuNgmY7hlyxY/ZpEOfdzhZUJ2xsjwGOeZkiJkUW3IxcGGC2I+p2QuuFjk4pFyNDInfA+QdSDzSNaFi0h9RkW2wmefbD3f1fzOUA4apqDgwp0KktA4hswk5Z80nULKGCuJpHGzkFJXSl5pwsO4SbKVTFFBxvKss85yp59+ujvttNPcqaeeul/wGM+dffbZPkvI1Do0oqFSpXbt2r4hDV2SqWBBNGlOw03KUaNG+fJZStMpLSUjiRSGKXg4BrKsHBPHxneCfs/TB0ljfMpbvGCxxaIcDwiRIJLGWCSNhQiySGkQFwnME0ZWMTS3oeSJL3shUgUuHF966SWf9eZilxI7Slf5PuCzSyaCMjohRO5QRkoJJ+WtDDOgDJxsPY1z+M6ndJRM5bx587xY8jtF1pKxgjTjmTBhgh+mQJafctjo4DGeYxmEFBGkSoDSV8YjU05KYxpu8tDUhumYaPZDGWwoL+XGj6bbySwkjfE5z+IRi4UW5/KAEAkiaYxF0niA8EeZ8SWLFi3y48UY40J2kXbuXBhQgipEqsOYKrImjOEiI0IHxY4dO/oLVkr0uCAm0yKEECJ5SBrj82+LvhZ9LE7kASESRNIYi6TxAKBrHXeSydCQWaQ7Za9evfzdYEr/aC5CeZMQ6QDiSBkbzTuYo43xUHw30HqfjovPP/+8xjsKIUQSkTTG5/cWjGUsbfE7HhAiQSSNsUgaE4DsIuVHlBAxboWxJWQWGU/CHFaau0qkO0wRw5goxuUy5hFxpNMqpXFMK6BuikIIcfCRNMbnEIvDIsHPQiSKpDEWSWMB4EKZL2zGqNDogEn5uZhm3kXGlPCcSvhEJkBjDG5+kHmcM2eO7xhJNj1kHcmk041VU3QIIcTBQ9IoxMFB0hiLpDGfULq3fPlyn20h80KzG8SRubEo21OzAZGpMH0MTT3oykjJKpl1GuZQwkrTDSGEEAcHSWN8fmlxVCT4WYhEkTTGImn8Gcgu0kGS+ayYCJl26bQ8p+kN3VJVpieyBSYiZ7wj4sg0MrT9Z+46WvprjjchhCh6JI3x+aNF5Uj8gQeESBBJYyySxp+BKQnGjh3rWrRo4TujMsaLcV2cLzUFEdkGckiXVeZ3bNOmjbv00kv9uF7GP9IYSgghRNEhaYzPKRY3R+JkHhAiQSSNsUga84DJz9esWeMnO2/WrJkvRyW7+Mwzz6gjqsh6yDouWLDAj3VEHDt16uSnmGGeOo3rFUKIokHSGJ+SFkstlliU4AEhEkTSGIukMReYrJnJmNu2betq1qzprr76at8M5M0333RfffVVZCkhshuyjps3b/aTkDdt2tSXq/bt29ffWJE4CiFE4SNpjE95i20WWy3K8YAQCSJpjEXSGAUdIylHpcEHcy7WqFHDde3a1T366KMqvRMiD5j4f8KECb45TrVq1XzWkXJVsvVCCCEKD0ljfJif8UmLVRaleECIBJE0xiJpjEBDG84BjT0uvPBCV6FCBXfzzTf7TMqXX34ZWUoIkROm3UAQlyxZ4rPzJUuW9POWkq2niZSm5RBCiMJB0hgfLmrHWIy2KMYDQiSIpDEWSaOBMG7atMnddNNNvsSufv36bvjw4V4YNX5RiPzBvI2II12Gq1ev7sWRcY5vvPFGZAkhhBAHgqQxPsdaXGxRz+LPPCBEgkgaY8l6aSSLyBisQYMGuTp16viGN9OnT3fvvfdeZAkhRH6hxJu5GwcOHOhvwDDWcfLkye71119333//fWQpIYQQiSBpjM/hFsdY/CnysxCJImmMJaulkQn5EcZ+/fp5YWzXrp176KGH/JeyECIxkMMwVc0ll1zixwdPnDjRvfbaa5ElhBBCJIKkUYiDg6QxlqyVRrqgMin5jTfe6OrVq+c6duzohVHjF4UoHHbt2uXFEWkkgz9+/HjfgVhjHIUQIjEkjUIcHCSNsWSlNJIJYQwjjW7IMLZv394tW7bMffrpp5ElhBAHCuOBaYQzadIkn3G8/PLLfem3xjgKIURiSBrj8xsLGuAQ/CxEokgaY8k6aSTL8fLLL/sxjLVq1XKtW7f2GcbPP/88soQQojBhPCPT2Fx88cWuUaNGbsaMGX4uVCGEEAVD0hif4y06R+KfPCBEgkgaY8k6aXzllVf8BSxNOsh+MGn/F198EXlWCFEUUJZ66623+nkcW7Zs6W/USByFEKJgSBrjU9zigUicwwNCJIikMZasksa9e/e6cePG+XkYkUbK5vgCFkIUPc8//7y74YYbXPny5f10HMuXL9f4RiGEKACSxviUs+BCf5NFWR4QIkEkjbFkjTTS4Gbp0qX+YvX888/35alvvfVW5FmRF8xh+dFHH7lXX33VZ2kR74LA+FEySnTO3LNnj/v6668jzxxc2AfKknfs2OE+/vjjAk//wPg8XkepJVkzNUwqOAgi3Yq54ClVqpRvQsX0HEIIIfKHpDE+iCLCuNGiDA8IkSCSxliyRhpfeOEF16NHD59h7NOnj1u/fr2fU07E57PPPvNNg5gyge6XW7dujTyTP3j9qlWr3IgRI9y9996blMwu7/Ozzz7r7rzzTjdlyhT/WShoSTKSyGdm1KhRfh07d+6MPCMKAs2m5s6d61q1auXoWjxmzJgC34gQQohsRdIYH0pS77eYZXE2DwiRIJLGWDJeGslukFFkgnGOk6k11q5dq0xRPuE8kaF7+OGH3YIFCwo81x4ZvgcffNC1bdvW3XTTTUmZqw9pZN7AefPmuUcffdTvA3N0FgSWp5zy6quvTtpxZArvv/++v4FAYxzkkZsKEkchhPh5JI3xofnNFRadLP7BA0IkiKQxloyXRkorH3jgAdepUyd/gUrL/08++STybPJAZhEyLpYJMjDMHUkZZICfKQ+llJKgtJPlWJ5MWfSy0bAsz4d10xmW9eQF6wnLc274OZRvIlzs53vvveeDfQzwOp7jNXlti5JOMktXXHGFGzx4sC/vzAvOCa8NwbZYN8F28jrecC7DfrAP3377beTZH+GY3n33XS8sYV0E22FZzi1ZUV7POWYZ1gucgw8++MBLZ4cOHdx1113n5/gMx8nzSGV4bwheX5AS2NzOJfscthFgOfaXc8PzHGvObfEzj7MO1hf9fqYKSDxT3lAuTpnqmjVr/HkUQgiRN5LG+Pza4jQLLvL5WYhEkTTGkvHSSPONdu3auerVq/tSuHjScjDhovmOO+7wc0SShevWrZsvAY0e48V8dswfuWLFCp8dve+++9y1117rXzN06FC3cePGmDGCyAFCw/McN5LD+M0nnnjCS1FOkJDnnnvOl4+yH8j18OHDfSkmMgL8kWL7Tz/9tJ93L8C+0lioa9eu/rXs18CBA93jjz++rzMmwkKnTDJ07FNeZZ3sN9sh6/TII4/4Y77nnnv8ujkG3rstW7bkKj+cS/af5Tjmfv36uYULF3rJDTAO8amnnvLnhu0gU4xvZJzr7Nmz/bnlPHEMV155pS9DDe8F8vXYY4/5LPU555zjSpcu7UucKXnlnO7evdvfmOC9Cedh5MiRfvwex58fKJllInzOU1jHLbfc4rObiDdw7Pye0vGXUls+P7fddpufwoIxp4BQImAIGeeC95NleCxZ40lzg33h/PH+0phqyJAh/gaPEEKIvJE0CnFwkDTGktHSSFaJzGLVqlVdw4YNvQglGy78aQiDEHHeTznlFFesWDFXvHhx17RpUzdz5kyf1SLDhOBQCslYTGSsc+fOrkKFCu7kk092F1xwgZe7bdu2efEDsk/IBwJVp04dv95TTz3Vd6vs3bu3W7dunc9AhYwO2TGEi7GKl156qV/+jDPOcDVr1vTrYPwi5xDZIkuIiLBPyCTyR/dZziv7zmvZL5oMkYlDMBEYls2PNLIs8srxMncmUtalSxffMOXf//63q1u3rpswYYIvCw3iyGsQP8SV9/ikk07yx1u2bFl31VVXeSHkeDk/q1evdv37998nxIjekiVL3DXXXOPPO0LINng/jjvuOFe5cmV39913++wkf6Qpp+S8/PnPf3Z///vffYYMMWX7ixcv9nJWsmRJfx5YB+cfceT85ia6AaSSZTgGpoBBSsO5LFeunH/fkE8+D5xLsp0tWrRwVapU2TdhPsfFuFMElnPI1BbcJDnttNP8+eCzghDzHNtLlYwe54Wy8UqVKvmLIMQ2OpMthBBifySNQhwcJI2xZKw0IgpkaZACxAYJis6SJQuyRowNRAZ69uzpM0bTpk3zMkOZHnNIIjVkXcgkskyNGjVcs2bNvAyQVSILhuSQkUKKkUxA8lgPWUuyVDRsIUPH/8k6kXFC5sJ4PrJTiBjbJWvFftx1111+m3379nX333+/l0Qyh4gJ0yXw+hdffNELFZk15I595rX8S4YMCWO9yDFZOo6XjFI8aUSKOG7KWJE+xAjpQirIQvF6ZJSMXngfET+yc5wbSo+HDRvmBZhz26ZNGzdgwAAvi5zLJ5980h8X8o0Ek3kkY4d4kenieDmXrI+MJdLH8a1cudJnLDm3nP9atWp5UeP4EXTWdfvtt/tzzPFFn0POF+LKex5KXXPCOlieGwPsQziXHDvvb/Pmzf223nnnHX8uee6iiy7y8x2yP5T+kgVGbjl/yD37wjnjdawHgeaYeI95P5HtVIF9Dr+jnD/GzwohhMgdSWN8fmXx50gczgNCJIikMZaMlUbKI5EkLv6Rh82bN6dEFoOmPFzQk03jgj9A9od9pAySzBL7T2ktpZZ0fEWmKNkEhBjhQRyRIDJIiCMZPdZ7/fXX+wxYADEh00Q2DOlAPpC0INUIISIYQCzIeNL8huwkpa2cSzKNXORTtom8sq6cUybMnz/fCxvL8pkiU8l6glTFK0/luCkNJfPEfpE9A7JjYR3sK8eL+PIvGcz69ev7fQnll5xHto9IInTsB7LL54B9YDu8D5SlkmFFHPk5yDQShvBxfjlOzhfvD6WznFvWScaTx8k2Ipe8p4hbgFJa1olUIq15SSPLIfdsh4xjNAgy7yfnHsHnPSZDTQMZ5Jz9DPDZRnoRdo4z+gYJx8vxcG65EZDfktmDAceEWPOZueyyy/xnOF5mVgghshlJY3z+YtEgEsfygBAJImmMJSOlESFCKMJYxlmzZnmhSIWyPC7myfiQ+eECPowbBH5GMGioEjJvZAFZlgxatAgyHiyUjDIGEMGcOnWqlwYyVrt27Yos+eM2GS+JaJBJQ5i4WEdau3fv7veHP0QBBAQBIsNGtpBsG9tBRtgnSj5ZnojefyCriOAiUYhofqWR7BeyynKNGjXyGcaQQQXkCvFB0JBdjolyRo6V1yB0Ac4hZZy8/8gnWUaeZ//JRnIMHBfLtGzZ0ssUUhlgHznfrBcZJVPIZ4fzgDSSzUUaGRdJaWqvXr181i/6/eEccuwsw3uZF5SU8n5wLqNvarA9pBPRR1KRRtbHZ5nMKueBmwEB1sH7iHjxuYgez8lngYwj54OSYs5PqoBMc1xkrCmj5f3hvU2F31UhhEg1JI3x4aL2TouxFsV4QIgEkTTGkpHSiBAwBg2BosSPbFmqgBAiH4gAWUREiOwZMkcpZXSzGqQIaeR5RCn6Yp/3C7FBxJALlqXUlbFuXHwjS0gSYwS5ICebxuMhA4jQIRCURbKe6MxUNAgi0sV6WB9iB1zU8zMyQhaT5zgWhIbMH8f3yiuvePHLjzSS5UOEKS2lnJIGQGGsJiBplNwiS2Rjycohy5xDtk8pbyAIKOWsZCJZF+eP84iU8HmgPBXBRRh5PHz+kRieI/NHiSmZPc476yQjhmRzDjl/CDOvowwUmWR7nAf2h33Mr5yRWWOfKKEO5xIZZtwk7xvlyBw/ckWGGZEkw8z5BfYZqWS/aNJD+Sr7znpYjp8Zr0kZLu8BZb2pJmXc8CDry+eE3w8+d0IIIfZH0hif8y3WWKy2KM0DQiSIpDGWjJRG5IuLe0reEKPorFsqQEYJSSBDVaJECd/AhWY1yB3ljAgKIsDPSBEywM9krQJk3hj/RuliGNeGeJ533nnu2GOP9c1jaKZC0JiFoFkMr6GkFMlivCNyiTTyhyg3kFikEfkgEDv2j+0jI8WKFfP7H7Z1/PHH+wYuyBkiQ5ltfqWRfUKSee+iM4eAJIamQAgZDYCQZc4hj7NfASSMTHN0ZjI3aUQ6OX7OYeiqi6iyj0gMEpibNLK9UM7LttgXMqu8h5wDzgelrWQhkea8SlOBzwLlo6yXpjU5z2XFihW9mLN/rIvsKOM7yXZyDIAAIpUIJ6/7y1/+st96eO9ZN+MxabjD61JJGtkXsr98vsj88h6FYxNCCPETksb4lLfYZrHVohwPCJEgksZYMlIaudAnq8aFO/KQs4QyFUBCkDEyclwsIzjICE1REETKC5EJHkMco6exAJ6jDBERYuwbmUZKOmkoQpCpQiIIpIj1Ml4MwWHd/ItQI1U0rckr08i5Q8LZR9bFxT1NYRAZxgwi5sguzyG3PEbG6EAyjXRNRdCix7bxPiKpdJBlgn4apvBvXplGzk/OTCOZt5zSiKyxX+HGAtKIoJE9zEsaWU/07wtSSHkw55jzhMgit5x3tk2pb27j9NgW4zZZjosAziWfg/C+IVCUmyL6IdOINHIuKUWlJDWsh3PNOed3mQw75yW8ZwgtNwY4XvabbHcqgTRyjrn5ERoNcVNCCCHE/kga41PSYokFF/oleECIBJE0xpJR0sjFJ2MXEQOmgUAyaFaSKrB/ZJYQNC74EZEAfwgefPBBf6GPsDA+DlFCGimhJPNF2W0AGSHjRFkkzViQFsa7IRRIRvSYNkA4kCG6cHKO2B7NbigFRTaipZF95HnKGHkNWT9KQ5FC5JSyTuSQbUXLGoJJWSclwYhYQaSRcX+IHsfUuHFjL2vRJYqULDJWktJMBBoRQ67DmEaeDwQByWtM489lGvOSRqboQBqRdd4fRBCR55xG7yvr4L1AyBFzMq65jWtknbznlKGy3mhRQuxokINIUrYapJHj4hzxnvH+APuB9CL/CDc3D6LFEKllH1lHXgKbCnDTgMZVlFjz+Y43FlQIIbIRSWN8TrYYZDHQ4iQeECJBJI2xZJQ0IkOUMSISNMBBnriATxW4WEeaGG9JmWB0t0zklkwgZYdkDpnYHxFEdMi8II9BKjgmJqNnWgoyU8gl8oIEhTF6QYKARi5kqJA2upsiQZSd8hhSQmYsunsqF+8IC8KzaNEiL2m8Nkgj4sLYRYQr+hgQYeSS8XPsN9lAtoU0IjrxpJFzgzQihrx3NJYJJYqcG84Jwsh7S3YO4eL8sF7GUCLVoZEMj5NhQ2wRLj7b0d1To6UR4cxLGpG+nNLIMbMORJA/3mQfeS+iG+kA7yVZU17Pe5mbqJFdRdzJJrItpC6ABLK//G5yTnkOAefckz1FGsP5QQqRRNYVplaJ7uSKMPIc+837GT1uNpXgvPP+0y2YTrDcyIhX2iuEENmGpDE+f7SoFIk/8IAQCSJpjCUlpZELdLIqXKwXhCBOXNhTmsqFeyqBOCAQdDJFgMgSImcICs1OEEYkAzlElJBBBJBMFGWZiBQiR2ki4oDwIFPIBIR5GnkOaSLzhJwilvyRYZssz3llX5BDsmacK5ZhX2img+yQ+WLMI1LEGEKklWWQRqQLeUMcycZxPOw34hakj5JV5A1hQXQ6dOjgs6jRYhQNWSX2h+3SyIX1sC9kzZAd9gmJ4j1lnUCmjWXYD46PMkxKRJFgpqpgefaX4yXTyL6yDzyGlCHQHDvnOHQ+RRr5mfPGOWf74Xwx9QjnkLJRjpmSV8ZVsh3KURFU3stQpsr7FMai5jaGkHWyX7yWY2C/eX+5qcB2OWecS/aP95aLBTru0gUXkYwWcNaPdCP2vP+8r6yLca6slxsMZJXJEqdaeWoA0eUc8l7yWefzoGyjEEL8hKQxPodaHBkJfhYiUSSNsaSkNCJ/jFcjE8aFcW4X3LmBkHGxT7YNaYqexy4VCOWzZMq4KKYM77TTTvPB3IRIDSJCxgx5oQMoQoIEIFOM92JZmps0aNDAZ4/I7oVsKq9jGgYuvHlPaVJDExRKdclA0XmT5UPWi5JKtoHgnX322X7dp59+un8tmSykj2wPkoWkEJSjcnGPCCKz//rXv3yTFTpzIkrICvuLMLEsJbWIPPtPaWhemcaQOeR9Y73sL1NvnHvuue6ss87yGVEkj5sJYf8RCiSU8Xo0+aH5D8dbtmxZvw8IL3MScn4oUWWcH/vAuEyydHzG2C9kM2emEQGmvJly2yB9SAyCx3hZJIwSVB5jWfb1nHPO2fd+hv3l/IX3Jyesk/eDTCWvP+GEE/xrkWbOA+eb40DeOTdIMuvkpgjvMZ/3aHg/2R9eh2yyLs5HyZIl940F5b3La3+SDTdK+IzynnCeyVCn4nhkIYRIFpJGIQ4OksZYUlIaEQsuGmvUqOGzaZSqcTEcyg/zgq6gZMMYU0emhhLCVASRQVwoIyRrRLDfiFgYpwZIL1kmZIfMFlJG9onsGHIcRCeakEFE+siKsTwZTdYdMnTRcE4ZP4awsh8IN01uyFqFye4RLLJsK1as8H+wKBkkU0d2ERlhG4gnF/nsM+sLJaCUxlL6irAgbvw/N9gWYoR0sk72H/EkO8ZngG2FZjU5oQyWfQ7Hi2gjqtHjOpFLymzZB/YLQQn7RbYvZLU5Nn5GeOl+iuAj+oAAUt7JviFyvIcsy+eOrB77yTlkPxBJPn9BcPOC58ls8hnn3LP/vN/sFyWvnEveCz4XnDsaGPEcIs8x5IR95TnOI+si+GzxmnCMqQqfRT4/fM7JFJMpj+4YLIQQ2Y6kMT6HWBweCX4WIlEkjbGkpDRygc+X4m9+8xt31FFH+WkkkBrKJLl45kIyt2wJssRFMlkgyhhD2WYqgiwgjxwLQZYIcYrOqiI4oSyTRi9IC8tSXsgFdl4ZWM4NGRqWC+smk5cXZOwY5xbWzWujZQeRYhkijDFj2+xveB3/8n9eF4JlWY794bU8ltc+81reP8peya4heOw3+8O6kaG8XsvjnA+WJTivOY83eh9y7hcRvW5+Zrmc+8y/PMb5IcLrWA/7F30O+X84Vz8H6+D4eV30+8W2QxTkXPJc+GyxTtbHa1Id9huB5mYB81OSMU110RVCiIOJpDE+v7coE4nf8YAQCSJpjCUlpZEMEePYKEu0/XOHHHKIL8msWbOmzzyRRSS7kxPGj3GxSfdNskfxRCkdILNHxpVMERmY/EpIOoJkkbnjeMm4Mc2HyC6QYLKpZNUpr6U5EOXIQgghfkTSGB86pt4QiX/zgBAJUstii8WjFsfxgPjFPy0W0H0ydGJMFSjto8SOMVm2j/vi17/+tatcubJvzEKpILIb5i9EGilppRslTWTSnc2bN/sL6GnTpvmxipk8votMGJ1YKfMMY/hE9sHngFLk8uXL+zLf6C6wQgiR7Uga48PcjFzkP2JxHg8IkSA1LZBGMo3/4gHhb8QsrFevXp5dLZMFWTWkkKYmto/7xdFHH+2bnnBhyRgy5rqjFJXGJzSUIdsYPRVEukJpITJPSS4/U5qYqfB+U0bJ8TJ2kdJKkZ3Q4ZfmPXSppSRbCCHEj0ga41PeYqvFCxbleECIBKlsscbiZYshFt0V/jxsP+OMM/zYOaZ9SJVg2gK6KFKWavuYZ/zud7/z8wKGqSXo5Mm8hjk7Swoh0gOaNtGJli66XCAJIYT4EUljfBjLuNbiaYvzeUCIBGH83lgLpHGnxQ7FL960+IKST9r9UwqaKsF0EUznwL7ZPsaNf/zjH74kldLUY445xs95x1QGQoj0g6l2GM/MzR9JoxBC/ISkMT5nWkyymGhxBg8IkSB/sLjQoofFCIvRil/cY7HzxBNP9F9CzP+WCkGGkWkimjdv7v75z3/uJ4g54/DDD3cVK1b089p16dLFcSw0wkm1MZpCiPyBNDJvKL/HkkYhhPgJSWN8/mbR2OJyi7/ygBAHANO2HGZxhMJHcYvFtWvX9k1XaPufCkEnTca3Me9fmTJl9pNE4sgjj/QZRTKSF198sS9NZRwcy5crV85deuml7pVXXol8xQoh0gnGKJcoUcJPnaMxjUII8ROSxvhwYUunS4KfhRCFB79XDzVo0CDlyjmZdgMZDNNuRMe5557rs4p33333vsnage6ptOpHGpFgIUR6QbOn++67zzfAosmVuqcKIcRPSBqFEMmimIWfp/HFF1+MfCUlHyb0njBhgu+ESvmp7aP729/+5rMPjF289dZb3bp163xWMpo1a9b4zCNlbfzMZOHiR5gDjwnwEeyXX37ZX4zH68bKc3QwZbL1rVu3+j9UBZknkmX37t3rX0/Q/TUeTLXA+/7666/7rDET5dMRlylV2F+eK8j7yfGSseY4mb6FDrT8Py/YX6Zu2blzpz9HzBdYmN1q2XduzGzbts0fI5n0gpzPbIHPCfOwXnjhhb5MXfM0CiHET0gahRDJIiUn9+fCvW3btu43v/mN/2JknGKbNm38/G3M37dnz55cBWDDhg1+OcZCPvLII/7CX/wIgsJ5I4tz2223uccffzyuRCHkyBrLjxw50q1YscJ9++23kWd/Hl5Ptpc5F0ePHu1lKR4I6jPPPOPGjx/vpk6d6m9ibNq0yXfRJaPMPJVffPFFZOmfB2l85513/DQs7P/9998fN2uFtHIjgm3de++9fp7PwpwXE0mcP3++69Onj78hQvl0Qc5nNoCk0/WYzws3fwYOHLhvDlYhhBCSxp/jKIsTI8HPQojCIyWlkTkjr7jiCleqVCnfQXHIkCFu2bJlPyuBZMR69erlxZEJ8cnoiB/hghxRGTx4sGvdurWbNWuWF6u8QKKQTGTxoYceclu2bClQpo+s5qpVq9zVV1/tA6GPBxmlxx57zF177bV+6hQEkgwl8o/4cSMhnuTmhGMjYzljxgx35ZVXuttvvz2uNLL88uXL/fm544473Pr16wtV6jifCDHTw/Ts2dMLMedI/ATv77PPPutuueUWP0fjnXfeqfk6hRAiCkljfP5h0SYSf+cBIUShkZLSyMU9UjNp0iR/cc2FY85S1NxAEpnjEeEkm8YFqPgRpBEJGzFihD8/ZBARNTI5/Ms5jpakUN5JWSjvB+WiAbKWZP3CaylD5f9IEO8T2yJLxxhTuuAigpQLU3pIySlB5i26/JN1kf3s27evGzBggNu4caNfB+tnedYdXc7JvoXt8y/bZ9s8jqCxbspMmSj+uuuu8yJI5pQbD7yGf6MllH2jaydC169fP7dw4UI/rjZ6H5FmjpXXR68jN/nmdeEcEZTHjh071t8E6d+/v8/CRm9f/Pge0MyK96tr165+vsaCZJeFECLTkTTG52yLGZE4iweEEIVGSkojF9Nc8Be0OQ8X8lz4c8F51VVXuUcffTTyjEBikGrKPTk3lABS7tujRw//BwiRWbly5b6LdJZHmsgQkoFDuAKUEPLazp07+zJiMkOUdCL6LIsgIaFk62666Sa/jenTp/tt09yETCc/b9++PbLGH8exPvHEE17YWB83C/gM0Ojo6aef9n8oQ6YTgUUukF86bLIfZJYXL17sH6eEGSml8+aCBQv8Ptx8881+rBzHSSYaMeHzwXb5vK1du9Z/booXL+7HzrZq1cpnWPlMBShZZV1sk0Bwg1zmhKwu2yPLSdOm4cOH+21SOj106FBfbitp3B/ONdlFPlNMocN7ohJeIYT4CUljfMpabLB4xoKJ/oUQhUdKSmOikJkig0OJKsfE2DE1G/kRzgPSSLYLISKjhvTQbfakk07yU5sgbKFskqwd4xDJ3HI+KRPlAh4ZQ5QQvzPPPNN3sm3YsKEXMf5lHYgmWTikkVJTliV7iNwhZCeccIKrV6+ezyQjmGQGkUyEE6kjS8x+rF69et//yRqzX7zHSCSCd+qpp7pixYr5MmZEo1u3br4UlikbkEEyfHPmzPHSFkSRTN8ZZ5zh5wFkTlCklH1AIJs1a+aOPfZY99e//tVVq1bNSx9/oDkXlEwj2lWqVPHbJMqXL+/3Y8mSJT5LxjnmWFgfksy26P5buXJlL8ucnxo1avixekhjfrLn2QTlxLwn4bPBzQn9/gohxE9IGuNTzmKzxfMWCKQQovDIKGnkApMsFOPSkBmkCMkRP5abIj50nmVezo4dO3qxQaoY79euXbt9GUCyisgZY0TJiiFjSCMSRrMYzi9ZPkSQjCNZPoSwQoUKfj2UovI+IHcIG9u78cYb3ezZs31GkveFTB2CR3OYUP7K+EnWGaSR/yO3ZPcQUN5L9imMy0RmOQbGCvIznXVZ78yZM720hk6cFStW9OJGieqiRYv8VC4cP8sOGzbMSy6f/4kTJ7omTZr4x1mWjCXnAdlmGxxz7969/ThJtktTG2QUsQ3HTHaTc4pMci7YV7LfnCemgjn55JP9uUIaCzJGNBvghg8NcC644AKfNVYmVggh9kfSGJ9zLeZZzLVgInIhROGRUdIYoAMmk/xzkc9xKaPzI0gjUkYWjYwOzW2ALB9j/zhfSBpjEZElOpiSaUSOaEbD1BVTpkzxr0UuQ6MhxvkhXFzwsw5ej+AhUohTzZo1fRdVpBNYD+WaZAcZY8l+sTzlsdHSGDKNiCtih1wifQgfkohAAvtKKSmloB06dPCZRvYJaUQQuYFQtWpVfwxAxpQyVsSO0lmaLLEs2UxkkWOjFJXl+OyQAc2toQ/HwfKU+yKnlNNyTimv5TyQ6aaZENDJlfGdZFpZHmkkKyl+hPefGxNkYuvXr+/ffyGEEPsjaYzPvyy6W1xjcQIPCCEKjYyURsbGIRZICVmncOGezZCFRc7IfFEmibTxxweQI0QPQUMQkbUgjcge2TUu6BEmhAjRoiQzuvsnWUGkCjFiLBoiyjoRJDJ3ZBSDJNHYBrFDPn9OGvk/+0rWks8o4yZ5HfsVPZaQUlrKR5nbj/ccQSXbSBaUDF/I7gXIXJJlpJyWBjxIJh1bybpSwsv2yXSxDabrQAI5tujmSnyukG32h3Wxfo6Bc0gJKvsfzhFZRfaLzyXZXuQy+vxlM2TByTJyDps2berfc7rlCiGE2B9JY3x+a0EzHIKfhRCFR0ZKIxecjIniApTySDpxZjs0tkHOEDDG11FiSTklIIicI6Y2QaKiM40IFFk9Si6RKzqhUq7KMtHllUgWZae8nhJWhA3RQ7RYnqxj6DKKNDKGELkik0nGMp40IpaMPWQdZA4Zm8hcjoxbBNZLlo/SV7bHvzRVYTtIHTJLtpIxc4Akc7ysCwkm04hkckwIHdvjGGgKRLkpmetLLrnEl7lSFks2luC4GLdIFjN0iKUUFUFlPdHjFtlHRBsx55wijeoM+hMINb+v3GSgNJWbDkIIIfZH0iiESBYZKY2hGyYNXyiNpHV/to8fC9LIRPeINJm+MGYMYSPzhujkJY1k2xA9Sjp5PRIXXV5JBg4JZOwiwoXQ8R7QCIfXR5d1UmZKV1MymPmRRkpAeY4yUX4mm4jIhXJXsqhhTkZkLkwnQiC7iCSZyZBxRuTIKnJsdFWNJ41kGhHUiy66yDfIOfHEE90pp5zixybSiOf000/30sg+c4zIT2j8Q/YsSCP7SGkt54OMKNLIOc52kGkEkfNFkyEknvdSDXCEECIWSaMQIllkpDQCYkJWhzFSXNAzBQIZpmwlSCOSRjYHmQpCQ8YxNLjJSxoRb8p+kTLKMVkmWhrJ3EVnGoM0IpHIZHS2l/F9jEFkvQXJNJK5ZJxgbpnGMA0I+xcyjQT7jZwylUOYwoXjRpIRyXjSyD7xGpreMDaT7qp8pihhJZA/xnjSTZbxlXzmOK+UsnIuc2YaH3vsMX9+lGn8CYSR95Xsd926dX1mOJt/T4UQIh6SxvgcZvH7SPCzEKLwyFhpRGgYh8cFPGPqaFSCRGQr8TKN8aQxjGkky4j4IXRk+vh/yJSF0kvONUKHLFKemlemsaDSSEkt66KrK1JBtpOMI5IWoHENy1EyyrhHSlPjZRpzk0a2hzQidXROZTkyjUE8kcmcY+14HY/xhxwJRG7p9so8g4zzDOcIEUJ0W7Zs6cc7Io3qDvpjx1REnDJf/o0edyqEEGJ/JI3x+bNFLYuaFsfwgBCi0MhYaQQkgXFrlA8ijlygZitBGpEtxtzlJo2UBpIZjJZGpA5hovMor6cElEY4yGf4zCCBCBifo06dOvnXk0FC9Mg+Im25SSOPs55oaUQcELcgjfyfsZa8HglETtkGYwhDUxoyjpTPdujQYV/3VGQuSCPZR7KCOaWRx5C7II2MSUScOWa2F+arZD9YB8fNMQWCUCKT/Mv6d+zY4eWQ5TkndFgFxlwiu8wRiVwjR5pyw/lSYrr5Mp6Rz1gYZyuEECIWSWN8TrMYYXG7xak8IIQoNDJaGsmAIUNckHJhyjg4vnCzEaSREl2yeIy5o5QzdO9kugmECWFExlatWuWzZnQkZXlkhykqyB6S0aPLJeWaNJhBvJAk5JDyQh5DGulGimyRleSxaNniPUDseBwhRKyQBRrtIFuIImMOGcNI5pL/I3ns00svveRLQ8nYMcUGP9P0CNGkxJHupEEayUQyxpByXPYZcQNkmX3kMUpnGWuIeHJsZFobN27sH2f/kVleRxdWtodwI4kcN+eqefPm+8p9KWXlONhXso3sI8swHQnTeNDFlcn+OW4ymdlchkklADcleL+Z35P3mJsJQggh8kbSGJ/SFisslluU5AEhRKGR0dIIiAOlqXzJkuGhu2UoGcwmkEYyemS/KOEkMxadaUTS6DBK6SSCxzlC0CjVRAgRKzJjiA5jGxEoBKhUqVJempAkJrqnHJV1IZjIE+WlPBY9ppH3BAnlcdZPeSdyRmkn5aKUmSJwiB2ZQOSO17O/yAYZY2Tj7LPP9o1oEDdex7YYb0nWEWmkRJX3m/1H2qLHNJJJ5DFkE1nlHOzevdtvq3Tp0q58+fJ+33gNx82/jKe88MILfRMcmuEUL17ciyGSyjGxb9yoQECRSPaLzGKZMmW8ZHPeyVbyeWQMZDZ+DgO854g354jzQgaZz6gQQoi8kTTGp7zFNoutFuV4QAhRaGS8NHLBT8kgF6h16tTxF6iMJ8u2LA8yg8ghdDRk4f0O5ZGcC0orkTSyjMgTAoR0sTySyHjCALJDZpIyTgSPMYTjx4/33WqROUpLyWKyztD1NDrDiyAipDweBJN9oGtmaHjDVBdk+ML/kbZoqUAqEWDKScl0ImJII1KGsJE9ZT85TraDJPIYsB7Wx2NkEym7Zfssz7Y4piCTyGdg+/bt/pj5DJF9ZXtsi/OVE6SI8ZeIMUEzHcpgEWkybJS2ZttnMEDpMvN2Ml8ozYUYHxs9PlUIIUTuSBrjU8qCLOMTFso0ClG4ZLw0BpATxsJRQklGjUxPtoE4MpUBwc/R5PZczseQTMpOkTtKVxE3MoBIJWMTGU9IOWsYx5fbOgO5PZfzsZz/51+EExnl80qJJ4KK6CKQjJHkvUVog5BFryOanOsO8H+EmddzvNHP8TPPkfEkyFjGy47xepYJGdKwrRDZCGKOPFOiy00c5FzCKIQQ+UPSGB/GNA6zGGpxCg8IIQqNrJFGshtkhZikvVKlSj5jFKZsEPmDxjJML0FjHMb9EXS9ZKwe5Zc02SGTVlTNTEImkFJUyhrZNvvAe8q4VR5HIMniZauUpTrcbKB7LyW7lBJzM0cIIUT+kDTGh46pF0XiTzwghCg0skYagYwGjVfKlSvnRQOJlDjmH84fYyEZG1q5cmV/4V+2bFk/8T1NdBCAUPJaFIQpLcgo0tiI7RMXXHCBz1wxxQqZUJGakIGm9LdixYq+0y43ILK1RFcIIRJB0hgf5mY8OhKap1GIwiWrpJHsEyWVNG2pXr26z1apAUf+odSSP1iMCaUEFIEjaJxDZ9ainqye94lxlowtJOMYts9YTB6LHn8oUgvetzvvvNPVqlXLZ6YZh8pnSQghRP6RNAohkkVWSSOQ2WAsHFM5kK2i8yeTsIdOokKIwoWLHKZ4ofEN3zXIY+hkK4QQIv9IGoUQySLrpBEQxFDmSOaDbph00lSpnBCFC+NbmZKEMacNGjTwXYzpHqsxp0IIUXAkjfGhLPVci+IWv+UBIUShkZXSCEy/wFQMTJ3A8TMJOxnHohyTJ0Q2wRjY++67z89liTAynpipVugkK4QQouBIGuPzL4trLXpYnMADQohCI2ulEciCMF0EXRxr167t/yUDqWYqQiQOU4twYYMwMg/jxRdf7BvgvPDCC8owCiHEASBpjA9Zxocs5lmQbRRCFB5ZLY2AIDJvHJlGSlXbt2/vHnroIT8foBCi4Lzxxht+3kwa3tClOAijxg0LIcSBIWmMTzmLLRabLcrygBCi0Mh6aYQwlUP37t19V9UWLVq46dOnu9dee02ZESHyCfNoMu3Kbbfd5ifuJ8PI3J0awyiEEIWDpDE+iOIGi2csyvCAEKLQkDRGQBzXrVvn+vfv7ypUqOA7q5Itef311325nRAibxDG9evX+xJv5s5EGKdMmeLnZtQYRiGEKBwkjfE522K6xTSLM3lACFFoSBqjoAnOs88+6yeqr1Gjhqtbt64bOHCgn5OwqOcgFCJdYfqM2bNn++lrqlat6qfWmDhxotu9e3dkCSGEEIWBpDE+f7dobdHK4jgeEEIUGpLGHCCOO3fudJMnT/YXv8hj3759fWfVTz75RN1VhYjAGEXGL86aNcu1adPGZ+c7d+7slixZ4j788EOVpAohRCEjaYzPURZ0UCWO5AEhRKEhacyDN998082fP99dd911rnHjxq5du3Y+e6LzJMSPwrhy5Uo3aNAg3yGVaTUYy8jYYKazEUIIUfhIGoUQyULS+DNQrnrzzTf7TpDI4y233OLnd9yzZ4/74YcfIksJkR0wdpG5FilHZfwi8y9yAXP33XerHFUIIYoYSaMQIllIGn+Gr776yl8k33vvva5jx46uYsWKrn79+m7cuHG+jFWIbIGGNnRH7dOnj7vwwgt96TaNox577DF/E0UIIUTRImmMzxEWjGsk+FkIUXhIGvPJRx995ObNm+fncWRajubNm7uhQ4f6C+YdO3Yo6ygyls8++8w9//zz7v777/fCWK9ePVe7dm3Xr18/L5Ea5yuEEAcHSWN8/mbR1KKJxV95QAhRaEgaCwCNcLZt2+amTZvmrrzySsd548v7zjvv9JOX02FVzT9EpsCNkA8++MCXY5NRDJP10xjq0Ucf9eN+NWG/EEIcPCSN8WGajckWkyzO4AEhRKEhaUyAt99+2180DxgwwH95N2rUyHeNnDBhgnvuuefct99+G1lSiPQEWXziiSfc4MGDXatWrfxn/IorrnCjRo1ya9eu9WXbQgghDi6SxvgUt3jSYpXFOTwghCg0JI0JQkke0w08+OCDvmSV6Qa4sL711lv9lAOvv/66z0wq8yjSBcYsvv/++z5rzjQadA6uVauWq1Onjs8urlq1ypdp/+c//4m8QgghxMFE0hgfsovrLNZacIErhCg8JI0HCF/gzOFI98hevXq5yy67zI/3IvM4d+5c/7wQqQ43N7Zu3erGjBnjmjZt6mrWrOlat27tuwXzOd64caMf2yiEECJ5SBr35zcWzMlIhrGsRQeLrRYvWLSPPEbGkWV+bSGESBxJYyFBluapp55yvXv3dhdddJFvlnPVVVe50aNH+1JWsjdkaYRIFciWv/XWW279+vXugQce8ILYokULV7lyZX/zg7G6NHkSQgiRGkgafwJhvODQQw/tddRRR007/PDDH7f/b7b4LBKbecyem2rL9LT/V7KQOAqROJLGQuTzzz/303M8/vjj/oKbMWAXXHCBn56AUj86rSrzKFKBb775xr344otu+vTp/gKkfPnyPkNOd9R77rnHj1uk0Y26AgshROogafzFL46zqG5x9dFHHz2pRIkSz9SrV+8jWtq3bdvWdejQwUebNm18m/u6det+eN55562zZSfaa66yqGZBl1UhRMGQNBYRTHTOFAVkG+k42axZM9elSxd34403uilTprg1a9b4ue005lEcLJiY/+WXX3aLFy/2DW169uzp5x5t2LChu/zyy32H1JUrV/qbH0IIIVKPbJbGQyyOt/jfI488ct4JJ5zwRvXq1T+4/vrrP585c6bbsGGDbybx7rvv+uBnHrvvvvv4Y/d51apVPzz++ON3HXHEEXNtHS0s/hlZpxAif0gaiwhkkDFgiCFlq2QemzRp4sqUKeNLV+17zjcb2bJliy9bpRul5rsThQ2dfJkKhgsNblTcddddrl27dj6zSBlq165dfWkqn0Oa4KgrqhBCpC7ZKo2/tDjZovOhhx76eIUKFfZSFsOdeSYLfuedd3K9A89jPMcYDC64aDxRrly5j209SyyusPi3BesWQvw8ksaDAN0mKVvlO4vuqtdcc42vnuCLv1OnTu6mm25yM2bM8M1GdNEuCgtuti5btsyLIllFKneYPoOyaW5ajBw50nf6ZTkhhBCpT7ZK44kWVx199NGrypQp892wYcP8RSvNJPILy27fvt0NGTLElS5d+tvf/va3y22dnS1okiOE+HkkjQcRbnqR+dm2bZubNGmSLw1kSoPQqZLvsgULFvi5Hl977TVlfkS+CZltLii4QfH000+7e++9149RpPSUKWEaNGjgZZHPGBlwbmbkdnNWCCFEapKN0kjzmsYWq6tUqfIZZVuvvPJKQnM/MUifP5C0Ca9UqdKnts6VFo0i2xBCxEfSmAT43qLcfvXq1X6ex9tvv903yiELhEDWq1fPde/e3TckoSRfUx2In4MLCSbjp1svNyD4HF188cU+k8042vHjx/suvs8++6x77733Iq8SQgiRTmSbNB5x1FFHlT3mmGMmn3LKKV/T4puGEQcKk2wPHDjQ/fvf//7qT3/606TDDjusDNv6cZNCiDyQNKYAfAcuXbrUZxrJClWtWtU3z6FxDt9rEydOdA8//LCfXJ2Ol1z0a4L17IXsM5+Z559/3nfq5cYDjW3IKlKCSvaaaV/IZE+ePNkP+fjkk08irxZCCJGuZJs0/vPII4/sXaJEia0MwKdBRGGUx3AB9eSTT/qLLNb9q1/9qpdt6x8/blIIkQeSxhSA7y8u6pnigPkcEUjKVxmzzUTrTNtRpUoVP4cepfyUF1KdQamryC74nJAtpPS0b9++rn79+q5ixYo+s9i+fXs/1yJjZ2l6ww0GegDQNVUIIUT6k23SWNpiXp06db5kAP7evXsjp+HA+fjjj335Te3atb+0bcyxKMkGhRB5ImlMURBIviMp36dUtWXLlv4PBU1MuOFGOSsNdCjNRyLJJvGar7/+OrIGke4giEyRQYaZjuLcMLjhhhv854EbpDRT4kYC2cV+/fr5Zkrr1q0r1L+rQgghUodsksbDLS7+5S9/uZY/coVRlpqTXbt2+fkcbRtP2bbqWhzGhoUQuSJpTFGowEAAGc9IOerWrVvdI4884sc/Xnnlle7CCy9055xzDmO5fYZp8ODBfjoiKi7IQvIabqQx5x7r0STtqQtN3Sg5/fTTT92HH37o3nrrLZ9xfuyxx3xpMmWnjRo1cqVKlXLnnXeezy7S0IZsNPMq0jSJaVuYWqMgzeSEEEKkF9kijYda/P2II47ocsIJJ2zhrmhRjLHgIok7sccff/zzhx122JW2zeMsNHejELkjaUwjEIrNmzd7mUAYBg0a5EtYQ+aJm3Fknmiow7Qet912mxdJxIKMlRrqpB7IPe/pokWL/HvK30ZuCpBZJhiXePXVV7trr73Wl6OSbeQ9Jfv46quvqvRUCCGyiGyRRrKMJX//+98Prlat2ot0ciuKEhqkkTmpqlat+v9sW7fYNktYKNsoRO5IGtMYMoh0YaWMle895PHSSy/14x9ppsPPnTt3dgMGDHBjx471k7gzbx9j4shk7dixw0+9gIySpVI2svBh3CkZROZCpGEb3b5pYLN27Vo/nIKS0hEjRnj5p0qG30Um3a9evbpr3ry5f+/oossUGqxDDZCEECJ7yRZp/JVFleOOO258s2bN3pwzZ44vmypsuJM+e/Zsmke8YdsaZ9u8ILJtIUQsksY0hzJWShN37tzp53ckA0Wn1alTp3oZofKCLCQNdXifma+vbt26floGslrjxo1z8+fP9xKDgCobWXh88MEH/vdq+fLlfkwi7wcZw8aNG/vGNYghpaa8F2SGyRwj92QSFy9e7EWROT0R+6L4eymEECK9yBZpZPqLGieeeOK0Dh06vMsfxKIoq+FuOWU+7du3f8e2NdW2eZHFkeyAECIGSWOGgmRQkkpmcdq0aX7qDproNGzY0M/fx7/ICplImuogkLfeeqsbOXKkL5NEXGiww9x/NFchM8nYubffftsPLcjmsXOMPyQ7y7h8zjGyTrdSMr7cECV7iIwz/vTmm2/2YxKRQuZMpHyYSfaRxWbNmvnHWY4sMOKOIH7//feRLQkhhBA/kU3SWP3444+f0rZt27cXLlzoBa+w4UKJu+xt2rT5P9vWZNtmtci2hRCxSBozGOSD70QyXjRXIZO4fft2P9URQogcIoo9evTwf4Tq1KnjypUrx7RFrnz58l4uabJD6SRj6aZMmeKzkitWrPAlljQeI8uJRH3zzTe+FJNAKNk25a4EJZVEYUyvVJiwP0TYP/aV/SY4Bo6F4yL4e8X4Q5oM0akWQbz//vt9WTBiiPwxBpH5Ec8//3xXsmRJP1UK823S5RRxJNNIqSljUikRRjgpWWVaDIZWcB5VfiqEECIvsqk8teJf//rX0Zdeeunr3MVmnEdhwx1w5q+ybbx27LHHjrJtVrBgPKUQIhZJY5bCdyWNVMgi0pV1+vTpPuNFOStTepCVpCELmUjKW4mrrrpqX9CchX+7devmevbs6fr37++GDh3qpwihNJbMGTfwmHx+9erVbsOGDT5biSghm/zhI1vH3wFkqaiya0gh8kdlC+PoET+yeWRN+cwjv5wDmgUhc0gxpaQINRPm05WWc4JYh2OOjnBuOE8E2UTOG8uT3aXcFLnkPJCRJDupaVGEEEIkQrZII81ozvjtb397w/nnn7+Ni5Oi6J7KXe/hw4e70qVLb/31r3/d17bJRfEv2QEhRAySxiwGoSK7RlaNbBryRkYtjJEkG4ZIcZOP+SCZFxKhJKNWr149n40sXry4n/qD7BrTgJCdZPwkGUqWJUvJ6xDK0aNH+ykkEFRECkGjGQxCxVhMMqDr1693Gzdu9DLHNCN8LpmkngYyZPkQ3ejgMZ5jOcb/bdmyxcsZ+44MIqyMKSQzSIXL3LlzvRTefffdvoT0jjvu8NlWynMp00X8KNtligsyr0xpQub1rLPO8v/SZIgGQ+3atfPL89oJEyb4slQysOwzWV1kGFFFEJFWpFhZRCGEEAdCtkgj01784dBDD231xz/+8TnuwlKOU9hQhkUHQdvGRtvW/9o2fx/ZthAiFkmjyBNkh2wgJZR8PhAxMnKMG0eSGCuJMJGRo3yVrBzZNQSMckwykHwfI48hC4dM0iWUP3p0B0UwaQyDpF122WW+nJPxfsgnYkrTHj6fBBJHRP8c/k+wLK/h9YwbRO5YJ+tmG4whDFOSMD0JZaNkVMkUkjHl7xLzHzK1BZlTGtMwbQk3OZFmso9UsiC7S5cu9eMYkVvEFVHkRmiqleAKIYTIHLJFGgOMMVxhf8D/w9iawixJYl2UP11++eX/sW08YXEhGxRC5ImkURQKjJ1EnMj6Bbmk7JUyVbJ6lGmSbSTr2Lt3by9pSCRZPWQOuUMUa9eu7buKktGrWLGiH2NZpkwZn8lkcnvGCoZ/w888V7ZsWVehQgU/XQUZT8YWIpQIJNKIoJIdRF6RQ0pOGYvIOEOmgKJ5DVlIMqvIIHMnMiUJ5axkYYUQQohkk23SeOYhhxwyuWrVqu/TVIE72IUF5VSUPtkFw/u2jYm2rTN+3KQQIg8kjaJQodSVskyybmQpmVuQMYR81zOOkDGNfNYo4yRLt2nTJj/ekbJUuodSokpJKeWqiCcln5SX0sWVoBssQUkr/4bHWYZlec2TTz7p18G6WCeNaxBZylYpX6WMlZJXMoQ0B3rzzTf9H2IEkdJcph2hrFTzVgohhEglsk0ajznyyCP/99RTT11JGRF3dgvjLi5jcR588EF/Z9nWvcK20dK29acfNymEyANJoxBCCCFEGpBt0njoEUcc8e9f/epXN/3+979/p2PHjv4u8IF0k0MYaXjAWJmjjz76/2zd/W0bJ7KtHzcphMgDSaMQQgghRBqQbdIIyFxlixnFihXbQ9tySosSmbeRcTSUKDFO5bTTTnvT1smE/pUi2xBCxEfSKIQQQgiRBmSjNMIfLf7HYto//vGPtzt27PgfOvIxfxdzaTEuJi94jmVYlkYLHTp0+OG44457y9Y1xaK2xR8shBA/j6RRCCGEECINyFZpBMSxpsVdJ5100g663NHqnPm76IJKM4Kc8BjPzZo1yy/LuMh///vfr9o6xlpcZCFhFCL/SBqFEEIIIdKAbJZG+LUF5aS3HHnkkUtOP/30zY0bN377pptu+oEJoB9++GHfJY/gZx4bMGDAD5dffvn/FStWbPMRRxyx2F47yKJCZF1CiPwjaRRCCCGESAOyXRoB2TvBovKhhx7a44QTTphTvHjx/1eiRIlPzz333B/sZ0fwM4+dc8452//5z3/OtmW722sQzuMtjrIQQhQMSaMQQgghRBogadyfky0usbjG4laLmRb/Fwl+5rFuFvUtTrIQQiSOpFEIIYQQIg2QNO7PIRZHWPzW4vcW1SzWW6yzqBp5jOdYhmWFEIkjaRRCCCGESAMkjfE51WKlxQqLU3hACFFoSBqFEEIIIdIASWN8SlmssVhtUZIHhBCFhqRRCCGEECINkDTGp7TFUxaIIwIphCg8JI1CCCGEEGmApDE+xSxWWVCiehoPCCEKDUmjEEIIIUQakM7SeKjFYRa/KsJg/sWnLcg2lo88VlTBsXBMQmQLkkYhhBBCiDQgXaWR7qVnWfyvxWCLkUUUsyzeigQ/57ZMYcQtFi0tzrRAIIXIBiSNQgghhBBpQLpKIxPyMx3GGItNFq8VUeyx+DoS/JzbMoURGy2QR6b1OMpCiGxA0iiEEEIIkQakqzQebsFE/HUtulhcW0Qx2mKnxesWoyKPFUVwDP9jcZIFxyZENiBpFEIIIYRIA9QIJz7nWjDdxpMWxXlACFFoSBqFEEIIIdIASWN8GGOIMNJB9QweEEIUGpJGIYQQQog0QNIYn/MtwjyNzNkohCg8JI1CCCGEEGmApDE+kkYhig5JoxBCCCFEGiBpjI+kUYiiQ9IohBBCCJEGSBrjI2kUouiQNAohhBBCpAGSxvhIGoUoOiSNQgghhBBpgKQxPpJGIYoOSaMQQgghRBogaYyPpFGIokPSKIQQQgiRBkga4yNpFKLokDQKIYQQQqQBksb4SBqFKDokjUIIIYQQaYCkMT6SRiGKDkmjEEIIIUQaIGmMTxmLpy1WWZzFA0KIQkPSKIQQQgiRBkga4xMtjWfwgBCi0JA0CiGEEEKkAZLG+JSwWGnxisVAi9YKRS7RyqKexdkWv7UQ+UPSKIQQQgiRBkga44MELLH4yuINi5cVijxincVgizMtRP6QNAohhBBCpAGSxvgUt1hm8a7FoxbTFYpcYo7FLguaJtW0EPlD0iiEEEIIkQZIGuNDx1Q6p5JFqmrxB4UilzjNYoHFixaNLUT+kDQKIYQQQqQBksb4hEY4KyxO4QEhcuFwi3stGPvanAdEvpA0CiGEEEKkAZLG+ETP01iKB4TIhWMtHrD4fxZNeEDkC0mjEEIIIUQaIGmMjyb3F/nhrxaSxoIjaRRCCCGESAMkjfGRNIr8IGlMDEmjEEIIIUQaIGmMj6RR5AdJY2JIGoUQQggh0gBJY3wkjSI/SBoTQ9IohBBCCJEGSBrjI2kU+UHSmBiSRiGEEEKINEDSGB9Jo8gPksbEkDQKIYQQQqQBksb4SBpFfpA0JoakUQghhBAiDZA0xkfSKPKDpDExJI1CCCGEEGmApDE+kkaRHySNiSFpFEIIIYRIAySN8UEUgzSW4gEhckHSmBiSRiGEEEKINEDSGJ+SFk9bII4leECIXJA0JoakUQghhBAiDZA0xqeMBVnG1RaUqgqRG5LGxJA0CiGEEEKkAZLGvDnMopbFSosVFjUjjwmRE0ljYkgahRBCCCHSAElj3pxhcZPFWgtKVAdEHhMiJ5LGxJA0CiGEEEKkAZLG3DnKopPFEosnIvGYRUeLIy2EiEbSmBiSRiGEEEKINEDSGMsxFjUsplsgjTdY3Bj5mceqWfzJQoiApDExJI1CCCGEEGmApHF/fmlR3WKMxXyL3haUpJ5p0Sfy2CiLCy1YVgiQNCaGpFEIIYQQIg2QNP4ETW6KWQy0oPHNSIuzLA61QBDPtkAYea6/xakWaowjQNKYGJJGIYQQQog0QNL4E6dYXG9BGepsi/oWObnEYo4F4xuvtTjZQghJY2JIGoUQQggh0gBJ44/Q+KalBZ1S11t0tvibRU6Os7jKYoMFE/43s+C1IruRNCaGpFEIIYQQIg2QNP7iF4dYVLaYarHVYoIFF7N5QcnqZAuW5d+KFiK7kTQmhqRRCCGEECINkDT+4hfHW9xiwVjFcRZM4h8ve/hri9oWyOVyC8ZA/sNCZC+SxsSQNAohhBBCpAHZLo0nWPyvxUKLuRaMY/y9xc/xB4tLLeZZLLBoYYF8iuxE0pgYkkYhhBBCiDQgm6WRjGFTi3ssuOBnHOM/LfILksj4xgctZlg0ttD4xuxE0pgYkkYhhBBCiDQgW6URYSxnQYkpZam9LE6yKMjciyxL99S+FqzjLosyFqxbZBeSxsSQNAohhBBCpAHZKo3I3e0WKy0mRv6fKOUtaIjDuoZZlLYQ2YWkMTEkjUIIIYQQaUA2SuOxFmQW6X7KnIzMvfhbi0T5nUVDi8ctXrDoafFnC5E9SBoTQ9IohBBCCJEGZJs0MubwMouHLTZZ9LP4i8WBwpyON1mwThrj0CRH4xuzB0ljYkgahRBCCCHSgGySxkMtSlgwjvEJC6bKKGXBPI0HCus+3+JmC6bhGG9xngWPi8xH0pgYkkYhhBBCiDQgm6SRSfmvs1hqMcmirMWRFoUFmcUKFlMs2AbbYpsi85E0JoakUQghhBAiDcgWaaR8tJsFczEidUyPcbRFYcMcj6z7bgu21dUCoRCZjaQxMSSNQgghhBBpQDZI4zEWF1swn+Jii1YWSGRRcZxFa4vHLBCJehZ/shCZi6QxMSSNQgghhBBpQKZL4+EWdS2YfJ8pMW6x+LdFUcP8jYMt2OZ0i/+xOMxCZCaSxsSQNAohhBBCpAGZLo2nWoy1eMXiXgvGHB4MeUNWK1rMtGDbYyxOsRCZiaQxMSSNQgghhBBpQCZLIxfyXSxWWTxp0c7i1xYHC7bVwYJtsw+dLZgjUmQeksbEkDQKIYQQQqQBmSqNv7KoYzHHYpEF8piMTB/bvMqCfZhtUcuCfROZhaQxMSSNQgghhBBpQCZK4xEWlKEOt3jcgrGFyFsyxhSyzdMsbrVgX4ZYlLeQOGYWksbEkDQKIYQQQqQBmSaNv7Q4w4KGNwstEMdqFjyeLBBH9uF2C/ZpkEUxC038nzlIGhND0iiEEEIIkQZkmjSeYME4wjDdxUUWf7BINuxDTQtKVJn2o63F8RYiM5A0JoakUQghhBAiDcgkaUTM2ls8YrHUgrGETLafKvzRopsFZaoPWyCOv7MQ6Y+kMTEkjUIIIYQQaUCmSCMloJUs5lu8bDHUgrGEqQYXyZSpso806WF8YzLGWorCRdKYGJJGIYQQQog0IFOkkXGMNLxZbzHPgi6lh1ikGoxjZKL/hyzY1zC+UaQ3ksbEkDQKIYQQQqQB6S6NiOFvLTpaLLGYZXGZRSrPh4hgNLJAMhh7yfyRv7FIRckV+UPSmBiSRiGEEEKINCDdpfFPFnUtplowFyLjGP9skcogh0gt4xtpijPFguwjYx5FeiJpTAxJoxBCCCFEGpCu0kiZ59EWdEedZLHAopdFcYt0oYRFHwua4kywYFoOsqaaiiP9kDQmhqRRCCGEECINSFdpZAL/8yxuslhpcafF2RZHWaQL7Ou5FuMsOIb+kf9zbCK9kDQmhqRRCCGEECINSFdpZCoNxgVOtJhuwYV6OmbofmnRzGKGBdnGhhapNE2IyB+SxsSQNIpC47vvvnOfffaZe//9993u3bvdjh073Pbt291zzz3n1q9f75588kn3xBNPuMWLF7uHH37YzZ071z3wwAPuvvvuc9OnT3d33323mzhxohs3bpy788473ejRo93IkSPdHXfc4UaMGOFuv/12N3z48H3/hp95juVGjRrlxowZ4+666y43fvx4N2nSJDd16lQ3Y8YMN3PmTPfggw+6+fPnu0ceecQtWbLErVixwj311FNuw4YNbvPmze7FF190r7/+unvrrbfcRx995L788kv3n//8J3J0QgghRHJJV2lkLOPlFpSkIo//skhX/m3BsfSO/MuxifRC0pgYkkYRF6Tp+++/90L4zTffuK+++sp98cUX7vPPP3effvqp27t3r/8j9tJLL7lnn33Wi9jChQvdrFmz3JQpU7zEDRkyxPXv39/17NnTXXXVVa59+/auZcuWrlGjRu7iiy92tWvXdlWrVnWVK1d25cqVc6VKlXLnnXeeO/vss90ZZ5zhihUr5k477TR3yimnuJNPPnnfv+Fnnjv99NPdmWee6YoXL+5KlCjhzj//fFehQgV3wQUXuIsuusjVqVPHXXLJJa5JkyauVatWrlOnTq5bt26ud+/ebtCgQV5AkVXkdfbs2e6xxx5za9as8TL52muvuffee8998skn/pg5doTy66+/9ueEc/PDDz+4//73v5GzJoQQQhQ+6SqNv7agHLW0xd8syNilK+w7x3C+BcfEsYn0QtKYGJJGkSuIEBnDV155xWfili1b5ubMmeOzgWT1brrpJte9e3d3xRVXuHbt2nkR7NChg+vYsaMXMh6/8sorXefOnb0oEldffbXr2rWrl7UQ11xzjV9Pjx49fFx77bX74rrrrss1kM/cHieiXx/WyfrZTgi2y34Q7BP71qVLF7+v7DP7T3AsHBPHRvD89ddf72699VafCb3nnnvcggUL3KpVq7xc7ty504ulEEIIURSkqzRCJk5RoWk30hNJY2JIGrOUb7/91peSfvDBB/6P0K5du9zLL7/stm7d6tauXeszbffff7+bMGGCGzp0qLvhhhu8XPHHioxdtWrVfEaQbCCZvSpVqrh69eq5Zs2aeeFC1sgu8tqxY8d62WR9lKUuXbrUixYlq5SuUsJKKesbb7zh9wVZpTyUrB5ZTbKbZPTYZ2Q2OniM58j8kQEk8/nhhx+6d9991+3Zs8eLXDiujRs3uqefftpnQxctWuTmzZvnS2MpY6W0dfDgwa5v375eJhHhyy+/3NWqVctnLMlgnnPOOa58+fL+MZ5jGYR0wIABXqQ5Rta5fPlyvy1+p1599VX35ptvunfeecd9/PHH/njI3AohhBAFJZ2lUYhUQdKYGJLGLAQp27Ztm88eMtaPMYO9evXyZZv169f3UoQAIkY5SzkRpNtuu82/hrGDlKAiXoxPZKzg448/7scurlu3zgshsoa0IW9IHDIXhBDRQ/go7SxKKBtF1CgnDWKJLL/99tte6Cg/ZTzjCy+84EtsEcuVK1f6cY9kEhkLybhIxltSbksp6y233OL69evns55kK8lEtmjRwl166aWO3ydKbhs2bOjPHVlZSl8RSsZQsj3kUQghhCgIkkYhDhxJY2JIGjMUsnNktygv3bRp076xhggepZWIH9lDZDBk1cLYwpo1a7rGjRv7kk0kEVHidTSwQQYZv8i6yfJlG2RnafKDYK5evdpLJc12EMk+ffr4cxkysQTy3bx5cy+PlMxyPmneQ3YTGSXjydhJ1ke2lyxpUUu0EEKI9ETSKMSBI2lMDEljhkFWjUwiGTMyW5Rdkg2j6UzFihVdmTJlvMzwf8YdUo6J8EyePNkvT3dTykaju4mSIaQRDBk6MmSUhWYzNAciQ4pAkjVFoMlYhm6xzz//vM8oItmU5JKRpfSVMZdt2rTxzX8qVarkm/XwXrRu3drLJO8B2U2knIyoEEIIEY2kUYgDR9KYGJLGNAZxQVZoVENpKOWTlE1SasqYQsbm0diFZi78kWG8IZkwykyZpoLsIeMLyUQynpDspChcGMdItpdxooznRAwRSBryUPpLFhJppOkOmV0eRy7JAiPz9957rxd5ynwRdyGEENmLpFGIA0fSmBiSxjSBkkWkju6cjMcjA0h5JOKHhFD+yNQSTDvBdBUNGjTwY+2Y7oIun5SnkgXjDw7ZMdZD1pBxfmQONR9h0cF7Rykv7x/ZyTCmElFn3Oejjz7qhZ9sI1JP9jG8j4yR5AYAGeOHHnrIC36YR5JsJDcONNWHEEJkB5JGIQ4cSWNiSBrTAJq4ULJIR1M6kVJuSpkjcx3yL9nEkKG68cYb/Zg5MlRkEeniyVg5NV5JXRBAmgXRgIdsJOMdmdaDjDDjIJF/MpFkJnnPKSumCQ/NebhxwEWEEEKIzEfSKMSBI2lMDEljCkJnUbJJZAYZX0izFZrRUHZKiemFF17oxyeSTaSRDSJJtor3UGPhMoMwNvWZZ55xDzzwgM8mk4WkSRHvPf9SdkxnVqb6CGXGTPFBGSsZZCGEEJmFpFGIA0fSmBiSxhSDC35KSWmeQskpckBHU7qZMk8ikkD3U0SCsW40vKEBC+WOmv8v82BaEi4S+P1kXCTdVskwMiaVbq2II9OkME8mDXbITlKyTNmrxFEIITILSaMQB46kMTEkjUkG2aPJCZ02udintJSMIuWITN1Qo0YNL4xMlE/JKZknMlAie+HmACXHzLM5fvx4X5rM1B58Vpo2bepvLjA+khsPs2fP9vNmMjekstBCCJHeSBqFOHAkjYkhaUwCNEYhC0SGkK6nNKu57LLLXNmyZV3lypX92DUu+pFELvh5b5gbkDn81OFUAJ8hmuq8++67bufOnX6KFG48jBs3zo+D5PPE9CpM7cENCBrtMP6R6UGQTjU+EkKI9EPSKMSBI2lMDEnjQYROl0zizqTuZBTpiskFffv27f0fAcas0cgmNDjhAl+I/IIMMr0H8sg41zCtB82S+IzRMIl5ORFLmioxXYsQQoj0IVWk8RCLwy1+Z3GMxdEWh1rkl8MsjrLgdb+J/D9VOdLiDxa/t/iVBccu0htJY2JIGosYMoOUk3Ix//jjj7s77rjDX8gzrQINbeiGSaaRSd3JPNIEhyykxieKRKCBDlOohM8dGcj777/fXX/99X76DjKP/L7TQGnatGlu3bp1Xh6ZT5LXCSGESF1SRRqRvH9Y1LZoZ1HNAvnLL3+xKGdxiQWv/ZtFKoIIl7DoYNHSgotmZFekN5LGxJA0FiFctK9atcpLIV1P69at6yUxjDmjZJCup1zYM3efEIUNEkknXqbzmDt3rr9pwZhZpu1o1KiRHwtJwyU6sG7ZssU33hFCCJGapIo0/tLieIuLLbpY1LL4rUV+OcGioUV/i44WJ1qkKvUsZllMtEBwya6K9EbSmBiSxkImzLlHZ1Pm26PDZRivWKtWLd/QhnGMNCZRNlEcbGiG8/zzz7t77rnHiyOZR6Jt27Z+Wo9Zs2b57KPm9hRCiNQjlcY0knE7zuJkCzKFBSkxPcmimcUtFldZnGKRqjSweNBissVFFpSpivRG0pgYksZChIwOQkgWkTkUq1ev7jOMAwcO9BfpK1eudC+++KJvaKNGJCJZUP7MhQfyyBQedGCleQ5TdvCZpXyaeUGZ4oNyaSGEEKlBbtLIeLszLMpY1LHoZNHWoqxFKBll7CDloDze3aKbBdnB3MpCGbP3b4v6FggdmUDKUCtYsA2ygqyPzCLZRi4kKVUNYxopPa1ucaUF27ragozkvywQyz9aXGYxzWKpBVm8NhZskwwmME6SY7nGgnWw35UseDzAsSGbpS3YHstw7GQDw3KMQSxugaCyHtZ3qQXbym0MJllEjpH96WxBNpTX3Wsx3OICi7wyjewP56KUBefo1xYBjvk8C56LPuf/tKhhwX6H/eNccz7DuQggqxwb7x3LUjKbs7SX8ZccG9u50KKVBe8D62RbjEMVksZEkTQeIIwFY1J1pja49dZbfbOR5s2b75tXkYtv5lKkCY4QqQhl1DTPYQ5QMo6XX365vyihUROf36VLl/oxud9++23kFUIIIZJBbtJ4mgUCMdSCC+GtFistkLW/WyASSMStFussdli8boGsIUVcQIfmLvx7rEULi4csXrFYbzHFYrTFHRaNLBATMoyXW/S2QDARySMsELi7LLZYvGbxkgXb4nVkJtnfARY7LT6K/DvBAslBtBAb1nGfBfvJ/m6wYPs8zjbYT9bFBf/NFgjoRguWG2jBxS3CeKpFT4snLNgXYpFFKImNbmrDdhHr2yyesXjegn3g2Bda3G4RTxo514hrPwvOR7TMnWnRy4JyXOSbbSGSlL6SwWRbHCf7d48F2U3ehwDnBWnmPIVz8pzFJAuEnHPPsSDLjBO9yYLneO9YboQFNxE0HvNHJI2JIWlMAMaJcQFNZpEGNlxsU4JKcxvmyRs2bJifoJ9pMpiHUcIoUh3KVunW+9JLL/mxjz179vTjHflMI5J0Y92wYYO/SaKyaiGESA65SeO5FjdazLF4xIKLYeSkpgVjB8lwkTFETqZaIF/IEPLEY2T9yFbCnywQsyEW8yzIsA2zQJgetUBGr7Pg4vEsC9Y7zoLMHFnH8y16WIy0GG8x1oKxgEhkXwvKO4tZkPlbYIGcLbYgw0a2lO0jZoMsZlqwv2MiP3NcyCZih7iROSMbyHMcN/uLGCOnCC3b+V8Lto1Usi8cL8vymvYWiCeQNS1pgWAiuJxLRKuPBRK3zYLtV7WIziBGQyYVMUTsyPBxPgJI+ygLzhUZXvad4yBjyPIE7wuix/aQPp5HLhG9ihbIKM8RLMt7M9sCySXjyLlDNFtbzLBAdBF/3gua+JCVRaSFpDFRJI0FBGFkzCKZxRtuuMGX8iGKNBMZNGiQn6Cfsj9lZUS6wo2O5cuX+0ZNdF1lyo4mTZr4z/jw4cPdsmXL/PyQQgghDi65SeM5FsgKEoHsVbZADihvRJzIfiFACBGiB2TBECLEDUEh+8fyrAspRHAomSRTh1CSBURoyNixLZZn3YgXQsmFN9k0MnhBUsi8kf2irJLsGsuSFeOCHZklmznYAvFkfQgSYsN+Tbcgexpklg6mPI5csTxjIhE+jg0hvNOC7B6CRQksUoY8kn1FNNk+IId0e0UwES9KUcPyPI7gIsmUjJK94xgQ8BctkGaEOq9sHZKI/JKNbWpBiWkAcUfuWDfrQFARS7KiV1iERkCUuCLx11pwzvk/MtrVgnPC+kMGkwv4IJ3XW3D+kUbeC+SYY2E/kEnObUGmRMl0JI2JIWnMJ4wD27Nnj++GOnLkSJ99qVGjhs8wkmkks8jFNpOuI5ZCpDOMuSWj+Prrr/spOyi1rlOnjs8+du/e3Y/Rpesv43P5zAshhCh68pJGhBCpQ/goHQ0gkJRvIo2ULUaPkyMTieAgjeUtQpaRZcn0IVQBxikiMmThEBckjwtIRAsRokyV/eA5smmIT7SkIGZk/5A9yksRHwSS0lYEk4t4RJf9RUKRQLJ60ZClRIrZX6QLSSOrRkaT/SWbFzjbgnWTpWQZSkEDZGaRVcYoMtaP5ziWsDzZyejSUs7b/RbIGSKHTOYG+4PcBYmOlsawzZAVpFQUKecxthedAUSykXtEln1DeHkP2T5iHA0ZSI6d9VK+ikg3tuD8ca7I2opYJI2JIWnMB5SXrl+/3g0dOtSP9+J8MVk6E/QvXLjQXzyrYYjIVLhIeeqpp9zMmTN991+yjghkhw4d3PTp030nYCGEEEVPXuWpCB2yR3YOMQsgRQgE0kPpJmWkCB0iRAaNMk1EieYwZBWRPzJUZBOj5ZPsGlkrSjzJjCGNlJMGaeTCm+3SvIbXUqLKtsj2/Y8FQhmdoUMgKVEl08Y+k02j5JQxfmyfDCgyxH6xv80tKG9FWpHSKhasg20gaWTcyOYFEF5ECjEg84mgsR7Wx75R4nm3Bdk+tk0zHQSOY0FWo8ctsi5ElfJQJCxkP3MSTxppxkOnWDKfrJ+MKtlM9pv3gSxseF84r0G42Q/KWXmPHrbg9bxHLMv7wU2CcCycZzKWPM5x8D5wM0AZxlgkjYkhaYwD47doYsMk6JTpcbFMh8nOnTv7C2gyj0JkC2QfuUEyYsQIP98oWUcy7rfccotbsGCBHw+p8btCCFF05CaNlG4iQggYkkaGKkBWiwwVTWloOEOZ5XYLmuWEhjiM36NUFLFBwpCQGyxySiMX18hLtDQiO2TseD2ZSoJtkuVaY8FYwKctEFayg4Ew5Qb7HJrSUIpZ14LpLf7Pgn1jP1kHQVMe9p1xjkhjKL0lC0c2kf8HOCdsk0YwuyxoxhPW87LFbovHLZhjEvkkw4kQI9jsf/Sck0gjYse40QOVRsQeaeR8/tkCyWa7ay3C+8I5CVOQcE7IsFKa+qYFx8IxsGw4FoJzhjTyOs4rwo0oc0NB0hiLpDExJI15QOaQrpF0Qy1TpoxvCNKvXz8/GT/n6r333lMZqsg6KNN+88039831yDjH8PtB9+AtW7bo90IIIYqIeNKI1FC+GJq7MJ6QElQyc0ssaACDIBI0UEG+KE9F/Mi0IYlIGNLI+EEycAE6sJLhyk0akSQydiGTGMbl0YCGbSE0ZPuY+oF9peQyZMSipTFkGsma0eWVBjnsJ+sgU8r+IoKUX7Kv7ANZSsYsIkpBtIDjQVxp9sN6wnETNIlh35i6gpJO5A0ZRN44PkpQo6WRdXFuEWmWiy51jSZII1k+jh8xCbAO5JptUAIcYAwi54H3iH1j3CRlxmRwkWDGVJJpRGaRb6Yo4XyyLNLDeE62x/lnec4L5a5kRrkBwDhHSWMsksbEkDTmgHGJzKdIt8guXbr4bMoll1zi516kRE+dI4X4EabqmDNnjs+8U65K6Xbv3r19Fh6pVNZRCCEKl3jSSPkkUzUgGoAskH1CVsg88TNSgSQhK2QkyfiREWOcHtJGphKBQRqjM3c8j4RQOkrH0tykkSwj4xWRRtaFXLEtLjRZL+WfZPaQOwSLi3WED0Hi/6EUk4wcckgWjrGUrIOLfJrnIJeMN0RQyRAinAgSmU7KawOMGSQDybEju+wD6yE4Xo6bbZI1ZLwlWVD2BdFku9FiiChyjOwTGc68Jvdn/xjTiSAjgkEaGUdKKSpTd9CgBpHnfHKu6MTKcXPuwrmiZJVGRGG/WZ73ltLUIKMsy7nhGDgn3CjgvHNsocEO55WxkZLGWCSNiSFpjEC3UzIo8+bN800/atas6S+CmT4DWSSzqItgIfbniy++cLt27XIPPfSQn6YDeWzQoIEbOHCgW7NmjRrlCCFEIRJPGimhZExcKIsk08i0DYxtQ6Ao/YyGTCISQnYPmSSbSJkmcoSgIDqhcQ5ChvQxro7xk/wfqURMEDOa2XBBiXCxToQmGpq5sN7rLZBGhJWLdTJ4CB/LIzfIG8JDBhRZi4ZtkkkNU1Ygfkgry7P9aGlEaOmyyrhGxkMiZgFEEYFmP2mYg4ByLpBisnZkC6PXxTZWW5Dho3QVOcsNpJFzQ0aUfzmnwHll3WR6yeIyzpSyUf5FQhHGaDgfZBuRP6SQ95fzhkjmfA/ZJsfC45wPzgvngpsEvDccn6QxFkljYkgaDWTwySef9OWnXPAybvGaa65xM2bMcNu2bdNFrxA/w969e93q1av9eEfGOdauXduPe7zrrrv8WEchhBAHTm7SSNdQxJAMXc4xjQgkXUoRNoSIMk5KJSnBRCS5cEa6WAfyRNYKwUFQkETWh3iS9aJslPJImq+QaeQCklJVpq5AcBAhBIvXUvqJELEtxvDxPBk0BJUsJ5JImSnlmkgn4/aQOfaXklOkCfEhy8Y6GlpwDDxONo+ySzKNjNtDDNnn6Mwok9xzjEgpAkpGkvUwPpH9pwEQj1MqSuaQclSykyxPN1b2ldJVJJrjYfwnpaOIdF7zNHJMCCqZWrKKyCf7wHkgU8gcl0yLgljToIZzx/Y4Bo6f/WN/6ITL8rwW4SSriEiyX8g84syynEuyo5wTMsMINxLJueacsH7GUkoaY5E0JkZWSyPZRZrZMEF/nz59/BQaZEqYb3Hjxo3uq6++iiwphMgPlKw+8sgjfixw1apVXaNGjdzo0aPdpk2bfOm3EEKIxMlNGhEIposIkkd2KkAJJCKGzJABe9KCpivPWqyxQEQoaUV4yCoiKXQ6RUKWWTxvMdcCIUXw6F7K2ESkEXHjZ8YBhqwY8onsrbLYYMG2aDjDmDwkkdJZppdA0pAfRIwmNewHIkVGEBmkjJXJ6TdZsA7WxXoQXSSW7ByZNUplKSllLGa0NFJyijiSgWP/lluwHoLxkvdZ0DwHwWZ/ECtKUpFTms6wvRUWyB+yTIaVElVELq/yVM4dF9VkOMNxPWXBeUPiOI8IJYLIe0ImFelj3CX7FI4TCaTLKyWnZIs5FrKzCDljPDdbhGXZR/aLDCgyzno5F8gl742kMXckjYmR1dL4wgsv+MxIs2bNfCkq4jh//nx/Lmj4IYQoOJSkbtiwwU2ePNnL46WXXur/ve+++9zbb78dWUoIIURByU0akScEjItfhApZygnllogYJZaUWiKPNIPhdbktj4hS7sok+AgdIoSwkSkjg0U5J5JI5o0sHwJEphLB4TFEi22wrYcskFAEJsByYe5ChAzxQxrDfIWUVfIc8sk6aGbDMmwnSBCiSyaS7CkyF8ZyRsNjZOloGMN6CEpEg+TmBDnj+JCzxywYn8j/kW6Oi4vm6CY5OUG8yfhx7pDuJywQbvaRbCf7gmwjgwgy2ULeB5YN7wulqIhzThB1ph0J54SsL1leylwRViBbi0CG/eV9YltifySNiZGV0siXLvMrMgaLUlQm6KfzI9NrCCEKh08++cT/nnXr1s3RUKpx48aOMcJr1651n332WWQpIYQQ+SU3aSSbSJYM+UNoELKcIGM0kEFYkBrGySEmZM1ySgX/Rz6QFDKHCCTZMaSRDB0ZLzJ9rJPXk+FCgMJ6+JnXsg22hQAiaKG7aoAyT6SGZi2Ib/S+cEw8F9aBcFI6Gy1sh1uwnxw32wzCGQ0SR3knWUjWQ/Azj4XxmtGwDoSCMZFILRLJ/zm/NK9BznJ7XTQcJxlM9pm5I6ObD7Gv4TyE88w22FZ4X3gtx5YTHuM51smyvIbzxrEH2DfOI9vjX86jiEXSmBhZJ4184dLdkY6oJUqUcK1bt3azZ892O3fuVHZRiEIGcXzuuefcmDFjXK1atVzJkiV9oynGP0ochRCiYOQmjYUFEoPc0ViF8Xhktch6hc6djO0LE8bnJmhCpAuSxsTIGmmkmQ1zyI0aNcpP0s94qw4dOvhuqZTTCSGKjldeecWLI1n96tWr+2k6HnjgAbd79+7IEkIIIX6OopZGslfIIuMHmTSecXkETVwouSTDpeyVSHckjYmRFdJIQxvmjRs6dKirX7++H2NFmdzWrVvV7EaIg8B//vMf9/HHH7vly5e77t27+6xjq1at3L333uveeustzX8qhBD5oCilEWi+wpg4xt/RXIcgu0hJKp1Hc5aYCpGOSBoTI+Ol8bvvvnPLli3z4xfJclxxxRVu1qxZ7sUXX4wsIYQ4WHz55Zdu3bp1+xpQNW3a1I0cOdJPbSOEECI+RS2NQmQDksbEyGhpZEL+J554wmc2aMRx9dVXu0WLFvmpNoQQyYPs4qRJk7w0NmzY0A0fPtxt377dff7555ElhBBC5ETSKMSBI2lMjIyVRiYbp8V/mzZtfNMbJu6n+QYlckKI5MMcqYxrZDoOysZ79erl1qxZ4/773/9GlhBCCBGNpFGIA0fSmBgZKY27du1yM2bMcC1atPAZxgEDBrhnnnnGj6sSQqQOH330kVuwYIHr2LGj43uoR48evjqArqtCCCH2R9IoxIEjaUyMjJNGSlKZVJzsInMw3n777b5rqqbTECI1+fTTT93SpUu9MF500UWuU6dOXhy/+eabyBJCCCFA0ijEgSNpTIyMksY33njDjR8/3je8QRiHDBnix0kx3YYQInVBHGlYxbjjmjVrenF89NFH3RdffBFZQgghhKRRiANH0pgYGSON7777rps6dapr0KCBL3NjTriXXnop8qwQItVBEBl3fN111/l5VClZXblypcRRCCEiSBqFOHAkjYmREdJIc5tp06a5Ro0aeWmkEyNTamjuNyHSi88++2y/uRy7dOni/y+EEELSKERhIGlMjLSXxg8//NA30mjevLmrU6eOu+OOO5RhFCKNCRnHbt26+TGOzLH63HPPaVyyECLrkTQKceBIGhMj7aWReRc7dOjgG9/cdttt7oUXXvAT+gsh0hfma3zsscdc165d/fjk/v37u23btkWeFUKI7ETSKMSBI2lMjLSVRsrYNmzY4DsukmHkopIuqSpJFSIzYDoOxLFdu3aOqXMYp/zKK69oHkchRNYiaRTiwJE0JkZaSiPzLT777LN+wv6GDRu63r17+0nBJYxCZBZ79+51s2bN8uLYrFkz3x357bffjjwrhBDZhaRRiANH0pgYaSeNTJ/x2muvuZEjR7q6deu6K6+80o9/omW/ECLz2L17t7v33nv9VDqMXWYM8/vvvx95VgghsgdJoxAHjqQxMdJOGvfs2eOzDY0bN3YtWrRwDz74oMYwCpHhII5Dhw519evX9zeKmMNRjXGEENmGpFGIA0fSmBhpJY1fffWVb3zDhSPzuE2YMEGlakJkAZSk0+Tq2muvdWXLlvWdVemSzONCCJEtSBqFOHAkjYmRVtK4ceNG336/QoUKrnPnzmk1DlMIceBQmkpTHKbioOLgrbfeijwjhBCZj6RRiANH0pgYaSONjFlkHGPt2rVdp06dfMaR+dyEENnDG2+84SZOnOin2GnSpIlbvHhx5BkhhMh8JI1CHDiSxsRIC2n85JNP3FNPPeXatGnjm9/QFINJ/YUQ2QUdkl9//XV34403+mzjzTff7Hbs2OG++eabyBJCCJG5SBrjc4jFUZHgZyFyQ9KYGGkhjevWrfMXiTS/GThwoNu+fXvkGSFEtsE4RioNaIhDM6xx48b5DKQQQmQ6ksb4/NmilkVNiz/ygBC5IGlMjJSXRkpQ77jjDle+fHnXtm1bn3H88ssvI88KIbKRd99911cc1KhRw49xXLZsWeQZIYTIXCSNeUN2sZrFBIu7LCpaHGkhRE4kjYmR0tL47bffuueee861b9/elShRwg0bNsx9/vnnkWeFENnMiy++6C+eSpcu7UaMGOEvpv773/9GnhVCiMxD0pg7h1oUtxhgsdZijUVPizMseE6IaCSNiZHS0rhz50535513+oYXV1xxhXviiScizwghsh3GOk+aNGnf98PDDz+s5lhCiIxG0pg7ZBmvtHjCYrXFcouHLFpa/NJCiGgkjYmRstJIxmDp0qV+HGPz5s3dwoUL3TvvvBN5Voif2Lt3r9u6davbvHmzL1ukWYrIfHifX375ZTd69GhXp04d16NHD98kRwghMhVJY+6caDHZYqvFSIvbLdZbDLc4xkKIaCSNiZGy0vjBBx+4MWPG+DkZr776aj8fmybyFrnBJO+Me7311lvd+vXr3ddffx15RmQ63333nVu+fLmfiufiiy/21QjqpCqEyFQkjbHQ/KaexXyLRy0usWhoschipkVliz9YCBGQNCZGSkrjV1995RveXHvttY4mF2PHjvUXh0LkBp/dvn37uu7du/vPjW4uZBevvvqq69q1q6tfv76/0cT/hRAiE5E0xoIU3mHxoMU1Fv+yKGbRP/JYP4vzLIQISBoTIyWlkazi0KFD/Vil/v37u6efflolhykO5cSIPY2KyBLv2bPHT4PAvx9//PG+9++HH35w77//vr+wp7SQckL+T9OjAOv59NNPfdkpNxCiJZAsIo/zPD9/9tlnPtPUuXNn16pVK3ffffe5N998c7/1sU98pl555RW/TcbK8nqRGfD5mTt3rh/X2Lp1azdnzhzdOBBCZCSSxv1hvGJXi40W91qcb3G4BWMca1vMsnjMopGFEAFJY2KkpDRu2bLFXXrppa5SpUru/vvv99KhroipDVL49ttve4EbNWqUz/pRVsz8mgsWLPAiCYgknS75zFFSyHjVkSNHuhdeeME/DwgeTU0efPBB/1lADAN8TmfOnOnXyXydq1evdn369PHddU888USfmb777rvd7t27/fII4+OPP+569erl6tatu2+b8+bNkzhmCNwg4P2+4YYb3Hnnnec/c5qWRwiRiUgafwI5PMlitMV2i8EWv7cIHG/B2MYNFr0tKFE9zEIISWNipJw0kll69NFHXeXKlf0cbEzsL1IfLtyZAuH222/371vJkiV9uSBlgw888IDP/u3atctNnTrVP37aaad50Tv//PNdo0aN3IQJE3wGkPFofBZvueUWd9111/nPApmkAFLKOslAr1q1yjdLuuaaa9wZZ5zh/vrXv7qqVau68ePH+3XRXfOZZ55xgwcP9jLJPrHNs88+208Mv3jxYr9uZaUyg7vuussVL17ctWvXzmeyVdIuhMg0JI0/8XcLuqOSYWTs4mUWh1gEEMQ2FnRRHWdRw+JPFkJIGhMjpaSRi3fKBxnDeMkll3hpeO211yLPilSGC3SkccCAAa5ixYquWbNmbvbs2b6jKVkgYtq0af5xSggnTpzolixZ4qdM6NKliw8ma0cs+SzS1IYxrY888kiMNF511VV+DCM3FMhK0lkXUUA+x40b5z8zZKdpikMW8/rrr/f/Llq0yGcdEVKWZZsrVqxQ45wMgZsAfL7atGnjM9V00hVCiExC0vgTlSzut1hs0cmCDqo5OdeCuRsfthhqcaqFEJLGxEgpaUQ8uPCjtJEL+lmzZrkPP/ww8qxIZXjvEP6BAwe6WrVquZtvvnlfSSogg4MGDfIdLocPH76v5JRlkMm2bdv6953sIdNn0A0VMXzsscf2Ww/PI5NkGp9//nn/GFml2267zZclPvvss/4xpHHy5Ml+nBvlsGQeA2Q9e/bs6QWDLOhHH32k8ucMgHJlPlvcQCC7HF3yLIQQmYCk8Ud+ZdHOYosFHVPLWuQ2H+PRFvUt6KSKXF5oEZ2NFNmJpDExUkoaKU1lMv/LLrvMS8GmTZuUBUoTKE9l6oshQ4b4uTUZ10jDGmC8Ixfww4YN8+McoxuV8Doygow5JANJdhLxo8yVMWp5SSMZzeeee8431uGzi5CyDrqnIoCIIRlF9gWRYPtM/M5Yt23btrmbbrrJdejQwc2YMcNnQVWimv6QkSYzjTRyUUVWWQghMglJ44/CWNziNos1FsMskIC8OM1iosUKiystTrDQ2MbsRtKYGCkljUgGE3Qzzo0SVbJFuphPDxiLSHkqE60zXpDsIU1ogIYzyB7Zx969e/tscnhfETw6qCJ27du3942PkEj+n5s00viGLCHShzSS4UQIkUjKmVeuXOlFlMwm2aYLLrjAValSxXfiJZtJ6SI/lypVypUrV85nKPnsI58iveF9J+vMzQDe23vuuSfyjBBCZAaSxh8v+HtYzLEYZVHL4kiLvCDb2NbiPgvk8VKLX1uI7EXSmBgpI41IBPLAtAlc0CMPIn0IDWwYU4i8UfZJ5hiQf7I+ZI8RPsYWhik4kEYEjzGHyCYdU4M0Um7K6ygfDSCFlLGyrrykkX0h00hZKh14TznlFHf66af7KFasmDvzzDPdueee62iOQwOeHTt2SBozBLLJ3Hg655xzfIkznwWVHgshMgVJ4y9+UcKCifyfsehgcYxFvJJTniMzOdCCbCMZymMtRPYiaUyMlJFGxritWbPGSyPj3uiKKdKHII10LqXxDGWmQRrJONK0htJVSkiRxpBpRNYoayUrSBaQcaxBGvv16+eWLVu2r8wVQaSbaqdOnXzGkvLlUPoaLY2UNCOirKNp06Z+fxjfSOaJclRuSNA8h6wlwshnT2KRGfAZ4X2vVq2aH1/LjSgykEIIkQlkuzQybUYzC8pSl1hcYJEffmPR2AJpZMJ/5nNkLkeRnUgaEyNlpJFxZcy/17FjR58pQBxE+pBbpjHMlceFPKWrlIIybnH69On7MnsIHjcIGOvIWDS6XiKDCCZTazBpe5hPEblD/pjDk+c2btzopZG5HBFMhDR8bt555x1f4sx6EdGcczLSGIfOrnv27JFUZBC8l3yPUIrMjQW642o+TiFEppDN0kijmyoWwy3mWvS1yK1jal6QoRxvwRQcnS2KWYjsRNKYGCkjjWSLKCekRJEmKMneH1EwgjQyVx7STzaPUkEIjWkQQT5rdEWl0yoySVMaGuSQZaSZDcLIc5Sr8hiiiRQil/+/vTeBt7Fe+/9PnYZzGk6n0xmaO9VpnojMmYlHyCw8QqQiTSpRpAmZK5IhlQYUicqsZAgZy6+ShPI3lgwNNH3/1/s66+5Z7CG2ve01fN6v1/XarHWve1pr73V/7s818Di1jGXLlvWuqIhGHEs+O6Srsl1EAoIUgTl27Fgf/M/4jtmzZ/u+AM4mTXJIc0Wk0qFXTmNqwE0EUpoRjNxYGDFihN9AEEKIVCCdReNfLBCK71j0tihksT+1iaSx/q8FtY3MdaS2UaQnEo05I9dFI3f1cXHim5fsC6Sm4hRF8/oQGSJ5QNQxKiMS/qSBRo1wgM8FDXAYxM8MThxHBB3ij9EX/Hvq1Kn+uUHE0QCHZWvUqBEaN27sYrF///4uBBjgf9NNN4X58+e72EMEkorIsghB5j+uX78+rFixwl1G6ijZJz5fOJKsr3Llyr4OXE7SXyUaUwNuGHDjgRRVGuLweSRVWQghUoF0FY2HWlxiwSB/xmy0s8iu+U1m0DH1QgvmNc6y6GhB2qpGcKQfEo05I9dFIxfwDGznYj2qF4uanmQHgoLumaQTctEf3/xEJD6kBeIEDhs2zOsLcfkipxEQZdu2bfMaRQTjGWecEc4666xQsGBBf99fe+2138Qb7iGij5sHNWvW9GVZDkGIW4mYxI3GpQQG/LNdBvZXqVLF3Um6aCIgqGmjzhJBee6554azzz47XHDBBaFNmza+L+rQm1rw+eE9HzJkiF9YcTOCz6UQQqQC6SoaT7a4zoLUUrqmVrbICdQxMt9xqsXTFtQ20l1VpBcSjTkj10UjoxVoZEPXSuqKmLvI3D1SEbOD2X3UqrVr184dJM1nTC4QaAgwhBxNb7hhkNl7zjK4iAg7RnAwooP/80UYT3TxT00jyyISaYJDSiqpptQj4kgCtZPUTCJUqZdEDEZONzcsGPrOTQzSVNkmqa/vvPPObw12RGrB54LPDTM6aZqEAy6EEKlAOopGXMaKFoi8YRZc5B9I91M6qT5sgWvJ6I5zLER6IdGYM3JdNHIxzly8I444IhxyyCGhQIECnh6Ik4QLuXHjxt+aoMRDOmOFChXcRcIZkPsjhMgJ1NeSdkwaNDM5SVcVQohUIB1FI7WMt1kwYqO/BcP5DwScxWssqGtEOFSyEOlFvGikq67YN2ge5aIRpyY3IC2QujFSAG3d4fDDDw///ve/Q9GiRT0tkbl4iMe9GTRokC9DCuLerpMQQuwruNTUSDOHk79t8+bNiz0jhBDJTbqJxiMtClg8Y7HdglEbzGZsaNHYolEsGMMRBc8ROEgEooCoFwue62SxyOIzC2obT7E43EKkByda0IH3I4tqPCD2iZMsxlI3Rl1YbkFqIu7iP/7xj+gPm8dRRx3lLmTHjh19iDsXc1GKIXWQuJJ0wFTaoBDiQCCNmfpWmibFd84VQohkJt1E43EWVS1wBTdabLKYbzHHYm4s+PdsC5rbICqJmRZ0WX3bYoYF8xmJaRaTLVhmvcUaiycsilvsTydWkdzgNDKv8xMLOupyc0Lx+0Fq95tcXFEjRlrXgQa1iDQ8oWvhKaecsodoJI4++ujwr3/9K1xyySU+yJ+0VWblUbN24YUXutiMhsILIUROYEwLHXJLlizprqMQQqQC6SYaj7EoYtHK4lGLpywGxQV1jllF/HLxyzOrcYDFUIs+FjTYoVaLi2KRHvzNglTnLyymWPRT7FM8Z/E56aP8EaKe8EADp5AZaVWrVg1/+ctf9hCMe8df//pXb35DR8w6deqE0047zVNbM6t5FEKIfYXmR5UqVQpFihQJM2fOjD0qhBDJTbqJRgb64zb+0wJ3iC6qp1lQ10gw3J840+Ks2M/o//+xONeCOixEIcHIDeIiC0Z40AQHAcF2NHojfcBVbmrxlsUKi5WKfYq1Ft+SNnr66aeH//znPwcc55xzjtcznnTSSV7PaOvPNi666KLQsGHDULhwYXcgmbdHTZIQQuQURGPFihXDFVdc4c25hBAiFUg30ShEXsBNAm4ukPp8gwVzPxW/H49YLCct9N577/Xh6Qcajz/+uDe7adKkSTjhhBP2EIh7B+mrrVq1CkOHDvXxHDie1Dvuy1xHIYTICka/4DTSXEtOoxAiVZBozB7mMJ5g8VcLRnUIIXIPHPxxdBn87LPPYn+SDhwGvTN/j3RTW/8egZA8//zz3QW466673AWgBhKxefHFF4c777zT5+4JIUROoUb7qquu8nmxs2bNij0qhBDJjURj1hxhQSpqLYurLI63EELkHqdavFajRo2wdu3a2J+kA4N6RLqiMlT7b3/72x6C8Z///KfPTsORpDkFXVa//fZbfx3dUwsWLOg1kV9//bU/JoQQOWH+/PleV83s1zlz5sQeFUKI5EaiMWtoZFPOgoYdD1rgigghco9cH+7/wQcfhJtuuimceuqp/keNesnLLrvMxSKpp6+88kqm4z0GDx4cihcv7nMa6aYqfh8cXRziBQsW+OxLHNu8bCJEV1u2t3jx4rBixQofjcL2cIbZ/ttvvx0WLVoUduzYEXtF3kIa8+rVq8OyZcvCF1984eNb2I8xY8a4c/3MM8+E995776DfhKAmd+vWrb4vbJ8ZqJwrPtcMmqfejn3KjzRs3kPOFSMp+F3lM5Nq/PLLL57BQAZF9erVXUAKIUQqINGYNdSp/Y/FGxYvWtDsRgiRe+S6aJw+fbqnhDFa47jjjgvly5cPPXr0CHPnzg1btmz5zVncm+eff95b5NOBlX1RB9XfZ/v27eHVV1/15kHPPfecO7cIybwCUTZ27NjQp0+f8PLLL7uA5H1CAL311lvhscceCyNGjAgbNmyIvSJvQYixP08++aTXrSHGOA904mWkC04T9bWrVq2KveLg8emnn4Znn33Wb5RQs/vJJ5/478YjjzzirjpCMi/fq6zYvHlzmDx5cnj44YfDE088katp6YkCwvjNN98MtWvXDo0aNfKbHEIIkQpINGYNNYw1LJjROMHiMgshRO6R66KRtFMu1Bil0blzZxc1XDD/HixXr1690K5dO08nU13j74NoGjJkSGjdurULOUTTjz/+GHs298E9e/HFF0OXLl3cxUMYAbM5EUEzZsxwJw0xm9cgVtesWRMGDBgQHnzwQf/c4ZzhMJIaTZozdbW4nwilgw1ObN++fUOzZs38pglzA8eNGxduueWW8Oijj/q+5gfr1693t79t27b++5lbv/eJxKZNm8LIkSNDgwYNPOuBpjhCCJEKSDRmDTWN1SzGWTBP7gILIUTukeuiEVeHi1LcjP1JC5w4caJf7HMxO378+Hy50M8JpMLhoJKKSPMNxAApkzt37owtEcKuXbt8GQIXJH6kCCmKiCxcPH5GKYuIIi5+eV9YL8G/Se1lHcDyOLQIpIEDB7pww8kl5ZDX8jz7B2yT/UD4Zeb4sk7qWhE3bIuUT0Qh+8U+4Yqx/p49e3rHW+Zp4i5Gx8S22ObeaZdsh/Vy4c56+clymZ0DHt+4caMvjwBmH/iJc7m3GEao8hwuIyIMZ+n1118P7du3D3fffXcYPXq07z/LAeeTfUXMsR8cJy5bVs43Ny0QpewDy/L+sm/xxxYPKblsj2V5n3AVEfI333yz1/Cyr+wjM0x5HOedmyl8XtgGxxy9r/Fw3Lzn0fvCT17DY7yfe8N55T2IjpPzzbqj4+QccJ5oQsV5i7+hwzGwXiJKPU42OH6OfdCgQaFp06b+OeX/QgiRCkg0Zs3RFuUtell0sjjDQgiRe+S6aORim4v//a1rw10klQ9nABcL4ZUMIGhIQ8RdLVu2bKhSpYp3gEU0REKHYyGdk9RNBEK8oESITJkyxZ+nDouLeqD+jTRGUuxYL0FdKBf6iAHgHOP8IZSilEdeh2Dn/zh/kRBBYCCSSOckhTM+ZY/nqPu6//77Q7ly5XxbpBXjkrF+RAfr5XUcH6NRzj33XH+v2BZpsTiM1BJOnTrVBUe0XtJGuXDnM8Z6SRnlgp7jjuCYeR2uIQKra9euoW7dur4PdMDEMfz888/3EJocO9sk/ZT9Jt3yxhtvDJdeeqmnplLLhqCOblzwRcv/Ge3CfnCcOLSco73TRBGGNHPq1KmTp0yzPK4VwjyzVFeE6aRJk0KLFi18vYgVXksgGhG2/H6xDJ9x0nj5zETnhU7CPM57sLdw5Nx2797dz0W03yzP8bLO6KZABDcFeB/YF5avVq2ab4ffL9bNDYUJEya4eGW9kVvMMePKImh5D3jf4j+nyQJCl/eO3xNuQvHZ4fMrhBCpgERj1jCwnYva6hY0xGHshhAi98h10ZhT2D4Xq1zI52f63r7CxTpCigt06jC5kC9WrFgoXLiwz4dD+CBquEjHperVq5dfqI8aNWqPi1iOk+Pt0KGDO7SII8QdAo1ZlzQHIooUKeINhRCRiGrEKgKBNDxcIxoJcQ5xjhAp119/vaeu4uABThOi5KGHHvJmQ7iEXGAjDLjIRoQgMAoVKuTbo5Mt2+TYcIFxrIYPH+6ikSZHZ511los03DOE8EsvveSOJymZNFqJRF20XtbFzDxmgiKwWR5Hi/OIqO7du3egiy9isWXLli6mEID/+te/vEYRsRvvPvNa9gtxzOcGsYMDet555/n+MdSdVFXOJ+fqjTfe8OOOZvdFx8l8UlJb488T+836EIolSpT4bd+vu+46F9G875HQRCAjPLlRwHKsl/1FsHAcCG/EMJ+BadOm+XuFkOQn7xFisECBAi6O+YzgSCLgEKK8nwhV3nPOBfvL+s8+++xQs2ZNvwnBeYiIxDdpp5xLlmf/SRXnHHGzgXONaESkcoycHz5HNFPifOHSkk6LgExG0ciNGj6TvB98dvn9SJasBSGE+D0kGrOGRjjMaTzO4pjY/4UQuUfCiEZqrUgp5EKbi+rZs2fHnklMEBcIRmrUEIP8m06ZiBucLwQMIoB0Qi7seZxaQB6L7+aIu3jHHXe4K4V44aIegcMFL04e4orlcX4QVpwbRAGz5zhnbJcL/Ug0koqHaOQ80oAlEkM4wAgDRCPbw/VCmCDwcP5wptgHXE+2R/0dDlWbNm1cTESpojg3iB1ELsKTLzBEMGKKfWbbHAPLIlTYjyhdlGOg+cq1117rbhznhP3DvUNkX3nllaFhw4buCHJ8vIbt169f3+sWEXMRCCD2m2C9iGXqYhFrHAvnA5eOc8/5pFkQQgkxzmcLhxTBiHvLcUd1b5w/RBOCmP1HPPEeId7YF4Qn+xUJERxbBCAijvVzXnkfcUBxNTkeRCP7x7r4vCAQ2c8XXnjBHUDWx7njvOI4s26cWM4p+8H6OVe8L+w3KcI8zueMY48cWPaTzxjHyvtHCiypqNyUQLxzU4LPKKKR5RD4vE+cDz6XBOeKz1GUlpxsIOa5udG4cWN/f/kcJaP4FUKIzJBoFELkFwkjGhE1OF78McQN4uI1UeFiGqFEeh/NexAu8TDOAFGFQEBE4OQgeLh4p9EP4gbBRvrma6+95nWcCBVEDstyHnCRcLDiIZUQIcPFMKKAfeD18aKRZXDfEDikQEZpwpxf9oHtsG84UmwfcYJjh4AhvTUeto9ApeMnIg2Bh1BkHYhZav4AhytyPHE3OQ7WT9osAhXhEjlziFS2zzgExA8iDUHFNkgFxSGK9oPX8DngnLEeUn4BdxJxizhCGCOeAeHHe8J6I6ea88G6cbA5Rs5DBKIKoca5QnyRyso2EPyIMgR/BMKD84nYYxsIXVwt3EPcRFxhjjmCc43QRcAilDkmziefCQQmz0WpoRwP7zfrZt/ZLhcG7AsilzEm8SDKEXgIWD4HnCfeZ9bBcSLyo5sFwHuH+4aYZb94D/kssg8IUz47/J/3aX/qkBMR3hMEMh2cuUHCTYNkFL9CCJEZEo2/zyGxn0KI3CVhRCNuCYKCC3BSI3Gb9q7XShQQWzhvOFTUzlGjRpofF9yIMC7OEUY4TbhICEGEFGILBwSRScokoo9UU8QV4geHifOAoESIIYZ4jPXyRYEA7datmzuAiADOFw7UvopGxAf7ijPKukhP5RwjiNhv9gmHie0h5BAUuGfsN0KG5xCpiA32G8HHBTn7SNotopFtsx+4WoganEncrOi9ZH94LY4pQgUnCIFHqiQOJO5XJAI5zwhotsf5jEQ0j+OwIp4RgpGThJOKY4lo4HVRSi4uHimxnGPEG8fB+eUcINhJq+V8Rm4lX8i8dzzPsgQpwzhYfD5x+BCoPM7reP8Q1/Ep1bxfnAOe4xzwHC4hopjzhEDj9REcG8fJ+4tY5D2gBpH95H2JPgekxvI8x8m6EfwcP58/3FCOFaEZ767xHrEuPlfsF/vMucPt5dgRVxwbKbTJDungCHPqWrnBkozNfIQQIiskGrPn7xZFLC70/wkhcpOEEY2AO4KgoQ6LVEwulhPxog9nh7RELtCpL6N+jlo80ihJR0RIUn9I0xJEFBf+BC4cdXE4T1ygk66Is4R44uIfMQQcM6I0qk1kvdTJ4cRVqFDBhQ7CAXG1r6IR0cA+s71INEZwoY1jRsoi+8/2SNssU6aM1yOyfwgqhAuiiuWi7XEuaHyEaGQ/EMRsh2ONXDZcuUg0Ru4hLiEClu3ihJHCiUuG4NnbHUVIIdA5X4hqPic4nQha9idqOETqJeINQYUYpd4QIYlTSb0hjWGoD6RWkePkfFIDieuJaGI/WC91m+ecc46nkbIswTkpXbq01xZybkkr5VwjrBGBCGvOUQSCEEePfYxEI//n3OMSIuDjm96w77w3HCvnBMHL5yAS+ohe9oHPGfvHviPKOU5uSuBu81oeI8U1XjTGw7lDzHLM1FIijnk/EZyJ8DfgQEAUc575neG94r0UQohUYr9Fo73mj/bFeYrFZakc9iVayi4UmterV6+XXWjdP378+AqZLZeCcTLvceztFiIvSSjRyEUfYgPHKapHik8nTBQQPjhvpEyeccYZ4cwzzwwXX3xxuOiii/wnF+MlS5b0mkQcJcQLgpBaMl6DQMKNRKjgLvETBwxhxTnAmUNYINhwTFgvQcdSxCjiCgGFqM5MNPJv3BbcWsQH8BMBhbBAuJDeiSjhcQQoDhgpfRdccIFvi4Y1CGIew7ljvQjffRGNCB1q+nCycA5xWSPRiMBDPOFucYyRaGR59hnBwzkAhE/UpAfRSAop5xGHlmPjWHDvohsLmYlG9gVH7vLLL3eBGL1PBO8TYpJUVNI8eQ9Is0WUnXzyyb58tCzvA01oEFscE+8/x897h1vHvsQ7dQjsyNGLF404ptwQ4ZjjRSPvJ8dJKi3nhHPKjQM+HzTLOf/883/bF/aLGxWIYVJsEY3ReUI0cgyR8N4bHkdM8b7StIkbAnwe2Q6jbriBEL1XyQY3UfgccrOCVF/OqRBCpBI5EY3HmLBoYzEllcMuDt62L4HFdgG12i5YVtjF47uZLZeCcZMF40aEyGsSSjSSRscFM6KGujIEJBfPiUbk2nGhTU0jgoaLVRwcRBVCkeNAWCDsEEr2O+2ihot0REMkeiLhg8DhYp16NS7qcTERUYgp1sv6caIQCpwfXhM12MlKNFLjFoluhAU1d6S2Ily4oMZ1QswgghBOCBycM7aHGCINkzRSXDTSMfd2GhFZ8aIxSk9F7LBtHDkESbxoZH9YP8fAsUfnCbGZmWjknCGG2BeEICmaCCS2z+cDUci5BQQUy+3tNHJ+qDmkFhFBxfYJRBLnhPeSL2LEKMfHZw8Hjn3n/yzLeUYE4jDinCKuouVZP+8r5yOCc4WjGi8acXdZls8NAjiqO0T0RmMw2HfEJaKS94D9wFnm3+wH54dUXs4tYhjBz3p479kONyX4/GQlGjl/pPbiePNZIi2WzxJilVpIzldWr010eB85f4hGfsfi3w8hhEgF9ls02hfk3yyGxF4vUgx7b5+2HxovIg4GCSUaI9GE8GCfcNTiU/4SBdwu6vmibqZchO8NQglBQw1aJGo4NlJGcaaobUTIIAQRCBw74oF0TMQNTgk1ePGuT9SYBiGCANlbNHKRzPliv6KunVHKKzWL1BJG3UzpmInYQzAg9nCooppBQIgg/BAhpEciGlmeGk0uzHkus0Y47Af7gGDitaShxnfCJW0TEUrKJ0KLtEo+e6RHIo4QPJEDt7doZD2cQ4Qaqbtsg/MbES8aWZbXI2D5PwIrvlENcL4Rc4gNjo19I02Y94f9ZlvxILgih5F1I67oWIpLSyC4IhDv7CNuM7V1uMdsn3Xzueb8xdc08rlAICIoEfQ40YhzbkqQshsP20T8c755/zhffBaidGZ+f6L3HXDg+Iyx7wRimePjnPMeIn7ZPqm03KTIbBZlMsDvAqnhCGKcdN4vIYRIJXIqGvds1ydSBntvB9oPiUZxMEgo0Qi4clzwUZNEDRoXyIkGQo4L/qhuL2qEA4gJXCSECuIOERLV3HFxjzOEYDrxxBN99h+CIhJfiEsu7nGSEI04gIgBQPSxLK9FqEaiEcGKIMKpIz0SsYoQZYg+ogJRRApq5IxS04fAwTFD7CFQEAsINsRYlOqJmENcUkvJ6xA9kdOIYEGQIshwBdk3HDDWi2DhXCD2ED0cB3WNiCj2g3ODk8ccQQQmx0CTGY4NgYXTGS8aEYKkskbpqWyT9XFuaHLDMhEcE8shrHEa2TfWj0vHOcKJQzRFcA5x23if2A7rijrfsi84i5HryXuEsOIYceQQlHwO+L3h/NEgByGI+OS84jZzThHvUfdUXFXcVOoScVl5b3BqOX6cPi4EEG3ckOBzwHEjGhGDkWPM+8u54oYD+87vCuvASR42bJinBCMI+SzwOKIaF5jtsR6OiX1jGT5nCEQcftxbzhvvOTcPos9sssAxcDykVfP5QghHn2UhhEgVcpKeerxdXDz+35enB3zxc+eVL3a+DEj54suflB4eJw0pt+EuJRchfIFyEcQ2+ILlS5oLwb3vQucW9t72sx/MphQir0k40QjsC40/EI3RIPt4xy0R4KIaZ4m6PFIFEXKklCKSEHbUZXLRz8U4F7QRiAeckBNOOMGFMd0/4x0nXCGEGRe+CD+cI4QQ7hziBJHKY4grBATOHNtGSETNanDgeH3FihVdtJD2iFuHiOT/7C/iFSHC3zREEOIEIYfjiIDBBcQVQ5zgGCLCIicOt5K6P8Qjf5MRKKTbIpK4cEdg8cWGOGF9NHBhvxE5NNhBuCJEcVURZewDogbBg8CLBBJOHn/f2Q77gMjj/7iJUTpo/OcCUclyHCfHh0hlXbikiDGOm31nn3ivcKWoG2VfEHC8pwjgKOWUlF1EHvvNvnGOeIxzz/sEfE+QNsp7wLHx/iM42QaOIq/j/PKZJu2U1/PZZv18PnhvopEdHBOfF44b8YlI5bPEPrJ+PgecJ46f5Xkd2+Yc4iwionGpo/Xx/rEvOJh8dnCDeb84Ps4Toj5K4UToxotr3hvOXzLA8SO0OafciOGzHu+0CiFEqiDRuA9w15ovdi6cuGjg4oi0HC5QuOjiiz634UuIL2juOnMBwoUrX6Tc0efOMXeC8wKJRnEQSUjRyO8zqXP8YeTilt/1eOGVKODk4Hxx8c9gehrHnHXWWS52ozrAvS9eEQO4dIgJLtq5iI+/OEcE4epx4Uuzkv/85z/egCVKV0WcIS4QAIhGBCLb53HEGueJbSAma9Wq5ftDExhEB3+32C9eT/omzibLkzaJmKHZC01W6PqKyEAcIbYQIji+pKxyvLhtrBMRhQDhMW7gsV7cLv5Wsm72g3WQiksDF84PzXy4uOemX+RmMToE1xHHj5EekbvHeSHFF9EV/e1HVOEy4vLyunj4+4zrS3ou3xlRbR6OE04r54nus+wHQbMi9pl94b0E9hsBhYPLexQ1BOIn4ov94/lIrLI8X+K8N7zvnG/eM8Qan2H2hfcKN5FzyPa40cAxIew553RqRWDyWYiOnfVyUwKByH6yD5xzxC7vNa/nPaKBTySy+azhlCIWo2Ok2ys3KXifeF8Qubzf7AfOY5SKyvHwncZNGvaZz1Ve3IzNCzguPne8P9wYwE1NtJtMQgiRG0g07gN82XLxiIAjxYeUG5w+LhK4UxqlM+UmXGTw5ctdfe4Qc8HERRAXGFENTF5g761EozhYJKRo5AKe3zF+33HLEC2J6hxwkc+FOi4NF9vRjazIudobjo0bUog2xBYCZO80OtIkEUusB9cHkYko42YZmRZc3PNvLuqjv4P8Pz5Vk7+R1K5Fr+dvGGIUIcu6I6cMEOlkVCDcEGQIIFw7RGhUm4lA43jYJuINcUF9I+vkbyHLshx/jyMRAzzORTwChfPDviD84t9P9pvPH0KPrI7ofCBocU6jukO+LBEI/A1mO3s7YSzLueF5louEIESpp6SQsh8E/85M2APZLQgnxFm039y8yOwGJQIPUYhA5v3nHLIs7wnnh+f4/mD/OY7ofeA9xSEm+F5jmXg419E+s17OIetlfbi7nEf+Hf8545zw/vC+R/vNex/VfrKv/JvPDOc1fpuIbN5vtsm+58X3al7AZwcnG0eWz/DeNxOEECJVOGDRyAq4AOHLhC9dvky4sOCLgToHviSAixvqSqhhIc0H94wvjfi7iXxp8AeX1/PlTboL6+ULbe8vGOBLhQsgRB3r5A4mF0Lx62S7XBixPyzLFzpfmHwpc3HBOuPXwfbYN46DL3r2nzuwpChRh8HFDBcpbINjZ918UXIRxJcd+xq/HpbnS5rUKu4+8gXL67iLyzIsy2v4EmUd7C8XBtypJ42KFDG+ePky5XyybZaLv2DhOHieL2vWx7HwZR5dtHDxwzq5gOLccvycK1JdSYFlfyLseCUaxcEiIUUj8HeB+jjcNlw2fr8yE2FCiPSF717Ed6VKlfz7mjRq1TIKIVKVAxKNCBzu+FJfUrBgQa+jIeWJO5KkayBIoruoiDBSfPjjSroT6VQ4aQic6I8s4oq0H9KYuFNJXQTrZXnSPhCn8XdvudAkhZMhyCxTvHhxXyfCNEon4wARR9wBpNCeGhH2kbQaUmMQmaTrsA7Sb6L1UL+BCESYIl4RjKRssb+IX74cuLvPXVQuKKN6EVJ52GfWxRyqEiVKeN0IwpN9Jz2HLms4iGyL5YoVK+bHilBkn7iDS00K6T2nn366pylRO8I6+Mmd36gWBBDCpPtwDGybFCjONXdrgW1yvJxT0r1Iz2KbbJsLdtKNeC9BolEcRBJWNAK/6zgI/F3jdy6v6oiFEMkH3+fc7OW6oGbNmn59ETmqQgiRiuRYNOK0IQqpVeFuPGKQCyzuylMIT+0DQgUnDiFE6gz1ETyPCIoaIiAucfpwznAqaSLA87yeWgjWi7hBmCImcdCYUYVwoysbYo7aDEQXF3c0DUAY4aZxF5ALvajLIH/YW7Zs6ek7CEkuVBF//B8Rxz7RNKFy5cq+bRoB4M4hGqlpRJghSBFpHA/7SNoOLiiPIzTpTMd2aOpAPcc///lPPx4EL/vDlwo1JryWbVFvw7JcONPxkHNKsC5ez1BlzjE1LqR7RR3mWIZzhmDl+Dgu1oEzyQBoalRwSji3nH+EPMfEughSaRDuCFtSbzmmmLMq0SgOFgktGnH0GTdAMxCCv2dCCAHcjKWGle9SrjvILIpuvgohRCqSI9H4yy+/PI7IoNaH4m9EGv+npgRhh0BDFJG2gcijHTr/p8aBFErqKqjX4P8U03NhhrDhrh1iCSGFQONOP04gDlzUlY70S4QQ7hiNCyj2px4GV5A/2mwft5GGMaS4ku6KqEIQRgX5pHiSfkaKKheruKBsH6FJOinLsw72gX2KGuHE71PU4h3ByXZIreVkIlIRtOwPgjISb2wL15ILUVxChCY/OW/U5nB+EIN0B+ScUYeDkEUII1BxDTlORDLiGyHLtqg74rxwt5PXRi4oTRcQkghf6mw4Hxw/DmbUPILzxXEhIlkPqasSjeIgktCikQwIfu/4/aBhCBkK3AQTQqQ39j3p1wbcJObGK9chlI8IIUQqs9+icdu2bcdv3rz5cdIxcQoRRQikCBw86v8QdLQ8R7AwtwtXC9cQ0YIw5HWkURYpUsTv0iHMEEJcmOFGkvbKnTxAHCHOWA53kXWSlkqTClw1Uk7ZHs+ToolDR6oo6Zw4cawLIYu4QixFkF4Spc9Sc0jaKKmknBDal+PqcWysJ140IvgQeixLo4K9U1JYL84iQgxxHNVDcREa1UUhIBHZ1CvilOLW4mbQHY+GCjxHIw7ayCPuELqRGGRfOFeIb9rTI3DZHxzYCEQ14ps7obyOLzXOOa/l/AHHzjEjWHEiEZwSjeIgktCiEfgd4aYPf6vIZuBmTvzvmRAi/eBGMd/dZCVxY5fvWCGESHVyJBrtAu9xnDZEIw4gDh3Q6IW7bwgUxA31d9TnIVyuuOKK8O9//9tbhxMXXHCBB+3VETIIIP7wItQQlojDqFMcLiDrRPSxTgQVopGZSLQXZz3x62T+GOtE8FEnSe0hwojH4kUjqSSIRZxLjgdnD8HJOqlFjJbf22nMTjTiONJkBheW7cY/x/nB4eSk42gi+EgnZXsM2ybNhRQ4BCJCFTGIgEagR7MicRTZF54ncB4R2py7+OY4uLyIadxO9od6Rv7PT46Jmk/2heVwOLkwRtxKNIqDSMKLRuD3hbpn0sn5e0cTK7XUFyI94aYw1wtcOHHNQCYU3XKFECLVyZFotIuox3HREI0M440u+LiQIt2SlukIImr3qL3jgouZWoggxAlNaXD/+GNLSiWiE1cR4RMNUkYc8ocYd450zaiBC49z0cb6uYjjMQQl62S7pHKyzqhjKSmgiDeEKIIrXjTirLE8zidOJQKQu4f8H2cScYYIzsppxAnkNQg6QLTRERVXlBRXxG18JzWexzVEUHPecGBZjv0ifRYnEGeSNwWnkn3GheQxxGe8aOS8sgyCkf8jzqmZjEBocr6j+k3EI04s+8s5wEGhLhXRyHFw/jjPEo3iIJIUopHfK9x5fj9xFvh7w+88KWpCiPSB702+//luJvuAEhtKTqLGe0IIkcrkSDSuXbv2cdIoqfUhfRKhGIHwwwWk7o7aOQQeopE7cgiteLhjR6MZUj1wvRBCiMbIaYz+GCPuEHMIRNaJg4iAY4Ax+8F6Ikj/xDEjorlPiEZcNsRV/L4i4BBWCFrEFQ4fwpfaQYQjy5MGmpXTiNgirRNBR8oajyOmeS6zTouIWC44ufCkFpTjBfYRxxCxTPpb5CrijnKhiujDdeXcRumpiETOLf/mvPC6+DlpnD+EL8KUJj3UekZOI+eALz9qMEghxjGVaBT5QFKIRiArgRs8NK0iHY3f8/jRPkKI1If+B1wHkCHE9yvXA0IIkS7st2i01xxvguNxXC5EE384ccKiVE/SNhCSOGk8jtOHsGrUqJGLSYQJRHV/PEezFv4Y4+ghNhFLuJTxopHlSE+lBg8XEfFFoxdGS0TpsYAQ4486z0edQxGN7BPdSeNFI2mbNOJhvXQmRXQhznBBEWsIOYQZ+8VrcTcRYIhDRBnHz3ZolkG6KcKWi8moc+veUKvIurnoxCFk34DXIiJ5IxDBHDcCEWeQY+Q8RkISkci+sF+cM84L54ttRyM2cGgZ2Mw5x1lE+OLU4gzjOMaLRtJho/RUiUZxkEka0Qj8vvH7x0geflf5HRRCpAdcszB6p3z58i4ayVJSYywhRDqRI9FowuJxRAyuH6KRhiukd+IoRk1uEI24XwggxA4OIqMneI5lcLcQMQgWBCKCheXoSEpKJo1c2AaikYs11o2zSUorO42QI1WTncfFZP0ITsQhDiRCEQeT9SKI2E9EHummEaRp4rwxIoTaQV6PCEVIIrhwIRF03E3ktTyP0KT+Mhq5Qb0mw/kRcnRRY8Avx4fAxBVkHxHFpKpyLkhfxfFDOLI+HD6Wo/EO2+S4cSkReohGRo0gXnkd4pHj5JwhjhHp/GSfOZfsL/vBvvJaXsf+I9wRkRwn+8U5QOSTEky6L+cMcYnIlmgUB5GkEo38LeJvAb+nZcuW9bplsgSEEKkNv/tcn3D9QtM6vofJkhJCiHQix6KRNE7usiGaaEjDPEFSt/ijSnopf1SjlEkEChdbiKwCBQqEs846yxvXIJwQjKyHtFLu3COgEKA4irh+/LFG+JEahsjCicPFwymL1skcR9Z53nnn+QUdbh+vZZ38YUfgIbTY13hXkvQy1odgo0kPw/TZp0j8Rg1mImGGS4c7ygUuziT7itNHXSCppaeccko47bTTfD00t+Hnueee6/WKHCcOIG4g6+KL56KLLvJts28cMwITB5PjZTn2t1atWn5OEcGcT0QuTirniveAc4to5ZzTbIjzwPlAfPMlx/O8yTicCHkcSc4B54/jp/aR40TYIrIlGsVBJKlEI5AtwO8ymQF16tTxG1Kk1gshUhP6EnDjmu/o6tWr+01Zvlu5NhFCiHQix6Lxvy8PLnAQaThZuGa4W5HLhZhBtAA1f/wfQYagjARSfO0fThwCDXeMlFQaxyCMEDe4ggi4mBvmy5NeyToRc6yTbbLO+DuAXNBxQYrAxL2LTydhPQglRCWvRZQyMzJKSWV7zHnE8aSGkFpK/s06OG6WwbXjCwXxhfNA+hodYNkfgn/ToIflENAE62FuIqKTtFFmT0brwhXEAeSYWQ4nEAHNvuNqsAw1lpyrCC5kcSIpymebiFIcUc45MN6DlFpSa3FJ2X++CBGOpMgihBGSLC/RKA4iSSca+ZvB7x43sbjhQ/YEdcH8DgohUg9u4NITgJvilIvQC0E3ioQQ6UiORSNCBOcMMRI1iyF9EuFFqiRiCCES36RGJD4SjeIgknSiMYL95QYYTbSYCcvfvviRN0KI5IYb1twgIjuHbCFKXLjBrCH+Qoh0JceiEYeQP6CkaTFgn6AFNbMGSe3EvaJ7KXfmRfIg0SgOIkkrGsmgwIEgk4CmGNQTk7KWWQMsIUTywcURjf0oWaFMhBIOHhNCiHRlv0WjiYq/WQwlPYN5iKSi0vyFVC3uulMfR3pp/HxCkTzYezvYfvw19nYLkZckrWiMQChSz8xNM7owc7NMwlGI5IYSDpruXXfddX5tQ+kHpSxCCJHOHHB6Khd7dAYlGIBNrR/pG6R2iORDTqM4iCS9aCQllXppOj5XqlTJ0/NJ11davhDJCV3JqVMmHZWZyvQe4LpGjW+EEOlOTpzGP1vUtHgsVcMEb0/74hgwc+bMt5599tmVo0aNWrJ27dqhmS2bglHDPhd/ir3dQuQlSS8aAWeRLsyMtGFEDt0VEY40mhJCJA84jIwS43f5qquu8vFbNKQTQgiRM6fxEBMWR9rPY1I17Ivj2Nq1a59z2mmntT7++ONf/cc//tG/fPnyl2a2bKpF7L09JPZ2C5GXpIRoBBxHhCMjf3AcmZdKx2UJRyESH/ve8w7I48aN86wBBvgzoopu4yq1EUKI/7LfojGN+IvFNRZ9LG61ONZCCJF7pIxohE2bNoXRo0d7HRRpbcxfpau0hKMQiU30u8vFEL+7ZAsw/ktp5kII8X9INGbNiRZlLK6zqGKh5jBC5C4pJRoBx5HZqvxRpasq6W3MR41mpgohEgd6L3ARRNOb66+/3lNSaWjFrGYhhBB7ItGYOaRnUtd3gsXJFn+3ONxCCJF7pJxoBNLc3nzzzXDTTTd5jSMdpidPnqyuqkIkGF988UUYPny4j9WgAzJNb0hJpdGfEEKIPZFoFELkFykpGoGUVAb+33bbbd6yv23btmHs2LFh3bp1sSWEEPkFDiN/c5544onQpEmTULdu3dC9e/ewdOnS2BJCCCH2RqJRCJFfpKxoBFJVcS2YXVu9enWvdXzhhRfC119/rZFEQuQTjM7g702PHj38hg7Nq4YOHeoXQ6phFEKIrJFozJxDLf5mcZFFSYuLLY62EELkHiktGoGujIzf6NatW2jYsKFfoPbp08c7q6oroxAHF2ZIT5gwwZtU1alTJ7Rs2TI899xzGtwvhBD7gERj5vzR4iyL+hZdLJpb0BhHCJF7pLxoBITjqlWrwqBBg0L9+vW9QQ4XrdOnT/eujXIdhchbSBdHGNLwpnnz5j4W5+abb3YBuX379thSQgghskOiMXNwGs+2aGXxnAXC8d8WQojcIy1EYwTCkfTUG264IZQsWdJT455++unw5ZdfxpYQQuQ23JRZtGhR6NSpUyhXrlyoWLFiuO+++8KUKVN8mL8QQoh9Q6Ixc+ieiki8weIVi54WiEghRO6RVqIRGL1BZ9VmzZqFIkWKeAOOJ598MixcuFBjOYTIZbjAmTRpUujcubMP7C9VqpQLRhreKD1cCCH2D4nGzMFpPNOitcUoix4WpKsKIXKPtBON8M0333hNY8+ePUO9evUCx89suKlTp2oshxC5BJ2KqVekARUp4dQvPv/88+GTTz7xdFUhhBD7h0Rj5lDTeJ7FTRbDLe6zON1CCJF7pKVojKDGihlxzHOk1pG0VVzHWbNmqc5KiBzC7MXx48eHrl27+sUNDahITWUEjn6vhBAi50g0Zg6i8T8WDS06WjS2+KeFECL3SGvRSK3Vjh07wvvvv+/dVatUqRLKlCkTbr/9dq+3oknOjz/+GFtaCJEdP/zwQ1i5cqW7iwzrp264cePG7i6uXr1aA/uFEOIAkWjMHGoaGbnBRW1hi3Mt/mwhhMg90lo0RiAelyxZEh5//HGvdbz66qv9j/Jjjz0WZs+e7RfDQoisWb9+fRg3bpx3JaZOuEaNGuG2224LI0eOdOdRCCHEgSPRKITILyQa46ARzowZM0LHjh39ordWrVqhQ4cO4ZVXXgkfffSRGuUIEQc3WzZs2OD1wYyzad26tdcuMgu1f//+Yfny5RrWL4QQuYhEoxAiv5Bo3AvSVZctWxZGjx7t4pFzU7p0aa97pOvqzp07Y0sKkd6sWbPGxSJD+klFRSz26tUrTJs2zcfbqDuqEELkLhKNmUN66rEWp1owauMkiyMshBC5h0RjFnDB+95777lwZK4c0a5duzBkyBB3Iz/77DNdFIu0g5sqjMvgBgrdh7l44aZK7dq1w8CBA725lBBCiLxBojFzaISDWKxl0caiugU1jkKI3EOiMRsYv8FFMHPmunfv7k4Ks+Zo8kGXVc6ZGuWIdIHOp++8847PWaxevXqoXLlyuPnmm8PgwYPD/PnzPVVVN1KEECLvkGjMnMMsLrZoa/G0xZ0WuI5CiNxDonEf4fzgMt54443uqtAVsn379p6eN336dO+0KkQq8umnn4axY8e6s9imTRufbcqIGup9X3/9dReLQggh8h6JxqzBaWS4P3MaGbtBiqoQIveQaNxHovEcNPdgpEDbtm3daeHcMaKDZjkrVqwIW7duVbdVkdTwWad2d8uWLT6OhrRTBvSTon3NNdeE+++/39NT6YqqIf1CCHHwkGjMGkRiM4uhFndbHGchhMg9JBpzwJdffunuIiM6br31Vk9bZYA5qXq9e/f2FD41zBHJCmKQmyAPPPCAi8UGDRr4Twb0c8NkwYIF4ZtvvoktLYQQ4mAh0bgnzGI82eICi5oW3S3esBhkUc3iUgtmNiIo/2QhhMg5Eo0HAM4jzXL69Onjf8RxHukkSfOcl19+2V0aUvuoBRMiUcFZ3LhxY/jwww/D22+/HZ566invFszfBUZo0ACKAf18ln/66afYq4QQQhxsJBr/jyMtilm0O/zwwwfaz6kWH1tstFht8e4hhxzymj33pP2bWsciFuqoKkTOkWg8QGiWQyfVmTNnhmHDhoV77rnHnccqVaq4Q9O5c2cfQfD111/HXiFEYkGzp5deesnrFZlPevXVV4frr78+PPzwwz56ZvHixX6hoiY3QgiRv0g0/uEP/7AoadHiqKOO6n/xxRe/W6lSpc3UTlBwz4UXqV8U3jNs257baMvMtGX72WuaW5Sw+LuFEGL/kGjMRUjZQzz27ds3NGvWzDtM8rfrtttuC4888oi7NbNmzfL0P3VdFfkFDvknn3wS3nrrLXcVqVGkwRPfrwSfV9JQcR7lLAohROKQ7qKRNNP6RxxxxIsnnXTSitKlS6+/9dZbt3PHnosvLmQZIEzwbx4bOnQo6TLbS5UqteHEE0/85LDDDhth66hrcSIrFELsMxKNuQzOI51UP/jgg/Daa6+Fbt26+c2vAgUKhBIlSngNJOJx4cKF7j4iHuXgiLwG8bd7926vx2XOKPW4jI4pWLBgKF68uItGGt5Qq4tzHn02hRBCJA7pKhoPtTjdooXF+MKFC3/FxVQkFtetW+d1FnvDY3zpRalgt9xyS7DXbrF1jLO4zuI0C9YthPh9JBrzEBydRYsW+Y2uO++805uJNG/e3IOLdBwenqOOTGMLRF6AWKSrL6MxEIp8Dlu2bOmfQT6PpKHS8IYbHIhF3cAQQojEJV1FI+Ku5Z///OfJBQoU+OHBBx8MS5cu9bv0mYnFvWEZlqXWgi+8Sy+99Htb11u2TkSo5jkKsW9INOYx/K3C4WEUB3+vEIkIxquuuiqUKVPGXUga57zwwgthzpw5fuFOUxIEpy7gxf7CCAw+a1xY8Ds9ZcoUdxCpV6xWrVq48sorPQX13nvvDePGjQsrV67071KloQohROKTjqKRrqe1LKYUL158GwODc1o7wWtIA+vRo0coWrToN7bOSRZ0XVVnVSF+H4nGgwgikKYjpAfSeIS/W+3bt3fnhxruqAFJr169wvjx48OqVavCr7/+Gnu1ENnz7bffurPNDQhcbPoA8LsdjYNhZMYTTzzhruK8efPC5s2bY68UQgiRDKSbaDziqKOOuvz4448fcMYZZ3zHFxsXRgcKd+e5W3/aaaftPO644544/PDDC7Kt/25SCJEFEo35CLWP7777bhgwYICnCzI8nWjcuLGnETLzEQGAW4QYQHDiIklICtxrHGka2jD2ZcKECWHIkCHe8RSBWLt2bXey+d3mxgQjYJYtWxa+//772BqEEEIkG+kmGk/+05/+dEeBAgUW33DDDX7HfV/SUX8P7uDT1p679JdddtniI4444nbbFk12hBBZI9GYz5CGSjdVUlep1UYk0mk1mpNXpEiRUKFChdC2bVt3iRCQiEfSEEV6QpdeMmwYwP/oo4/6BUTJkiW9oQ3uIjcc+vXr544iKc/8biMw9ZkRQojkJt1E4+UWo6pUqbKT9KuvvvoqdhoOnC1btoSxY8dSK7TTtvGyRQE2KITIEonGBGPnzp1hwYIF4cUXX/TsiSZNmrhrxM/WrVv7OATSDB977LHw7LPPhjfeeCO8//77Ye3ateGHH36IrUWkCghEGtkwqmXMmDFh0KBB7ibefffd3giO1GbST+vUqeM3Tflc4DoyiF8IIURqkU6i8Y8W1Q499NBZdG1bvXp1rqZZsS7SVJs2bRpsGzNtW1Ut1ElViKyRaExASD3cvn27p68iBkk/ZExH165d/cuCtMMrrriCmbWhRYsWLiJGjBgRZs+e7csjNBCfpCKyLjXUSXyoz8cJpCkN7jM3VEk9nTRpkgvFDh06+MxiGtngPtNIieY21L/S0Abnka7jvI7aRr3nQgiReqSLaES8nXjYYYfdeOqppy7hDvq2bdtipyD3oN6HL9dTTjll8eGHH36DbfNfFoewA0KIDEg0JgmksM6dOzeMHDky9OnTx91GxhRRv0Y31latWvkIBW6a4UDRZIdUV9L2ly9f7nP3ROKBuEPs4RZHdYmdO3cOlG9wYcBNAf7Ne4xIJPWUbuPUwbL8kiVL9N4KIUSakC6i8TCLAscdd9yDZcuW/ejJJ5/0u+G5DV+ezKIqU6bM/zv22GO72jYvi21bCJERicYkg4wKhAY33eg6jXDgb97tt98e6L5aoEABH9jOvxGSiMv+/fuHUaNGuYBcuHBh+Pjjj70uki8fnClcSRxJkfvwfpE2jHNMt1LmDDPmAiGPg/zWW295mjFppQhC0pDLlSvHGCk6godGjRp5J1TmEtMDgAwd1kcvADVEEkKI9CJdRCOdTMucdNJJAxo2bLiGCxhScHIbvpjpEmfbWH3iiSc+adssHdu2ECIjEo1JDCmNCBFq3hAg1DeSpkrDHJrpkHWBO4UDyUgP0lmZ1desWTN/DjGJc/n222/7+y/HKndBiPMFT+fbiRMnujjs3r27O8SkmpJiWqVKlVC3bl2vR6ReFYGIgHz66add6E+dOtVfj1jk+00IIUT6ki6i8UiLSqeffvozLVu23MDFDbUbuQ21HNx5ty/g9f/+97+H2TYrxrYthMiIRGMKghNFPRydVp955pnw0EMPecMU3Ec6sfJ+02WTxxAq9913X+jWrZuLTZYfPXp0ePPNN11Mzp8/3+vlcMdIo0RY8rc7nV0uxDo3PRHs1JByrkkTpVMpIo8mb8zhHDx4cOjbt6+ff0Q6HXAR8DQ2QjAyXoV/t2vXzserIBJZB+dZCCGE2Jt0Eo0VzzjjjKEtWrRYz5cqAi+3YZ2vv/46M8/+P9vWENtmhdi2hRAZkWhMUX788Ud3phi1gEvF+4tjhRBkVANOFuMa7rrrLheP0Vy/woULe1pk5cqVfV4krhg1dJQUkMVBYxaEJN056VhN85Z0EJCkg/L9whc2qaV0M+V77LnnnvutxpQxKXQxJb00/jxee+21vw3XRxziOHJzE4G4dOlSd4qpWeV8sg2lnQohhMiMdEpPLfXPf/6zv32pfk47+bxIT6XOh/Qs28aqf/3rX/1smyVj2xZCZESiMQ2hhpGaxnnz5nlK6/Dhw0PPnj1dQNJ0hWY6RPPmzb0uklEfiB4a7OBMUnvHsvfcc48LIZw0xNBTTz3lggjHjJt3OJ3vvvuui0zEUVRLiZNGZ1jq2hFJCM/cmNebFTiDuK985+CUIqQRaXTb5nPPjEzSexHUpJEy3xCnkDpC3FeaCj3wwAPh3nvv9VEXDMu/4447XFDjHiIWOW+kmJL6yxc6P0kNxsVlHQhuXEjOw/r169XdVAghxH6TLqKRZjQXHXPMMfcVK1ZsOXdm86oRDi3IixYt+uFRRx3VybZ5oQWjPoQQGZFoTFMQabiRiCmEG64kfz9JuVy1apU3zEH0IXYGDhzoNZKIJYQRNXikuV5++eXhggsuCBdffLEPlqdmslatWr/NlERYIZpwNEnTZHQEopI6SoQZKbA050FYImDZ5rJly8JHH33k7huiDpeUFFAayCA2+cKMDx7juTVr1rggJY2WdFHcQFJG6UpK11kE4eTJk93he/XVV30OJqKQLqR8ZyB8EYWkinKMuIPVq1cPZcuWddeQ47zooouCfX+FqlWr+vOIRV5DDeLQoUN9juLMmTO9QRH7RJMhvucQq6T0Io4RsHIShRBC5IR0EY2Mvfjb4Ycf3vyEE05YzMVHXohGvqS5UPn73/++8NBDD73Otnl8bNtCiIxINIpMQdggJBE/iLgFCxaE6dOnu4MY1etx8w9BiAuHOIx34ujmGjlxOG4ILIQkziWiDBeT+j6+/AhSYekUihhjWD2NYghqL+vVq/e7wXIEr+H1BOtjvYhYtoF7igPIGAtSciMXlX1jPxGMOKnsO04qdYiMh6I5DTMyaWJDp1qc2ajuE5GIU4lYxcFkNqYQQgiRF6SLaATEWyWLt+3C4FfuBudmig7r4sLXLhZ+tW1Mt6CeUQiRNRKN4oDBrUQwIZyom0RIkfZKmiqNdaiHxI1DXJLSiphErCEaEXfUU9LVlfo/6gFLlSrlzuUVV1zh40MYI8IIChxN3L7oZ/RvnmOZQoUK+eD7EiVKhNKlS7sbSnfSGjVquDuKiEQwkmrLzUUE4cMPP+ziFxeU0oaxY8d63SbuJI4hDiYOLA6hEEIIkZ+kk2iEiw855JBnypcv//Xzzz+fq13iqFHhDrBddHxt26Fz6kW+RSFEVkg0ilyDlFcEJA4lTV2o3SO1lHRXbhIiwqKUUdJRZ8+e7QKT+YPU+5E+ytxCBCdNZsaNG+dprAg5Uj8JUksJmvnwM3qcZVgeJ5QUVFxA6hNZJymwpKeSBkvzGWosEbekwvK5JxWW1FZcVcQvIlGzK4UQQiQa6SYa/3HUUUddf/7558/izi9f8NTVHCjUinDRQD2NrfvdI488soVt6+//3aQQIgskGoUQQgghkoB0E41/POKII87985///MgJJ5ywhToS7jwfSOoPopO7xtSlHH/88Zts3Q/bNs5hW//dpBAiCyQahRBCCCGSgHQTjUAnVeoNR1588cUbaJrAzCvSmvYXmg6Q3kR9ykUXXbTe1vmSRTkLCUYhfh+JRiGEEEKIJCAdRSOQOlrrkEMOeenMM8/ccsstt/xKZz5qYGj/nl2DHJ5jGZalDqZt27a/nnHGGZttXSNsnddYnMAGhBC/i0SjEEIIIUQSkK6iERCONSyGnXfeeWtplU4nO2oTGQKdWetyHuM5Gh8wV4tW6+eee+5qW8cQi6tj6xRC7BsSjUIIIYQQSUA6i0b4i0VFi97HHnvszEsvvfQjOxmbu3fv/gtzsOh6R7c7AleRx7p16/aLLbPpkksu+ejoo49+x17b04KU1GMthBD7jkSjEEIIIUQSkO6iEY6x+I9F5cMOO+zeM8888/VChQqtLF68+PfFihUL8cFj9tyntsxrtmwHew1zH3nt0RZCiP1DolEIIYQQIgmQaNwTLmIbWNxr0ddijMXGWPBvHkMs1rc410IIkXMkGoUQQgghkgCJxj2h6ynO498s/mlxlcV8i3mxf/PY8RY4i+qQKsSBIdEohBBCCJEESDRmD/MWZ1hMtyANVQiRe0g0CiGEEEIkARKN2XO5xbsWMy0K8oAQIteQaBRCCCGESAIkGrPnCotZFgjHwjwghMg1JBqFEEIIIZIAicbs4aL2bQtSVM/jASFEriHRKIQQQgiRBEg0Zo+cRiHyDolGIYQQQogkIFlF4xEWOH/1LBiB0TWPYojF2ljw78yWyY3gGOpaMMaDYxMiHZBoFFny448/hq1bt4Z169aFFStWhCVLloS5c+eG6dOnhzfffDOMGTMmvPTSS2H48OFh8ODB4cknnwx9+/YNPXv2DN26dQsPP/xwePDBB8MDDzwQOnfunCF4nOdZjuV5Ha9nPU8//bSvl/WznTfeeCNMmzYtzJkzJyxevDh88skn4Ysvvghff/112L17d2yPhRBCiNQlWUXjURYVLPpbLLL4LI9incUPseDfmS2TG7HQghmQ5Sw4NiHSAYnGNOWXX35xsfX999+HHTt2hG+++SZ89dVXYePGjWHt2rVh+fLlYfbs2S4OX375ZRdxvXr1cqF31113hTZt2oRmzZqFBg0ahBo1aoSrrroqlC1bNpQoUSIULlw4XHbZZeGiiy4K559/fjj33HPD2WefnSHOOeccf57lWL5QoUKhePHivh7Wx3pZP9u5+eabQ/v27UOXLl18PwYNGuSCcsKECWHWrFnhww8/DGvWrPH95zg4Ho7ru+++8+P8+eefY0cuhBBCJCfJ7DTiyuHO3W3RJY9isAUu4xqLp2OP5UVwDLUtGPFxuIUQ6YBEYxqCmPrss8/cNRw/fnx45pln3OW75557QuvWrUPjxo1Dw4YNQ5MmTVywXX/99eGGG24IN910k4vFdu3ahdtuuy3cfvvtLuTuvvvu0KFDh9CxY8fQqVOncN9994X777/f3UREHoHY3Dui51iO5Xkdr2c9rI/9QaDecccdvj22y/bZD/aH/WL/ov3lJ4+zPz169AjDhg0L48aNc3dy5cqVYdu2bbEzIIQQQiQfqmnMHuoYo5rGQjwghMg1JBpTlJ9++ils3749bNiwIaxatSp88MEHYcGCBWHq1KnuHA4cONDTQhF9LVu2DHXr1g0VK1YMxYoVc6ewZMmSoXr16uG6664Lt956qws7HD4cRxy+119/3dNF33vvvbB06VJPF8WhZHukjO7cuTP88MMPvh+4mpnx66+/+vMsx/KkwkZOJ+mwy5YtC/PmzfN0WMQt+00abO/evV1sIiQRjTiSpUqV8v1m/ytUqBDq1KnjohLByXEOGDDA93vKlCl+Hlg3wnn9+vUuJtkPIYQQIpGRaMweLmrVPVWIvEGiMQVBAOGsIepwEbt27RqaN28eqlatGsqVKxeqVKkS6tWr52IRtxCHr3v37uGJJ57w5UeNGuUiDYFF6mckshCGn3/+udc4bt682VNAv/3227Br165cT/9kfaSVsn62w/b4sly9erXvByL4/fff9xRahDBpqqNHj/Y6SGoiOR7cS46vVatWoX79+nscf9OmTV14Dh06NEyePNlFqmojhRBCJDISjdmj7qlC5B0SjUkOLh0NYRYtWhQmTpzobhquGu4aaZrUAiKQatasGSpXruzuIQ4cKaCIRITWjBkzvIZx06ZNSe+44WoiMPk8v/POO358nA+EMSIZV5LzwE++eEl1JQX2oYcecrHJ+XvrrbfCwoULvUaSmk8hhBAiEZBozB6JRiHyDonGJIOUTlw43D1SQefPnx9GjBjh6aM0jSE9k4YyNJIhdfPee+8Njz/+uLuHb7/9tqeSfvrpp7+lkpISSmpoqrlsdH7FpYxPecV9xTGdOXNmeOWVV1w0U0PZokULdyFJby1atKintiIycS2p++RLOnJTOf9CCCFEfiDRmD0SjULkHRKNScSWLVu8xg8BSPoljWFo/ELzGlIwEYnELbfc4iMsnnvuOU/dxEWkzlD8H6S8fvTRR14vieimcQ61m9E55HxybgnO86OPPuouJE11EKFCCCHEwUaiMXskGoXIOyQaExhSTxF7pJ9SV4hYJI0SUXPllVeGggULhkqVKrnYwTUjPfXjjz/2kRO4bLwexy2rRjTpDueF84OLyGgOzjW1jdRy0iiIJjo4tpdffrk3BuKLmjpIGvLg8JK+ymuUwiqEEOJgINGYPRKNQuQdEo0JCsKPJjTMI7zxxhtDtWrVvC6RVMqomylppy+88IKnnSIWScUUBw7dVGm2Qxor7iK1jlG3Vs5/rVq1/P2gRpLnqJ2kHlQIIYTISyQas0eiUYi8Q6IxQaBWjrRHuoLSmIYZg9TV0cSmdOnSXqvILELmKTJwnxo9cfCgY+ykSZNCnz59fH5liRIlfMwH/6ZulFEgpAJTM8kYD7m7QgghchuJxuyRaBQi75BoTBAYJUHaIy5i1OGTxjZ0QCVVkhEYzERktqDqE/MHnFxmXpKa+sYbb/jMSgTjtdde6+8X7mPbtm29RpL3SQghhMhNJBqzR6JRiLxDojEfwb2ifu6pp57yLp40XaFzJ+mPpKQyxJ7nGSEhEg9EJK5w//79Q5s2bULt2rU9aKKDmGTUB3WmcoWFEELkBhKN2SPRKETeIdF4kGEO4o4dO/x840hRI8eohyJFiniNHAIEoch4CLql0tBGJC400OF9wlmkEys1jnSzjUaf8OXO6A7SVrdv3570czCFEELkHxKN2SPRKETeIdF4EKHBCsKia9euXgtXv3790Lhx49C8eXNvtDJmzBhvaEM3T5F80ImV7qvjxo3z9/j6668PjRo18jRjft5///1eF6n0YiGEEDlBojF7EI2zLd6xuJgHhBC5hkRjHoOzRGdNGtyMHj063HXXXT6+4ZJLLvFauGeeecZdKNxHhseL5If3cefOnT4f8/nnn/dmRpdeemkoWrSod2ClI+vSpUu98RFCUwghhNgXJBqzp4gFonGGxXk8IITINSQa8xjSTKlto/MpMxURisz/i9JQmfWnTpupCR1xv/zyyzBt2jRPW23fvr07y3wOcJnpxIqzLIQQQuwLEo3ZU9ACwfiRxd0WdRSKHEYNi+IWp1gcZiEkGvME6twQA4hCRmQgGKlxu/rqq0OvXr3C4sWLw+7du2NLi3QAxxm3mdma11xzjX8eaHrUrVu38NZbb/nvH+6kEEIIkRUSjdlDSupEi+8sPrNYrlDkMJZajLVoanGchZBozHVoXDN37tzw4IMPehfUKlWqeGMUxAJD+OmkqZrF9IQbBTiP7777rnfMvemmmwK/ezVr1vR6Rx4nTVkIIYTIDInG7LnUYorFFotpFqMVihzGHIsvLQZbnGohJBpzDZwkahOHDh3q4xeqV6/uopGUxNdee83HawgRQT3jhAkTfDQHjiMuNCJy0KBBcqKFEEJkikRj9tAxlc6p8yyqWpysUOQwGlngOL5h8R8LIdF4wERNTxi8T6ohrlHFihVdALzyyis+DJ50VerbhIjn+++/95pWuq22a9fOax0Rjw899FCYPXu2d9vViA4hhBAREo3ZEzXCmW5xNg8IkUP4LC20mGpxLg8IicYDhfNG6il/xKlVY0B/v379vPmJhvKLfWHr1q2eukyzHG424FAzooNGOUuWLNENByGEEI5EY/ZEcxpnWlzOA0LkkAoWiyyokT2HB4REY07hQn/OnDnuLlauXDmUKFEi3HzzzT6HTw1NRE7AeWSOJ2M5GMtSoUIFn/c4c+bM8NVXX8WWEkIIka5INGaPhvuL3KKSBaLxLQuJxv8i0ZgDvvnmG69TbNWqlV/Y16tXL/Tu3dtTChGTQuSU7du3e6ozI1nousvnq3nz5mHkyJFhy5YtsaWEEEKkIxKN2SPRKHILicaMSDTuBwxi/+ijj8Kzzz7rHVE5bwhHBrivX78+tpQQB86mTZtcKOJe8zm7/vrrw5AhQ3xsxw8//BBbSgghRDoh0Zg9Eo0it5BozIhE4z7CAP6lS5eGRx55xJvd1K1b12cw0ulSqYMiL8C1/vDDD39zHenI26VLl7BgwQI1yBFCiDREojF7JBpFbiHRmBGJxn2ALpZvvvmm15pVq1bNm5TQ/EbnTBwMPv300/D000/7hQK/q4x0oeOqblYIIUR6IdGYPRKNIreQaMyIRGM20LWSeXrUL/JHunjx4qFZs2ZhzJgx/jjuoxB5DZ8z6hnHjx/v3Xn5HOI8jho1yi8g1F1VCCHSA4nG7JFoFLmFRGNGJBqzYcOGDT5svWrVqqFo0aK/OTzUmwlxsMFZjBxvhCPzQEld/eKLL2JLCCGESGUkGrNHolHkFhKNGZFozAScnc8//zwMHTrU0wEvueSScOONN4a5c+eqCYnIV3bv3h3ef/99F46XXXaZC8cBAwZ4CuvPP/8cW0oIIUQqItGYPRKNIreQaMyIRGMmrF271i/EK1Wq5PMXO3Xq5DMZv/vuu9gSQuQf3LigGQ4zHK+88spQrly50Ldv37Bq1arYEkIIIVIRicbskWgUuYVEY0YkGvcCh5EmN5wTLsgRjHSwFCLRWLFiRXjwwQdD2bJlQ+XKlUOvXr38MdU4CiFEaiLRmD0IxUg0FuIBIXKIRGNGJBrjWLNmTRg8eLBfgCMYe/ToET7++GONNxAJCemoK1euDP369XPhWKFChfDEE0+Ezz77LLaEEEKIVEKiMXsut5htgXAsyANC5BCJxoxINMag6c2TTz4ZrrrqqlCmTBlP/ZOQFskAwrFbt26hfPnyLhx79+4d1q1bF3tWCCFEqiDRmD2kp+IyzrRQeqo4ECQaMyLRaKxfvz4899xznpJapEgRF4y4NRqpIZIFXPLu3buHYsWKeS0uTZyozRVCCJE6SDRmzaEWFS1mWEy3qBB7TIicINGYkbQXjd9//30YOXJkqFKligtGahgXLVoUe1aI5GHZsmXhgQce+G0cx/Dhw8POnTtjzwohhEh2JBqzhgv7ey2i9NQOsceEyAkSjRlJa9G4a9euMGPGjNC8eXMfX3DzzTf7hbccRpGM8Ln96KOPwu233x4KFCgQGjVqFCZNmhS+/fbb2BJCCCGSGYnGzDnCornFGxY4jcQEi2YWh1sIsb9INGYkrUXj8uXL/QKbJiJt27YNU6ZMcSEpRLLy448/hrfffvu3zzU3QuScCyFEaiDRmJHjLcpYDLWYYtHV4kGLyRZDLEpZHGchxP4g0ZiRtBWNzLSj0ySNb3BkJk+eHHbs2BF7VojkBWcR4disWTOvb+zZs6eP4hBCCJHcSDTuySEWpS16Woy1uN/iUovLLDrHHuthUdKCZYXYVyQaM5KWonHbtm3hmWeecbHYtGnT8Oyzz4bNmzfHnhUi+dm6dWt46aWXQosWLUL9+vXDU089FbZs2RJ7VgghRDIi0fh//NHiLIv7LKZZPG5RwOKwWDB+4wkLnqPW8UwLXiPEviDRmJG0E43bt28Ps2bNCi1btgxVq1YNAwYM8M6TQqQaX375ZRg2bFi4+uqr/ebItGnTwjfffBN7VgghRLIh0fh/IALbWVC7+KpFHYu9qWeB2zjeoo3FGRZC7AsSjRlJO9E4d+7ccM899/h4jfbt23vjGyFSFdJS6QhcrVo1r3N85513wq+//hp7VgghRDIh0fhfjrRoYME8xvkWt1qcarE3p1ncbrHAguY4dS1omiPE7yHRmJG0Eo2kpfbo0SNcfvnloW7dul7HyMgNIVKV3bt3e31jkyZNvKNqly5dlKYqhBBJikTjfylmMchiucUwi4stsoL6xmctWHagRRELIX4PicaMpI1o/O6778LMmTO9jpGL50cffdTrvoRIdZjV2K9fv1CoUKFQp04d7xKs+Y1CCJF8SDT+4Q8nWdDkhlpFOqZebXGURVYcY1HTAnE51aKTxb8shMgOicaMpI1o5PgYfF6rVq1w5513hnfffTf2jBCpz/z588O9997rn/+OHTuGJUuWxJ4RQgiRLKS7aDzFgrTU1yyoVaSO8W8Wv8cJFvUtotdR63iyhRBZIdGYkbQQjbgqo0aN8rou/tgy0F8NQUQ6QQMo6nmvv/76UKVKFe8YzGNCCCGSh3QWjX+yQCTiLo6yoI5xfxrb0DiH+sbRFsxvrGVBbaQQmSHRmJGUF43UdC1evNibgVSsWDF07do1fPXVV7FnhUgfuHlCTS+/B7jtuI+7du2KPSuEECLRSVfRiGBkhAZjNaZbkGJ6ngWjNfYVluWil9RW1tHPoqAF6xZibyQaM5LyopG6RWbU1atXz8dsTJgwQd0jRdpCPeONN94Yateu7XWOmzZtij0jhBAi0UlX0Yi4e9iCOkZqExnWn1NKWzxjQX3jgxbMdhRibyQaM5LSovGXX34JH374YWjVqpXPZBw8eHBYu3atRKNIW7jgeP7550M0u/H9998PP//8c+xZIYQQiUw6ikZqFkkrXWIxxYLaxOMscspfLa61QIAutiDN9XgLIeKRaMxISotGRgu88soroXr16uHaa6/1mq4ff/wx9qwQ6cdPP/3kTXCaNWvms0pfeOEFdxt1I0UIIRKfdBONpI7SHZXh/UstcAbpnnqg0FDnEQvW+YpFNQvVN4p4JBozkrKikYtgarY6d+7sYwYefvjhsG7dutizQqQv3Ezp2bOnzyqlo+qcOXPkNgohRBKQbqLxEgvqGHEFu1kwn/FQiwPljxYlLLpbUN/Y3yK7WY8i/ZBozEjKisYffvghDBs2LDRs2DC0a9cuTJo0KezYsSP2rBDpy/fffx+mT58e2rdvHxo0aOA1v5rbKIQQiU86iUYa3bSzmGRBDWIpi+zmMe4vR1tQ3zjcYqLFLRbnWggBEo0ZSVnRuHHjxnDHHXeEkiVLhj59+oQNGzZ4ap4Q6Q6uIimpgwYNCldeeWVo06aN1/oKIYRIbNJFNP7D4kaLkRaIusYW1CLmNtQyNrF41oJttbb4u4UQEo0ZSUnRiDhcsGBBaNKkSShbtmx49dVXY88IISImTpzo4zfoLDxr1izV+wohRIKTDqIRcXiVxYsWOIDXW5xqkVecZtHKAkfzBYvKFgfSaEekBhKNGUlJ0UjtIg0+Gjdu7MPMZ8+eHXtGCBGxaNEiH79BCvfw4cPlNgohRIKT6qKRWYpcrD9tMcOCmsODccFOKuxjFmxzkEVFC+oeRfoi0ZiRlBSN7733XujYsaMLxieeeCKsXLky9owQImLNmjWeospImnvuuSe8++67sWeEEEIkIqkuGs+06G3xscVLFmUtDrfIa46wKGdBiirb7mXxbwuRvkg0ZiQlReNrr70W6tev7y7K1KlTwzfffBN7RggRQWOod955J9xyyy3eSfXll1+OPSOEECIRSWXRSC1hSwu6mc6xoKbxGIuDxbEWN1mwbfaBtFhmRIr0RKIxIyknGhnoP3DgwFC8ePFw2223uZuicQJCZITfFS5AOnToEIoVKxZ69+6tZlFCCJHApKpoJBWUlFDcRS7SGebPBerBhm3eYcE+UFNZ3kJpqumJRGNGUk404io++OCD4fLLLw9dunQJu3btij0jhNgbbqj06NHDf1+Y2bh58+bYM0IIIRKNVBSNpIZeYcGw/akWPSzL/ClwAAAqCklEQVS4OD0Yaal7wzYvtKC+kX15yKKwRX7si8hfJBozklKiEYH40UcfeX1WhQoVwpNPPhl7RgiRFcwzpYsqzvyyZct8xqkQQojEI9VEI4P6mY14v8VrFn0t6JxKQ5z8AoFYxYKB/+zTfRZnW7CvIn2QaMxISonGrVu3+hD/22+/PTRv3jyMHj06/Prrr7FnRcTu3bvDli1bwvr168O2bduyTUkkhfG7777zuX7Muvz2229jzyQOuGXbt28PX331lTvN3DzQ+77vvP766940ql27dmHChAn+2RBCCJF4pJpoPNmiqcUbFqMt/sfiBIv8hn242uJViwkWzIk8yUKkDxKNGUkp0fjll1+GZ555xoeVk2r39ttvx54R8fClM2LEiNCrV68wZcoUFwlZiazvv/8+fPDBB+Hpp58O/fv3D++//74LyUQCwThz5szw0ksv+U2Dzz//XHWs+wEzGu+///5w8803h8GDB4fVq1fHnhFCCJFIpJJo/IvF/1ogzCZbUMeYSI1naMzT3oI0VQRtI4uD2ZhH5C8SjRlJSNHIkPHINdofVqxYEbp16+YjBPr06ROWLl0ae0bEgyi4++67Q82aNcOAAQO8WVBWQhDxRYdNzmmDBg3CuHHjEk6Q8Tmh8+cDDzwQhg4d6inKYt9Zvnx5ePzxx8MNN9wQHnroIf+/EEKIxCNVRCOpnkUsXrb4xKKPxUUWicQhFpdakKbKPjL4v5CF0lTTA4nGjCSkaPz666/DxIkTw/jx49093Feox7rzzjtDs2bNwnPPPediSGTk448/dtFYu3bt8NRTT/lQ96xEI+mrjC1BUFx77bWeyphoopHUWd5v3GXmci5cuFBdQPcDfsdwaUlRvfXWW8OCBQtizwghhEgkUkU0/seCOsZ5FqR/VrdIxC6l1FZeY/GmxXsWHS3OshCpj0RjRhJSNOKEtW/fPlx99dXe1GbkyJFhyZIlv9ugY/78+aFFixahcePGLm6ocUxFcGEnT54cHnnkkXDfffd5aiHjEt566y2vU4wHgcd7i6jCRSLFdMiQIZ7Ci7h+9tln9xDmiMTp06eHxx57zNeNA0XKIjMvObdsIyvRSO3jJ5984oIfEcK62Vb8flFvOG/ePG9SxH7T6ZZ9i//8IWC5ccBNAAbO4yBHIpB0WW4GLF682FNlSZ3lXJBaWbp06cBn+dFHH/XnWRbYX7bZs2dPPyYcSbbJ+qnvjGfVqlW+3+wby3bv3j28+uqrnvKaqvCe8x7xeeBiREP+hRAiMUkF0XikxXUW1DGOsiDtM5HrBU+xaGLxigUCl39zDCK1kWjMSEKKxs8++yw0adIkHHPMMeHYY48NRYoUcRdp2rRpYePGjd6MJTNnjNqsOnXqeBrljBkzUm7cBuIHwUjd3k033RQuvPDCcPbZZ4czzzwzXHLJJe4GIqB27tzpNYoILUQQKahVq1YN559/fqhcuXJo3bp1uOaaa/w8IZAQdCyPyCIVlS6arO+ss85y4Y6A5/1ANLLtrEQjjh9isWnTpr493ot69eqFhx9+2FMeEf2Iua5du4YSJUr4fp977rku9Jit+cUXX/g+E59++qmnmiLcEG3RDQOOH+cTR7Fv375+QwG3lG65xx9/fPjHP/7hg+pJo0UMkeqM6EQwX3bZZX6+CLbJ6xG5bI/PE7WdpLlyzBw7y1166aXhuuuuC2PHjvWbEFk5sskM52j27Nl+IULKMudXCCFE4pHsovE4C+YxPm0x0YI6xhMtSAVNVNg3RC31jZMsnrKoYEFNpkhdJBozkpCikS6dXOQjKGz/wqGHHhrOO++8UKNGDRcwuERc7O8NQhFRhGggxS6VOmhyLLhviMI77rgjNGzY0FMJceoQ1KSO4rAihHgvEVk4tpwrRCLPc+4QW507d/Zh7oULF/b/I5YQmjQOQqQh+hCgnTp18veBbrQIKZyo7EQj4pPtlypVykUcbh0uJfuMm4nbhwvIelq2bOn7zboRpDiFL7zwgotcxD4ptLinOJwIW1xMQJjiIuMWEnT7RORwTsqVK+efERxFXEREMOciqtfjPHC+SGFmm9RpIkz5LDGfkJsSHD/b7Nixoy/LeukqikPL/iNEUxHOV6NGjUL58uXDm2++GXtUCCFEIpGsohHhdZRFaYvHLRhlQXoqNYLJAjWYXSzGWVDnWMqCY0pkwStyDqNfllrgiNPlV/zhD6dZvMaFdqLV/3Gxj7jB8bF9/C3+8pe/+IUt4oOL/JUrV/7WMAfRU6ZMmVCrVq3w4Ycf+mOpAg4XggkHDWFD2md8+i3CifPFc5wXHDlcw7vuustdScQjr0d8sixOYMGCBV3kIZjWrVvnwqh+/fq+HtI+Sd3kc4FTiWtIzVt2ohEXmPVVqlTJRSDCHRcLcIfpbIvYxcnEFUbYsk+IRUQkKbMIFt5PnEa2i8DDvYxSTRG4pFKSmksKLc4lj+EEIiI5L7iauIc7duwIr7zyym8CNWqQw3FRL4uIJhCePIeARkjiXkbHyDnmc4XbSdom5zUV4feI94abCYhyIYQQiUeyikYG+F9s0clihgVuHYLxaItkgc6pV1gMtphu0cGC5j0cm0g9EI3LLKhnJUVZ/OEPp1uMq169ekK22X/jjTdC0aJF9xCNxHHHHecuZNmyZV1ojBkzxoUGjlbx4sU99RLRkUpE6aOkcCKIcWPjoVMsgg3BR00hIhChgxuJuKImNIL6PMQlziSD3WmEg9tG/V7URChK7UU8IZpwBDnXnGMEWWawTwgvGuzgUpJmHIGwo46RL7tIqEbgcnXo0MFFC6KP/cFpJO0U0UvKaLxo5Pi4aRA5irh/iE065z7//PO/jdzgJ9tE7NJNN94lxNEkJRYBO3z48LBo0SJfBoGJAI0HwcsXNaI41VKeIzjnpCsXKFDAf5+EEEIkHskqGknlrGUxyIIupIzayM8B/jkFgUg95osWCF+a5ChNNTXBFZ9l8f8sOlvcoPDzsOziiy92l4ZZfIkQpDTiSiEkohTVrII6NpxF0gwRTCxPemoqd05FnOEikrbJuUKoca4QRzhqpOkimBBguIwIQ8RmlK6L8OJ8Iexw1RBouIKkorI8Lly0LD9x4XD2EFi/JxrZH4Rnjx49fnsPcElxspgLyT6y3wixCAQkKaTUDiLyqEHELRw0aFAG0Rg1AULgIhpxGnk9QqdLly7++WF/o9RUxCU3RUjPRTyzf5wX9g+ByGeHNFjEJ+ul/pJjZX9YF04lgjxVxWIEFyKIRv4WcMxCCCESj2QVjcxfbGBxnwWD8umemqxQ30YzHI6FY0qk2ZIi97jQYqDFSovPLVYo/rDa4tujjz46nHHGGS64EiUuuOACb5Ry1FFH7SESM4tTTjnF0yepZ/z73//uAmF/RnUkEziIOIG4clzgc67OOeccf/9o9HLLLbd46iciDUeP2j0cu3jRiMhCOEWiEYFG6iXCs3nz5u60RQ1f+In4QkxlJxpZNzWNCFRqAhF/pJ4CKaq4o4hS3E22TepoBA4gIpaaQ4QiLnEkGhkNwj5m5TRmJRpJfUV80nSH83LiiSd6YxvOF/WxnDOCVGcEIgJ3+/btfnwcJ6m7PI+bzX7j1EbnLxXhvUM0XnTRRWH06NGxR4UQQiQSySoaSUMtaFHC4lSLZHQZI9h3jqGkBceUTCm2Yt853qKyBWNWEI+kJad7jLZYe9ppp3mXS+q5EiFoWkIqJGmOJ5988h4Cce/44x//6N1VEUC89vTTT/e6PERSKkG6JRf21N/RnAU3lS+O6Jzx/pGWizOHC0lqKA4kIhCRFi+icetwcmlUM2rUKBeFc+fO9ZRV3DfqJuOdRpxIRNq+iEZSPalnRPDRuAdYnnVE6a8sE+80UjfI8nRnpY4xchpxBXFOcb6i0RgIUUQtrnKUdpud00jKKk18qlWr5i5n9PmiuQ3rQOQy1zHqzoqYfe211zwdN1qWfUDU4sam6hgXiUYhhEh8klU00iwGsZWIsxhzCsfCMakRTmoSfWb/ZHGswoM65Ik4dFwQc8GcCIHjw8U5QuCKK67YQyQSRx55pNc1IhDZdxw13CnEBR1BSTmMr6dLBUiPZC4hKZ6kkCIIEYKIKUQTzUsQTQRzFnmOi38ayVC7h2iLwK1EcLEeagCp70Ng4dzxGOcxamCD08j8S4RT27Ztf1c0IkZZB9vEFYxgf9hnhCECMWpeBLiidCqleyeuKKm17A8OIM4pjXKibVJ7h7BEmCIIadjD8VO/SYo1IpD1RR1Yo2Y6CFD2gePinLF9vnx5DBFNd1Y+e3zu+DcinWXZD5xdHEvWnYi1v7kB5wHRiCvLuRRCCJF4JKtoFEIkP4zHGYNDxR+iRIKLdy70mRdo+7hH4IbgiCFC6OaJ6AEctiuvvNIdN9ymVAInjLRTxAvpn9T5RSDYEDacE9I5OQ+4fO+9956nleLC4lBGQpAbBLixdMqkYyoNXqhHxE2LBGn0eSB1dMSIES7osuuemploRMxFRG4i22WcRSRiWRfpprwGFxKhi4iLZivyXlJzGI3cIM2VY+RxhCaiju3wOs4NIjgSdqwHwYnAZB2IwgieY7s8Tw0o4hOHkU6tHEcEjijOJnWOHFuq1sryO0TKMzdpOA9CCCESD4lGIUR+cZ6Fz2lMJJGFwMDVod7sT3/6k/9xpFYRsci+klY4c+bMPVIcAYeN+YDUN1Lrlkog+BBaOHGIQ7qiIhwRPKSTUo9IOi91gQhE3Fq+XBBBuHUsTwMalsfBY7g+g+txLhFdpHMiNnHrWBaRhdPLNhB5nHca1SC0snIa2R7poaTE9uvXz8VoBKKXURmkuPI8LiGOFvvE2AtSQdkm6aYcKyKWukjSSqlRJcWWfSe1leOnuQ3ptTSw4fPCMbNu0k4RjqQns80o7ZY0UxxpRC8iEEHKekjnZT8Q0ohaBCZNcliOQDBzvhCMc+bM+S3lNtUgHZgbA4ysoWuxEEKIxEOiUQiRXyTkcH+cIlwtGvTY/oVTTz3VL2hxHnHPcEUi5ykehCQzJ3GzcOUiZy0VIE2UAfzMYMSVYzQCLizCmvpP6gVJTUXw4TqSfsnx48zhkjH4ntcgtng9DWkQaogivoRw/BBfpLnyOGmKrJ/aSZw9xCi1lAi3zM5rJBoRd4gxhFa8aOR56hEZjYGwYzQKjXzYRsWKFV3EIfQ5RiC9lPcaUUfNKssyW5JjZX+oOUR48ho+CyzLfl944YXuQtIBFuGMU0qTH5a//PLLfztvrJP9JBUXgYkY5DNDGi7CieUIbkIgaknL5fxkJpiTHd57UpBpmsTfAo5VCCFE4iHRKITILxJSNFKPiADACUPkIIYQG/E1cpmBcODCF4GJqxWfjpgqUI/44osvuoirWbOmiz9qEXEJccJI00TYReILN5bnSFGlWQ6OG3V+iCXEAeMkSNWMQEDhqvGlxLm/55573InDncPRpHY0q/RUhCoCDdGK64to2xvEGQ4mjh7rxxXGCWQfo2Y3EbwekYyLinjlRgLptLiKOJ7sPzcY2B++SEmvpWYSkcf2o3OAi0rKJU4pTXHYLtvHhcXRjEBg4i7iWLIcwXnmfEQp0KkIn5GpU6f6+SFFlbmcQgghEg+JRiFEfpGQohGHCuFBbR1CEFETjVzIDlwnXCwufhEECKxUA4EUpZ5SX0djGMQ05wd3DqGMCIhGZgDP4fKxLA1PEG4IKh5HqMWLQP6NeGI5BBmiKlongcuIQMwMtsk62T/cv/h9iIdts/+sn2Ng36LupXuz977zWWA/WD8RuZ7sN6KV95x9Zhvx2+f/0TERbJ/9jD8W/s06qWmMlmN9rDcVHcYIzhc3ERDcuND8zgkhhEg8JBqFEPlFQopGhAIdNBEK+wM1f9TkkXZIPVyqNcMRIi+g6RC1qLj7uL7UiQohhEg8JBqFEPlFQorGnIJrRddO3BLE4+zZs2PPCCGygnpGuuzye0MtKiNLhBBCJB4SjUKI/CKlRCNdQKldoxkMNWs0dckqlVII8V+oD2UGJ112qYmNr/MUQgiROEg0CiHyi5QSjdSjLVy40Dtu0uyETp5CiOyhgy5dh7nZQj1j1EBICCFEYiHRKITIL1JKNNL4hCY6zO9jSDmjJrJqxiKE+C/Mr+T3hZstNAvS74wQQiQmEo1CiPwipUQj0E2zT58+oVChQj56gZRVpagKkRF+L+gMy00WZlhykyWrLrZCCCHyn3QXjX+0ONLiKIs/xf6fG7Ae1nmMxZ8tDrMQQuxJyolGePnllwMz9qhrnDdvno9oEELsCV2KFy1a5HMp+RswfPjw2DNCCCESkXQWjYdYnGhRyqK+RSWLf1nkBv+0qGBRz6K0xUkWQog9SUnRyHBymnowQoB5jwysF0LsCfMomWd64403+g2WyZMnx54RQgiRiKS70/gfi9YWAy3utbjAIjc42aKmRUuLqhanWwgh9iQlReOnn34annrqqdC0adNw5513enMcIcSefPjhh6FDhw5+AcKoDeacCiGESFzSXTSeY9HGYphFF4uLLHIDUlJPs0CUIiCPthBC7ElKika6qOI2XnvttaFKlSrhjTfeiD0jhIjgd4Q07rp164ZJkyYpjVsIIRKcZBeNx1oUtiAN9PpYNLQoavF3C1JQ4znV4mqLFhakpLJse4snYz/PszjO4iyLsy0QlcUtWP91FldZ8PgJFgjMOhbNLapbsOzhFkB9JGLxTAtSXvk/NY6s92KLCy3KWfBa9oX1F7I43kKIdCElRSOsXr3ah5UXL148DBo0KGzfvl1dIYUwaICzY8cOH7VRsmTJ0Lx587BixYrYs0IIIRKVZBWNiEGazRSxeNhipsWKWCy06G9BjSKNaCIQkY0tJlqw3BSLARa9LQZZtLPAGUQ4NrW42QIXsrsFy35oMc7iFosqsZ+TLFjXZIubLBClQA1jLQse+5/Y/0+xYPudLO6yGGLxsQWvX2DBfpS1QFwKkQ6krGhk1hxdVJnXeO+994b58+d74w8h0p1du3Z5A5wHHnjAfz+6desWtm7dGntWCCFEopKsohFH7kqLeywGW4yweMaCNNM3LcZbdLBAAOL+IdpwFRFqCLyXLRBpvSyetXjRoq0FTuBlFgg71sm6EaXdLF6y4LVjLPpY3G/RN/Z/HkeoVrb4q8W/LRCMPS1wE1kvcYfFKIvnLJ62YBts+12L6Rb3WZxrkVtdXIVIZFJWNOIqTps2zTtDNmrUKDz55JNhy5YtsWeFSF+2bdsWhgwZEpo0aeINoyZOnOijaoQQQiQ2ySoaSf38X4sHLBBlpHzi0FFLiAuIIHvcoozFXyxwJPn/6xY4hKSNIiRrWDxhMdKCxxF2pI7SFAfhicikkQ1CkAtctveOxWgLRCgNbhCZiEHWj1Bk3dQzsl8PWTSxQEQSCFNeO9SC1+NMsuyNFm9YIHzZ5yMshEh1UlY0Al1Thw4d6m4KnVQ/+OADzWwUaQ2ffxpFIRarVasWBg4c6Knc+r0QQojEJ1lFI7WMiDXEIOMt4kGE4Q7i/FW0YKxGeQvEIWKSERgRpKMi9OieepsFdYnUKpI+igP4oAUiEg61aGWBs4iDeKkFsC/UNuJGsg6cQsQgNZCIzEYWZ1ggJkl3HW7Beq+wiGDsBwKV/aPWkRpIIVKdlBaNu3fvDu+99543xOEYR48eHb766itdIIu0hWH+EyZMCDVr1gx16tQJ77zzjqerCiGESHySvRHO3yxohMNMRGoYCUQgwozUU2oEaVxD8xuEJOmfkdgD6hxxJh+1uN2CdFaexzmMUksRfICTyf+pg0Q8RmIVUXqNBemq1EEiPDMTjbiYuJmIWRr2sFwEApLaSaKkBY6pEKlOSotGYBbdI4884hfJd911V5g1a5ZEo0hbFixYEDp16hRq1KgROnfuHNauXRt7RgghRKKTzKIREUfXUmoE37dYHIuPLGhaQ7ooriJOIQ1oEIGknZLKGoHopA7xEYtINOJg4hh2tkAMIgqBpjqIRhxLRB+CE6KmN78nGhGvNNt5zAJnkhTbCEQjwpWQaBTpQsqLxh9++CFMnz49tG3b1t3Gfv36+UgOIdKNn376KTz99NOBMRs33HCD1zJqzIYQQiQPySoaqTHEVUQIzrCgiQw1gdQh8v+5Fv0sItGIcGPZjhZ7i0bWgwu5t2hEYNL5NHIUSUNlPAaprK0tIjGJ+KttgcjcF9GIm0gt5T8sIopZ9LCQ0yjSiZQXjTTE2bx5cxg8eHCoUKGC1zYuXbrUxaQQ6QIpqJ988onXMpYrVy70798/bNiwQWNohBAiiUhW0XiBBXWBz1sgxEhRjYQZrh/CLkpP5XHmKyIMEXEFLCIQhAg4BNveohGBWc2COYuQW6KRbdW0iK/FlGgU6UjKi0YgHZXaRtxG6rgYxbF8+fLYs0KkPsxhHDBgQKhfv35o3bq11zJKMAohRHKRrKIRkUgHUlJTcQrj4f/UNNJUhgY4iD2WR5A9FXssgqY3jO2ga2nUCCcSjYzdoBYyL0Qjaa/RekGiUaQjaSEa4euvvw6vvvqqi8ayZcu68yi3UaQDpKW+8MILoWLFit5J+MUXX3T3XQghRHKRrKKRi03GWTA7kU6niC4EID8RgcxNpPspTW6Y08hoDJrbMJMRMchYC5alRpHB/ozBQCjSTbWgRXsLBB+OYCQOGd1xgwVilS6o1DICQ/vrWbA/iEK6p9LBlbpHaiWbWjBug3WzD8x4pKYxWi+UsOBxZkcyf1KiUaQDaSMaYd26deGee+4JF1xwQWjRokVYvHhx+Pnnn2PPCpF64Cbyu43Lzuee9NTPP/889qwQQohkIllFI7WIuHsIuHkWDMefYoFT18UCwYgYpFEODiEijPEcpKjOtJhjwWtwGEljxT2ksynCrpAFwhMRSKprJA4RjcxTRHgiDnEYAVexgUV8B1ZEKh1W2Z9mFozbwIFE4NKgB5EZrRcYucHjdFZF0NLkR4hUJ61EIxfQjBtgqHmVKlVCjx49wpo1a2LPCpF6ULdI/SLNbxo0aOBjZ3AehRBCJB/JKhqZmYh7hzAbZ4FwnG2BYMTFIzUUh6+oBU1z4EgLahupg3zPgtfgBCI+GbSPK4mQI42UddBxFTfyeAtAyLHMrRakrSJc4QQLRN//WlAfifNIkxu6srIPpMOSiorIRISyz6SgRusFajR5vKUFjin7KkSqk1aiEbiIHjNmjM9urF27dhg1alTYunVr7FkhUodt27aF8ePHex1j3bp1w0svvRS+/PLL2LNCCCGSjWQVjUDaKSLvcgtEG0IMNw/BRpMZhBruIMtFICCZw8jyBKmkjM7gNYjAIyxwJfl/9PrDLAChikDEWeQ10Xr5yXpJN+VxBB+PsT4eQxyyXh5nvYjH4yyi9cLRFjxO8G+2JUSqk3aiEbeRP7q4jMyqa9eunUYPiJQjGjXTvn17r2Ps2rVrWL16tdKxhRAiiUlm0SiESG7STjRGMOSc4eakqSIcFy5cGH788cfYs0IkL6SffvDBBy4Y+XxTxztnzhwJRiGESHIkGoUQ+UXaikYE4syZM/2PL/Mbu3XrFpYtW+bjOYRIZj766KPQu3fvUKlSpdCwYcMwefLksHv37tizQgghkhWJRiFEfpG2ohGo+WIUQc2aNUPJkiXDQw89pJovkdRQs/vYY4+F0qVLB36vhw0bFrZs2RJ7VgghRDIj0SiEyC/SWjTCpk2bvLtkkSJFQrly5Xx+49q1a2PPCpE8MFLm2WefDZUrVw6FCxcO3bt39wsMIYQQqYFEoxAiv0h70Qgc+4MPPuhuIwPQhwwZoo6qIqnYsWNHeP75572GsVixYuH+++8PS5YsiT0rhBAiFZBoFELkFxKNBh1VqQPr0KGDO47XXHONX4CvX78+toQQicvmzZvDyJEjQ7169cIVV1wRbr/9dq/PVeMbIYRILSQahRD5hURjDBrj0FH1vvvuc8eRMQXMtfv6669jSwiReFCXO3bs2FCrVq1QvHjxcPfdd3unVDW+EUKI1EOiUQiRX0g0xoFwfP/998Odd97pwhHHkVRV1YWJRASH8bnnnnOHsUSJEj46BsG4a9eu2BJCCCFSCYlGIUR+IdG4F1xwIxw7duwYihYtGqpWreodKGmOo3Q/kQiQTk3TGzr/1qhRw1NSmck4d+7c8P3338eWEkIIkWpINAoh8guJxkxAOM6bN8+FIw4O4wseffTRsHLlytgSQuQfa9as8TmM5cuX9xsbCMZZs2ZJMAohRIoj0SiEyC8kGrMAV3H58uWhU6dOoVChQqFMmTKhZ8+eYdGiReG7776LLSXEwQNRSIMbRsTQ5bdAgQKeSr148WJPrRZCCJHaSDQKIfILicZs4EKci/RevXqFq666yh3He+65x9MA1WhEHEx++uknT5tmlAbzRBGNuN8LFy5UDaMQQqQJEo1CiPxConEf+OKLL8LAgQNDnTp1vMaRdMDx48drJIc4KGzatClMnDjRR8JUq1Yt1KxZM/Tr1y+sWrUqtoQQQoh0QKJRCJFfSDTuA7/++qt3qpwwYUJo27atu44tWrQIL7/8sj+uBjkiL6DhzTfffBPGjBkTWrduHSpXruw/+f/GjRv9eSGEEOmDRKMQIr+QaNwPduzYEaZOnRo6d+4cGjRoEK699lpPEZwxY0b49ttvY0sJceBQv/juu+96HW3jxo19rAaNmd56662wdevW2FJCCCHSCYlGIUR+IdG4n+DufPbZZ2HAgAE+UJ0OlriPr7/+uo/lUK2jOBCoo/3yyy9dHN5+++2hQoUKoXr16qFv377h448/lqsthBBpjESjECK/kGjMIQjHESNGhJtvvjmULVvWa80eeeSRsGTJktgSQuw/dOx97LHHfP4iHXtbtWoVhg8fHj755BOlowohRJoj0SiEyC8kGg8AUlLffvvt3xwhLvS7du3qTUu4yNdoDrEv/PDDD+HTTz/11GduPNSuXds7pOJgT5o0ydOihRBCCIlGIUR+IdF4gOzcudMFIk1xbr311sC5JG0V8choDp4XIiuoXWSUBrWxdevW9e68t9xyi7vY/E5u3749tqQQQoh0R6JRCJFfSDTmEojDKVOmhE6dOrlTRB0aqatPPfVUmD9/vi7+xR7gUjNjcciQIS4Scam52cAcUOoZt23bFltSCCGE+C8SjUKI/EKiMRchzfDzzz8Pr776qgtGUlZxjhCSjOugUQ7OEiM8RHrCZ2TdunWedtqlSxe/uUAqKrWLuNUrV670z4gQQgixNxKNQoj8QqIxD9iyZUuYNm1aeOKJJ9xFqlOnTrj66qu9Rg1hgHgU6QdikRsKt912mzuL11xzTWjTpo0P6kdEMntRCCGEyAqJRiFEfiHRmIfs2rXL6xpxGkuXLh2KFi0aWrRo4WISUYmrpDTE1IYmNqtWrfKGSQMHDgw33HBDKFasWChVqlRo3759mDlzphomCSGE2CckGoUQ+YVEYx6DIFi6dGl45ZVXvNlJy5YtfUQHcccdd3j9mhym1ATHmTrXu+++2+d5cuOgefPm4aGHHgojR44MixYtUmdUIYQQ+4xEoxAiv5BoPIh88cUX4YUXXghNmzZ1p4nZjqSsdu/ePYwaNcq7aG7YsEHz+JKYTZs2hcWLF/tNAuYttmvXzusWS5YsGRo1ahSeeeYZr3sVQggh9heJRiFEfiHReBChAQ7u04cffhjGjx/vYrFevXrh8ssv90Hud911Vxg9enT4+OOP1QwlyYhmLY4dOzbce++97izyvtIRldmLPL5s2bKwefNm3RQQQgiRIyQahRD5hURjPoFwQDwOGjTI3caGDRuGxo0bh2bNmvm8x969e4cxY8aEJUuWqOYtQaFmlffwtddeC3379g233367p582adLE30866D755JP+Hv7444+xVwkhhBA5Q6JRCJFfSDTmIz///LPP6yOlcc6cOd5FE+FI7RtO1XXXXecpjpMnT3YXi+Wogdu9e3dsDeJgwnnn/OMWfvbZZ2H69OkuFmluxHiVK6+8MjRo0CD06tUrvPvuu55qzPvL+yyEEEIcKBKNQoj8QqIxQcCJ4j0YN25cGDBgQOjYsWO48cYb/cuB0QyIERqqUBO5YMECNVA5yCD+aFzDyBTeG5xE3hdcRTqidujQITz++OOehvrBBx+4CymEEELkJhKNQoj8QqIxAcGZwlkkPbVz586B94f6ONys1q1bh4cfftjFI2McFi5c6K4XLiR1deLAQfDhJjIqA6HIWIwXX3zRu9/edNNNoXLlyv5+XHXVVS4gaWJEHapSUIUQQuQlEo1CiPxCojFBoeYRIcj7Qhrk888/H3r06OF1c3ThrFixoqewXnvttS4iES507dTcxwNj+/bt7hQyhL9bt26eLoxYJ3AXqTelgdGzzz7r4zSoaWRkyk8//RRbgxBCCJE3SDQKIfILicYkgc6rOIqvv/661zlSR8f7xjgHah8Z7YDrhaAZPHiwp0nikCFq+JJRN9Y9wU1cv369f+6pPyQteMiQIS7MO3Xq5OKQpjY1atTw80yDIkQk7u+KFSvUAVUIIcRBR6JRCJFfSDQmEaSt4oTRYGXlypVh7ty5Pg+QxiuIxquvvjoUKlQoFC5c2MUOXVl5DheSZdeuXeuvRzDR1AV3jHUiSFMRjgtxx3FyvBw3taDMy5w/f76fuz59+rhAZDTGFVdc4WmnVatW9XOHOOfc0aSI8815x8mVqyiEECI/kGgUQuQXEo1JzjfffOMjHZj7SCMWZgQy6oHmLK1atfIaSBrq8H9+3nnnne6Y4UYyKgI3knTMdevWpcxoD1xVvliXL1++h4uIC8ssTOoSOR+cG4LzxP95nIY2dETlNdQzfv3117G1CiGEEPmLRKMQIr+QaEwBIjcNJw3BhADEHXvppZdcKOGa4ULiQBYsWDCULVs21KtXL7Rp0yZ06dIl9O/fP4wYMSK8+eab7kgitkiFXbNmja8Lh23Lli1h69at7lTSSZTtRG5lXqVqxruEbI/tsn32g/2hlpD9Yz/ZXz7D8+bNCxMnTvTGNYhojo/jr1+//m8D9zkPuImIRJrbcOyISxxItsN5zMvjEkIIIXKCRKMQIr+QaExRED9ffvllWLZsmXdZpbHLsGHD3EV76KGHvG7vjjvucFfy+uuv9+Y6derU8RpJUlsZ8YEziXOJMzlw4EAXVzhwU6dOdXG5dOlS7/LKdhBxO3fudIF3INCBlPV89dVXLghJC+UY3nvvvTBt2jTfPp1jn3rqKa8/pI4T8UeTmpo1a/r+165d24+Huk+e4zhZjuMmHZXzMHr06DBjxgx3aUnbRZAKIYQQiYxEoxAiv5BoTDNw0HDUmPVIUx3SVOm+Sk0kwotxEiVLlgylSpXykRIIMDqItmzZMtxyyy2e3nnfffe5AEO09evXz+dKsp7hw4e7sGSWIaKMpjGkwCL0SJ+dMGHCb8H/2T7PsxzL8zoEIeshnRShyvqpLWR7999/v2+f/SCllBmJ7B/7yf6y35UqVXJXEXeR1wwaNMi3jwOJI3mgolYIIYTILyQahRD5hURjGkKDGOoXcfNwCXHzqGtESM6aNStMnjzZu68iABFduHMIy8idxL3DxcPNq1u3rjuTpHsylqJMmTIu3ooWLeppoKSDFihQIFx22WUZgsejdFGWL1GiRChdurSvp0qVKr5e1h/vGjJyJHINe/fu7Y4j40gQnuw3aaYcB8cT74JyvKna8EcIIUR6INEohMgvJBpFllA/iCtJjSPpqIgyxNlzzz3nYg3RhnhDTLZv397dPRrKMKoCFxDnktpJ3MBrrrkmQ/A4z7McyzPWgtezHhr2sN54cch2SbOdNGlSmD17tgtD3EPNphRCCJEOSDQKIfILiUaRLTSDoc6Q5jC4ddQbItJoRoNTuXnz5rBp0yZvlsPcQ77QqEXE4UNwUi9IIO6I1atXe/Dv6DmWY3mC17Me1sd6WT/bYXtsl+2zHz/88IPvl5rVCCGESBckGoUQ+YVEoxBCCCFEEiDRKITILyQahRBCCCGSAIlGIUR+IdEohBBCCJEESDQKIfILiUYhhBBCiCRAolEIkV9INAohhBBCJAESjUKI/EKiUQghhBAiCZBoFELkFxKNQgghhBBJgESjECK/kGgUQgghhEgCJBqFEPmFRKMQQgghRBIg0SiEyC8kGoUQQgghkgCJRiFEfiHRKIQQQgiRBEg0CiHyCxeN1apVC5988knsT5IQQgghhEg0Nm7cGJo2bSrRKIQ46LhovOaaa8KGDRtif5KEEEIIIUSisWvXrtCqVSuJRiHEQcdFY/ny5cOMGTPCunXrFAqFQqFQKBQJGIsWLQp16tSRaBRCHHRcNJ5yyimhRo0anievUCgUCoVCoUi8QDCeddZZEo1CiIOOi0aL6A+QQqFQKBQKhSKh4w/h/wdTU8bmQHVDJgAAAABJRU5ErkJggg==;" vertex="1" parent="1">
          <mxGeometry x="750" y="39.92999999999995" width="549" height="590.07" as="geometry" />
        </mxCell>
        <mxCell id="hUyvxh-QdmBpuI1MM9Y--2" value="" style="rounded=0;whiteSpace=wrap;html=1;" vertex="1" parent="1">
          <mxGeometry x="290" y="40" width="380" height="520" as="geometry" />
        </mxCell>
        <mxCell id="hUyvxh-QdmBpuI1MM9Y--14" style="edgeStyle=orthogonalEdgeStyle;rounded=0;orthogonalLoop=1;jettySize=auto;html=1;entryX=0;entryY=0.5;entryDx=0;entryDy=0;" edge="1" parent="1" source="hUyvxh-QdmBpuI1MM9Y--3" target="hUyvxh-QdmBpuI1MM9Y--5">
          <mxGeometry relative="1" as="geometry" />
        </mxCell>
        <mxCell id="hUyvxh-QdmBpuI1MM9Y--15" style="edgeStyle=orthogonalEdgeStyle;rounded=0;orthogonalLoop=1;jettySize=auto;html=1;entryX=0;entryY=0.5;entryDx=0;entryDy=0;" edge="1" parent="1" source="hUyvxh-QdmBpuI1MM9Y--3" target="hUyvxh-QdmBpuI1MM9Y--7">
          <mxGeometry relative="1" as="geometry" />
        </mxCell>
        <mxCell id="hUyvxh-QdmBpuI1MM9Y--16" style="edgeStyle=orthogonalEdgeStyle;rounded=0;orthogonalLoop=1;jettySize=auto;html=1;entryX=0;entryY=0.5;entryDx=0;entryDy=0;" edge="1" parent="1" source="hUyvxh-QdmBpuI1MM9Y--3" target="hUyvxh-QdmBpuI1MM9Y--9">
          <mxGeometry relative="1" as="geometry" />
        </mxCell>
        <mxCell id="hUyvxh-QdmBpuI1MM9Y--3" value="User" style="shape=umlActor;verticalLabelPosition=bottom;verticalAlign=top;html=1;outlineConnect=0;" vertex="1" parent="1">
          <mxGeometry x="180" y="90" width="30" height="60" as="geometry" />
        </mxCell>
        <mxCell id="hUyvxh-QdmBpuI1MM9Y--4" value="App" style="text;html=1;strokeColor=none;fillColor=none;align=center;verticalAlign=middle;whiteSpace=wrap;rounded=0;" vertex="1" parent="1">
          <mxGeometry x="450" y="40" width="60" height="30" as="geometry" />
        </mxCell>
        <mxCell id="hUyvxh-QdmBpuI1MM9Y--12" value="" style="edgeStyle=orthogonalEdgeStyle;rounded=0;orthogonalLoop=1;jettySize=auto;html=1;" edge="1" parent="1" source="hUyvxh-QdmBpuI1MM9Y--5" target="hUyvxh-QdmBpuI1MM9Y--6">
          <mxGeometry relative="1" as="geometry" />
        </mxCell>
        <mxCell id="hUyvxh-QdmBpuI1MM9Y--5" value="Wanderwege suchen" style="ellipse;whiteSpace=wrap;html=1;" vertex="1" parent="1">
          <mxGeometry x="330" y="80" width="120" height="80" as="geometry" />
        </mxCell>
        <mxCell id="hUyvxh-QdmBpuI1MM9Y--6" value="Wanderwege navigieren" style="ellipse;whiteSpace=wrap;html=1;" vertex="1" parent="1">
          <mxGeometry x="520" y="80" width="120" height="80" as="geometry" />
        </mxCell>
        <mxCell id="hUyvxh-QdmBpuI1MM9Y--11" value="" style="edgeStyle=orthogonalEdgeStyle;rounded=0;orthogonalLoop=1;jettySize=auto;html=1;" edge="1" parent="1" source="hUyvxh-QdmBpuI1MM9Y--7" target="hUyvxh-QdmBpuI1MM9Y--8">
          <mxGeometry relative="1" as="geometry" />
        </mxCell>
        <mxCell id="hUyvxh-QdmBpuI1MM9Y--13" style="edgeStyle=orthogonalEdgeStyle;rounded=0;orthogonalLoop=1;jettySize=auto;html=1;entryX=0;entryY=0.5;entryDx=0;entryDy=0;" edge="1" parent="1" source="hUyvxh-QdmBpuI1MM9Y--7" target="hUyvxh-QdmBpuI1MM9Y--10">
          <mxGeometry relative="1" as="geometry" />
        </mxCell>
        <mxCell id="hUyvxh-QdmBpuI1MM9Y--7" value="Wander-Modi&lt;span style=&quot;color: rgba(0, 0, 0, 0); font-family: monospace; font-size: 0px; text-align: start;&quot;&gt;%3CmxGraphModel%3E%3Croot%3E%3CmxCell%20id%3D%220%22%2F%3E%3CmxCell%20id%3D%221%22%20parent%3D%220%22%2F%3E%3CmxCell%20id%3D%222%22%20value%3D%22Wanderwege%20suchen%22%20style%3D%22ellipse%3BwhiteSpace%3Dwrap%3Bhtml%3D1%3B%22%20vertex%3D%221%22%20parent%3D%221%22%3E%3CmxGeometry%20x%3D%22310%22%20y%3D%2270%22%20width%3D%22120%22%20height%3D%2280%22%20as%3D%22geometry%22%2F%3E%3C%2FmxCell%3E%3C%2Froot%3E%3C%2FmxGraphModel%3E&lt;/span&gt;" style="ellipse;whiteSpace=wrap;html=1;" vertex="1" parent="1">
          <mxGeometry x="330" y="170" width="120" height="80" as="geometry" />
        </mxCell>
        <mxCell id="hUyvxh-QdmBpuI1MM9Y--8" value="interessante Informationen anzeigen" style="ellipse;whiteSpace=wrap;html=1;" vertex="1" parent="1">
          <mxGeometry x="520" y="170" width="120" height="80" as="geometry" />
        </mxCell>
        <mxCell id="hUyvxh-QdmBpuI1MM9Y--9" value="Routen hoch/herunterladen" style="ellipse;whiteSpace=wrap;html=1;" vertex="1" parent="1">
          <mxGeometry x="330" y="260" width="120" height="80" as="geometry" />
        </mxCell>
        <mxCell id="hUyvxh-QdmBpuI1MM9Y--10" value="spezielle Punkte hervorheben" style="ellipse;whiteSpace=wrap;html=1;" vertex="1" parent="1">
          <mxGeometry x="520" y="260" width="120" height="80" as="geometry" />
        </mxCell>
        <mxCell id="hUyvxh-QdmBpuI1MM9Y--25" style="edgeStyle=orthogonalEdgeStyle;rounded=0;orthogonalLoop=1;jettySize=auto;html=1;entryX=0;entryY=0.5;entryDx=0;entryDy=0;" edge="1" parent="1" source="hUyvxh-QdmBpuI1MM9Y--17" target="hUyvxh-QdmBpuI1MM9Y--23">
          <mxGeometry relative="1" as="geometry">
            <Array as="points">
              <mxPoint x="250" y="310" />
              <mxPoint x="250" y="390" />
            </Array>
          </mxGeometry>
        </mxCell>
        <mxCell id="hUyvxh-QdmBpuI1MM9Y--17" value="registrierter User" style="shape=umlActor;verticalLabelPosition=bottom;verticalAlign=top;html=1;outlineConnect=0;" vertex="1" parent="1">
          <mxGeometry x="180" y="270" width="30" height="60" as="geometry" />
        </mxCell>
        <mxCell id="hUyvxh-QdmBpuI1MM9Y--26" style="edgeStyle=orthogonalEdgeStyle;rounded=0;orthogonalLoop=1;jettySize=auto;html=1;entryX=0;entryY=0.5;entryDx=0;entryDy=0;" edge="1" parent="1" source="hUyvxh-QdmBpuI1MM9Y--18" target="hUyvxh-QdmBpuI1MM9Y--24">
          <mxGeometry relative="1" as="geometry">
            <Array as="points">
              <mxPoint x="220" y="480" />
              <mxPoint x="220" y="480" />
            </Array>
          </mxGeometry>
        </mxCell>
        <mxCell id="hUyvxh-QdmBpuI1MM9Y--18" value="Admin" style="shape=umlActor;verticalLabelPosition=bottom;verticalAlign=top;html=1;outlineConnect=0;" vertex="1" parent="1">
          <mxGeometry x="180" y="450" width="30" height="60" as="geometry" />
        </mxCell>
        <mxCell id="hUyvxh-QdmBpuI1MM9Y--20" value="Generalisierung" style="endArrow=block;dashed=1;endFill=0;endSize=12;html=1;rounded=0;exitX=0.5;exitY=0;exitDx=0;exitDy=0;exitPerimeter=0;" edge="1" parent="1" source="hUyvxh-QdmBpuI1MM9Y--17">
          <mxGeometry width="160" relative="1" as="geometry">
            <mxPoint x="660" y="190" as="sourcePoint" />
            <mxPoint x="195" y="170" as="targetPoint" />
          </mxGeometry>
        </mxCell>
        <mxCell id="hUyvxh-QdmBpuI1MM9Y--21" value="Generalisierung" style="endArrow=block;dashed=1;endFill=0;endSize=12;html=1;rounded=0;exitX=0.5;exitY=0;exitDx=0;exitDy=0;exitPerimeter=0;" edge="1" parent="1" source="hUyvxh-QdmBpuI1MM9Y--18">
          <mxGeometry width="160" relative="1" as="geometry">
            <mxPoint x="250" y="400" as="sourcePoint" />
            <mxPoint x="195" y="360" as="targetPoint" />
          </mxGeometry>
        </mxCell>
        <mxCell id="hUyvxh-QdmBpuI1MM9Y--23" value="Routen Bewertung &amp;amp; Errungenschaften" style="ellipse;whiteSpace=wrap;html=1;" vertex="1" parent="1">
          <mxGeometry x="330" y="350" width="120" height="80" as="geometry" />
        </mxCell>
        <mxCell id="hUyvxh-QdmBpuI1MM9Y--24" value="Routen bestätigen" style="ellipse;whiteSpace=wrap;html=1;" vertex="1" parent="1">
          <mxGeometry x="330" y="440" width="120" height="80" as="geometry" />
        </mxCell>
      </root>
    </mxGraphModel>
  </diagram>
</mxfile>
